<svg width="16" height="12" viewBox="0 0 16 12" fill="none" xmlns="http://www.w3.org/2000/svg">
<path d="M3.92146 7.13764H14.8263C15.1455 7.13764 15.4149 7.02785 15.6345 6.80829C15.8541 6.58872 15.9639 6.31934 15.9639 6.00014C15.9639 5.68094 15.8541 5.41155 15.6345 5.19199C15.4149 4.97242 15.1455 4.86264 14.8263 4.86264H3.92146L6.55026 2.23384C6.77417 2.00992 6.88296 1.7447 6.87661 1.43819C6.87028 1.13165 6.76149 0.866436 6.55026 0.642536C6.32634 0.418619 6.05795 0.303486 5.74508 0.297136C5.43223 0.290803 5.16385 0.399594 4.93993 0.623511L0.358958 5.19851C0.246992 5.31046 0.165192 5.43474 0.113559 5.57134C0.0619423 5.70792 0.0361328 5.85085 0.0361328 6.00014C0.0361328 6.14942 0.0619423 6.29235 0.113559 6.42894C0.165192 6.56554 0.246992 6.68981 0.358958 6.80176L4.93993 11.3768C5.16385 11.6007 5.43223 11.7095 5.74508 11.7031C6.05795 11.6968 6.32634 11.5817 6.55026 11.3577C6.76149 11.1338 6.87028 10.8686 6.87661 10.5621C6.88296 10.2556 6.77417 9.99035 6.55026 9.76644L3.92146 7.13764Z" fill="#161616"/>
</svg>
