<svg width="119" height="32" viewBox="0 0 119 32" fill="none" xmlns="http://www.w3.org/2000/svg">
<path d="M104.236 32C103.682 32 103.234 31.5514 103.234 30.9979V29.6377C103.234 29.0842 103.682 28.6356 104.236 28.6356H113.514C114.212 28.6356 114.561 28.2617 114.561 27.5141V22.1951C114.561 21.9944 114.398 21.8318 114.198 21.8318C114.055 21.8318 113.926 21.9163 113.86 22.0429C113.637 22.4677 113.322 22.8833 112.916 23.2898C112.467 23.7384 111.857 24.1122 111.084 24.4113C110.312 24.7103 109.34 24.8599 108.168 24.8599C106.773 24.8599 105.527 24.5483 104.43 23.9253C103.333 23.3022 102.474 22.4175 101.851 21.2711C101.228 20.1247 100.916 18.7664 100.916 17.1963V7.09561C100.916 6.54216 101.365 6.09351 101.918 6.09351H103.764C104.318 6.09351 104.766 6.54216 104.766 7.09561V16.8972C104.766 18.4923 105.165 19.6761 105.963 20.4486C106.76 21.1963 107.869 21.5701 109.29 21.5701C110.86 21.5701 112.119 21.0468 113.066 20C114.038 18.9533 114.523 17.4331 114.523 15.4393V7.09561C114.523 6.54216 114.972 6.09351 115.526 6.09351H117.372C117.925 6.09351 118.374 6.54216 118.374 7.09561V28.2991C118.374 29.4206 118.038 30.3178 117.365 30.9907C116.717 31.6636 115.819 32 114.673 32H104.236Z" fill="#2B393B"/>
<path d="M93.3854 24.5234C92.2639 24.5234 91.3667 24.1869 90.6938 23.514C90.0458 22.8411 89.7218 21.9439 89.7218 20.8224V10.3479C89.7218 9.79445 89.2731 9.34579 88.7197 9.34579H85.6398C85.0864 9.34579 84.6377 8.89713 84.6377 8.34368V7.09556C84.6377 6.54211 85.0864 6.09346 85.6398 6.09346H88.7197C89.2731 6.09346 89.7218 5.6448 89.7218 5.09135V1.00211C89.7218 0.448658 90.1705 0 90.7239 0H92.5702C93.1236 0 93.5723 0.448658 93.5723 1.00211V5.09135C93.5723 5.6448 94.0209 6.09346 94.5744 6.09346H98.0655C98.6189 6.09346 99.0676 6.54211 99.0676 7.09556V8.34368C99.0676 8.89713 98.6189 9.34579 98.0655 9.34579H94.5744C94.0209 9.34579 93.5723 9.79445 93.5723 10.3479V20.1495C93.5723 20.8972 93.9212 21.271 94.619 21.271H97.4674C98.0208 21.271 98.4695 21.7197 98.4695 22.2731V23.5212C98.4695 24.0747 98.0208 24.5234 97.4674 24.5234H93.3854Z" fill="#2B393B"/>
<path d="M74.1359 24.5233C73.5824 24.5233 73.1338 24.0747 73.1338 23.5212V7.09555C73.1338 6.54211 73.5824 6.09344 74.1359 6.09344H75.9074C76.4608 6.09344 76.9095 6.5421 76.9095 7.09555V7.90674C76.9095 8.10276 77.0684 8.26167 77.2644 8.26167C77.411 8.26167 77.5411 8.17083 77.602 8.0375C77.9026 7.37967 78.3446 6.89364 78.9282 6.57943C79.6011 6.20559 80.4235 6.01868 81.3955 6.01868H82.599C83.1524 6.01868 83.6011 6.46734 83.6011 7.02078V8.49321C83.6011 9.04665 83.1524 9.49531 82.599 9.49531H81.2459C79.9998 9.49531 78.978 9.84422 78.1805 10.542C77.383 11.2149 76.9843 12.2617 76.9843 13.6822V23.5212C76.9843 24.0747 76.5356 24.5233 75.9821 24.5233H74.1359Z" fill="#2B393B"/>
<path d="M61.9942 25.0467C60.1251 25.0467 58.4927 24.6604 57.097 23.8878C55.7014 23.0903 54.6048 21.9813 53.8073 20.5607C53.0347 19.1152 52.6484 17.4455 52.6484 15.5514V15.1028C52.6484 13.1838 53.0347 11.514 53.8073 10.0934C54.5799 8.64795 55.6516 7.53891 57.0223 6.76633C58.4179 5.96882 60.0254 5.57007 61.8447 5.57007C63.6142 5.57007 65.1593 5.96882 66.4802 6.76633C67.826 7.53891 68.8727 8.62303 69.6204 10.0187C70.3681 11.4143 70.7419 13.0467 70.7419 14.9159V15.3717C70.7419 15.9251 70.2932 16.3738 69.7398 16.3738H57.6071C57.0416 16.3738 56.5782 16.8444 56.6781 17.4011C56.8843 18.5511 57.3853 19.5046 58.1811 20.2616C59.2279 21.2087 60.5238 21.6822 62.069 21.6822C63.5145 21.6822 64.5986 21.3582 65.3213 20.7102C65.7914 20.3028 66.1926 19.856 66.5248 19.3697C66.8453 18.9004 67.4605 18.6844 67.9652 18.9457L69.341 19.6579C69.8276 19.9098 70.0239 20.5083 69.7229 20.9662C69.4356 21.4033 69.0899 21.8537 68.6858 22.3177C68.0378 23.0903 67.178 23.7383 66.1064 24.2616C65.0347 24.785 63.664 25.0467 61.9942 25.0467ZM56.869 12.2957C56.6787 12.875 57.1567 13.4205 57.7665 13.4205H65.7404C66.322 13.4205 66.7934 12.9221 66.6488 12.3588C66.4189 11.4625 65.9764 10.7323 65.3213 10.1682C64.4241 9.37069 63.2528 8.97194 61.8073 8.97194C60.3618 8.97194 59.178 9.37069 58.2559 10.1682C57.6163 10.719 57.154 11.4282 56.869 12.2957Z" fill="#2B393B"/>
<path d="M29.2653 24.5234C28.7768 24.5234 28.3595 24.1712 28.2774 23.6896L25.4787 7.26393C25.3745 6.65204 25.8459 6.09351 26.4666 6.09351H28.2635C28.761 6.09351 29.1831 6.45841 29.2551 6.95062L31.403 21.6398C31.4286 21.8145 31.5784 21.944 31.7549 21.944C31.9241 21.944 32.0698 21.8248 32.1034 21.659L35.0977 6.89641C35.1925 6.42926 35.6032 6.09351 36.0799 6.09351H40.6824C41.16 6.09351 41.5711 6.43044 41.665 6.89864L44.6239 21.6586C44.6572 21.8245 44.803 21.944 44.9722 21.944C45.1486 21.944 45.2982 21.8146 45.3237 21.6401L47.4717 6.95062C47.5437 6.45841 47.9658 6.09351 48.4633 6.09351H50.2602C50.8809 6.09351 51.3523 6.65204 51.2481 7.26393L48.4494 23.6896C48.3673 24.1712 47.95 24.5234 47.4615 24.5234H42.6608C42.1835 24.5234 41.7724 24.1867 41.6783 23.7187L38.7214 9.00353C38.6871 8.83301 38.5373 8.71033 38.3634 8.71033C38.1895 8.71033 38.0397 8.83301 38.0054 9.00353L35.0485 23.7187C34.9544 24.1867 34.5433 24.5234 34.066 24.5234H29.2653Z" fill="#2B393B"/>
<path fill-rule="evenodd" clip-rule="evenodd" d="M18.5315 3.46393C18.5315 2.35704 17.6341 1.45972 16.5272 1.45972H6.8385C5.7316 1.45972 4.83429 2.35703 4.83429 3.46393V4.08838C4.83429 5.19528 3.93697 6.0926 2.83007 6.0926H2.00421C0.897317 6.0926 0 6.98991 0 8.09681V17.7856C0 18.8925 0.897317 19.7898 2.00421 19.7898H2.83008C3.93698 19.7898 4.83429 20.6871 4.83429 21.794L4.83429 22.5191C4.83429 23.626 5.73161 24.5234 6.8385 24.5234H15.7215C16.8284 24.5234 17.7257 23.626 17.7257 22.5191V21.6933C17.7257 20.5864 16.8284 19.6891 15.7215 19.6891H6.8385C5.73161 19.6891 4.83429 18.7917 4.83429 17.6849L4.83429 8.29822C4.83429 7.19133 5.73161 6.29401 6.83851 6.29401H16.5272C17.6341 6.29401 18.5315 7.19133 18.5315 8.29823L18.5315 16.9799C18.5314 18.0868 19.4288 18.9841 20.5357 18.9841H21.3615C22.4684 18.9841 23.3657 18.0868 23.3657 16.9799L23.3657 8.09683C23.3657 6.98993 22.4684 6.09261 21.3615 6.09261H20.5357C19.4288 6.09261 18.5315 5.1953 18.5315 4.0884L18.5315 3.46393Z" fill="#2B393B"/>
</svg>
