<svg width="150" height="150" viewBox="0 0 150 150" fill="none" xmlns="http://www.w3.org/2000/svg">
<path fill-rule="evenodd" clip-rule="evenodd" d="M0 75C0 33.5786 33.5786 0 75 0C116.421 0 150 33.5786 150 75C150 116.421 116.421 150 75 150C33.5786 150 0 116.421 0 75ZM10.19 58C9.53274 58 9 58.5328 9 59.19V63.61C9 64.2672 9.53274 64.8 10.19 64.8H14.61C15.2673 64.8 15.8 65.3328 15.8 65.99V70.41C15.8 71.0673 15.2673 71.6 14.61 71.6H10.19C9.53274 71.6 9 72.1328 9 72.79V74.507C9 74.8312 9.12966 75.1252 9.34 75.3398L15.4602 81.46C15.6748 81.6703 15.9688 81.8 16.293 81.8H23.45C24.1073 81.8 24.64 82.3328 24.64 82.99V84.01C24.64 84.6673 24.1073 85.2 23.45 85.2H10.19C9.53274 85.2 9 85.7328 9 86.39V90.81C9 91.4672 9.53274 92 10.19 92H28.21C28.8673 92 29.4 91.4672 29.4 90.81V86.39C29.4 85.7327 29.9327 85.2 30.59 85.2H35.01C35.6673 85.2 36.2 85.7328 36.2 86.39V90.81C36.2 91.4672 36.7327 92 37.39 92H41.81C42.4673 92 43 91.4672 43 90.81V86.39C43 85.7328 42.4673 85.2 41.81 85.2H37.39C36.7327 85.2 36.2 84.6672 36.2 84.01V82.293C36.2 81.9688 36.0703 81.6748 35.86 81.4602L29.7398 75.34C29.5252 75.1297 29.2312 75 28.907 75H21.75C21.0927 75 20.56 74.4672 20.56 73.81V72.79C20.56 72.1327 21.0927 71.6 21.75 71.6H35.01C35.6673 71.6 36.2 71.0672 36.2 70.41V65.99C36.2 65.3328 35.6673 64.8 35.01 64.8H16.99C16.3327 64.8 15.8 64.2672 15.8 63.61V59.19C15.8 58.5328 15.2673 58 14.61 58H10.19ZM75.0001 14C99.39 14 120.437 28.3142 130.198 49H134.592C124.561 26.0432 101.654 10 75.0001 10C48.346 10 25.4389 26.0432 15.4087 49H19.8027C29.5635 28.3142 50.6102 14 75.0001 14ZM75.0001 136C50.6102 136 29.5635 121.686 19.8027 101H15.4087C25.4389 123.957 48.346 140 75.0001 140C101.654 140 124.561 123.957 134.592 101H130.198C120.437 121.686 99.39 136 75.0001 136Z" fill="#FB5108"/>
<path d="M45.2683 92L57.0443 59.8H63.2083L74.9843 92H69.1423L60.0803 66.24L51.0183 92H45.2683ZM50.5123 84.41L51.9843 80.04H67.8543L69.3263 84.41H50.5123ZM77.5736 92V59.8H84.1056L94.4096 80.592L104.622 59.8H111.2V92H105.68V69.276L96.5716 87.492H92.2476L83.0936 69.322V92H77.5736ZM115.894 92V59.8H126.29C130.031 59.8 133.113 60.4593 135.536 61.778C137.989 63.0967 139.798 64.9673 140.964 67.39C142.16 69.782 142.758 72.634 142.758 75.946C142.758 79.1967 142.16 82.0333 140.964 84.456C139.798 86.848 137.989 88.7033 135.536 90.022C133.113 91.3407 130.031 92 126.29 92H115.894ZM121.414 87.308H126.014C128.804 87.308 130.997 86.8633 132.592 85.974C134.217 85.054 135.367 83.7507 136.042 82.064C136.747 80.3467 137.1 78.3073 137.1 75.946C137.1 73.554 136.747 71.5147 136.042 69.828C135.367 68.1107 134.217 66.792 132.592 65.872C130.997 64.9213 128.804 64.446 126.014 64.446H121.414V87.308Z" fill="white"/>
</svg>
