<svg width="150" height="150" viewBox="0 0 150 150" fill="none" xmlns="http://www.w3.org/2000/svg">
<path fill-rule="evenodd" clip-rule="evenodd" d="M0 75C0 33.5786 33.5786 0 75 0C116.421 0 150 33.5786 150 75C150 116.421 116.421 150 75 150C33.5786 150 0 116.421 0 75ZM10.19 58C9.53274 58 9 58.5328 9 59.19V63.61C9 64.2672 9.53274 64.8 10.19 64.8H14.61C15.2673 64.8 15.8 65.3328 15.8 65.99V70.41C15.8 71.0673 15.2673 71.6 14.61 71.6H10.19C9.53274 71.6 9 72.1328 9 72.79V74.507C9 74.8312 9.12966 75.1252 9.34 75.3398L15.4602 81.46C15.6748 81.6703 15.9688 81.8 16.293 81.8H23.45C24.1073 81.8 24.64 82.3328 24.64 82.99V84.01C24.64 84.6673 24.1073 85.2 23.45 85.2H10.19C9.53274 85.2 9 85.7328 9 86.39V90.81C9 91.4672 9.53274 92 10.19 92H28.21C28.8673 92 29.4 91.4672 29.4 90.81V86.39C29.4 85.7327 29.9327 85.2 30.59 85.2H35.01C35.6673 85.2 36.2 85.7328 36.2 86.39V90.81C36.2 91.4672 36.7327 92 37.39 92H41.81C42.4673 92 43 91.4672 43 90.81V86.39C43 85.7328 42.4673 85.2 41.81 85.2H37.39C36.7327 85.2 36.2 84.6672 36.2 84.01V82.293C36.2 81.9688 36.0703 81.6748 35.86 81.4602L29.7398 75.34C29.5252 75.1297 29.2312 75 28.907 75H21.75C21.0927 75 20.56 74.4672 20.56 73.81V72.79C20.56 72.1327 21.0927 71.6 21.75 71.6H35.01C35.6673 71.6 36.2 71.0672 36.2 70.41V65.99C36.2 65.3328 35.6673 64.8 35.01 64.8H16.99C16.3327 64.8 15.8 64.2672 15.8 63.61V59.19C15.8 58.5328 15.2673 58 14.61 58H10.19ZM75.0001 14C99.39 14 120.437 28.3142 130.198 49H134.592C124.561 26.0432 101.654 10 75.0001 10C48.346 10 25.4389 26.0432 15.4087 49H19.8027C29.5635 28.3142 50.6102 14 75.0001 14ZM75.0001 136C50.6102 136 29.5635 121.686 19.8027 101H15.4087C25.4389 123.957 48.346 140 75.0001 140C101.654 140 124.561 123.957 134.592 101H130.198C120.437 121.686 99.39 136 75.0001 136Z" fill="#FB5108"/>
<path d="M47.2 92L58.976 59.8H65.14L76.916 92H71.074L62.012 66.24L52.95 92H47.2ZM52.444 84.41L53.916 80.04H69.786L71.258 84.41H52.444ZM79.5053 92V59.8H85.0253L100.527 83.076V59.8H106.047V92H100.527L85.0253 68.77V92H79.5053ZM124.713 92.552C121.677 92.552 119.009 91.862 116.709 90.482C114.44 89.102 112.676 87.1853 111.419 84.732C110.162 82.248 109.533 79.35 109.533 76.038C109.533 72.7567 110.177 69.8587 111.465 67.344C112.753 64.7987 114.593 62.8207 116.985 61.41C119.408 59.9687 122.275 59.248 125.587 59.248C129.328 59.248 132.426 60.1527 134.879 61.962C137.363 63.7407 138.973 66.2247 139.709 69.414H133.499C133.039 67.8193 132.134 66.5773 130.785 65.688C129.436 64.7987 127.688 64.354 125.541 64.354C123.364 64.354 121.493 64.8293 119.929 65.78C118.396 66.7 117.215 68.0493 116.387 69.828C115.59 71.576 115.191 73.6613 115.191 76.084C115.191 78.5067 115.59 80.592 116.387 82.34C117.215 84.088 118.38 85.422 119.883 86.342C121.386 87.2313 123.149 87.676 125.173 87.676C128.178 87.676 130.448 86.8327 131.981 85.146C133.514 83.4593 134.419 81.2667 134.695 78.568H126.369V74.382H140.261V92H135.201L134.741 87.584C134.036 88.6267 133.223 89.5313 132.303 90.298C131.383 91.034 130.294 91.6013 129.037 92C127.81 92.368 126.369 92.552 124.713 92.552Z" fill="white"/>
</svg>
