<svg width="150" height="150" viewBox="0 0 150 150" fill="none" xmlns="http://www.w3.org/2000/svg">
<path fill-rule="evenodd" clip-rule="evenodd" d="M0 75C0 33.5786 33.5786 0 75 0C116.421 0 150 33.5786 150 75C150 116.421 116.421 150 75 150C33.5786 150 0 116.421 0 75ZM10.19 58C9.53274 58 9 58.5328 9 59.19V63.61C9 64.2672 9.53274 64.8 10.19 64.8H14.61C15.2673 64.8 15.8 65.3328 15.8 65.99V70.41C15.8 71.0673 15.2673 71.6 14.61 71.6H10.19C9.53274 71.6 9 72.1328 9 72.79V74.507C9 74.8312 9.12966 75.1252 9.34 75.3398L15.4602 81.46C15.6748 81.6703 15.9688 81.8 16.293 81.8H23.45C24.1073 81.8 24.64 82.3328 24.64 82.99V84.01C24.64 84.6673 24.1073 85.2 23.45 85.2H10.19C9.53274 85.2 9 85.7328 9 86.39V90.81C9 91.4672 9.53274 92 10.19 92H28.21C28.8673 92 29.4 91.4672 29.4 90.81V86.39C29.4 85.7327 29.9327 85.2 30.59 85.2H35.01C35.6673 85.2 36.2 85.7328 36.2 86.39V90.81C36.2 91.4672 36.7327 92 37.39 92H41.81C42.4673 92 43 91.4672 43 90.81V86.39C43 85.7328 42.4673 85.2 41.81 85.2H37.39C36.7327 85.2 36.2 84.6672 36.2 84.01V82.293C36.2 81.9688 36.0703 81.6748 35.86 81.4602L29.7398 75.34C29.5252 75.1297 29.2312 75 28.907 75H21.75C21.0927 75 20.56 74.4672 20.56 73.81V72.79C20.56 72.1327 21.0927 71.6 21.75 71.6H35.01C35.6673 71.6 36.2 71.0672 36.2 70.41V65.99C36.2 65.3328 35.6673 64.8 35.01 64.8H16.99C16.3327 64.8 15.8 64.2672 15.8 63.61V59.19C15.8 58.5328 15.2673 58 14.61 58H10.19ZM75.0001 14C99.39 14 120.437 28.3142 130.198 49H134.592C124.561 26.0432 101.654 10 75.0001 10C48.346 10 25.4389 26.0432 15.4087 49H19.8027C29.5635 28.3142 50.6102 14 75.0001 14ZM75.0001 136C50.6102 136 29.5635 121.686 19.8027 101H15.4087C25.4389 123.957 48.346 140 75.0001 140C101.654 140 124.561 123.957 134.592 101H130.198C120.437 121.686 99.39 136 75.0001 136Z" fill="#FB5108"/>
<path d="M46.6285 92L58.4045 59.8H64.5685L76.3445 92H70.5025L61.4405 66.24L52.3785 92H46.6285ZM51.8725 84.41L53.3445 80.04H69.2145L70.6865 84.41H51.8725ZM93.606 92.552C90.5087 92.552 87.764 91.862 85.372 90.482C83.0107 89.0713 81.1553 87.124 79.806 84.64C78.4567 82.1253 77.782 79.212 77.782 75.9C77.782 72.6187 78.4567 69.736 79.806 67.252C81.1553 64.7373 83.0107 62.7747 85.372 61.364C87.764 59.9533 90.5087 59.248 93.606 59.248C96.7647 59.248 99.54 59.9533 101.932 61.364C104.324 62.7747 106.179 64.7373 107.498 67.252C108.817 69.736 109.476 72.6187 109.476 75.9C109.476 79.212 108.817 82.1253 107.498 84.64C106.179 87.124 104.324 89.0713 101.932 90.482C99.54 91.862 96.7647 92.552 93.606 92.552ZM93.652 87.584C95.7067 87.584 97.5007 87.124 99.034 86.204C100.567 85.2533 101.748 83.904 102.576 82.156C103.404 80.408 103.818 78.3227 103.818 75.9C103.818 73.4773 103.404 71.392 102.576 69.644C101.748 67.896 100.567 66.562 99.034 65.642C97.5007 64.6913 95.7067 64.216 93.652 64.216C91.5973 64.216 89.8033 64.6913 88.27 65.642C86.7367 66.562 85.5407 67.896 84.682 69.644C83.854 71.392 83.44 73.4773 83.44 75.9C83.44 78.3227 83.854 80.408 84.682 82.156C85.5407 83.904 86.7367 85.2533 88.27 86.204C89.8033 87.124 91.5973 87.584 93.652 87.584ZM110.642 92L122.418 59.8H128.582L140.358 92H134.516L125.454 66.24L116.392 92H110.642ZM115.886 84.41L117.358 80.04H133.228L134.7 84.41H115.886Z" fill="white"/>
</svg>
