<svg width="150" height="150" viewBox="0 0 150 150" fill="none" xmlns="http://www.w3.org/2000/svg">
<path fill-rule="evenodd" clip-rule="evenodd" d="M0 75C0 33.5786 33.5786 0 75 0C116.421 0 150 33.5786 150 75C150 116.421 116.421 150 75 150C33.5786 150 0 116.421 0 75ZM10.19 58C9.53274 58 9 58.5328 9 59.19V63.61C9 64.2672 9.53274 64.8 10.19 64.8H14.61C15.2673 64.8 15.8 65.3328 15.8 65.99V70.41C15.8 71.0673 15.2673 71.6 14.61 71.6H10.19C9.53274 71.6 9 72.1328 9 72.79V74.507C9 74.8312 9.12966 75.1252 9.34 75.3398L15.4602 81.46C15.6748 81.6703 15.9688 81.8 16.293 81.8H23.45C24.1073 81.8 24.64 82.3328 24.64 82.99V84.01C24.64 84.6673 24.1073 85.2 23.45 85.2H10.19C9.53274 85.2 9 85.7328 9 86.39V90.81C9 91.4672 9.53274 92 10.19 92H28.21C28.8673 92 29.4 91.4672 29.4 90.81V86.39C29.4 85.7327 29.9327 85.2 30.59 85.2H35.01C35.6673 85.2 36.2 85.7328 36.2 86.39V90.81C36.2 91.4672 36.7327 92 37.39 92H41.81C42.4673 92 43 91.4672 43 90.81V86.39C43 85.7328 42.4673 85.2 41.81 85.2H37.39C36.7327 85.2 36.2 84.6672 36.2 84.01V82.293C36.2 81.9688 36.0703 81.6748 35.86 81.4602L29.7398 75.34C29.5252 75.1297 29.2312 75 28.907 75H21.75C21.0927 75 20.56 74.4672 20.56 73.81V72.79C20.56 72.1327 21.0927 71.6 21.75 71.6H35.01C35.6673 71.6 36.2 71.0672 36.2 70.41V65.99C36.2 65.3328 35.6673 64.8 35.01 64.8H16.99C16.3327 64.8 15.8 64.2672 15.8 63.61V59.19C15.8 58.5328 15.2673 58 14.61 58H10.19ZM75.0001 14C99.39 14 120.437 28.3142 130.198 49H134.592C124.561 26.0432 101.654 10 75.0001 10C48.346 10 25.4389 26.0432 15.4087 49H19.8027C29.5635 28.3142 50.6102 14 75.0001 14ZM75.0001 136C50.6102 136 29.5635 121.686 19.8027 101H15.4087C25.4389 123.957 48.346 140 75.0001 140C101.654 140 124.561 123.957 134.592 101H130.198C120.437 121.686 99.39 136 75.0001 136Z" fill="#FB5108"/>
<path d="M47.4229 93L60.2229 58H66.9229L79.7229 93H73.3729L63.5229 65L53.6729 93H47.4229ZM53.1229 84.75L54.7229 80H71.9729L73.5729 84.75H53.1229ZM84.5373 93V58H97.0873C99.854 58 102.137 58.4833 103.937 59.45C105.771 60.3833 107.121 61.65 107.987 63.25C108.887 64.8167 109.337 66.6 109.337 68.6C109.337 70.4667 108.904 72.2 108.037 73.8C107.171 75.4 105.821 76.6833 103.987 77.65C102.154 78.6167 99.804 79.1 96.9373 79.1H90.5373V93H84.5373ZM102.787 93L95.4373 77.55H101.937L109.637 93H102.787ZM90.5373 74.65H96.6873C98.9206 74.65 100.554 74.1167 101.587 73.05C102.654 71.95 103.187 70.5167 103.187 68.75C103.187 67.0167 102.671 65.6333 101.637 64.6C100.604 63.5333 98.954 63 96.6873 63H90.5373V74.65ZM127.293 93.6C124.76 93.6 122.51 93.15 120.543 92.25C118.576 91.35 117.043 90.0667 115.943 88.4C114.843 86.7333 114.276 84.75 114.243 82.45H120.593C120.593 83.6167 120.86 84.6667 121.393 85.6C121.96 86.5 122.726 87.2167 123.693 87.75C124.693 88.2833 125.893 88.55 127.293 88.55C128.493 88.55 129.526 88.3667 130.393 88C131.293 87.6 131.976 87.05 132.443 86.35C132.943 85.6167 133.193 84.7667 133.193 83.8C133.193 82.7 132.926 81.8 132.393 81.1C131.893 80.3667 131.193 79.75 130.293 79.25C129.393 78.75 128.36 78.3167 127.193 77.95C126.026 77.55 124.793 77.1333 123.493 76.7C120.726 75.7667 118.643 74.5833 117.243 73.15C115.843 71.6833 115.143 69.7333 115.143 67.3C115.143 65.2667 115.626 63.5167 116.593 62.05C117.56 60.5833 118.91 59.45 120.643 58.65C122.41 57.8167 124.443 57.4 126.743 57.4C129.076 57.4 131.11 57.8167 132.843 58.65C134.61 59.4833 135.993 60.65 136.993 62.15C138.026 63.6167 138.56 65.3833 138.593 67.45H132.193C132.16 66.5833 131.926 65.7833 131.493 65.05C131.06 64.2833 130.426 63.6667 129.593 63.2C128.793 62.7 127.81 62.45 126.643 62.45C125.643 62.4167 124.743 62.5833 123.943 62.95C123.176 63.2833 122.56 63.7833 122.093 64.45C121.66 65.0833 121.443 65.8833 121.443 66.85C121.443 67.7833 121.643 68.5667 122.043 69.2C122.476 69.8 123.093 70.3167 123.893 70.75C124.693 71.15 125.626 71.5333 126.693 71.9C127.76 72.2667 128.926 72.6667 130.193 73.1C131.926 73.6667 133.493 74.3667 134.893 75.2C136.326 76 137.46 77.05 138.293 78.35C139.126 79.65 139.543 81.3333 139.543 83.4C139.543 85.2 139.076 86.8833 138.143 88.45C137.21 89.9833 135.843 91.2333 134.043 92.2C132.243 93.1333 129.993 93.6 127.293 93.6Z" fill="white"/>
</svg>
