<svg width="150" height="150" viewBox="0 0 150 150" fill="none" xmlns="http://www.w3.org/2000/svg">
<path fill-rule="evenodd" clip-rule="evenodd" d="M0 75C0 33.5786 33.5786 0 75 0C116.421 0 150 33.5786 150 75C150 116.421 116.421 150 75 150C33.5786 150 0 116.421 0 75ZM10.19 58C9.53274 58 9 58.5328 9 59.19V63.61C9 64.2672 9.53274 64.8 10.19 64.8H14.61C15.2673 64.8 15.8 65.3328 15.8 65.99V70.41C15.8 71.0673 15.2673 71.6 14.61 71.6H10.19C9.53274 71.6 9 72.1328 9 72.79V74.507C9 74.8312 9.12966 75.1252 9.34 75.3398L15.4602 81.46C15.6748 81.6703 15.9688 81.8 16.293 81.8H23.45C24.1073 81.8 24.64 82.3328 24.64 82.99V84.01C24.64 84.6673 24.1073 85.2 23.45 85.2H10.19C9.53274 85.2 9 85.7328 9 86.39V90.81C9 91.4672 9.53274 92 10.19 92H28.21C28.8673 92 29.4 91.4672 29.4 90.81V86.39C29.4 85.7327 29.9327 85.2 30.59 85.2H35.01C35.6673 85.2 36.2 85.7328 36.2 86.39V90.81C36.2 91.4672 36.7327 92 37.39 92H41.81C42.4673 92 43 91.4672 43 90.81V86.39C43 85.7328 42.4673 85.2 41.81 85.2H37.39C36.7327 85.2 36.2 84.6672 36.2 84.01V82.293C36.2 81.9688 36.0703 81.6748 35.86 81.4602L29.7398 75.34C29.5252 75.1297 29.2312 75 28.907 75H21.75C21.0927 75 20.56 74.4672 20.56 73.81V72.79C20.56 72.1327 21.0927 71.6 21.75 71.6H35.01C35.6673 71.6 36.2 71.0672 36.2 70.41V65.99C36.2 65.3328 35.6673 64.8 35.01 64.8H16.99C16.3327 64.8 15.8 64.2672 15.8 63.61V59.19C15.8 58.5328 15.2673 58 14.61 58H10.19ZM75.0001 14C99.39 14 120.437 28.3142 130.198 49H134.592C124.561 26.0432 101.654 10 75.0001 10C48.346 10 25.4389 26.0432 15.4087 49H19.8027C29.5635 28.3142 50.6102 14 75.0001 14ZM75.0001 136C50.6102 136 29.5635 121.686 19.8027 101H15.4087C25.4389 123.957 48.346 140 75.0001 140C101.654 140 124.561 123.957 134.592 101H130.198C120.437 121.686 99.39 136 75.0001 136Z" fill="#FB5108"/>
<path d="M47.1617 92L58.9377 59.8H65.1017L76.8777 92H71.0357L61.9737 66.24L52.9117 92H47.1617ZM52.4057 84.41L53.8777 80.04H69.7477L71.2197 84.41H52.4057ZM92.1044 92.552C89.7738 92.552 87.6578 92.092 85.7564 91.172C83.8858 90.252 82.3831 88.8413 81.2484 86.94C80.1444 85.0387 79.5924 82.6467 79.5924 79.764V59.8H85.1124V79.81C85.1124 81.558 85.4038 82.9993 85.9864 84.134C86.5691 85.2687 87.3818 86.1273 88.4244 86.71C89.4978 87.262 90.7551 87.538 92.1964 87.538C93.6684 87.538 94.9258 87.262 95.9684 86.71C97.0418 86.1273 97.8544 85.2687 98.4064 84.134C98.9891 82.9993 99.2804 81.558 99.2804 79.81V59.8H104.8V79.764C104.8 82.6467 104.233 85.0387 103.098 86.94C101.964 88.8413 100.43 90.252 98.4984 91.172C96.5664 92.092 94.4351 92.552 92.1044 92.552ZM111 92V59.8H121.396C125.138 59.8 128.22 60.4593 130.642 61.778C133.096 63.0967 134.905 64.9673 136.07 67.39C137.266 69.782 137.864 72.634 137.864 75.946C137.864 79.1967 137.266 82.0333 136.07 84.456C134.905 86.848 133.096 88.7033 130.642 90.022C128.22 91.3407 125.138 92 121.396 92H111ZM116.52 87.308H121.12C123.911 87.308 126.104 86.8633 127.698 85.974C129.324 85.054 130.474 83.7507 131.148 82.064C131.854 80.3467 132.206 78.3073 132.206 75.946C132.206 73.554 131.854 71.5147 131.148 69.828C130.474 68.1107 129.324 66.792 127.698 65.872C126.104 64.9213 123.911 64.446 121.12 64.446H116.52V87.308Z" fill="white"/>
</svg>
