<svg width="150" height="150" viewBox="0 0 150 150" fill="none" xmlns="http://www.w3.org/2000/svg">
<path fill-rule="evenodd" clip-rule="evenodd" d="M0 75C0 33.5786 33.5786 0 75 0C116.421 0 150 33.5786 150 75C150 116.421 116.421 150 75 150C33.5786 150 0 116.421 0 75ZM10.19 58C9.53274 58 9 58.5328 9 59.19V63.61C9 64.2672 9.53274 64.8 10.19 64.8H14.61C15.2673 64.8 15.8 65.3328 15.8 65.99V70.41C15.8 71.0673 15.2673 71.6 14.61 71.6H10.19C9.53274 71.6 9 72.1328 9 72.79V74.507C9 74.8312 9.12966 75.1252 9.34 75.3398L15.4602 81.46C15.6748 81.6703 15.9688 81.8 16.293 81.8H23.45C24.1073 81.8 24.64 82.3328 24.64 82.99V84.01C24.64 84.6673 24.1073 85.2 23.45 85.2H10.19C9.53274 85.2 9 85.7328 9 86.39V90.81C9 91.4672 9.53274 92 10.19 92H28.21C28.8673 92 29.4 91.4672 29.4 90.81V86.39C29.4 85.7327 29.9327 85.2 30.59 85.2H35.01C35.6673 85.2 36.2 85.7328 36.2 86.39V90.81C36.2 91.4672 36.7327 92 37.39 92H41.81C42.4673 92 43 91.4672 43 90.81V86.39C43 85.7328 42.4673 85.2 41.81 85.2H37.39C36.7327 85.2 36.2 84.6672 36.2 84.01V82.293C36.2 81.9688 36.0703 81.6748 35.86 81.4602L29.7398 75.34C29.5252 75.1297 29.2312 75 28.907 75H21.75C21.0927 75 20.56 74.4672 20.56 73.81V72.79C20.56 72.1327 21.0927 71.6 21.75 71.6H35.01C35.6673 71.6 36.2 71.0672 36.2 70.41V65.99C36.2 65.3328 35.6673 64.8 35.01 64.8H16.99C16.3327 64.8 15.8 64.2672 15.8 63.61V59.19C15.8 58.5328 15.2673 58 14.61 58H10.19ZM75.0001 14C99.39 14 120.437 28.3142 130.198 49H134.592C124.561 26.0432 101.654 10 75.0001 10C48.346 10 25.4389 26.0432 15.4087 49H19.8027C29.5635 28.3142 50.6102 14 75.0001 14ZM75.0001 136C50.6102 136 29.5635 121.686 19.8027 101H15.4087C25.4389 123.957 48.346 140 75.0001 140C101.654 140 124.561 123.957 134.592 101H130.198C120.437 121.686 99.39 136 75.0001 136Z" fill="#FB5108"/>
<path d="M45.5545 92L56.8185 61.2H62.7145L73.9785 92H68.3905L59.7225 67.36L51.0545 92H45.5545ZM50.5705 84.74L51.9785 80.56H67.1585L68.5665 84.74H50.5705ZM78.6854 92L70.5014 61.2H76.1334L81.8974 85.972L88.5854 61.2H94.4374L100.905 86.016L106.713 61.2H112.389L103.985 92H97.7374L91.4014 68.68L84.8894 92H78.6854ZM126.101 92.528C123.197 92.528 120.645 91.868 118.445 90.548C116.275 89.228 114.588 87.3947 113.385 85.048C112.183 82.672 111.581 79.9 111.581 76.732C111.581 73.5933 112.197 70.8213 113.429 68.416C114.661 65.9813 116.421 64.0893 118.709 62.74C121.027 61.3613 123.769 60.672 126.937 60.672C130.516 60.672 133.479 61.5373 135.825 63.268C138.201 64.9693 139.741 67.3453 140.445 70.396H134.505C134.065 68.8707 133.2 67.6827 131.909 66.832C130.619 65.9813 128.947 65.556 126.893 65.556C124.811 65.556 123.021 66.0107 121.525 66.92C120.059 67.8 118.929 69.0907 118.137 70.792C117.375 72.464 116.993 74.4587 116.993 76.776C116.993 79.0933 117.375 81.088 118.137 82.76C118.929 84.432 120.044 85.708 121.481 86.588C122.919 87.4387 124.605 87.864 126.541 87.864C129.416 87.864 131.587 87.0573 133.053 85.444C134.52 83.8307 135.385 81.7333 135.649 79.152H127.685V75.148H140.973V92H136.133L135.693 87.776C135.019 88.7733 134.241 89.6387 133.361 90.372C132.481 91.076 131.44 91.6187 130.237 92C129.064 92.352 127.685 92.528 126.101 92.528Z" fill="white"/>
</svg>
