<svg width="150" height="150" viewBox="0 0 150 150" fill="none" xmlns="http://www.w3.org/2000/svg">
<path fill-rule="evenodd" clip-rule="evenodd" d="M0 75C0 33.5786 33.5786 0 75 0C116.421 0 150 33.5786 150 75C150 116.421 116.421 150 75 150C33.5786 150 0 116.421 0 75ZM10.19 58C9.53274 58 9 58.5328 9 59.19V63.61C9 64.2672 9.53274 64.8 10.19 64.8H14.61C15.2673 64.8 15.8 65.3328 15.8 65.99V70.41C15.8 71.0673 15.2673 71.6 14.61 71.6H10.19C9.53274 71.6 9 72.1328 9 72.79V74.507C9 74.8312 9.12966 75.1252 9.34 75.3398L15.4602 81.46C15.6748 81.6703 15.9688 81.8 16.293 81.8H23.45C24.1073 81.8 24.64 82.3328 24.64 82.99V84.01C24.64 84.6673 24.1073 85.2 23.45 85.2H10.19C9.53274 85.2 9 85.7328 9 86.39V90.81C9 91.4672 9.53274 92 10.19 92H28.21C28.8673 92 29.4 91.4672 29.4 90.81V86.39C29.4 85.7327 29.9327 85.2 30.59 85.2H35.01C35.6673 85.2 36.2 85.7328 36.2 86.39V90.81C36.2 91.4672 36.7327 92 37.39 92H41.81C42.4673 92 43 91.4672 43 90.81V86.39C43 85.7328 42.4673 85.2 41.81 85.2H37.39C36.7327 85.2 36.2 84.6672 36.2 84.01V82.293C36.2 81.9688 36.0703 81.6748 35.86 81.4602L29.7398 75.34C29.5252 75.1297 29.2312 75 28.907 75H21.75C21.0927 75 20.56 74.4672 20.56 73.81V72.79C20.56 72.1327 21.0927 71.6 21.75 71.6H35.01C35.6673 71.6 36.2 71.0672 36.2 70.41V65.99C36.2 65.3328 35.6673 64.8 35.01 64.8H16.99C16.3327 64.8 15.8 64.2672 15.8 63.61V59.19C15.8 58.5328 15.2673 58 14.61 58H10.19ZM75.0001 14C99.39 14 120.437 28.3142 130.198 49H134.592C124.561 26.0432 101.654 10 75.0001 10C48.346 10 25.4389 26.0432 15.4087 49H19.8027C29.5635 28.3142 50.6102 14 75.0001 14ZM75.0001 136C50.6102 136 29.5635 121.686 19.8027 101H15.4087C25.4389 123.957 48.346 140 75.0001 140C101.654 140 124.561 123.957 134.592 101H130.198C120.437 121.686 99.39 136 75.0001 136Z" fill="#FB5108"/>
<path d="M48.7261 92V59.8H61.3301C63.5995 59.8 65.4855 60.1527 66.9881 60.858C68.5215 61.5633 69.6715 62.5447 70.4381 63.802C71.2048 65.0287 71.5881 66.4547 71.5881 68.08C71.5881 69.7053 71.2355 71.07 70.5301 72.174C69.8248 73.278 68.8895 74.1213 67.7241 74.704C66.5895 75.2867 65.3475 75.6393 63.9981 75.762L64.6881 75.256C66.1295 75.2867 67.4175 75.67 68.5521 76.406C69.7175 77.142 70.6375 78.108 71.3121 79.304C71.9868 80.4693 72.3241 81.7727 72.3241 83.214C72.3241 84.9007 71.9101 86.4187 71.0821 87.768C70.2848 89.0867 69.1041 90.1293 67.5401 90.896C65.9761 91.632 64.0595 92 61.7901 92H48.7261ZM54.2461 87.492H60.9621C62.7715 87.492 64.1821 87.0627 65.1941 86.204C66.2061 85.3453 66.7121 84.1493 66.7121 82.616C66.7121 81.0827 66.1908 79.8713 65.1481 78.982C64.1055 78.062 62.6795 77.602 60.8701 77.602H54.2461V87.492ZM54.2461 73.416H60.5481C62.3268 73.416 63.6761 73.0173 64.5961 72.22C65.5161 71.392 65.9761 70.2573 65.9761 68.816C65.9761 67.4053 65.5161 66.3013 64.5961 65.504C63.6761 64.676 62.3115 64.262 60.5021 64.262H54.2461V73.416ZM73.3404 92L85.1164 59.8H91.2804L103.056 92H97.2144L88.1524 66.24L79.0904 92H73.3404ZM78.5844 84.41L80.0564 80.04H95.9264L97.3984 84.41H78.5844ZM105.646 92V59.8H112.178L122.482 80.592L132.694 59.8H139.272V92H133.752V69.276L124.644 87.492H120.32L111.166 69.322V92H105.646Z" fill="white"/>
</svg>
