<svg width="150" height="150" viewBox="0 0 150 150" fill="none" xmlns="http://www.w3.org/2000/svg">
<path fill-rule="evenodd" clip-rule="evenodd" d="M0 75C0 33.5786 33.5786 0 75 0C116.421 0 150 33.5786 150 75C150 116.421 116.421 150 75 150C33.5786 150 0 116.421 0 75ZM10.19 58C9.53274 58 9 58.5328 9 59.19V63.61C9 64.2672 9.53274 64.8 10.19 64.8H14.61C15.2673 64.8 15.8 65.3328 15.8 65.99V70.41C15.8 71.0673 15.2673 71.6 14.61 71.6H10.19C9.53274 71.6 9 72.1328 9 72.79V74.507C9 74.8312 9.12966 75.1252 9.34 75.3398L15.4602 81.46C15.6748 81.6703 15.9688 81.8 16.293 81.8H23.45C24.1073 81.8 24.64 82.3328 24.64 82.99V84.01C24.64 84.6673 24.1073 85.2 23.45 85.2H10.19C9.53274 85.2 9 85.7328 9 86.39V90.81C9 91.4672 9.53274 92 10.19 92H28.21C28.8673 92 29.4 91.4672 29.4 90.81V86.39C29.4 85.7327 29.9327 85.2 30.59 85.2H35.01C35.6673 85.2 36.2 85.7328 36.2 86.39V90.81C36.2 91.4672 36.7327 92 37.39 92H41.81C42.4673 92 43 91.4672 43 90.81V86.39C43 85.7328 42.4673 85.2 41.81 85.2H37.39C36.7327 85.2 36.2 84.6672 36.2 84.01V82.293C36.2 81.9688 36.0703 81.6748 35.86 81.4602L29.7398 75.34C29.5252 75.1297 29.2312 75 28.907 75H21.75C21.0927 75 20.56 74.4672 20.56 73.81V72.79C20.56 72.1327 21.0927 71.6 21.75 71.6H35.01C35.6673 71.6 36.2 71.0672 36.2 70.41V65.99C36.2 65.3328 35.6673 64.8 35.01 64.8H16.99C16.3327 64.8 15.8 64.2672 15.8 63.61V59.19C15.8 58.5328 15.2673 58 14.61 58H10.19ZM75.0001 14C99.39 14 120.437 28.3142 130.198 49H134.592C124.561 26.0432 101.654 10 75.0001 10C48.346 10 25.4389 26.0432 15.4087 49H19.8027C29.5635 28.3142 50.6102 14 75.0001 14ZM75.0001 136C50.6102 136 29.5635 121.686 19.8027 101H15.4087C25.4389 123.957 48.346 140 75.0001 140C101.654 140 124.561 123.957 134.592 101H130.198C120.437 121.686 99.39 136 75.0001 136Z" fill="#FB5108"/>
<path d="M48.6242 93V58H62.3242C64.7909 58 66.8409 58.3833 68.4742 59.15C70.1409 59.9167 71.3909 60.9833 72.2242 62.35C73.0576 63.6833 73.4742 65.2333 73.4742 67C73.4742 68.7667 73.0909 70.25 72.3242 71.45C71.5576 72.65 70.5409 73.5667 69.2742 74.2C68.0409 74.8333 66.6909 75.2167 65.2242 75.35L65.9742 74.8C67.5409 74.8333 68.9409 75.25 70.1742 76.05C71.4409 76.85 72.4409 77.9 73.1742 79.2C73.9076 80.4667 74.2742 81.8833 74.2742 83.45C74.2742 85.2833 73.8242 86.9333 72.9242 88.4C72.0576 89.8333 70.7742 90.9667 69.0742 91.8C67.3742 92.6 65.2909 93 62.8242 93H48.6242ZM54.6242 88.1H61.9242C63.8909 88.1 65.4242 87.6333 66.5242 86.7C67.6242 85.7667 68.1742 84.4667 68.1742 82.8C68.1742 81.1333 67.6076 79.8167 66.4742 78.85C65.3409 77.85 63.7909 77.35 61.8242 77.35H54.6242V88.1ZM54.6242 72.8H61.4742C63.4076 72.8 64.8742 72.3667 65.8742 71.5C66.8742 70.6 67.3742 69.3667 67.3742 67.8C67.3742 66.2667 66.8742 65.0667 65.8742 64.2C64.8742 63.3 63.3909 62.85 61.4242 62.85H54.6242V72.8ZM80.0207 93V58H93.7207C96.1874 58 98.2374 58.3833 99.8707 59.15C101.537 59.9167 102.787 60.9833 103.621 62.35C104.454 63.6833 104.871 65.2333 104.871 67C104.871 68.7667 104.487 70.25 103.721 71.45C102.954 72.65 101.937 73.5667 100.671 74.2C99.4374 74.8333 98.0874 75.2167 96.6207 75.35L97.3707 74.8C98.9374 74.8333 100.337 75.25 101.571 76.05C102.837 76.85 103.837 77.9 104.571 79.2C105.304 80.4667 105.671 81.8833 105.671 83.45C105.671 85.2833 105.221 86.9333 104.321 88.4C103.454 89.8333 102.171 90.9667 100.471 91.8C98.7707 92.6 96.6874 93 94.2207 93H80.0207ZM86.0207 88.1H93.3207C95.2874 88.1 96.8207 87.6333 97.9207 86.7C99.0207 85.7667 99.5707 84.4667 99.5707 82.8C99.5707 81.1333 99.004 79.8167 97.8707 78.85C96.7374 77.85 95.1874 77.35 93.2207 77.35H86.0207V88.1ZM86.0207 72.8H92.8707C94.804 72.8 96.2707 72.3667 97.2707 71.5C98.2707 70.6 98.7707 69.3667 98.7707 67.8C98.7707 66.2667 98.2707 65.0667 97.2707 64.2C96.2707 63.3 94.7874 62.85 92.8207 62.85H86.0207V72.8ZM111.417 93V58H122.717C126.784 58 130.134 58.7167 132.767 60.15C135.434 61.5833 137.401 63.6167 138.667 66.25C139.967 68.85 140.617 71.95 140.617 75.55C140.617 79.0833 139.967 82.1667 138.667 84.8C137.401 87.4 135.434 89.4167 132.767 90.85C130.134 92.2833 126.784 93 122.717 93H111.417ZM117.417 87.9H122.417C125.451 87.9 127.834 87.4167 129.567 86.45C131.334 85.45 132.584 84.0333 133.317 82.2C134.084 80.3333 134.467 78.1167 134.467 75.55C134.467 72.95 134.084 70.7333 133.317 68.9C132.584 67.0333 131.334 65.6 129.567 64.6C127.834 63.5667 125.451 63.05 122.417 63.05H117.417V87.9Z" fill="white"/>
</svg>
