<svg width="150" height="150" viewBox="0 0 150 150" fill="none" xmlns="http://www.w3.org/2000/svg">
<path fill-rule="evenodd" clip-rule="evenodd" d="M0 75C0 33.5786 33.5786 0 75 0C116.421 0 150 33.5786 150 75C150 116.421 116.421 150 75 150C33.5786 150 0 116.421 0 75ZM10.19 58C9.53274 58 9 58.5328 9 59.19V63.61C9 64.2672 9.53274 64.8 10.19 64.8H14.61C15.2673 64.8 15.8 65.3328 15.8 65.99V70.41C15.8 71.0673 15.2673 71.6 14.61 71.6H10.19C9.53274 71.6 9 72.1328 9 72.79V74.507C9 74.8312 9.12966 75.1252 9.34 75.3398L15.4602 81.46C15.6748 81.6703 15.9688 81.8 16.293 81.8H23.45C24.1073 81.8 24.64 82.3328 24.64 82.99V84.01C24.64 84.6673 24.1073 85.2 23.45 85.2H10.19C9.53274 85.2 9 85.7328 9 86.39V90.81C9 91.4672 9.53274 92 10.19 92H28.21C28.8673 92 29.4 91.4672 29.4 90.81V86.39C29.4 85.7327 29.9327 85.2 30.59 85.2H35.01C35.6673 85.2 36.2 85.7328 36.2 86.39V90.81C36.2 91.4672 36.7327 92 37.39 92H41.81C42.4673 92 43 91.4672 43 90.81V86.39C43 85.7328 42.4673 85.2 41.81 85.2H37.39C36.7327 85.2 36.2 84.6672 36.2 84.01V82.293C36.2 81.9688 36.0703 81.6748 35.86 81.4602L29.7398 75.34C29.5252 75.1297 29.2312 75 28.907 75H21.75C21.0927 75 20.56 74.4672 20.56 73.81V72.79C20.56 72.1327 21.0927 71.6 21.75 71.6H35.01C35.6673 71.6 36.2 71.0672 36.2 70.41V65.99C36.2 65.3328 35.6673 64.8 35.01 64.8H16.99C16.3327 64.8 15.8 64.2672 15.8 63.61V59.19C15.8 58.5328 15.2673 58 14.61 58H10.19ZM75.0001 14C99.39 14 120.437 28.3142 130.198 49H134.592C124.561 26.0432 101.654 10 75.0001 10C48.346 10 25.4389 26.0432 15.4087 49H19.8027C29.5635 28.3142 50.6102 14 75.0001 14ZM75.0001 136C50.6102 136 29.5635 121.686 19.8027 101H15.4087C25.4389 123.957 48.346 140 75.0001 140C101.654 140 124.561 123.957 134.592 101H130.198C120.437 121.686 99.39 136 75.0001 136Z" fill="#FB5108"/>
<path d="M50.8332 93V58H64.5332C66.9999 58 69.0499 58.3833 70.6832 59.15C72.3499 59.9167 73.5999 60.9833 74.4332 62.35C75.2665 63.6833 75.6832 65.2333 75.6832 67C75.6832 68.7667 75.2999 70.25 74.5332 71.45C73.7665 72.65 72.7499 73.5667 71.4832 74.2C70.2499 74.8333 68.8999 75.2167 67.4332 75.35L68.1832 74.8C69.7499 74.8333 71.1499 75.25 72.3832 76.05C73.6499 76.85 74.6499 77.9 75.3832 79.2C76.1165 80.4667 76.4832 81.8833 76.4832 83.45C76.4832 85.2833 76.0332 86.9333 75.1332 88.4C74.2665 89.8333 72.9832 90.9667 71.2832 91.8C69.5832 92.6 67.4999 93 65.0332 93H50.8332ZM56.8332 88.1H64.1332C66.0999 88.1 67.6332 87.6333 68.7332 86.7C69.8332 85.7667 70.3832 84.4667 70.3832 82.8C70.3832 81.1333 69.8165 79.8167 68.6832 78.85C67.5499 77.85 65.9999 77.35 64.0332 77.35H56.8332V88.1ZM56.8332 72.8H63.6832C65.6165 72.8 67.0832 72.3667 68.0832 71.5C69.0832 70.6 69.5832 69.3667 69.5832 67.8C69.5832 66.2667 69.0832 65.0667 68.0832 64.2C67.0832 63.3 65.5999 62.85 63.6332 62.85H56.8332V72.8ZM82.2297 93V58H93.5297C97.5964 58 100.946 58.7167 103.58 60.15C106.246 61.5833 108.213 63.6167 109.48 66.25C110.78 68.85 111.43 71.95 111.43 75.55C111.43 79.0833 110.78 82.1667 109.48 84.8C108.213 87.4 106.246 89.4167 103.58 90.85C100.946 92.2833 97.5964 93 93.5297 93H82.2297ZM88.2297 87.9H93.2297C96.263 87.9 98.6464 87.4167 100.38 86.45C102.146 85.45 103.396 84.0333 104.13 82.2C104.896 80.3333 105.28 78.1167 105.28 75.55C105.28 72.95 104.896 70.7333 104.13 68.9C103.396 67.0333 102.146 65.6 100.38 64.6C98.6464 63.5667 96.263 63.05 93.2297 63.05H88.2297V87.9ZM124.071 93V62.85H113.771V58H140.321V62.85H130.021V93H124.071Z" fill="white"/>
</svg>
