<svg width="150" height="150" viewBox="0 0 150 150" fill="none" xmlns="http://www.w3.org/2000/svg">
<path fill-rule="evenodd" clip-rule="evenodd" d="M0 75C0 33.5786 33.5786 0 75 0C116.421 0 150 33.5786 150 75C150 116.421 116.421 150 75 150C33.5786 150 0 116.421 0 75ZM10.19 58C9.53274 58 9 58.5328 9 59.19V63.61C9 64.2672 9.53274 64.8 10.19 64.8H14.61C15.2673 64.8 15.8 65.3328 15.8 65.99V70.41C15.8 71.0673 15.2673 71.6 14.61 71.6H10.19C9.53274 71.6 9 72.1328 9 72.79V74.507C9 74.8312 9.12966 75.1252 9.34 75.3398L15.4602 81.46C15.6748 81.6703 15.9688 81.8 16.293 81.8H23.45C24.1073 81.8 24.64 82.3328 24.64 82.99V84.01C24.64 84.6673 24.1073 85.2 23.45 85.2H10.19C9.53274 85.2 9 85.7328 9 86.39V90.81C9 91.4672 9.53274 92 10.19 92H28.21C28.8673 92 29.4 91.4672 29.4 90.81V86.39C29.4 85.7327 29.9327 85.2 30.59 85.2H35.01C35.6673 85.2 36.2 85.7328 36.2 86.39V90.81C36.2 91.4672 36.7327 92 37.39 92H41.81C42.4673 92 43 91.4672 43 90.81V86.39C43 85.7328 42.4673 85.2 41.81 85.2H37.39C36.7327 85.2 36.2 84.6672 36.2 84.01V82.293C36.2 81.9688 36.0703 81.6748 35.86 81.4602L29.7398 75.34C29.5252 75.1297 29.2312 75 28.907 75H21.75C21.0927 75 20.56 74.4672 20.56 73.81V72.79C20.56 72.1327 21.0927 71.6 21.75 71.6H35.01C35.6673 71.6 36.2 71.0672 36.2 70.41V65.99C36.2 65.3328 35.6673 64.8 35.01 64.8H16.99C16.3327 64.8 15.8 64.2672 15.8 63.61V59.19C15.8 58.5328 15.2673 58 14.61 58H10.19ZM75.0001 14C99.39 14 120.437 28.3142 130.198 49H134.592C124.561 26.0432 101.654 10 75.0001 10C48.346 10 25.4389 26.0432 15.4087 49H19.8027C29.5635 28.3142 50.6102 14 75.0001 14ZM75.0001 136C50.6102 136 29.5635 121.686 19.8027 101H15.4087C25.4389 123.957 48.346 140 75.0001 140C101.654 140 124.561 123.957 134.592 101H130.198C120.437 121.686 99.39 136 75.0001 136Z" fill="#FB5108"/>
<path d="M49.3882 92V59.8H61.9922C64.2616 59.8 66.1476 60.1527 67.6502 60.858C69.1836 61.5633 70.3336 62.5447 71.1002 63.802C71.8669 65.0287 72.2502 66.4547 72.2502 68.08C72.2502 69.7053 71.8976 71.07 71.1922 72.174C70.4869 73.278 69.5516 74.1213 68.3862 74.704C67.2516 75.2867 66.0096 75.6393 64.6602 75.762L65.3502 75.256C66.7916 75.2867 68.0796 75.67 69.2142 76.406C70.3796 77.142 71.2996 78.108 71.9742 79.304C72.6489 80.4693 72.9862 81.7727 72.9862 83.214C72.9862 84.9007 72.5722 86.4187 71.7442 87.768C70.9469 89.0867 69.7662 90.1293 68.2022 90.896C66.6382 91.632 64.7216 92 62.4522 92H49.3882ZM54.9082 87.492H61.6242C63.4336 87.492 64.8442 87.0627 65.8562 86.204C66.8682 85.3453 67.3742 84.1493 67.3742 82.616C67.3742 81.0827 66.8529 79.8713 65.8102 78.982C64.7676 78.062 63.3416 77.602 61.5322 77.602H54.9082V87.492ZM54.9082 73.416H61.2102C62.9889 73.416 64.3382 73.0173 65.2582 72.22C66.1782 71.392 66.6382 70.2573 66.6382 68.816C66.6382 67.4053 66.1782 66.3013 65.2582 65.504C64.3382 64.676 62.9736 64.262 61.1642 64.262H54.9082V73.416ZM90.463 92.552C87.427 92.552 84.759 91.862 82.459 90.482C80.1897 89.102 78.4263 87.1853 77.169 84.732C75.9117 82.248 75.283 79.35 75.283 76.038C75.283 72.7567 75.927 69.8587 77.215 67.344C78.503 64.7987 80.343 62.8207 82.735 61.41C85.1577 59.9687 88.025 59.248 91.337 59.248C95.0783 59.248 98.1757 60.1527 100.629 61.962C103.113 63.7407 104.723 66.2247 105.459 69.414H99.249C98.789 67.8193 97.8843 66.5773 96.535 65.688C95.1857 64.7987 93.4377 64.354 91.291 64.354C89.1137 64.354 87.243 64.8293 85.679 65.78C84.1457 66.7 82.965 68.0493 82.137 69.828C81.3397 71.576 80.941 73.6613 80.941 76.084C80.941 78.5067 81.3397 80.592 82.137 82.34C82.965 84.088 84.1303 85.422 85.633 86.342C87.1357 87.2313 88.899 87.676 90.923 87.676C93.9283 87.676 96.1977 86.8327 97.731 85.146C99.2643 83.4593 100.169 81.2667 100.445 78.568H92.119V74.382H106.011V92H100.951L100.491 87.584C99.7857 88.6267 98.973 89.5313 98.053 90.298C97.133 91.034 96.0443 91.6013 94.787 92C93.5603 92.368 92.119 92.552 90.463 92.552ZM110.126 92V59.8H115.646L131.148 83.076V59.8H136.668V92H131.148L115.646 68.77V92H110.126Z" fill="white"/>
</svg>
