<svg width="150" height="150" viewBox="0 0 150 150" fill="none" xmlns="http://www.w3.org/2000/svg">
<path fill-rule="evenodd" clip-rule="evenodd" d="M0 75C0 33.5786 33.5786 0 75 0C116.421 0 150 33.5786 150 75C150 116.421 116.421 150 75 150C33.5786 150 0 116.421 0 75ZM10.19 58C9.53274 58 9 58.5328 9 59.19V63.61C9 64.2672 9.53274 64.8 10.19 64.8H14.61C15.2673 64.8 15.8 65.3328 15.8 65.99V70.41C15.8 71.0673 15.2673 71.6 14.61 71.6H10.19C9.53274 71.6 9 72.1328 9 72.79V74.507C9 74.8312 9.12966 75.1252 9.34 75.3398L15.4602 81.46C15.6748 81.6703 15.9688 81.8 16.293 81.8H23.45C24.1073 81.8 24.64 82.3328 24.64 82.99V84.01C24.64 84.6673 24.1073 85.2 23.45 85.2H10.19C9.53274 85.2 9 85.7328 9 86.39V90.81C9 91.4672 9.53274 92 10.19 92H28.21C28.8673 92 29.4 91.4672 29.4 90.81V86.39C29.4 85.7327 29.9327 85.2 30.59 85.2H35.01C35.6673 85.2 36.2 85.7328 36.2 86.39V90.81C36.2 91.4672 36.7327 92 37.39 92H41.81C42.4673 92 43 91.4672 43 90.81V86.39C43 85.7328 42.4673 85.2 41.81 85.2H37.39C36.7327 85.2 36.2 84.6672 36.2 84.01V82.293C36.2 81.9688 36.0703 81.6748 35.86 81.4602L29.7398 75.34C29.5252 75.1297 29.2312 75 28.907 75H21.75C21.0927 75 20.56 74.4672 20.56 73.81V72.79C20.56 72.1327 21.0927 71.6 21.75 71.6H35.01C35.6673 71.6 36.2 71.0672 36.2 70.41V65.99C36.2 65.3328 35.6673 64.8 35.01 64.8H16.99C16.3327 64.8 15.8 64.2672 15.8 63.61V59.19C15.8 58.5328 15.2673 58 14.61 58H10.19ZM75.0001 14C99.39 14 120.437 28.3142 130.198 49H134.592C124.561 26.0432 101.654 10 75.0001 10C48.346 10 25.4389 26.0432 15.4087 49H19.8027C29.5635 28.3142 50.6102 14 75.0001 14ZM75.0001 136C50.6102 136 29.5635 121.686 19.8027 101H15.4087C25.4389 123.957 48.346 140 75.0001 140C101.654 140 124.561 123.957 134.592 101H130.198C120.437 121.686 99.39 136 75.0001 136Z" fill="#FB5108"/>
<path d="M46.7199 93V58H60.4199C62.8866 58 64.9366 58.3833 66.5699 59.15C68.2366 59.9167 69.4866 60.9833 70.3199 62.35C71.1533 63.6833 71.5699 65.2333 71.5699 67C71.5699 68.7667 71.1866 70.25 70.4199 71.45C69.6533 72.65 68.6366 73.5667 67.3699 74.2C66.1366 74.8333 64.7866 75.2167 63.3199 75.35L64.0699 74.8C65.6366 74.8333 67.0366 75.25 68.2699 76.05C69.5366 76.85 70.5366 77.9 71.2699 79.2C72.0033 80.4667 72.3699 81.8833 72.3699 83.45C72.3699 85.2833 71.9199 86.9333 71.0199 88.4C70.1533 89.8333 68.8699 90.9667 67.1699 91.8C65.4699 92.6 63.3866 93 60.9199 93H46.7199ZM52.7199 88.1H60.0199C61.9866 88.1 63.5199 87.6333 64.6199 86.7C65.7199 85.7667 66.2699 84.4667 66.2699 82.8C66.2699 81.1333 65.7033 79.8167 64.5699 78.85C63.4366 77.85 61.8866 77.35 59.9199 77.35H52.7199V88.1ZM52.7199 72.8H59.5699C61.5033 72.8 62.9699 72.3667 63.9699 71.5C64.9699 70.6 65.4699 69.3667 65.4699 67.8C65.4699 66.2667 64.9699 65.0667 63.9699 64.2C62.9699 63.3 61.4866 62.85 59.5199 62.85H52.7199V72.8ZM100.216 93V58H106.216V93H100.216ZM78.1164 93V58H84.1164V93H78.1164ZM83.2164 77.6V72.7H101.366V77.6H83.2164ZM113.321 93V58H124.621C128.688 58 132.038 58.7167 134.671 60.15C137.338 61.5833 139.305 63.6167 140.571 66.25C141.871 68.85 142.521 71.95 142.521 75.55C142.521 79.0833 141.871 82.1667 140.571 84.8C139.305 87.4 137.338 89.4167 134.671 90.85C132.038 92.2833 128.688 93 124.621 93H113.321ZM119.321 87.9H124.321C127.355 87.9 129.738 87.4167 131.471 86.45C133.238 85.45 134.488 84.0333 135.221 82.2C135.988 80.3333 136.371 78.1167 136.371 75.55C136.371 72.95 135.988 70.7333 135.221 68.9C134.488 67.0333 133.238 65.6 131.471 64.6C129.738 63.5667 127.355 63.05 124.321 63.05H119.321V87.9Z" fill="white"/>
</svg>
