<svg width="150" height="150" viewBox="0 0 150 150" fill="none" xmlns="http://www.w3.org/2000/svg">
<path fill-rule="evenodd" clip-rule="evenodd" d="M0 75C0 33.5786 33.5786 0 75 0C116.421 0 150 33.5786 150 75C150 116.421 116.421 150 75 150C33.5786 150 0 116.421 0 75ZM10.19 58C9.53274 58 9 58.5328 9 59.19V63.61C9 64.2672 9.53274 64.8 10.19 64.8H14.61C15.2673 64.8 15.8 65.3328 15.8 65.99V70.41C15.8 71.0673 15.2673 71.6 14.61 71.6H10.19C9.53274 71.6 9 72.1328 9 72.79V74.507C9 74.8312 9.12966 75.1252 9.34 75.3398L15.4602 81.46C15.6748 81.6703 15.9688 81.8 16.293 81.8H23.45C24.1073 81.8 24.64 82.3328 24.64 82.99V84.01C24.64 84.6673 24.1073 85.2 23.45 85.2H10.19C9.53274 85.2 9 85.7328 9 86.39V90.81C9 91.4672 9.53274 92 10.19 92H28.21C28.8673 92 29.4 91.4672 29.4 90.81V86.39C29.4 85.7327 29.9327 85.2 30.59 85.2H35.01C35.6673 85.2 36.2 85.7328 36.2 86.39V90.81C36.2 91.4672 36.7327 92 37.39 92H41.81C42.4673 92 43 91.4672 43 90.81V86.39C43 85.7328 42.4673 85.2 41.81 85.2H37.39C36.7327 85.2 36.2 84.6672 36.2 84.01V82.293C36.2 81.9688 36.0703 81.6748 35.86 81.4602L29.7398 75.34C29.5252 75.1297 29.2312 75 28.907 75H21.75C21.0927 75 20.56 74.4672 20.56 73.81V72.79C20.56 72.1327 21.0927 71.6 21.75 71.6H35.01C35.6673 71.6 36.2 71.0672 36.2 70.41V65.99C36.2 65.3328 35.6673 64.8 35.01 64.8H16.99C16.3327 64.8 15.8 64.2672 15.8 63.61V59.19C15.8 58.5328 15.2673 58 14.61 58H10.19ZM75.0001 14C99.39 14 120.437 28.3142 130.198 49H134.592C124.561 26.0432 101.654 10 75.0001 10C48.346 10 25.4389 26.0432 15.4087 49H19.8027C29.5635 28.3142 50.6102 14 75.0001 14ZM75.0001 136C50.6102 136 29.5635 121.686 19.8027 101H15.4087C25.4389 123.957 48.346 140 75.0001 140C101.654 140 124.561 123.957 134.592 101H130.198C120.437 121.686 99.39 136 75.0001 136Z" fill="#FB5108"/>
<path d="M52.5881 93V58H66.2881C68.7548 58 70.8048 58.3833 72.4381 59.15C74.1048 59.9167 75.3548 60.9833 76.1881 62.35C77.0214 63.6833 77.4381 65.2333 77.4381 67C77.4381 68.7667 77.0548 70.25 76.2881 71.45C75.5214 72.65 74.5048 73.5667 73.2381 74.2C72.0048 74.8333 70.6548 75.2167 69.1881 75.35L69.9381 74.8C71.5048 74.8333 72.9048 75.25 74.1381 76.05C75.4048 76.85 76.4048 77.9 77.1381 79.2C77.8714 80.4667 78.2381 81.8833 78.2381 83.45C78.2381 85.2833 77.7881 86.9333 76.8881 88.4C76.0214 89.8333 74.7381 90.9667 73.0381 91.8C71.3381 92.6 69.2548 93 66.7881 93H52.5881ZM58.5881 88.1H65.8881C67.8548 88.1 69.3881 87.6333 70.4881 86.7C71.5881 85.7667 72.1381 84.4667 72.1381 82.8C72.1381 81.1333 71.5714 79.8167 70.4381 78.85C69.3048 77.85 67.7548 77.35 65.7881 77.35H58.5881V88.1ZM58.5881 72.8H65.4381C67.3714 72.8 68.8381 72.3667 69.8381 71.5C70.8381 70.6 71.3381 69.3667 71.3381 67.8C71.3381 66.2667 70.8381 65.0667 69.8381 64.2C68.8381 63.3 67.3548 62.85 65.3881 62.85H58.5881V72.8ZM88.9846 93V58H94.9846V93H88.9846ZM107.022 93V58H129.372V62.85H113.022V73.1H126.372V77.85H113.022V93H107.022Z" fill="white"/>
</svg>
