<svg width="150" height="150" viewBox="0 0 150 150" fill="none" xmlns="http://www.w3.org/2000/svg">
<path fill-rule="evenodd" clip-rule="evenodd" d="M0 75C0 33.5786 33.5786 0 75 0C116.421 0 150 33.5786 150 75C150 116.421 116.421 150 75 150C33.5786 150 0 116.421 0 75ZM10.19 58C9.53274 58 9 58.5328 9 59.19V63.61C9 64.2672 9.53274 64.8 10.19 64.8H14.61C15.2673 64.8 15.8 65.3328 15.8 65.99V70.41C15.8 71.0673 15.2673 71.6 14.61 71.6H10.19C9.53274 71.6 9 72.1328 9 72.79V74.507C9 74.8312 9.12966 75.1252 9.34 75.3398L15.4602 81.46C15.6748 81.6703 15.9688 81.8 16.293 81.8H23.45C24.1073 81.8 24.64 82.3328 24.64 82.99V84.01C24.64 84.6673 24.1073 85.2 23.45 85.2H10.19C9.53274 85.2 9 85.7328 9 86.39V90.81C9 91.4672 9.53274 92 10.19 92H28.21C28.8673 92 29.4 91.4672 29.4 90.81V86.39C29.4 85.7327 29.9327 85.2 30.59 85.2H35.01C35.6673 85.2 36.2 85.7328 36.2 86.39V90.81C36.2 91.4672 36.7327 92 37.39 92H41.81C42.4673 92 43 91.4672 43 90.81V86.39C43 85.7328 42.4673 85.2 41.81 85.2H37.39C36.7327 85.2 36.2 84.6672 36.2 84.01V82.293C36.2 81.9688 36.0703 81.6748 35.86 81.4602L29.7398 75.34C29.5252 75.1297 29.2312 75 28.907 75H21.75C21.0927 75 20.56 74.4672 20.56 73.81V72.79C20.56 72.1327 21.0927 71.6 21.75 71.6H35.01C35.6673 71.6 36.2 71.0672 36.2 70.41V65.99C36.2 65.3328 35.6673 64.8 35.01 64.8H16.99C16.3327 64.8 15.8 64.2672 15.8 63.61V59.19C15.8 58.5328 15.2673 58 14.61 58H10.19ZM75.0001 14C99.39 14 120.437 28.3142 130.198 49H134.592C124.561 26.0432 101.654 10 75.0001 10C48.346 10 25.4389 26.0432 15.4087 49H19.8027C29.5635 28.3142 50.6102 14 75.0001 14ZM75.0001 136C50.6102 136 29.5635 121.686 19.8027 101H15.4087C25.4389 123.957 48.346 140 75.0001 140C101.654 140 124.561 123.957 134.592 101H130.198C120.437 121.686 99.39 136 75.0001 136Z" fill="#FB5108"/>
<path d="M48.4566 92V59.8H61.0606C63.3299 59.8 65.2159 60.1527 66.7186 60.858C68.2519 61.5633 69.4019 62.5447 70.1686 63.802C70.9353 65.0287 71.3186 66.4547 71.3186 68.08C71.3186 69.7053 70.9659 71.07 70.2606 72.174C69.5553 73.278 68.6199 74.1213 67.4546 74.704C66.3199 75.2867 65.0779 75.6393 63.7286 75.762L64.4186 75.256C65.8599 75.2867 67.1479 75.67 68.2826 76.406C69.4479 77.142 70.3679 78.108 71.0426 79.304C71.7173 80.4693 72.0546 81.7727 72.0546 83.214C72.0546 84.9007 71.6406 86.4187 70.8126 87.768C70.0153 89.0867 68.8346 90.1293 67.2706 90.896C65.7066 91.632 63.7899 92 61.5206 92H48.4566ZM53.9766 87.492H60.6926C62.5019 87.492 63.9126 87.0627 64.9246 86.204C65.9366 85.3453 66.4426 84.1493 66.4426 82.616C66.4426 81.0827 65.9213 79.8713 64.8786 78.982C63.8359 78.062 62.4099 77.602 60.6006 77.602H53.9766V87.492ZM53.9766 73.416H60.2786C62.0573 73.416 63.4066 73.0173 64.3266 72.22C65.2466 71.392 65.7066 70.2573 65.7066 68.816C65.7066 67.4053 65.2466 66.3013 64.3266 65.504C63.4066 64.676 62.0419 64.262 60.2326 64.262H53.9766V73.416ZM75.5014 92V59.8H82.0334L92.3374 80.592L102.549 59.8H109.127V92H103.607V69.276L94.4994 87.492H90.1754L81.0214 69.322V92H75.5014ZM113.822 92V59.8H124.218C127.959 59.8 131.041 60.4593 133.464 61.778C135.917 63.0967 137.726 64.9673 138.892 67.39C140.088 69.782 140.686 72.634 140.686 75.946C140.686 79.1967 140.088 82.0333 138.892 84.456C137.726 86.848 135.917 88.7033 133.464 90.022C131.041 91.3407 127.959 92 124.218 92H113.822ZM119.342 87.308H123.942C126.732 87.308 128.925 86.8633 130.52 85.974C132.145 85.054 133.295 83.7507 133.97 82.064C134.675 80.3467 135.028 78.3073 135.028 75.946C135.028 73.554 134.675 71.5147 133.97 69.828C133.295 68.1107 132.145 66.792 130.52 65.872C128.925 64.9213 126.732 64.446 123.942 64.446H119.342V87.308Z" fill="white"/>
</svg>
