<svg width="150" height="150" viewBox="0 0 150 150" fill="none" xmlns="http://www.w3.org/2000/svg">
<path fill-rule="evenodd" clip-rule="evenodd" d="M0 75C0 33.5786 33.5786 0 75 0C116.421 0 150 33.5786 150 75C150 116.421 116.421 150 75 150C33.5786 150 0 116.421 0 75ZM10.19 58C9.53274 58 9 58.5328 9 59.19V63.61C9 64.2672 9.53274 64.8 10.19 64.8H14.61C15.2673 64.8 15.8 65.3328 15.8 65.99V70.41C15.8 71.0673 15.2673 71.6 14.61 71.6H10.19C9.53274 71.6 9 72.1328 9 72.79V74.507C9 74.8312 9.12966 75.1252 9.34 75.3398L15.4602 81.46C15.6748 81.6703 15.9688 81.8 16.293 81.8H23.45C24.1073 81.8 24.64 82.3328 24.64 82.99V84.01C24.64 84.6673 24.1073 85.2 23.45 85.2H10.19C9.53274 85.2 9 85.7328 9 86.39V90.81C9 91.4672 9.53274 92 10.19 92H28.21C28.8673 92 29.4 91.4672 29.4 90.81V86.39C29.4 85.7327 29.9327 85.2 30.59 85.2H35.01C35.6673 85.2 36.2 85.7328 36.2 86.39V90.81C36.2 91.4672 36.7327 92 37.39 92H41.81C42.4673 92 43 91.4672 43 90.81V86.39C43 85.7328 42.4673 85.2 41.81 85.2H37.39C36.7327 85.2 36.2 84.6672 36.2 84.01V82.293C36.2 81.9688 36.0703 81.6748 35.86 81.4602L29.7398 75.34C29.5252 75.1297 29.2312 75 28.907 75H21.75C21.0927 75 20.56 74.4672 20.56 73.81V72.79C20.56 72.1327 21.0927 71.6 21.75 71.6H35.01C35.6673 71.6 36.2 71.0672 36.2 70.41V65.99C36.2 65.3328 35.6673 64.8 35.01 64.8H16.99C16.3327 64.8 15.8 64.2672 15.8 63.61V59.19C15.8 58.5328 15.2673 58 14.61 58H10.19ZM75.0001 14C99.39 14 120.437 28.3142 130.198 49H134.592C124.561 26.0432 101.654 10 75.0001 10C48.346 10 25.4389 26.0432 15.4087 49H19.8027C29.5635 28.3142 50.6102 14 75.0001 14ZM75.0001 136C50.6102 136 29.5635 121.686 19.8027 101H15.4087C25.4389 123.957 48.346 140 75.0001 140C101.654 140 124.561 123.957 134.592 101H130.198C120.437 121.686 99.39 136 75.0001 136Z" fill="#FB5108"/>
<path d="M46.8781 93V58H60.5781C63.0448 58 65.0948 58.3833 66.7281 59.15C68.3948 59.9167 69.6448 60.9833 70.4781 62.35C71.3115 63.6833 71.7281 65.2333 71.7281 67C71.7281 68.7667 71.3448 70.25 70.5781 71.45C69.8115 72.65 68.7948 73.5667 67.5281 74.2C66.2948 74.8333 64.9448 75.2167 63.4781 75.35L64.2281 74.8C65.7948 74.8333 67.1948 75.25 68.4281 76.05C69.6948 76.85 70.6948 77.9 71.4281 79.2C72.1615 80.4667 72.5281 81.8833 72.5281 83.45C72.5281 85.2833 72.0781 86.9333 71.1781 88.4C70.3115 89.8333 69.0281 90.9667 67.3281 91.8C65.6281 92.6 63.5448 93 61.0781 93H46.8781ZM52.8781 88.1H60.1781C62.1448 88.1 63.6781 87.6333 64.7781 86.7C65.8781 85.7667 66.4281 84.4667 66.4281 82.8C66.4281 81.1333 65.8615 79.8167 64.7281 78.85C63.5948 77.85 62.0448 77.35 60.0781 77.35H52.8781V88.1ZM52.8781 72.8H59.7281C61.6615 72.8 63.1281 72.3667 64.1281 71.5C65.1281 70.6 65.6281 69.3667 65.6281 67.8C65.6281 66.2667 65.1281 65.0667 64.1281 64.2C63.1281 63.3 61.6448 62.85 59.6781 62.85H52.8781V72.8ZM78.2746 93V58H84.2746L101.125 83.3V58H107.125V93H101.125L84.2746 67.75V93H78.2746ZM114.163 93V58H125.463C129.53 58 132.88 58.7167 135.513 60.15C138.18 61.5833 140.147 63.6167 141.413 66.25C142.713 68.85 143.363 71.95 143.363 75.55C143.363 79.0833 142.713 82.1667 141.413 84.8C140.147 87.4 138.18 89.4167 135.513 90.85C132.88 92.2833 129.53 93 125.463 93H114.163ZM120.163 87.9H125.163C128.197 87.9 130.58 87.4167 132.313 86.45C134.08 85.45 135.33 84.0333 136.063 82.2C136.83 80.3333 137.213 78.1167 137.213 75.55C137.213 72.95 136.83 70.7333 136.063 68.9C135.33 67.0333 134.08 65.6 132.313 64.6C130.58 63.5667 128.197 63.05 125.163 63.05H120.163V87.9Z" fill="white"/>
</svg>
