<svg width="150" height="150" viewBox="0 0 150 150" fill="none" xmlns="http://www.w3.org/2000/svg">
<path fill-rule="evenodd" clip-rule="evenodd" d="M0 75C0 33.5786 33.5786 0 75 0C116.421 0 150 33.5786 150 75C150 116.421 116.421 150 75 150C33.5786 150 0 116.421 0 75ZM10.19 58C9.53274 58 9 58.5328 9 59.19V63.61C9 64.2672 9.53274 64.8 10.19 64.8H14.61C15.2673 64.8 15.8 65.3328 15.8 65.99V70.41C15.8 71.0673 15.2673 71.6 14.61 71.6H10.19C9.53274 71.6 9 72.1328 9 72.79V74.507C9 74.8312 9.12966 75.1252 9.34 75.3398L15.4602 81.46C15.6748 81.6703 15.9688 81.8 16.293 81.8H23.45C24.1073 81.8 24.64 82.3328 24.64 82.99V84.01C24.64 84.6673 24.1073 85.2 23.45 85.2H10.19C9.53274 85.2 9 85.7328 9 86.39V90.81C9 91.4672 9.53274 92 10.19 92H28.21C28.8673 92 29.4 91.4672 29.4 90.81V86.39C29.4 85.7327 29.9327 85.2 30.59 85.2H35.01C35.6673 85.2 36.2 85.7328 36.2 86.39V90.81C36.2 91.4672 36.7327 92 37.39 92H41.81C42.4673 92 43 91.4672 43 90.81V86.39C43 85.7328 42.4673 85.2 41.81 85.2H37.39C36.7327 85.2 36.2 84.6672 36.2 84.01V82.293C36.2 81.9688 36.0703 81.6748 35.86 81.4602L29.7398 75.34C29.5252 75.1297 29.2312 75 28.907 75H21.75C21.0927 75 20.56 74.4672 20.56 73.81V72.79C20.56 72.1327 21.0927 71.6 21.75 71.6H35.01C35.6673 71.6 36.2 71.0672 36.2 70.41V65.99C36.2 65.3328 35.6673 64.8 35.01 64.8H16.99C16.3327 64.8 15.8 64.2672 15.8 63.61V59.19C15.8 58.5328 15.2673 58 14.61 58H10.19ZM75.0001 14C99.39 14 120.437 28.3142 130.198 49H134.592C124.561 26.0432 101.654 10 75.0001 10C48.346 10 25.4389 26.0432 15.4087 49H19.8027C29.5635 28.3142 50.6102 14 75.0001 14ZM75.0001 136C50.6102 136 29.5635 121.686 19.8027 101H15.4087C25.4389 123.957 48.346 140 75.0001 140C101.654 140 124.561 123.957 134.592 101H130.198C120.437 121.686 99.39 136 75.0001 136Z" fill="#FB5108"/>
<path d="M46.6223 93V58H60.3223C62.7889 58 64.8389 58.3833 66.4723 59.15C68.1389 59.9167 69.3889 60.9833 70.2223 62.35C71.0556 63.6833 71.4723 65.2333 71.4723 67C71.4723 68.7667 71.0889 70.25 70.3223 71.45C69.5556 72.65 68.5389 73.5667 67.2723 74.2C66.0389 74.8333 64.6889 75.2167 63.2223 75.35L63.9723 74.8C65.5389 74.8333 66.9389 75.25 68.1723 76.05C69.4389 76.85 70.4389 77.9 71.1723 79.2C71.9056 80.4667 72.2723 81.8833 72.2723 83.45C72.2723 85.2833 71.8223 86.9333 70.9223 88.4C70.0556 89.8333 68.7723 90.9667 67.0723 91.8C65.3723 92.6 63.2889 93 60.8223 93H46.6223ZM52.6223 88.1H59.9223C61.8889 88.1 63.4223 87.6333 64.5223 86.7C65.6223 85.7667 66.1723 84.4667 66.1723 82.8C66.1723 81.1333 65.6056 79.8167 64.4723 78.85C63.3389 77.85 61.7889 77.35 59.8223 77.35H52.6223V88.1ZM52.6223 72.8H59.4723C61.4056 72.8 62.8723 72.3667 63.8723 71.5C64.8723 70.6 65.3723 69.3667 65.3723 67.8C65.3723 66.2667 64.8723 65.0667 63.8723 64.2C62.8723 63.3 61.3889 62.85 59.4223 62.85H52.6223V72.8ZM93.9688 93.6C90.6021 93.6 87.6188 92.85 85.0188 91.35C82.4521 89.8167 80.4354 87.7 78.9688 85C77.5021 82.2667 76.7688 79.1 76.7688 75.5C76.7688 71.9333 77.5021 68.8 78.9688 66.1C80.4354 63.3667 82.4521 61.2333 85.0188 59.7C87.6188 58.1667 90.6021 57.4 93.9688 57.4C97.4021 57.4 100.419 58.1667 103.019 59.7C105.619 61.2333 107.635 63.3667 109.069 66.1C110.502 68.8 111.219 71.9333 111.219 75.5C111.219 79.1 110.502 82.2667 109.069 85C107.635 87.7 105.619 89.8167 103.019 91.35C100.419 92.85 97.4021 93.6 93.9688 93.6ZM94.0188 88.2C96.2521 88.2 98.2021 87.7 99.8688 86.7C101.535 85.6667 102.819 84.2 103.719 82.3C104.619 80.4 105.069 78.1333 105.069 75.5C105.069 72.8667 104.619 70.6 103.719 68.7C102.819 66.8 101.535 65.35 99.8688 64.35C98.2021 63.3167 96.2521 62.8 94.0188 62.8C91.7854 62.8 89.8354 63.3167 88.1688 64.35C86.5021 65.35 85.2021 66.8 84.2688 68.7C83.3688 70.6 82.9188 72.8667 82.9188 75.5C82.9188 78.1333 83.3688 80.4 84.2688 82.3C85.2021 84.2 86.5021 85.6667 88.1688 86.7C89.8354 87.7 91.7854 88.2 94.0188 88.2ZM117.081 93V58H130.781C133.248 58 135.298 58.3833 136.931 59.15C138.598 59.9167 139.848 60.9833 140.681 62.35C141.515 63.6833 141.931 65.2333 141.931 67C141.931 68.7667 141.548 70.25 140.781 71.45C140.015 72.65 138.998 73.5667 137.731 74.2C136.498 74.8333 135.148 75.2167 133.681 75.35L134.431 74.8C135.998 74.8333 137.398 75.25 138.631 76.05C139.898 76.85 140.898 77.9 141.631 79.2C142.365 80.4667 142.731 81.8833 142.731 83.45C142.731 85.2833 142.281 86.9333 141.381 88.4C140.515 89.8333 139.231 90.9667 137.531 91.8C135.831 92.6 133.748 93 131.281 93H117.081ZM123.081 88.1H130.381C132.348 88.1 133.881 87.6333 134.981 86.7C136.081 85.7667 136.631 84.4667 136.631 82.8C136.631 81.1333 136.065 79.8167 134.931 78.85C133.798 77.85 132.248 77.35 130.281 77.35H123.081V88.1ZM123.081 72.8H129.931C131.865 72.8 133.331 72.3667 134.331 71.5C135.331 70.6 135.831 69.3667 135.831 67.8C135.831 66.2667 135.331 65.0667 134.331 64.2C133.331 63.3 131.848 62.85 129.881 62.85H123.081V72.8Z" fill="white"/>
</svg>
