<svg width="150" height="150" viewBox="0 0 150 150" fill="none" xmlns="http://www.w3.org/2000/svg">
<path fill-rule="evenodd" clip-rule="evenodd" d="M0 75C0 33.5786 33.5786 0 75 0C116.421 0 150 33.5786 150 75C150 116.421 116.421 150 75 150C33.5786 150 0 116.421 0 75ZM10.19 58C9.53274 58 9 58.5328 9 59.19V63.61C9 64.2672 9.53274 64.8 10.19 64.8H14.61C15.2673 64.8 15.8 65.3328 15.8 65.99V70.41C15.8 71.0673 15.2673 71.6 14.61 71.6H10.19C9.53274 71.6 9 72.1328 9 72.79V74.507C9 74.8312 9.12966 75.1252 9.34 75.3398L15.4602 81.46C15.6748 81.6703 15.9688 81.8 16.293 81.8H23.45C24.1073 81.8 24.64 82.3328 24.64 82.99V84.01C24.64 84.6673 24.1073 85.2 23.45 85.2H10.19C9.53274 85.2 9 85.7328 9 86.39V90.81C9 91.4672 9.53274 92 10.19 92H28.21C28.8673 92 29.4 91.4672 29.4 90.81V86.39C29.4 85.7327 29.9327 85.2 30.59 85.2H35.01C35.6673 85.2 36.2 85.7328 36.2 86.39V90.81C36.2 91.4672 36.7327 92 37.39 92H41.81C42.4673 92 43 91.4672 43 90.81V86.39C43 85.7328 42.4673 85.2 41.81 85.2H37.39C36.7327 85.2 36.2 84.6672 36.2 84.01V82.293C36.2 81.9688 36.0703 81.6748 35.86 81.4602L29.7398 75.34C29.5252 75.1297 29.2312 75 28.907 75H21.75C21.0927 75 20.56 74.4672 20.56 73.81V72.79C20.56 72.1327 21.0927 71.6 21.75 71.6H35.01C35.6673 71.6 36.2 71.0672 36.2 70.41V65.99C36.2 65.3328 35.6673 64.8 35.01 64.8H16.99C16.3327 64.8 15.8 64.2672 15.8 63.61V59.19C15.8 58.5328 15.2673 58 14.61 58H10.19ZM75.0001 14C99.39 14 120.437 28.3142 130.198 49H134.592C124.561 26.0432 101.654 10 75.0001 10C48.346 10 25.4389 26.0432 15.4087 49H19.8027C29.5635 28.3142 50.6102 14 75.0001 14ZM75.0001 136C50.6102 136 29.5635 121.686 19.8027 101H15.4087C25.4389 123.957 48.346 140 75.0001 140C101.654 140 124.561 123.957 134.592 101H130.198C120.437 121.686 99.39 136 75.0001 136Z" fill="#FB5108"/>
<path d="M52.6281 93V58H66.3281C68.7948 58 70.8448 58.3833 72.4781 59.15C74.1448 59.9167 75.3948 60.9833 76.2281 62.35C77.0615 63.6833 77.4781 65.2333 77.4781 67C77.4781 68.7667 77.0948 70.25 76.3281 71.45C75.5615 72.65 74.5448 73.5667 73.2781 74.2C72.0448 74.8333 70.6948 75.2167 69.2281 75.35L69.9781 74.8C71.5448 74.8333 72.9448 75.25 74.1781 76.05C75.4448 76.85 76.4448 77.9 77.1781 79.2C77.9115 80.4667 78.2781 81.8833 78.2781 83.45C78.2781 85.2833 77.8281 86.9333 76.9281 88.4C76.0615 89.8333 74.7781 90.9667 73.0781 91.8C71.3781 92.6 69.2948 93 66.8281 93H52.6281ZM58.6281 88.1H65.9281C67.8948 88.1 69.4281 87.6333 70.5281 86.7C71.6281 85.7667 72.1781 84.4667 72.1781 82.8C72.1781 81.1333 71.6115 79.8167 70.4781 78.85C69.3448 77.85 67.7948 77.35 65.8281 77.35H58.6281V88.1ZM58.6281 72.8H65.4781C67.4115 72.8 68.8781 72.3667 69.8781 71.5C70.8781 70.6 71.3781 69.3667 71.3781 67.8C71.3781 66.2667 70.8781 65.0667 69.8781 64.2C68.8781 63.3 67.3948 62.85 65.4281 62.85H58.6281V72.8ZM84.0246 93V58H96.5746C99.3413 58 101.625 58.4833 103.425 59.45C105.258 60.3833 106.608 61.65 107.475 63.25C108.375 64.8167 108.825 66.6 108.825 68.6C108.825 70.4667 108.391 72.2 107.525 73.8C106.658 75.4 105.308 76.6833 103.475 77.65C101.641 78.6167 99.2913 79.1 96.4246 79.1H90.0246V93H84.0246ZM102.275 93L94.9246 77.55H101.425L109.125 93H102.275ZM90.0246 74.65H96.1746C98.4079 74.65 100.041 74.1167 101.075 73.05C102.141 71.95 102.675 70.5167 102.675 68.75C102.675 67.0167 102.158 65.6333 101.125 64.6C100.091 63.5333 98.4413 63 96.1746 63H90.0246V74.65ZM115.03 93V58H121.03V88.3H136.63V93H115.03Z" fill="white"/>
</svg>
