<svg width="150" height="150" viewBox="0 0 150 150" fill="none" xmlns="http://www.w3.org/2000/svg">
<path fill-rule="evenodd" clip-rule="evenodd" d="M0 75C0 33.5786 33.5786 0 75 0C116.421 0 150 33.5786 150 75C150 116.421 116.421 150 75 150C33.5786 150 0 116.421 0 75ZM10.19 58C9.53274 58 9 58.5328 9 59.19V63.61C9 64.2672 9.53274 64.8 10.19 64.8H14.61C15.2673 64.8 15.8 65.3328 15.8 65.99V70.41C15.8 71.0673 15.2673 71.6 14.61 71.6H10.19C9.53274 71.6 9 72.1328 9 72.79V74.507C9 74.8312 9.12966 75.1252 9.34 75.3398L15.4602 81.46C15.6748 81.6703 15.9688 81.8 16.293 81.8H23.45C24.1073 81.8 24.64 82.3328 24.64 82.99V84.01C24.64 84.6673 24.1073 85.2 23.45 85.2H10.19C9.53274 85.2 9 85.7328 9 86.39V90.81C9 91.4672 9.53274 92 10.19 92H28.21C28.8673 92 29.4 91.4672 29.4 90.81V86.39C29.4 85.7327 29.9327 85.2 30.59 85.2H35.01C35.6673 85.2 36.2 85.7328 36.2 86.39V90.81C36.2 91.4672 36.7327 92 37.39 92H41.81C42.4673 92 43 91.4672 43 90.81V86.39C43 85.7328 42.4673 85.2 41.81 85.2H37.39C36.7327 85.2 36.2 84.6672 36.2 84.01V82.293C36.2 81.9688 36.0703 81.6748 35.86 81.4602L29.7398 75.34C29.5252 75.1297 29.2312 75 28.907 75H21.75C21.0927 75 20.56 74.4672 20.56 73.81V72.79C20.56 72.1327 21.0927 71.6 21.75 71.6H35.01C35.6673 71.6 36.2 71.0672 36.2 70.41V65.99C36.2 65.3328 35.6673 64.8 35.01 64.8H16.99C16.3327 64.8 15.8 64.2672 15.8 63.61V59.19C15.8 58.5328 15.2673 58 14.61 58H10.19ZM75.0001 14C99.39 14 120.437 28.3142 130.198 49H134.592C124.561 26.0432 101.654 10 75.0001 10C48.346 10 25.4389 26.0432 15.4087 49H19.8027C29.5635 28.3142 50.6102 14 75.0001 14ZM75.0001 136C50.6102 136 29.5635 121.686 19.8027 101H15.4087C25.4389 123.957 48.346 140 75.0001 140C101.654 140 124.561 123.957 134.592 101H130.198C120.437 121.686 99.39 136 75.0001 136Z" fill="#FB5108"/>
<path d="M49.9055 93V58H63.6055C66.0721 58 68.1221 58.3833 69.7555 59.15C71.4221 59.9167 72.6721 60.9833 73.5055 62.35C74.3388 63.6833 74.7555 65.2333 74.7555 67C74.7555 68.7667 74.3721 70.25 73.6055 71.45C72.8388 72.65 71.8221 73.5667 70.5555 74.2C69.3221 74.8333 67.9721 75.2167 66.5055 75.35L67.2555 74.8C68.8221 74.8333 70.2221 75.25 71.4555 76.05C72.7221 76.85 73.7221 77.9 74.4555 79.2C75.1888 80.4667 75.5555 81.8833 75.5555 83.45C75.5555 85.2833 75.1055 86.9333 74.2055 88.4C73.3388 89.8333 72.0555 90.9667 70.3555 91.8C68.6555 92.6 66.5721 93 64.1055 93H49.9055ZM55.9055 88.1H63.2055C65.1721 88.1 66.7055 87.6333 67.8055 86.7C68.9055 85.7667 69.4555 84.4667 69.4555 82.8C69.4555 81.1333 68.8888 79.8167 67.7555 78.85C66.6221 77.85 65.0721 77.35 63.1055 77.35H55.9055V88.1ZM55.9055 72.8H62.7555C64.6888 72.8 66.1555 72.3667 67.1555 71.5C68.1555 70.6 68.6555 69.3667 68.6555 67.8C68.6555 66.2667 68.1555 65.0667 67.1555 64.2C66.1555 63.3 64.6721 62.85 62.7055 62.85H55.9055V72.8ZM93.052 93.6C90.5186 93.6 88.2686 93.15 86.302 92.25C84.3353 91.35 82.802 90.0667 81.702 88.4C80.602 86.7333 80.0353 84.75 80.002 82.45H86.352C86.352 83.6167 86.6186 84.6667 87.152 85.6C87.7186 86.5 88.4853 87.2167 89.452 87.75C90.452 88.2833 91.652 88.55 93.052 88.55C94.252 88.55 95.2853 88.3667 96.152 88C97.052 87.6 97.7353 87.05 98.202 86.35C98.702 85.6167 98.952 84.7667 98.952 83.8C98.952 82.7 98.6853 81.8 98.152 81.1C97.652 80.3667 96.952 79.75 96.052 79.25C95.152 78.75 94.1186 78.3167 92.952 77.95C91.7853 77.55 90.552 77.1333 89.252 76.7C86.4853 75.7667 84.402 74.5833 83.002 73.15C81.602 71.6833 80.902 69.7333 80.902 67.3C80.902 65.2667 81.3853 63.5167 82.352 62.05C83.3186 60.5833 84.6686 59.45 86.402 58.65C88.1686 57.8167 90.202 57.4 92.502 57.4C94.8353 57.4 96.8686 57.8167 98.602 58.65C100.369 59.4833 101.752 60.65 102.752 62.15C103.785 63.6167 104.319 65.3833 104.352 67.45H97.952C97.9186 66.5833 97.6853 65.7833 97.252 65.05C96.8186 64.2833 96.1853 63.6667 95.352 63.2C94.552 62.7 93.5686 62.45 92.402 62.45C91.402 62.4167 90.502 62.5833 89.702 62.95C88.9353 63.2833 88.3186 63.7833 87.852 64.45C87.4186 65.0833 87.202 65.8833 87.202 66.85C87.202 67.7833 87.402 68.5667 87.802 69.2C88.2353 69.8 88.852 70.3167 89.652 70.75C90.452 71.15 91.3853 71.5333 92.452 71.9C93.5186 72.2667 94.6853 72.6667 95.952 73.1C97.6853 73.6667 99.252 74.3667 100.652 75.2C102.085 76 103.219 77.05 104.052 78.35C104.885 79.65 105.302 81.3333 105.302 83.4C105.302 85.2 104.835 86.8833 103.902 88.45C102.969 89.9833 101.602 91.2333 99.802 92.2C98.002 93.1333 95.752 93.6 93.052 93.6ZM111.136 93V58H122.436C126.503 58 129.853 58.7167 132.486 60.15C135.153 61.5833 137.119 63.6167 138.386 66.25C139.686 68.85 140.336 71.95 140.336 75.55C140.336 79.0833 139.686 82.1667 138.386 84.8C137.119 87.4 135.153 89.4167 132.486 90.85C129.853 92.2833 126.503 93 122.436 93H111.136ZM117.136 87.9H122.136C125.169 87.9 127.553 87.4167 129.286 86.45C131.053 85.45 132.303 84.0333 133.036 82.2C133.803 80.3333 134.186 78.1167 134.186 75.55C134.186 72.95 133.803 70.7333 133.036 68.9C132.303 67.0333 131.053 65.6 129.286 64.6C127.553 63.5667 125.169 63.05 122.136 63.05H117.136V87.9Z" fill="white"/>
</svg>
