<svg width="150" height="150" viewBox="0 0 150 150" fill="none" xmlns="http://www.w3.org/2000/svg">
<path fill-rule="evenodd" clip-rule="evenodd" d="M0 75C0 33.5786 33.5786 0 75 0C116.421 0 150 33.5786 150 75C150 116.421 116.421 150 75 150C33.5786 150 0 116.421 0 75ZM10.19 58C9.53274 58 9 58.5328 9 59.19V63.61C9 64.2672 9.53274 64.8 10.19 64.8H14.61C15.2673 64.8 15.8 65.3328 15.8 65.99V70.41C15.8 71.0673 15.2673 71.6 14.61 71.6H10.19C9.53274 71.6 9 72.1328 9 72.79V74.507C9 74.8312 9.12966 75.1252 9.34 75.3398L15.4602 81.46C15.6748 81.6703 15.9688 81.8 16.293 81.8H23.45C24.1073 81.8 24.64 82.3328 24.64 82.99V84.01C24.64 84.6673 24.1073 85.2 23.45 85.2H10.19C9.53274 85.2 9 85.7328 9 86.39V90.81C9 91.4672 9.53274 92 10.19 92H28.21C28.8673 92 29.4 91.4672 29.4 90.81V86.39C29.4 85.7327 29.9327 85.2 30.59 85.2H35.01C35.6673 85.2 36.2 85.7328 36.2 86.39V90.81C36.2 91.4672 36.7327 92 37.39 92H41.81C42.4673 92 43 91.4672 43 90.81V86.39C43 85.7328 42.4673 85.2 41.81 85.2H37.39C36.7327 85.2 36.2 84.6672 36.2 84.01V82.293C36.2 81.9688 36.0703 81.6748 35.86 81.4602L29.7398 75.34C29.5252 75.1297 29.2312 75 28.907 75H21.75C21.0927 75 20.56 74.4672 20.56 73.81V72.79C20.56 72.1327 21.0927 71.6 21.75 71.6H35.01C35.6673 71.6 36.2 71.0672 36.2 70.41V65.99C36.2 65.3328 35.6673 64.8 35.01 64.8H16.99C16.3327 64.8 15.8 64.2672 15.8 63.61V59.19C15.8 58.5328 15.2673 58 14.61 58H10.19ZM75.0001 14C99.39 14 120.437 28.3142 130.198 49H134.592C124.561 26.0432 101.654 10 75.0001 10C48.346 10 25.4389 26.0432 15.4087 49H19.8027C29.5635 28.3142 50.6102 14 75.0001 14ZM75.0001 136C50.6102 136 29.5635 121.686 19.8027 101H15.4087C25.4389 123.957 48.346 140 75.0001 140C101.654 140 124.561 123.957 134.592 101H130.198C120.437 121.686 99.39 136 75.0001 136Z" fill="#FB5108"/>
<path d="M49.9787 93V58H63.6787C66.1454 58 68.1954 58.3833 69.8287 59.15C71.4954 59.9167 72.7454 60.9833 73.5787 62.35C74.412 63.6833 74.8287 65.2333 74.8287 67C74.8287 68.7667 74.4454 70.25 73.6787 71.45C72.912 72.65 71.8954 73.5667 70.6287 74.2C69.3954 74.8333 68.0454 75.2167 66.5787 75.35L67.3287 74.8C68.8954 74.8333 70.2954 75.25 71.5287 76.05C72.7954 76.85 73.7954 77.9 74.5287 79.2C75.262 80.4667 75.6287 81.8833 75.6287 83.45C75.6287 85.2833 75.1787 86.9333 74.2787 88.4C73.412 89.8333 72.1287 90.9667 70.4287 91.8C68.7287 92.6 66.6454 93 64.1787 93H49.9787ZM55.9787 88.1H63.2787C65.2454 88.1 66.7787 87.6333 67.8787 86.7C68.9787 85.7667 69.5287 84.4667 69.5287 82.8C69.5287 81.1333 68.962 79.8167 67.8287 78.85C66.6954 77.85 65.1454 77.35 63.1787 77.35H55.9787V88.1ZM55.9787 72.8H62.8287C64.762 72.8 66.2287 72.3667 67.2287 71.5C68.2287 70.6 68.7287 69.3667 68.7287 67.8C68.7287 66.2667 68.2287 65.0667 67.2287 64.2C66.2287 63.3 64.7454 62.85 62.7787 62.85H55.9787V72.8ZM89.0369 93V62.85H78.7369V58H105.287V62.85H94.9869V93H89.0369ZM110.233 93V58H116.233L133.083 83.3V58H139.083V93H133.083L116.233 67.75V93H110.233Z" fill="white"/>
</svg>
