<svg width="150" height="150" viewBox="0 0 150 150" fill="none" xmlns="http://www.w3.org/2000/svg">
<path fill-rule="evenodd" clip-rule="evenodd" d="M0 75C0 33.5786 33.5786 0 75 0C116.421 0 150 33.5786 150 75C150 116.421 116.421 150 75 150C33.5786 150 0 116.421 0 75ZM10.19 58C9.53274 58 9 58.5328 9 59.19V63.61C9 64.2672 9.53274 64.8 10.19 64.8H14.61C15.2673 64.8 15.8 65.3328 15.8 65.99V70.41C15.8 71.0673 15.2673 71.6 14.61 71.6H10.19C9.53274 71.6 9 72.1328 9 72.79V74.507C9 74.8312 9.12966 75.1252 9.34 75.3398L15.4602 81.46C15.6748 81.6703 15.9688 81.8 16.293 81.8H23.45C24.1073 81.8 24.64 82.3328 24.64 82.99V84.01C24.64 84.6673 24.1073 85.2 23.45 85.2H10.19C9.53274 85.2 9 85.7328 9 86.39V90.81C9 91.4672 9.53274 92 10.19 92H28.21C28.8673 92 29.4 91.4672 29.4 90.81V86.39C29.4 85.7327 29.9327 85.2 30.59 85.2H35.01C35.6673 85.2 36.2 85.7328 36.2 86.39V90.81C36.2 91.4672 36.7327 92 37.39 92H41.81C42.4673 92 43 91.4672 43 90.81V86.39C43 85.7328 42.4673 85.2 41.81 85.2H37.39C36.7327 85.2 36.2 84.6672 36.2 84.01V82.293C36.2 81.9688 36.0703 81.6748 35.86 81.4602L29.7398 75.34C29.5252 75.1297 29.2312 75 28.907 75H21.75C21.0927 75 20.56 74.4672 20.56 73.81V72.79C20.56 72.1327 21.0927 71.6 21.75 71.6H35.01C35.6673 71.6 36.2 71.0672 36.2 70.41V65.99C36.2 65.3328 35.6673 64.8 35.01 64.8H16.99C16.3327 64.8 15.8 64.2672 15.8 63.61V59.19C15.8 58.5328 15.2673 58 14.61 58H10.19ZM75.0001 14C99.39 14 120.437 28.3142 130.198 49H134.592C124.561 26.0432 101.654 10 75.0001 10C48.346 10 25.4389 26.0432 15.4087 49H19.8027C29.5635 28.3142 50.6102 14 75.0001 14ZM75.0001 136C50.6102 136 29.5635 121.686 19.8027 101H15.4087C25.4389 123.957 48.346 140 75.0001 140C101.654 140 124.561 123.957 134.592 101H130.198C120.437 121.686 99.39 136 75.0001 136Z" fill="#FB5108"/>
<path d="M48.6646 92V59.8H61.2686C63.5379 59.8 65.4239 60.1527 66.9266 60.858C68.4599 61.5633 69.6099 62.5447 70.3766 63.802C71.1433 65.0287 71.5266 66.4547 71.5266 68.08C71.5266 69.7053 71.1739 71.07 70.4686 72.174C69.7633 73.278 68.8279 74.1213 67.6626 74.704C66.5279 75.2867 65.2859 75.6393 63.9366 75.762L64.6266 75.256C66.0679 75.2867 67.3559 75.67 68.4906 76.406C69.6559 77.142 70.5759 78.108 71.2506 79.304C71.9253 80.4693 72.2626 81.7727 72.2626 83.214C72.2626 84.9007 71.8486 86.4187 71.0206 87.768C70.2233 89.0867 69.0426 90.1293 67.4786 90.896C65.9146 91.632 63.9979 92 61.7286 92H48.6646ZM54.1846 87.492H60.9006C62.7099 87.492 64.1206 87.0627 65.1326 86.204C66.1446 85.3453 66.6506 84.1493 66.6506 82.616C66.6506 81.0827 66.1293 79.8713 65.0866 78.982C64.0439 78.062 62.6179 77.602 60.8086 77.602H54.1846V87.492ZM54.1846 73.416H60.4866C62.2653 73.416 63.6146 73.0173 64.5346 72.22C65.4546 71.392 65.9146 70.2573 65.9146 68.816C65.9146 67.4053 65.4546 66.3013 64.5346 65.504C63.6146 64.676 62.2499 64.262 60.4406 64.262H54.1846V73.416ZM81.2969 92L72.7409 59.8H78.6289L84.6549 85.698L91.6469 59.8H97.7649L104.527 85.744L110.599 59.8H116.533L107.747 92H101.215L94.5909 67.62L87.7829 92H81.2969ZM119.106 92V59.8H130.698C133.274 59.8 135.405 60.2447 137.092 61.134C138.778 61.9927 140.036 63.158 140.864 64.63C141.692 66.102 142.106 67.7887 142.106 69.69C142.106 71.4687 141.707 73.1093 140.91 74.612C140.112 76.084 138.87 77.28 137.184 78.2C135.497 79.0893 133.335 79.534 130.698 79.534H124.626V92H119.106ZM124.626 75.026H130.376C132.553 75.026 134.117 74.5507 135.068 73.6C136.018 72.6187 136.494 71.3153 136.494 69.69C136.494 68.0033 136.018 66.6847 135.068 65.734C134.117 64.7833 132.553 64.308 130.376 64.308H124.626V75.026Z" fill="white"/>
</svg>
