<svg width="150" height="150" viewBox="0 0 150 150" fill="none" xmlns="http://www.w3.org/2000/svg">
<path fill-rule="evenodd" clip-rule="evenodd" d="M0 75C0 33.5786 33.5786 0 75 0C116.421 0 150 33.5786 150 75C150 116.421 116.421 150 75 150C33.5786 150 0 116.421 0 75ZM10.19 58C9.53274 58 9 58.5328 9 59.19V63.61C9 64.2672 9.53274 64.8 10.19 64.8H14.61C15.2673 64.8 15.8 65.3328 15.8 65.99V70.41C15.8 71.0673 15.2673 71.6 14.61 71.6H10.19C9.53274 71.6 9 72.1328 9 72.79V74.507C9 74.8312 9.12966 75.1252 9.34 75.3398L15.4602 81.46C15.6748 81.6703 15.9688 81.8 16.293 81.8H23.45C24.1073 81.8 24.64 82.3328 24.64 82.99V84.01C24.64 84.6673 24.1073 85.2 23.45 85.2H10.19C9.53274 85.2 9 85.7328 9 86.39V90.81C9 91.4672 9.53274 92 10.19 92H28.21C28.8673 92 29.4 91.4672 29.4 90.81V86.39C29.4 85.7327 29.9327 85.2 30.59 85.2H35.01C35.6673 85.2 36.2 85.7328 36.2 86.39V90.81C36.2 91.4672 36.7327 92 37.39 92H41.81C42.4673 92 43 91.4672 43 90.81V86.39C43 85.7328 42.4673 85.2 41.81 85.2H37.39C36.7327 85.2 36.2 84.6672 36.2 84.01V82.293C36.2 81.9688 36.0703 81.6748 35.86 81.4602L29.7398 75.34C29.5252 75.1297 29.2312 75 28.907 75H21.75C21.0927 75 20.56 74.4672 20.56 73.81V72.79C20.56 72.1327 21.0927 71.6 21.75 71.6H35.01C35.6673 71.6 36.2 71.0672 36.2 70.41V65.99C36.2 65.3328 35.6673 64.8 35.01 64.8H16.99C16.3327 64.8 15.8 64.2672 15.8 63.61V59.19C15.8 58.5328 15.2673 58 14.61 58H10.19ZM75.0001 14C99.39 14 120.437 28.3142 130.198 49H134.592C124.561 26.0432 101.654 10 75.0001 10C48.346 10 25.4389 26.0432 15.4087 49H19.8027C29.5635 28.3142 50.6102 14 75.0001 14ZM75.0001 136C50.6102 136 29.5635 121.686 19.8027 101H15.4087C25.4389 123.957 48.346 140 75.0001 140C101.654 140 124.561 123.957 134.592 101H130.198C120.437 121.686 99.39 136 75.0001 136Z" fill="#FB5108"/>
<path d="M51.6516 93V58H65.3516C67.8182 58 69.8682 58.3833 71.5016 59.15C73.1682 59.9167 74.4182 60.9833 75.2516 62.35C76.0849 63.6833 76.5016 65.2333 76.5016 67C76.5016 68.7667 76.1182 70.25 75.3516 71.45C74.5849 72.65 73.5682 73.5667 72.3016 74.2C71.0682 74.8333 69.7182 75.2167 68.2516 75.35L69.0016 74.8C70.5682 74.8333 71.9682 75.25 73.2016 76.05C74.4682 76.85 75.4682 77.9 76.2016 79.2C76.9349 80.4667 77.3016 81.8833 77.3016 83.45C77.3016 85.2833 76.8516 86.9333 75.9516 88.4C75.0849 89.8333 73.8016 90.9667 72.1016 91.8C70.4016 92.6 68.3182 93 65.8516 93H51.6516ZM57.6516 88.1H64.9516C66.9182 88.1 68.4516 87.6333 69.5516 86.7C70.6516 85.7667 71.2016 84.4667 71.2016 82.8C71.2016 81.1333 70.6349 79.8167 69.5016 78.85C68.3682 77.85 66.8182 77.35 64.8516 77.35H57.6516V88.1ZM57.6516 72.8H64.5016C66.4349 72.8 67.9016 72.3667 68.9016 71.5C69.9016 70.6 70.4016 69.3667 70.4016 67.8C70.4016 66.2667 69.9016 65.0667 68.9016 64.2C67.9016 63.3 66.4182 62.85 64.4516 62.85H57.6516V72.8ZM90.4344 93V80.4L78.7844 58H85.5844L94.1344 75.8H92.8344L101.384 58H108.134L96.4344 80.4V93H90.4344ZM112.443 93V58H124.993C127.759 58 130.043 58.4833 131.843 59.45C133.676 60.3833 135.026 61.65 135.893 63.25C136.793 64.8167 137.243 66.6 137.243 68.6C137.243 70.4667 136.809 72.2 135.943 73.8C135.076 75.4 133.726 76.6833 131.893 77.65C130.059 78.6167 127.709 79.1 124.843 79.1H118.443V93H112.443ZM130.693 93L123.343 77.55H129.843L137.543 93H130.693ZM118.443 74.65H124.593C126.826 74.65 128.459 74.1167 129.493 73.05C130.559 71.95 131.093 70.5167 131.093 68.75C131.093 67.0167 130.576 65.6333 129.543 64.6C128.509 63.5333 126.859 63 124.593 63H118.443V74.65Z" fill="white"/>
</svg>
