<svg width="150" height="150" viewBox="0 0 150 150" fill="none" xmlns="http://www.w3.org/2000/svg">
<path fill-rule="evenodd" clip-rule="evenodd" d="M0 75C0 33.5786 33.5786 0 75 0C116.421 0 150 33.5786 150 75C150 116.421 116.421 150 75 150C33.5786 150 0 116.421 0 75ZM10.19 58C9.53274 58 9 58.5328 9 59.19V63.61C9 64.2672 9.53274 64.8 10.19 64.8H14.61C15.2673 64.8 15.8 65.3328 15.8 65.99V70.41C15.8 71.0673 15.2673 71.6 14.61 71.6H10.19C9.53274 71.6 9 72.1328 9 72.79V74.507C9 74.8312 9.12966 75.1252 9.34 75.3398L15.4602 81.46C15.6748 81.6703 15.9688 81.8 16.293 81.8H23.45C24.1073 81.8 24.64 82.3328 24.64 82.99V84.01C24.64 84.6673 24.1073 85.2 23.45 85.2H10.19C9.53274 85.2 9 85.7328 9 86.39V90.81C9 91.4672 9.53274 92 10.19 92H28.21C28.8673 92 29.4 91.4672 29.4 90.81V86.39C29.4 85.7327 29.9327 85.2 30.59 85.2H35.01C35.6673 85.2 36.2 85.7328 36.2 86.39V90.81C36.2 91.4672 36.7327 92 37.39 92H41.81C42.4673 92 43 91.4672 43 90.81V86.39C43 85.7328 42.4673 85.2 41.81 85.2H37.39C36.7327 85.2 36.2 84.6672 36.2 84.01V82.293C36.2 81.9688 36.0703 81.6748 35.86 81.4602L29.7398 75.34C29.5252 75.1297 29.2312 75 28.907 75H21.75C21.0927 75 20.56 74.4672 20.56 73.81V72.79C20.56 72.1327 21.0927 71.6 21.75 71.6H35.01C35.6673 71.6 36.2 71.0672 36.2 70.41V65.99C36.2 65.3328 35.6673 64.8 35.01 64.8H16.99C16.3327 64.8 15.8 64.2672 15.8 63.61V59.19C15.8 58.5328 15.2673 58 14.61 58H10.19ZM75.0001 14C99.39 14 120.437 28.3142 130.198 49H134.592C124.561 26.0432 101.654 10 75.0001 10C48.346 10 25.4389 26.0432 15.4087 49H19.8027C29.5635 28.3142 50.6102 14 75.0001 14ZM75.0001 136C50.6102 136 29.5635 121.686 19.8027 101H15.4087C25.4389 123.957 48.346 140 75.0001 140C101.654 140 124.561 123.957 134.592 101H130.198C120.437 121.686 99.39 136 75.0001 136Z" fill="#FB5108"/>
<path d="M50.6379 93V58H64.3379C66.8046 58 68.8546 58.3833 70.4879 59.15C72.1546 59.9167 73.4046 60.9833 74.2379 62.35C75.0712 63.6833 75.4879 65.2333 75.4879 67C75.4879 68.7667 75.1046 70.25 74.3379 71.45C73.5712 72.65 72.5546 73.5667 71.2879 74.2C70.0546 74.8333 68.7046 75.2167 67.2379 75.35L67.9879 74.8C69.5546 74.8333 70.9546 75.25 72.1879 76.05C73.4546 76.85 74.4546 77.9 75.1879 79.2C75.9212 80.4667 76.2879 81.8833 76.2879 83.45C76.2879 85.2833 75.8379 86.9333 74.9379 88.4C74.0712 89.8333 72.7879 90.9667 71.0879 91.8C69.3879 92.6 67.3046 93 64.8379 93H50.6379ZM56.6379 88.1H63.9379C65.9046 88.1 67.4379 87.6333 68.5379 86.7C69.6379 85.7667 70.1879 84.4667 70.1879 82.8C70.1879 81.1333 69.6212 79.8167 68.4879 78.85C67.3546 77.85 65.8046 77.35 63.8379 77.35H56.6379V88.1ZM56.6379 72.8H63.4879C65.4212 72.8 66.8879 72.3667 67.8879 71.5C68.8879 70.6 69.3879 69.3667 69.3879 67.8C69.3879 66.2667 68.8879 65.0667 67.8879 64.2C66.8879 63.3 65.4046 62.85 63.4379 62.85H56.6379V72.8ZM80.8844 93V88.4L97.3844 63.05H80.9844V58H104.334V62.6L87.7344 87.95H104.434V93H80.8844ZM110.404 93V58H121.704C125.77 58 129.12 58.7167 131.754 60.15C134.42 61.5833 136.387 63.6167 137.654 66.25C138.954 68.85 139.604 71.95 139.604 75.55C139.604 79.0833 138.954 82.1667 137.654 84.8C136.387 87.4 134.42 89.4167 131.754 90.85C129.12 92.2833 125.77 93 121.704 93H110.404ZM116.404 87.9H121.404C124.437 87.9 126.82 87.4167 128.554 86.45C130.32 85.45 131.57 84.0333 132.304 82.2C133.07 80.3333 133.454 78.1167 133.454 75.55C133.454 72.95 133.07 70.7333 132.304 68.9C131.57 67.0333 130.32 65.6 128.554 64.6C126.82 63.5667 124.437 63.05 121.404 63.05H116.404V87.9Z" fill="white"/>
</svg>
