<svg width="150" height="150" viewBox="0 0 150 150" fill="none" xmlns="http://www.w3.org/2000/svg">
<path fill-rule="evenodd" clip-rule="evenodd" d="M0 75C0 33.5786 33.5786 0 75 0C116.421 0 150 33.5786 150 75C150 116.421 116.421 150 75 150C33.5786 150 0 116.421 0 75ZM10.19 58C9.53274 58 9 58.5328 9 59.19V63.61C9 64.2672 9.53274 64.8 10.19 64.8H14.61C15.2673 64.8 15.8 65.3328 15.8 65.99V70.41C15.8 71.0673 15.2673 71.6 14.61 71.6H10.19C9.53274 71.6 9 72.1328 9 72.79V74.507C9 74.8312 9.12966 75.1252 9.34 75.3398L15.4602 81.46C15.6748 81.6703 15.9688 81.8 16.293 81.8H23.45C24.1073 81.8 24.64 82.3328 24.64 82.99V84.01C24.64 84.6673 24.1073 85.2 23.45 85.2H10.19C9.53274 85.2 9 85.7328 9 86.39V90.81C9 91.4672 9.53274 92 10.19 92H28.21C28.8673 92 29.4 91.4672 29.4 90.81V86.39C29.4 85.7327 29.9327 85.2 30.59 85.2H35.01C35.6673 85.2 36.2 85.7328 36.2 86.39V90.81C36.2 91.4672 36.7327 92 37.39 92H41.81C42.4673 92 43 91.4672 43 90.81V86.39C43 85.7328 42.4673 85.2 41.81 85.2H37.39C36.7327 85.2 36.2 84.6672 36.2 84.01V82.293C36.2 81.9688 36.0703 81.6748 35.86 81.4602L29.7398 75.34C29.5252 75.1297 29.2312 75 28.907 75H21.75C21.0927 75 20.56 74.4672 20.56 73.81V72.79C20.56 72.1327 21.0927 71.6 21.75 71.6H35.01C35.6673 71.6 36.2 71.0672 36.2 70.41V65.99C36.2 65.3328 35.6673 64.8 35.01 64.8H16.99C16.3327 64.8 15.8 64.2672 15.8 63.61V59.19C15.8 58.5328 15.2673 58 14.61 58H10.19ZM75.0001 14C99.39 14 120.437 28.3142 130.198 49H134.592C124.561 26.0432 101.654 10 75.0001 10C48.346 10 25.4389 26.0432 15.4087 49H19.8027C29.5635 28.3142 50.6102 14 75.0001 14ZM75.0001 136C50.6102 136 29.5635 121.686 19.8027 101H15.4087C25.4389 123.957 48.346 140 75.0001 140C101.654 140 124.561 123.957 134.592 101H130.198C120.437 121.686 99.39 136 75.0001 136Z" fill="#FB5108"/>
<path d="M62.5971 93.6C59.1304 93.6 56.1304 92.85 53.5971 91.35C51.0971 89.8167 49.1637 87.7 47.7971 85C46.4637 82.2667 45.7971 79.1167 45.7971 75.55C45.7971 71.95 46.4637 68.8 47.7971 66.1C49.1637 63.3667 51.0971 61.2333 53.5971 59.7C56.1304 58.1667 59.1304 57.4 62.5971 57.4C66.7637 57.4 70.1637 58.4333 72.7971 60.5C75.4304 62.5333 77.0971 65.4167 77.7971 69.15H71.1971C70.7304 67.1833 69.7804 65.6333 68.3471 64.5C66.9137 63.3667 64.9804 62.8 62.5471 62.8C60.3471 62.8 58.4471 63.3167 56.8471 64.35C55.2804 65.35 54.0637 66.8167 53.1971 68.75C52.3637 70.65 51.9471 72.9167 51.9471 75.55C51.9471 78.1833 52.3637 80.45 53.1971 82.35C54.0637 84.2167 55.2804 85.6667 56.8471 86.7C58.4471 87.7 60.3471 88.2 62.5471 88.2C64.9804 88.2 66.9137 87.6833 68.3471 86.65C69.7804 85.5833 70.7304 84.1167 71.1971 82.25H77.7971C77.1304 85.7833 75.4637 88.5667 72.7971 90.6C70.1637 92.6 66.7637 93.6 62.5971 93.6ZM78.8799 93L91.6799 58H98.3799L111.18 93H104.83L94.9799 65L85.1299 93H78.8799ZM84.5799 84.75L86.1799 80H103.43L105.03 84.75H84.5799ZM113.994 93V58H125.294C129.361 58 132.711 58.7167 135.344 60.15C138.011 61.5833 139.978 63.6167 141.244 66.25C142.544 68.85 143.194 71.95 143.194 75.55C143.194 79.0833 142.544 82.1667 141.244 84.8C139.978 87.4 138.011 89.4167 135.344 90.85C132.711 92.2833 129.361 93 125.294 93H113.994ZM119.994 87.9H124.994C128.028 87.9 130.411 87.4167 132.144 86.45C133.911 85.45 135.161 84.0333 135.894 82.2C136.661 80.3333 137.044 78.1167 137.044 75.55C137.044 72.95 136.661 70.7333 135.894 68.9C135.161 67.0333 133.911 65.6 132.144 64.6C130.411 63.5667 128.028 63.05 124.994 63.05H119.994V87.9Z" fill="white"/>
</svg>
