<svg width="150" height="150" viewBox="0 0 150 150" fill="none" xmlns="http://www.w3.org/2000/svg">
<path fill-rule="evenodd" clip-rule="evenodd" d="M0 75C0 33.5786 33.5786 0 75 0C116.421 0 150 33.5786 150 75C150 116.421 116.421 150 75 150C33.5786 150 0 116.421 0 75ZM10.19 58C9.53274 58 9 58.5328 9 59.19V63.61C9 64.2672 9.53274 64.8 10.19 64.8H14.61C15.2673 64.8 15.8 65.3328 15.8 65.99V70.41C15.8 71.0673 15.2673 71.6 14.61 71.6H10.19C9.53274 71.6 9 72.1328 9 72.79V74.507C9 74.8312 9.12966 75.1252 9.34 75.3398L15.4602 81.46C15.6748 81.6703 15.9688 81.8 16.293 81.8H23.45C24.1073 81.8 24.64 82.3328 24.64 82.99V84.01C24.64 84.6673 24.1073 85.2 23.45 85.2H10.19C9.53274 85.2 9 85.7328 9 86.39V90.81C9 91.4672 9.53274 92 10.19 92H28.21C28.8673 92 29.4 91.4672 29.4 90.81V86.39C29.4 85.7327 29.9327 85.2 30.59 85.2H35.01C35.6673 85.2 36.2 85.7328 36.2 86.39V90.81C36.2 91.4672 36.7327 92 37.39 92H41.81C42.4673 92 43 91.4672 43 90.81V86.39C43 85.7328 42.4673 85.2 41.81 85.2H37.39C36.7327 85.2 36.2 84.6672 36.2 84.01V82.293C36.2 81.9688 36.0703 81.6748 35.86 81.4602L29.7398 75.34C29.5252 75.1297 29.2312 75 28.907 75H21.75C21.0927 75 20.56 74.4672 20.56 73.81V72.79C20.56 72.1327 21.0927 71.6 21.75 71.6H35.01C35.6673 71.6 36.2 71.0672 36.2 70.41V65.99C36.2 65.3328 35.6673 64.8 35.01 64.8H16.99C16.3327 64.8 15.8 64.2672 15.8 63.61V59.19C15.8 58.5328 15.2673 58 14.61 58H10.19ZM75.0001 14C99.39 14 120.437 28.3142 130.198 49H134.592C124.561 26.0432 101.654 10 75.0001 10C48.346 10 25.4389 26.0432 15.4087 49H19.8027C29.5635 28.3142 50.6102 14 75.0001 14ZM75.0001 136C50.6102 136 29.5635 121.686 19.8027 101H15.4087C25.4389 123.957 48.346 140 75.0001 140C101.654 140 124.561 123.957 134.592 101H130.198C120.437 121.686 99.39 136 75.0001 136Z" fill="#FB5108"/>
<path d="M65.515 93.6C62.0484 93.6 59.0484 92.85 56.515 91.35C54.015 89.8167 52.0817 87.7 50.715 85C49.3817 82.2667 48.715 79.1167 48.715 75.55C48.715 71.95 49.3817 68.8 50.715 66.1C52.0817 63.3667 54.015 61.2333 56.515 59.7C59.0484 58.1667 62.0484 57.4 65.515 57.4C69.6817 57.4 73.0817 58.4333 75.715 60.5C78.3484 62.5333 80.015 65.4167 80.715 69.15H74.115C73.6484 67.1833 72.6984 65.6333 71.265 64.5C69.8317 63.3667 67.8984 62.8 65.465 62.8C63.265 62.8 61.365 63.3167 59.765 64.35C58.1984 65.35 56.9817 66.8167 56.115 68.75C55.2817 70.65 54.865 72.9167 54.865 75.55C54.865 78.1833 55.2817 80.45 56.115 82.35C56.9817 84.2167 58.1984 85.6667 59.765 86.7C61.365 87.7 63.265 88.2 65.465 88.2C67.8984 88.2 69.8317 87.6833 71.265 86.65C72.6984 85.5833 73.6484 84.1167 74.115 82.25H80.715C80.0484 85.7833 78.3817 88.5667 75.715 90.6C73.0817 92.6 69.6817 93.6 65.515 93.6ZM84.5861 93V58H95.8861C99.9528 58 103.303 58.7167 105.936 60.15C108.603 61.5833 110.569 63.6167 111.836 66.25C113.136 68.85 113.786 71.95 113.786 75.55C113.786 79.0833 113.136 82.1667 111.836 84.8C110.569 87.4 108.603 89.4167 105.936 90.85C103.303 92.2833 99.9528 93 95.8861 93H84.5861ZM90.5861 87.9H95.5861C98.6195 87.9 101.003 87.4167 102.736 86.45C104.503 85.45 105.753 84.0333 106.486 82.2C107.253 80.3333 107.636 78.1167 107.636 75.55C107.636 72.95 107.253 70.7333 106.486 68.9C105.753 67.0333 104.503 65.6 102.736 64.6C101.003 63.5667 98.6195 63.05 95.5861 63.05H90.5861V87.9ZM117.645 93V58H139.995V62.85H123.645V73.1H136.995V77.85H123.645V93H117.645Z" fill="white"/>
</svg>
