<svg width="150" height="150" viewBox="0 0 150 150" fill="none" xmlns="http://www.w3.org/2000/svg">
<path fill-rule="evenodd" clip-rule="evenodd" d="M0 75C0 33.5786 33.5786 0 75 0C116.421 0 150 33.5786 150 75C150 116.421 116.421 150 75 150C33.5786 150 0 116.421 0 75ZM10.19 58C9.53274 58 9 58.5328 9 59.19V63.61C9 64.2672 9.53274 64.8 10.19 64.8H14.61C15.2673 64.8 15.8 65.3328 15.8 65.99V70.41C15.8 71.0673 15.2673 71.6 14.61 71.6H10.19C9.53274 71.6 9 72.1328 9 72.79V74.507C9 74.8312 9.12966 75.1252 9.34 75.3398L15.4602 81.46C15.6748 81.6703 15.9688 81.8 16.293 81.8H23.45C24.1073 81.8 24.64 82.3328 24.64 82.99V84.01C24.64 84.6673 24.1073 85.2 23.45 85.2H10.19C9.53274 85.2 9 85.7328 9 86.39V90.81C9 91.4672 9.53274 92 10.19 92H28.21C28.8673 92 29.4 91.4672 29.4 90.81V86.39C29.4 85.7327 29.9327 85.2 30.59 85.2H35.01C35.6673 85.2 36.2 85.7328 36.2 86.39V90.81C36.2 91.4672 36.7327 92 37.39 92H41.81C42.4673 92 43 91.4672 43 90.81V86.39C43 85.7328 42.4673 85.2 41.81 85.2H37.39C36.7327 85.2 36.2 84.6672 36.2 84.01V82.293C36.2 81.9688 36.0703 81.6748 35.86 81.4602L29.7398 75.34C29.5252 75.1297 29.2312 75 28.907 75H21.75C21.0927 75 20.56 74.4672 20.56 73.81V72.79C20.56 72.1327 21.0927 71.6 21.75 71.6H35.01C35.6673 71.6 36.2 71.0672 36.2 70.41V65.99C36.2 65.3328 35.6673 64.8 35.01 64.8H16.99C16.3327 64.8 15.8 64.2672 15.8 63.61V59.19C15.8 58.5328 15.2673 58 14.61 58H10.19ZM75.0001 14C99.39 14 120.437 28.3142 130.198 49H134.592C124.561 26.0432 101.654 10 75.0001 10C48.346 10 25.4389 26.0432 15.4087 49H19.8027C29.5635 28.3142 50.6102 14 75.0001 14ZM75.0001 136C50.6102 136 29.5635 121.686 19.8027 101H15.4087C25.4389 123.957 48.346 140 75.0001 140C101.654 140 124.561 123.957 134.592 101H130.198C120.437 121.686 99.39 136 75.0001 136Z" fill="#FB5108"/>
<path d="M63.4418 93.6C59.9751 93.6 56.9751 92.85 54.4418 91.35C51.9418 89.8167 50.0085 87.7 48.6418 85C47.3085 82.2667 46.6418 79.1167 46.6418 75.55C46.6418 71.95 47.3085 68.8 48.6418 66.1C50.0085 63.3667 51.9418 61.2333 54.4418 59.7C56.9751 58.1667 59.9751 57.4 63.4418 57.4C67.6085 57.4 71.0085 58.4333 73.6418 60.5C76.2751 62.5333 77.9418 65.4167 78.6418 69.15H72.0418C71.5751 67.1833 70.6251 65.6333 69.1918 64.5C67.7585 63.3667 65.8251 62.8 63.3918 62.8C61.1918 62.8 59.2918 63.3167 57.6918 64.35C56.1251 65.35 54.9085 66.8167 54.0418 68.75C53.2085 70.65 52.7918 72.9167 52.7918 75.55C52.7918 78.1833 53.2085 80.45 54.0418 82.35C54.9085 84.2167 56.1251 85.6667 57.6918 86.7C59.2918 87.7 61.1918 88.2 63.3918 88.2C65.8251 88.2 67.7585 87.6833 69.1918 86.65C70.6251 85.5833 71.5751 84.1167 72.0418 82.25H78.6418C77.9751 85.7833 76.3085 88.5667 73.6418 90.6C71.0085 92.6 67.6085 93.6 63.4418 93.6ZM106.613 93V58H112.613V93H106.613ZM84.5129 93V58H90.5129V93H84.5129ZM89.6129 77.6V72.7H107.763V77.6H89.6129ZM119.718 93V58H142.068V62.85H125.718V73.1H139.068V77.85H125.718V93H119.718Z" fill="white"/>
</svg>
