<svg width="150" height="150" viewBox="0 0 150 150" fill="none" xmlns="http://www.w3.org/2000/svg">
<path fill-rule="evenodd" clip-rule="evenodd" d="M0 75C0 33.5786 33.5786 0 75 0C116.421 0 150 33.5786 150 75C150 116.421 116.421 150 75 150C33.5786 150 0 116.421 0 75ZM10.19 58C9.53274 58 9 58.5328 9 59.19V63.61C9 64.2672 9.53274 64.8 10.19 64.8H14.61C15.2673 64.8 15.8 65.3328 15.8 65.99V70.41C15.8 71.0673 15.2673 71.6 14.61 71.6H10.19C9.53274 71.6 9 72.1328 9 72.79V74.507C9 74.8312 9.12966 75.1252 9.34 75.3398L15.4602 81.46C15.6748 81.6703 15.9688 81.8 16.293 81.8H23.45C24.1073 81.8 24.64 82.3328 24.64 82.99V84.01C24.64 84.6673 24.1073 85.2 23.45 85.2H10.19C9.53274 85.2 9 85.7328 9 86.39V90.81C9 91.4672 9.53274 92 10.19 92H28.21C28.8673 92 29.4 91.4672 29.4 90.81V86.39C29.4 85.7327 29.9327 85.2 30.59 85.2H35.01C35.6673 85.2 36.2 85.7328 36.2 86.39V90.81C36.2 91.4672 36.7327 92 37.39 92H41.81C42.4673 92 43 91.4672 43 90.81V86.39C43 85.7328 42.4673 85.2 41.81 85.2H37.39C36.7327 85.2 36.2 84.6672 36.2 84.01V82.293C36.2 81.9688 36.0703 81.6748 35.86 81.4602L29.7398 75.34C29.5252 75.1297 29.2312 75 28.907 75H21.75C21.0927 75 20.56 74.4672 20.56 73.81V72.79C20.56 72.1327 21.0927 71.6 21.75 71.6H35.01C35.6673 71.6 36.2 71.0672 36.2 70.41V65.99C36.2 65.3328 35.6673 64.8 35.01 64.8H16.99C16.3327 64.8 15.8 64.2672 15.8 63.61V59.19C15.8 58.5328 15.2673 58 14.61 58H10.19ZM75.0001 14C99.39 14 120.437 28.3142 130.198 49H134.592C124.561 26.0432 101.654 10 75.0001 10C48.346 10 25.4389 26.0432 15.4087 49H19.8027C29.5635 28.3142 50.6102 14 75.0001 14ZM75.0001 136C50.6102 136 29.5635 121.686 19.8027 101H15.4087C25.4389 123.957 48.346 140 75.0001 140C101.654 140 124.561 123.957 134.592 101H130.198C120.437 121.686 99.39 136 75.0001 136Z" fill="#FB5108"/>
<path d="M66.4809 93.6C63.0142 93.6 60.0142 92.85 57.4809 91.35C54.9809 89.8167 53.0475 87.7 51.6809 85C50.3475 82.2667 49.6809 79.1167 49.6809 75.55C49.6809 71.95 50.3475 68.8 51.6809 66.1C53.0475 63.3667 54.9809 61.2333 57.4809 59.7C60.0142 58.1667 63.0142 57.4 66.4809 57.4C70.6475 57.4 74.0475 58.4333 76.6809 60.5C79.3142 62.5333 80.9809 65.4167 81.6809 69.15H75.0809C74.6142 67.1833 73.6642 65.6333 72.2309 64.5C70.7975 63.3667 68.8642 62.8 66.4309 62.8C64.2309 62.8 62.3309 63.3167 60.7309 64.35C59.1642 65.35 57.9475 66.8167 57.0809 68.75C56.2475 70.65 55.8309 72.9167 55.8309 75.55C55.8309 78.1833 56.2475 80.45 57.0809 82.35C57.9475 84.2167 59.1642 85.6667 60.7309 86.7C62.3309 87.7 64.2309 88.2 66.4309 88.2C68.8642 88.2 70.7975 87.6833 72.2309 86.65C73.6642 85.5833 74.6142 84.1167 75.0809 82.25H81.6809C81.0142 85.7833 79.3475 88.5667 76.6809 90.6C74.0475 92.6 70.6475 93.6 66.4809 93.6ZM87.552 93V58H93.552V88.3H109.152V93H87.552ZM114.993 93V58H127.593C130.393 58 132.71 58.4833 134.543 59.45C136.377 60.3833 137.743 61.65 138.643 63.25C139.543 64.85 139.993 66.6833 139.993 68.75C139.993 70.6833 139.56 72.4667 138.693 74.1C137.827 75.7 136.477 77 134.643 78C132.81 78.9667 130.46 79.45 127.593 79.45H120.993V93H114.993ZM120.993 74.55H127.243C129.61 74.55 131.31 74.0333 132.343 73C133.377 71.9333 133.893 70.5167 133.893 68.75C133.893 66.9167 133.377 65.4833 132.343 64.45C131.31 63.4167 129.61 62.9 127.243 62.9H120.993V74.55Z" fill="white"/>
</svg>
