<svg width="150" height="150" viewBox="0 0 150 150" fill="none" xmlns="http://www.w3.org/2000/svg">
<path fill-rule="evenodd" clip-rule="evenodd" d="M0 75C0 33.5786 33.5786 0 75 0C116.421 0 150 33.5786 150 75C150 116.421 116.421 150 75 150C33.5786 150 0 116.421 0 75ZM10.19 58C9.53274 58 9 58.5328 9 59.19V63.61C9 64.2672 9.53274 64.8 10.19 64.8H14.61C15.2673 64.8 15.8 65.3328 15.8 65.99V70.41C15.8 71.0673 15.2673 71.6 14.61 71.6H10.19C9.53274 71.6 9 72.1328 9 72.79V74.507C9 74.8312 9.12966 75.1252 9.34 75.3398L15.4602 81.46C15.6748 81.6703 15.9688 81.8 16.293 81.8H23.45C24.1073 81.8 24.64 82.3328 24.64 82.99V84.01C24.64 84.6673 24.1073 85.2 23.45 85.2H10.19C9.53274 85.2 9 85.7328 9 86.39V90.81C9 91.4672 9.53274 92 10.19 92H28.21C28.8673 92 29.4 91.4672 29.4 90.81V86.39C29.4 85.7327 29.9327 85.2 30.59 85.2H35.01C35.6673 85.2 36.2 85.7328 36.2 86.39V90.81C36.2 91.4672 36.7327 92 37.39 92H41.81C42.4673 92 43 91.4672 43 90.81V86.39C43 85.7328 42.4673 85.2 41.81 85.2H37.39C36.7327 85.2 36.2 84.6672 36.2 84.01V82.293C36.2 81.9688 36.0703 81.6748 35.86 81.4602L29.7398 75.34C29.5252 75.1297 29.2312 75 28.907 75H21.75C21.0927 75 20.56 74.4672 20.56 73.81V72.79C20.56 72.1327 21.0927 71.6 21.75 71.6H35.01C35.6673 71.6 36.2 71.0672 36.2 70.41V65.99C36.2 65.3328 35.6673 64.8 35.01 64.8H16.99C16.3327 64.8 15.8 64.2672 15.8 63.61V59.19C15.8 58.5328 15.2673 58 14.61 58H10.19ZM75.0001 14C99.39 14 120.437 28.3142 130.198 49H134.592C124.561 26.0432 101.654 10 75.0001 10C48.346 10 25.4389 26.0432 15.4087 49H19.8027C29.5635 28.3142 50.6102 14 75.0001 14ZM75.0001 136C50.6102 136 29.5635 121.686 19.8027 101H15.4087C25.4389 123.957 48.346 140 75.0001 140C101.654 140 124.561 123.957 134.592 101H130.198C120.437 121.686 99.39 136 75.0001 136Z" fill="#FB5108"/>
<path d="M61.391 93.6C57.9244 93.6 54.9243 92.85 52.391 91.35C49.891 89.8167 47.9577 87.7 46.591 85C45.2577 82.2667 44.591 79.1167 44.591 75.55C44.591 71.95 45.2577 68.8 46.591 66.1C47.9577 63.3667 49.891 61.2333 52.391 59.7C54.9243 58.1667 57.9244 57.4 61.391 57.4C65.5577 57.4 68.9577 58.4333 71.591 60.5C74.2244 62.5333 75.891 65.4167 76.591 69.15H69.991C69.5244 67.1833 68.5743 65.6333 67.141 64.5C65.7077 63.3667 63.7744 62.8 61.341 62.8C59.141 62.8 57.241 63.3167 55.641 64.35C54.0743 65.35 52.8577 66.8167 51.991 68.75C51.1577 70.65 50.741 72.9167 50.741 75.55C50.741 78.1833 51.1577 80.45 51.991 82.35C52.8577 84.2167 54.0743 85.6667 55.641 86.7C57.241 87.7 59.141 88.2 61.341 88.2C63.7744 88.2 65.7077 87.6833 67.141 86.65C68.5743 85.5833 69.5244 84.1167 69.991 82.25H76.591C75.9244 85.7833 74.2577 88.5667 71.591 90.6C68.9577 92.6 65.5577 93.6 61.391 93.6ZM82.4621 93V58H88.4621L105.312 83.3V58H111.312V93H105.312L88.4621 67.75V93H82.4621ZM127.251 93V80.4L115.601 58H122.401L130.951 75.8H129.651L138.201 58H144.951L133.251 80.4V93H127.251Z" fill="white"/>
</svg>
