<svg width="150" height="150" viewBox="0 0 150 150" fill="none" xmlns="http://www.w3.org/2000/svg">
<path fill-rule="evenodd" clip-rule="evenodd" d="M0 75C0 33.5786 33.5786 0 75 0C116.421 0 150 33.5786 150 75C150 116.421 116.421 150 75 150C33.5786 150 0 116.421 0 75ZM10.19 58C9.53274 58 9 58.5328 9 59.19V63.61C9 64.2672 9.53274 64.8 10.19 64.8H14.61C15.2673 64.8 15.8 65.3328 15.8 65.99V70.41C15.8 71.0673 15.2673 71.6 14.61 71.6H10.19C9.53274 71.6 9 72.1328 9 72.79V74.507C9 74.8312 9.12966 75.1252 9.34 75.3398L15.4602 81.46C15.6748 81.6703 15.9688 81.8 16.293 81.8H23.45C24.1073 81.8 24.64 82.3328 24.64 82.99V84.01C24.64 84.6673 24.1073 85.2 23.45 85.2H10.19C9.53274 85.2 9 85.7328 9 86.39V90.81C9 91.4672 9.53274 92 10.19 92H28.21C28.8673 92 29.4 91.4672 29.4 90.81V86.39C29.4 85.7327 29.9327 85.2 30.59 85.2H35.01C35.6673 85.2 36.2 85.7328 36.2 86.39V90.81C36.2 91.4672 36.7327 92 37.39 92H41.81C42.4673 92 43 91.4672 43 90.81V86.39C43 85.7328 42.4673 85.2 41.81 85.2H37.39C36.7327 85.2 36.2 84.6672 36.2 84.01V82.293C36.2 81.9688 36.0703 81.6748 35.86 81.4602L29.7398 75.34C29.5252 75.1297 29.2312 75 28.907 75H21.75C21.0927 75 20.56 74.4672 20.56 73.81V72.79C20.56 72.1327 21.0927 71.6 21.75 71.6H35.01C35.6673 71.6 36.2 71.0672 36.2 70.41V65.99C36.2 65.3328 35.6673 64.8 35.01 64.8H16.99C16.3327 64.8 15.8 64.2672 15.8 63.61V59.19C15.8 58.5328 15.2673 58 14.61 58H10.19ZM75.0001 14C99.39 14 120.437 28.3142 130.198 49H134.592C124.561 26.0432 101.654 10 75.0001 10C48.346 10 25.4389 26.0432 15.4087 49H19.8027C29.5635 28.3142 50.6102 14 75.0001 14ZM75.0001 136C50.6102 136 29.5635 121.686 19.8027 101H15.4087C25.4389 123.957 48.346 140 75.0001 140C101.654 140 124.561 123.957 134.592 101H130.198C120.437 121.686 99.39 136 75.0001 136Z" fill="#FB5108"/>
<path d="M62.1703 93.6C58.7036 93.6 55.7036 92.85 53.1703 91.35C50.6703 89.8167 48.737 87.7 47.3703 85C46.037 82.2667 45.3703 79.1167 45.3703 75.55C45.3703 71.95 46.037 68.8 47.3703 66.1C48.737 63.3667 50.6703 61.2333 53.1703 59.7C55.7036 58.1667 58.7036 57.4 62.1703 57.4C66.337 57.4 69.737 58.4333 72.3703 60.5C75.0036 62.5333 76.6703 65.4167 77.3703 69.15H70.7703C70.3036 67.1833 69.3536 65.6333 67.9203 64.5C66.487 63.3667 64.5536 62.8 62.1203 62.8C59.9203 62.8 58.0203 63.3167 56.4203 64.35C54.8536 65.35 53.637 66.8167 52.7703 68.75C51.937 70.65 51.5203 72.9167 51.5203 75.55C51.5203 78.1833 51.937 80.45 52.7703 82.35C53.637 84.2167 54.8536 85.6667 56.4203 86.7C58.0203 87.7 59.9203 88.2 62.1203 88.2C64.5536 88.2 66.487 87.6833 67.9203 86.65C69.3536 85.5833 70.3036 84.1167 70.7703 82.25H77.3703C76.7036 85.7833 75.037 88.5667 72.3703 90.6C69.737 92.6 66.337 93.6 62.1703 93.6ZM97.1914 93.6C93.8247 93.6 90.8414 92.85 88.2414 91.35C85.6747 89.8167 83.6581 87.7 82.1914 85C80.7247 82.2667 79.9914 79.1 79.9914 75.5C79.9914 71.9333 80.7247 68.8 82.1914 66.1C83.6581 63.3667 85.6747 61.2333 88.2414 59.7C90.8414 58.1667 93.8247 57.4 97.1914 57.4C100.625 57.4 103.641 58.1667 106.241 59.7C108.841 61.2333 110.858 63.3667 112.291 66.1C113.725 68.8 114.441 71.9333 114.441 75.5C114.441 79.1 113.725 82.2667 112.291 85C110.858 87.7 108.841 89.8167 106.241 91.35C103.641 92.85 100.625 93.6 97.1914 93.6ZM97.2414 88.2C99.4747 88.2 101.425 87.7 103.091 86.7C104.758 85.6667 106.041 84.2 106.941 82.3C107.841 80.4 108.291 78.1333 108.291 75.5C108.291 72.8667 107.841 70.6 106.941 68.7C106.041 66.8 104.758 65.35 103.091 64.35C101.425 63.3167 99.4747 62.8 97.2414 62.8C95.0081 62.8 93.0581 63.3167 91.3914 64.35C89.7247 65.35 88.4247 66.8 87.4914 68.7C86.5914 70.6 86.1414 72.8667 86.1414 75.5C86.1414 78.1333 86.5914 80.4 87.4914 82.3C88.4247 84.2 89.7247 85.6667 91.3914 86.7C93.0581 87.7 95.0081 88.2 97.2414 88.2ZM118.304 93V58H130.904C133.704 58 136.021 58.4833 137.854 59.45C139.687 60.3833 141.054 61.65 141.954 63.25C142.854 64.85 143.304 66.6833 143.304 68.75C143.304 70.6833 142.871 72.4667 142.004 74.1C141.137 75.7 139.787 77 137.954 78C136.121 78.9667 133.771 79.45 130.904 79.45H124.304V93H118.304ZM124.304 74.55H130.554C132.921 74.55 134.621 74.0333 135.654 73C136.687 71.9333 137.204 70.5167 137.204 68.75C137.204 66.9167 136.687 65.4833 135.654 64.45C134.621 63.4167 132.921 62.9 130.554 62.9H124.304V74.55Z" fill="white"/>
</svg>
