<svg width="150" height="150" viewBox="0 0 150 150" fill="none" xmlns="http://www.w3.org/2000/svg">
<path fill-rule="evenodd" clip-rule="evenodd" d="M0 75C0 33.5786 33.5786 0 75 0C116.421 0 150 33.5786 150 75C150 116.421 116.421 150 75 150C33.5786 150 0 116.421 0 75ZM10.19 58C9.53274 58 9 58.5328 9 59.19V63.61C9 64.2672 9.53274 64.8 10.19 64.8H14.61C15.2673 64.8 15.8 65.3328 15.8 65.99V70.41C15.8 71.0673 15.2673 71.6 14.61 71.6H10.19C9.53274 71.6 9 72.1328 9 72.79V74.507C9 74.8312 9.12966 75.1252 9.34 75.3398L15.4602 81.46C15.6748 81.6703 15.9688 81.8 16.293 81.8H23.45C24.1073 81.8 24.64 82.3328 24.64 82.99V84.01C24.64 84.6673 24.1073 85.2 23.45 85.2H10.19C9.53274 85.2 9 85.7328 9 86.39V90.81C9 91.4672 9.53274 92 10.19 92H28.21C28.8673 92 29.4 91.4672 29.4 90.81V86.39C29.4 85.7327 29.9327 85.2 30.59 85.2H35.01C35.6673 85.2 36.2 85.7328 36.2 86.39V90.81C36.2 91.4672 36.7327 92 37.39 92H41.81C42.4673 92 43 91.4672 43 90.81V86.39C43 85.7328 42.4673 85.2 41.81 85.2H37.39C36.7327 85.2 36.2 84.6672 36.2 84.01V82.293C36.2 81.9688 36.0703 81.6748 35.86 81.4602L29.7398 75.34C29.5252 75.1297 29.2312 75 28.907 75H21.75C21.0927 75 20.56 74.4672 20.56 73.81V72.79C20.56 72.1327 21.0927 71.6 21.75 71.6H35.01C35.6673 71.6 36.2 71.0672 36.2 70.41V65.99C36.2 65.3328 35.6673 64.8 35.01 64.8H16.99C16.3327 64.8 15.8 64.2672 15.8 63.61V59.19C15.8 58.5328 15.2673 58 14.61 58H10.19ZM75.0001 14C99.39 14 120.437 28.3142 130.198 49H134.592C124.561 26.0432 101.654 10 75.0001 10C48.346 10 25.4389 26.0432 15.4087 49H19.8027C29.5635 28.3142 50.6102 14 75.0001 14ZM75.0001 136C50.6102 136 29.5635 121.686 19.8027 101H15.4087C25.4389 123.957 48.346 140 75.0001 140C101.654 140 124.561 123.957 134.592 101H130.198C120.437 121.686 99.39 136 75.0001 136Z" fill="#FB5108"/>
<path d="M63.476 93.6C60.0093 93.6 57.0093 92.85 54.476 91.35C51.976 89.8167 50.0426 87.7 48.676 85C47.3426 82.2667 46.676 79.1167 46.676 75.55C46.676 71.95 47.3426 68.8 48.676 66.1C50.0426 63.3667 51.976 61.2333 54.476 59.7C57.0093 58.1667 60.0093 57.4 63.476 57.4C67.6426 57.4 71.0426 58.4333 73.676 60.5C76.3093 62.5333 77.976 65.4167 78.676 69.15H72.076C71.6093 67.1833 70.6593 65.6333 69.226 64.5C67.7926 63.3667 65.8593 62.8 63.426 62.8C61.226 62.8 59.326 63.3167 57.726 64.35C56.1593 65.35 54.9426 66.8167 54.076 68.75C53.2426 70.65 52.826 72.9167 52.826 75.55C52.826 78.1833 53.2426 80.45 54.076 82.35C54.9426 84.2167 56.1593 85.6667 57.726 86.7C59.326 87.7 61.226 88.2 63.426 88.2C65.8593 88.2 67.7926 87.6833 69.226 86.65C70.6593 85.5833 71.6093 84.1167 72.076 82.25H78.676C78.0093 85.7833 76.3426 88.5667 73.676 90.6C71.0426 92.6 67.6426 93.6 63.476 93.6ZM82.5471 93V58H95.0971C97.8637 58 100.147 58.4833 101.947 59.45C103.78 60.3833 105.13 61.65 105.997 63.25C106.897 64.8167 107.347 66.6 107.347 68.6C107.347 70.4667 106.914 72.2 106.047 73.8C105.18 75.4 103.83 76.6833 101.997 77.65C100.164 78.6167 97.8137 79.1 94.9471 79.1H88.5471V93H82.5471ZM100.797 93L93.4471 77.55H99.9471L107.647 93H100.797ZM88.5471 74.65H94.6971C96.9304 74.65 98.5637 74.1167 99.5971 73.05C100.664 71.95 101.197 70.5167 101.197 68.75C101.197 67.0167 100.68 65.6333 99.6471 64.6C98.6137 63.5333 96.9637 63 94.6971 63H88.5471V74.65ZM127.103 93.6C123.636 93.6 120.636 92.85 118.103 91.35C115.603 89.8167 113.67 87.7 112.303 85C110.97 82.2667 110.303 79.1167 110.303 75.55C110.303 71.95 110.97 68.8 112.303 66.1C113.67 63.3667 115.603 61.2333 118.103 59.7C120.636 58.1667 123.636 57.4 127.103 57.4C131.27 57.4 134.67 58.4333 137.303 60.5C139.936 62.5333 141.603 65.4167 142.303 69.15H135.703C135.236 67.1833 134.286 65.6333 132.853 64.5C131.42 63.3667 129.486 62.8 127.053 62.8C124.853 62.8 122.953 63.3167 121.353 64.35C119.786 65.35 118.57 66.8167 117.703 68.75C116.87 70.65 116.453 72.9167 116.453 75.55C116.453 78.1833 116.87 80.45 117.703 82.35C118.57 84.2167 119.786 85.6667 121.353 86.7C122.953 87.7 124.853 88.2 127.053 88.2C129.486 88.2 131.42 87.6833 132.853 86.65C134.286 85.5833 135.236 84.1167 135.703 82.25H142.303C141.636 85.7833 139.97 88.5667 137.303 90.6C134.67 92.6 131.27 93.6 127.103 93.6Z" fill="white"/>
</svg>
