<svg width="150" height="150" viewBox="0 0 150 150" fill="none" xmlns="http://www.w3.org/2000/svg">
<path fill-rule="evenodd" clip-rule="evenodd" d="M0 75C0 33.5786 33.5786 0 75 0C116.421 0 150 33.5786 150 75C150 116.421 116.421 150 75 150C33.5786 150 0 116.421 0 75ZM10.19 58C9.53274 58 9 58.5328 9 59.19V63.61C9 64.2672 9.53274 64.8 10.19 64.8H14.61C15.2673 64.8 15.8 65.3328 15.8 65.99V70.41C15.8 71.0673 15.2673 71.6 14.61 71.6H10.19C9.53274 71.6 9 72.1328 9 72.79V74.507C9 74.8312 9.12966 75.1252 9.34 75.3398L15.4602 81.46C15.6748 81.6703 15.9688 81.8 16.293 81.8H23.45C24.1073 81.8 24.64 82.3328 24.64 82.99V84.01C24.64 84.6673 24.1073 85.2 23.45 85.2H10.19C9.53274 85.2 9 85.7328 9 86.39V90.81C9 91.4672 9.53274 92 10.19 92H28.21C28.8673 92 29.4 91.4672 29.4 90.81V86.39C29.4 85.7327 29.9327 85.2 30.59 85.2H35.01C35.6673 85.2 36.2 85.7328 36.2 86.39V90.81C36.2 91.4672 36.7327 92 37.39 92H41.81C42.4673 92 43 91.4672 43 90.81V86.39C43 85.7328 42.4673 85.2 41.81 85.2H37.39C36.7327 85.2 36.2 84.6672 36.2 84.01V82.293C36.2 81.9688 36.0703 81.6748 35.86 81.4602L29.7398 75.34C29.5252 75.1297 29.2312 75 28.907 75H21.75C21.0927 75 20.56 74.4672 20.56 73.81V72.79C20.56 72.1327 21.0927 71.6 21.75 71.6H35.01C35.6673 71.6 36.2 71.0672 36.2 70.41V65.99C36.2 65.3328 35.6673 64.8 35.01 64.8H16.99C16.3327 64.8 15.8 64.2672 15.8 63.61V59.19C15.8 58.5328 15.2673 58 14.61 58H10.19ZM75.0001 14C99.39 14 120.437 28.3142 130.198 49H134.592C124.561 26.0432 101.654 10 75.0001 10C48.346 10 25.4389 26.0432 15.4087 49H19.8027C29.5635 28.3142 50.6102 14 75.0001 14ZM75.0001 136C50.6102 136 29.5635 121.686 19.8027 101H15.4087C25.4389 123.957 48.346 140 75.0001 140C101.654 140 124.561 123.957 134.592 101H130.198C120.437 121.686 99.39 136 75.0001 136Z" fill="#FB5108"/>
<path d="M63.307 93.6C59.8404 93.6 56.8404 92.85 54.307 91.35C51.807 89.8167 49.8737 87.7 48.507 85C47.1737 82.2667 46.507 79.1167 46.507 75.55C46.507 71.95 47.1737 68.8 48.507 66.1C49.8737 63.3667 51.807 61.2333 54.307 59.7C56.8404 58.1667 59.8404 57.4 63.307 57.4C67.4737 57.4 70.8737 58.4333 73.507 60.5C76.1404 62.5333 77.807 65.4167 78.507 69.15H71.907C71.4404 67.1833 70.4904 65.6333 69.057 64.5C67.6237 63.3667 65.6904 62.8 63.257 62.8C61.057 62.8 59.157 63.3167 57.557 64.35C55.9904 65.35 54.7737 66.8167 53.907 68.75C53.0737 70.65 52.657 72.9167 52.657 75.55C52.657 78.1833 53.0737 80.45 53.907 82.35C54.7737 84.2167 55.9904 85.6667 57.557 86.7C59.157 87.7 61.057 88.2 63.257 88.2C65.6904 88.2 67.6237 87.6833 69.057 86.65C70.4904 85.5833 71.4404 84.1167 71.907 82.25H78.507C77.8404 85.7833 76.1737 88.5667 73.507 90.6C70.8737 92.6 67.4737 93.6 63.307 93.6ZM97.6281 93.6C95.0948 93.6 92.7948 93.1 90.7281 92.1C88.6948 91.1 87.0615 89.5667 85.8281 87.5C84.6281 85.4333 84.0281 82.8333 84.0281 79.7V58H90.0281V79.75C90.0281 81.65 90.3448 83.2167 90.9781 84.45C91.6115 85.6833 92.4948 86.6167 93.6281 87.25C94.7948 87.85 96.1615 88.15 97.7281 88.15C99.3281 88.15 100.695 87.85 101.828 87.25C102.995 86.6167 103.878 85.6833 104.478 84.45C105.111 83.2167 105.428 81.65 105.428 79.75V58H111.428V79.7C111.428 82.8333 110.811 85.4333 109.578 87.5C108.345 89.5667 106.678 91.1 104.578 92.1C102.478 93.1 100.161 93.6 97.6281 93.6ZM118.167 93V58H130.767C133.567 58 135.884 58.4833 137.717 59.45C139.551 60.3833 140.917 61.65 141.817 63.25C142.717 64.85 143.167 66.6833 143.167 68.75C143.167 70.6833 142.734 72.4667 141.867 74.1C141.001 75.7 139.651 77 137.817 78C135.984 78.9667 133.634 79.45 130.767 79.45H124.167V93H118.167ZM124.167 74.55H130.417C132.784 74.55 134.484 74.0333 135.517 73C136.551 71.9333 137.067 70.5167 137.067 68.75C137.067 66.9167 136.551 65.4833 135.517 64.45C134.484 63.4167 132.784 62.9 130.417 62.9H124.167V74.55Z" fill="white"/>
</svg>
