<svg width="150" height="150" viewBox="0 0 150 150" fill="none" xmlns="http://www.w3.org/2000/svg">
<path fill-rule="evenodd" clip-rule="evenodd" d="M0 75C0 33.5786 33.5786 0 75 0C116.421 0 150 33.5786 150 75C150 116.421 116.421 150 75 150C33.5786 150 0 116.421 0 75ZM10.19 58C9.53274 58 9 58.5328 9 59.19V63.61C9 64.2672 9.53274 64.8 10.19 64.8H14.61C15.2673 64.8 15.8 65.3328 15.8 65.99V70.41C15.8 71.0673 15.2673 71.6 14.61 71.6H10.19C9.53274 71.6 9 72.1328 9 72.79V74.507C9 74.8312 9.12966 75.1252 9.34 75.3398L15.4602 81.46C15.6748 81.6703 15.9688 81.8 16.293 81.8H23.45C24.1073 81.8 24.64 82.3328 24.64 82.99V84.01C24.64 84.6673 24.1073 85.2 23.45 85.2H10.19C9.53274 85.2 9 85.7328 9 86.39V90.81C9 91.4672 9.53274 92 10.19 92H28.21C28.8673 92 29.4 91.4672 29.4 90.81V86.39C29.4 85.7327 29.9327 85.2 30.59 85.2H35.01C35.6673 85.2 36.2 85.7328 36.2 86.39V90.81C36.2 91.4672 36.7327 92 37.39 92H41.81C42.4673 92 43 91.4672 43 90.81V86.39C43 85.7328 42.4673 85.2 41.81 85.2H37.39C36.7327 85.2 36.2 84.6672 36.2 84.01V82.293C36.2 81.9688 36.0703 81.6748 35.86 81.4602L29.7398 75.34C29.5252 75.1297 29.2312 75 28.907 75H21.75C21.0927 75 20.56 74.4672 20.56 73.81V72.79C20.56 72.1327 21.0927 71.6 21.75 71.6H35.01C35.6673 71.6 36.2 71.0672 36.2 70.41V65.99C36.2 65.3328 35.6673 64.8 35.01 64.8H16.99C16.3327 64.8 15.8 64.2672 15.8 63.61V59.19C15.8 58.5328 15.2673 58 14.61 58H10.19ZM75.0001 14C99.39 14 120.437 28.3142 130.198 49H134.592C124.561 26.0432 101.654 10 75.0001 10C48.346 10 25.4389 26.0432 15.4087 49H19.8027C29.5635 28.3142 50.6102 14 75.0001 14ZM75.0001 136C50.6102 136 29.5635 121.686 19.8027 101H15.4087C25.4389 123.957 48.346 140 75.0001 140C101.654 140 124.561 123.957 134.592 101H130.198C120.437 121.686 99.39 136 75.0001 136Z" fill="#FB5108"/>
<path d="M64.9372 92.552C61.7479 92.552 58.9879 91.862 56.6572 90.482C54.3572 89.0713 52.5786 87.124 51.3212 84.64C50.0946 82.1253 49.4812 79.2273 49.4812 75.946C49.4812 72.634 50.0946 69.736 51.3212 67.252C52.5786 64.7373 54.3572 62.7747 56.6572 61.364C58.9879 59.9533 61.7479 59.248 64.9372 59.248C68.7706 59.248 71.8986 60.1987 74.3212 62.1C76.7439 63.9707 78.2772 66.6233 78.9212 70.058H72.8492C72.4199 68.2487 71.5459 66.8227 70.2272 65.78C68.9086 64.7373 67.1299 64.216 64.8912 64.216C62.8672 64.216 61.1192 64.6913 59.6472 65.642C58.2059 66.562 57.0866 67.9113 56.2892 69.69C55.5226 71.438 55.1392 73.5233 55.1392 75.946C55.1392 78.3687 55.5226 80.454 56.2892 82.202C57.0866 83.9193 58.2059 85.2533 59.6472 86.204C61.1192 87.124 62.8672 87.584 64.8912 87.584C67.1299 87.584 68.9086 87.1087 70.2272 86.158C71.5459 85.1767 72.4199 83.8273 72.8492 82.11H78.9212C78.3079 85.3607 76.7746 87.9213 74.3212 89.792C71.8986 91.632 68.7706 92.552 64.9372 92.552ZM93.6606 92L81.8386 59.8H87.7726L97.0186 86.342L106.403 59.8H112.245L100.377 92H93.6606ZM116.307 92V59.8H137.099V64.262H121.827V73.508H135.719V77.878H121.827V87.538H137.099V92H116.307Z" fill="white"/>
</svg>
