<svg width="150" height="150" viewBox="0 0 150 150" fill="none" xmlns="http://www.w3.org/2000/svg">
<path fill-rule="evenodd" clip-rule="evenodd" d="M0 75C0 33.5786 33.5786 0 75 0C116.421 0 150 33.5786 150 75C150 116.421 116.421 150 75 150C33.5786 150 0 116.421 0 75ZM10.19 58C9.53274 58 9 58.5328 9 59.19V63.61C9 64.2672 9.53274 64.8 10.19 64.8H14.61C15.2673 64.8 15.8 65.3328 15.8 65.99V70.41C15.8 71.0673 15.2673 71.6 14.61 71.6H10.19C9.53274 71.6 9 72.1328 9 72.79V74.507C9 74.8312 9.12966 75.1252 9.34 75.3398L15.4602 81.46C15.6748 81.6703 15.9688 81.8 16.293 81.8H23.45C24.1073 81.8 24.64 82.3328 24.64 82.99V84.01C24.64 84.6673 24.1073 85.2 23.45 85.2H10.19C9.53274 85.2 9 85.7328 9 86.39V90.81C9 91.4672 9.53274 92 10.19 92H28.21C28.8673 92 29.4 91.4672 29.4 90.81V86.39C29.4 85.7327 29.9327 85.2 30.59 85.2H35.01C35.6673 85.2 36.2 85.7328 36.2 86.39V90.81C36.2 91.4672 36.7327 92 37.39 92H41.81C42.4673 92 43 91.4672 43 90.81V86.39C43 85.7328 42.4673 85.2 41.81 85.2H37.39C36.7327 85.2 36.2 84.6672 36.2 84.01V82.293C36.2 81.9688 36.0703 81.6748 35.86 81.4602L29.7398 75.34C29.5252 75.1297 29.2312 75 28.907 75H21.75C21.0927 75 20.56 74.4672 20.56 73.81V72.79C20.56 72.1327 21.0927 71.6 21.75 71.6H35.01C35.6673 71.6 36.2 71.0672 36.2 70.41V65.99C36.2 65.3328 35.6673 64.8 35.01 64.8H16.99C16.3327 64.8 15.8 64.2672 15.8 63.61V59.19C15.8 58.5328 15.2673 58 14.61 58H10.19ZM75.0001 14C99.39 14 120.437 28.3142 130.198 49H134.592C124.561 26.0432 101.654 10 75.0001 10C48.346 10 25.4389 26.0432 15.4087 49H19.8027C29.5635 28.3142 50.6102 14 75.0001 14ZM75.0001 136C50.6102 136 29.5635 121.686 19.8027 101H15.4087C25.4389 123.957 48.346 140 75.0001 140C101.654 140 124.561 123.957 134.592 101H130.198C120.437 121.686 99.39 136 75.0001 136Z" fill="#FB5108"/>
<path d="M67.2846 93.6C63.8179 93.6 60.8179 92.85 58.2846 91.35C55.7846 89.8167 53.8512 87.7 52.4846 85C51.1512 82.2667 50.4846 79.1167 50.4846 75.55C50.4846 71.95 51.1512 68.8 52.4846 66.1C53.8512 63.3667 55.7846 61.2333 58.2846 59.7C60.8179 58.1667 63.8179 57.4 67.2846 57.4C71.4512 57.4 74.8512 58.4333 77.4846 60.5C80.1179 62.5333 81.7846 65.4167 82.4846 69.15H75.8846C75.4179 67.1833 74.4679 65.6333 73.0346 64.5C71.6012 63.3667 69.6679 62.8 67.2346 62.8C65.0346 62.8 63.1346 63.3167 61.5346 64.35C59.9679 65.35 58.7512 66.8167 57.8846 68.75C57.0512 70.65 56.6346 72.9167 56.6346 75.55C56.6346 78.1833 57.0512 80.45 57.8846 82.35C58.7512 84.2167 59.9679 85.6667 61.5346 86.7C63.1346 87.7 65.0346 88.2 67.2346 88.2C69.6679 88.2 71.6012 87.6833 73.0346 86.65C74.4679 85.5833 75.4179 84.1167 75.8846 82.25H82.4846C81.8179 85.7833 80.1512 88.5667 77.4846 90.6C74.8512 92.6 71.4512 93.6 67.2846 93.6ZM85.2057 93V88.4L101.706 63.05H85.3057V58H108.656V62.6L92.0557 87.95H108.756V93H85.2057ZM112.725 93V58H118.725V72.45L131.925 58H139.375L126.425 71.9L139.675 93H132.375L122.175 76.5L118.725 80.25V93H112.725Z" fill="white"/>
</svg>
