<svg width="150" height="150" viewBox="0 0 150 150" fill="none" xmlns="http://www.w3.org/2000/svg">
<path fill-rule="evenodd" clip-rule="evenodd" d="M0 75C0 33.5786 33.5786 0 75 0C116.421 0 150 33.5786 150 75C150 116.421 116.421 150 75 150C33.5786 150 0 116.421 0 75ZM10.19 58C9.53274 58 9 58.5328 9 59.19V63.61C9 64.2672 9.53274 64.8 10.19 64.8H14.61C15.2673 64.8 15.8 65.3328 15.8 65.99V70.41C15.8 71.0673 15.2673 71.6 14.61 71.6H10.19C9.53274 71.6 9 72.1328 9 72.79V74.507C9 74.8312 9.12966 75.1252 9.34 75.3398L15.4602 81.46C15.6748 81.6703 15.9688 81.8 16.293 81.8H23.45C24.1073 81.8 24.64 82.3328 24.64 82.99V84.01C24.64 84.6673 24.1073 85.2 23.45 85.2H10.19C9.53274 85.2 9 85.7328 9 86.39V90.81C9 91.4672 9.53274 92 10.19 92H28.21C28.8673 92 29.4 91.4672 29.4 90.81V86.39C29.4 85.7327 29.9327 85.2 30.59 85.2H35.01C35.6673 85.2 36.2 85.7328 36.2 86.39V90.81C36.2 91.4672 36.7327 92 37.39 92H41.81C42.4673 92 43 91.4672 43 90.81V86.39C43 85.7328 42.4673 85.2 41.81 85.2H37.39C36.7327 85.2 36.2 84.6672 36.2 84.01V82.293C36.2 81.9688 36.0703 81.6748 35.86 81.4602L29.7398 75.34C29.5252 75.1297 29.2312 75 28.907 75H21.75C21.0927 75 20.56 74.4672 20.56 73.81V72.79C20.56 72.1327 21.0927 71.6 21.75 71.6H35.01C35.6673 71.6 36.2 71.0672 36.2 70.41V65.99C36.2 65.3328 35.6673 64.8 35.01 64.8H16.99C16.3327 64.8 15.8 64.2672 15.8 63.61V59.19C15.8 58.5328 15.2673 58 14.61 58H10.19ZM75.0001 14C99.39 14 120.437 28.3142 130.198 49H134.592C124.561 26.0432 101.654 10 75.0001 10C48.346 10 25.4389 26.0432 15.4087 49H19.8027C29.5635 28.3142 50.6102 14 75.0001 14ZM75.0001 136C50.6102 136 29.5635 121.686 19.8027 101H15.4087C25.4389 123.957 48.346 140 75.0001 140C101.654 140 124.561 123.957 134.592 101H130.198C120.437 121.686 99.39 136 75.0001 136Z" fill="#FB5108"/>
<path d="M53.0432 93V58H64.3432C68.4098 58 71.7598 58.7167 74.3932 60.15C77.0598 61.5833 79.0265 63.6167 80.2932 66.25C81.5932 68.85 82.2432 71.95 82.2432 75.55C82.2432 79.0833 81.5932 82.1667 80.2932 84.8C79.0265 87.4 77.0598 89.4167 74.3932 90.85C71.7598 92.2833 68.4098 93 64.3432 93H53.0432ZM59.0432 87.9H64.0432C67.0765 87.9 69.4598 87.4167 71.1932 86.45C72.9598 85.45 74.2098 84.0333 74.9432 82.2C75.7098 80.3333 76.0932 78.1167 76.0932 75.55C76.0932 72.95 75.7098 70.7333 74.9432 68.9C74.2098 67.0333 72.9598 65.6 71.1932 64.6C69.4598 63.5667 67.0765 63.05 64.0432 63.05H59.0432V87.9ZM97.0018 93.6C94.7684 93.6 92.8184 93.1833 91.1518 92.35C89.5184 91.4833 88.2518 90.25 87.3518 88.65C86.4518 87.0167 86.0018 85.05 86.0018 82.75H92.0018C92.0018 83.85 92.1684 84.8167 92.5018 85.65C92.8351 86.4833 93.3518 87.1333 94.0518 87.6C94.7851 88.0333 95.7184 88.25 96.8518 88.25C97.9851 88.25 98.8851 88.0333 99.5518 87.6C100.218 87.1667 100.702 86.5667 101.002 85.8C101.335 85 101.502 84.0833 101.502 83.05V58H107.502V83.05C107.502 86.45 106.552 89.0667 104.652 90.9C102.785 92.7 100.235 93.6 97.0018 93.6ZM114.567 93V58H136.917V62.85H120.567V73.1H133.917V77.85H120.567V93H114.567Z" fill="white"/>
</svg>
