<svg width="150" height="150" viewBox="0 0 150 150" fill="none" xmlns="http://www.w3.org/2000/svg">
<path fill-rule="evenodd" clip-rule="evenodd" d="M0 75C0 33.5786 33.5786 0 75 0C116.421 0 150 33.5786 150 75C150 116.421 116.421 150 75 150C33.5786 150 0 116.421 0 75ZM10.19 58C9.53274 58 9 58.5328 9 59.19V63.61C9 64.2672 9.53274 64.8 10.19 64.8H14.61C15.2673 64.8 15.8 65.3328 15.8 65.99V70.41C15.8 71.0673 15.2673 71.6 14.61 71.6H10.19C9.53274 71.6 9 72.1328 9 72.79V74.507C9 74.8312 9.12966 75.1252 9.34 75.3398L15.4602 81.46C15.6748 81.6703 15.9688 81.8 16.293 81.8H23.45C24.1073 81.8 24.64 82.3328 24.64 82.99V84.01C24.64 84.6673 24.1073 85.2 23.45 85.2H10.19C9.53274 85.2 9 85.7328 9 86.39V90.81C9 91.4672 9.53274 92 10.19 92H28.21C28.8673 92 29.4 91.4672 29.4 90.81V86.39C29.4 85.7327 29.9327 85.2 30.59 85.2H35.01C35.6673 85.2 36.2 85.7328 36.2 86.39V90.81C36.2 91.4672 36.7327 92 37.39 92H41.81C42.4673 92 43 91.4672 43 90.81V86.39C43 85.7328 42.4673 85.2 41.81 85.2H37.39C36.7327 85.2 36.2 84.6672 36.2 84.01V82.293C36.2 81.9688 36.0703 81.6748 35.86 81.4602L29.7398 75.34C29.5252 75.1297 29.2312 75 28.907 75H21.75C21.0927 75 20.56 74.4672 20.56 73.81V72.79C20.56 72.1327 21.0927 71.6 21.75 71.6H35.01C35.6673 71.6 36.2 71.0672 36.2 70.41V65.99C36.2 65.3328 35.6673 64.8 35.01 64.8H16.99C16.3327 64.8 15.8 64.2672 15.8 63.61V59.19C15.8 58.5328 15.2673 58 14.61 58H10.19ZM75.0001 14C99.39 14 120.437 28.3142 130.198 49H134.592C124.561 26.0432 101.654 10 75.0001 10C48.346 10 25.4389 26.0432 15.4087 49H19.8027C29.5635 28.3142 50.6102 14 75.0001 14ZM75.0001 136C50.6102 136 29.5635 121.686 19.8027 101H15.4087C25.4389 123.957 48.346 140 75.0001 140C101.654 140 124.561 123.957 134.592 101H130.198C120.437 121.686 99.39 136 75.0001 136Z" fill="#FB5108"/>
<path d="M50.8801 93V58H62.1801C66.2467 58 69.5967 58.7167 72.2301 60.15C74.8967 61.5833 76.8634 63.6167 78.1301 66.25C79.4301 68.85 80.0801 71.95 80.0801 75.55C80.0801 79.0833 79.4301 82.1667 78.1301 84.8C76.8634 87.4 74.8967 89.4167 72.2301 90.85C69.5967 92.2833 66.2467 93 62.1801 93H50.8801ZM56.8801 87.9H61.8801C64.9134 87.9 67.2967 87.4167 69.0301 86.45C70.7967 85.45 72.0467 84.0333 72.7801 82.2C73.5467 80.3333 73.9301 78.1167 73.9301 75.55C73.9301 72.95 73.5467 70.7333 72.7801 68.9C72.0467 67.0333 70.7967 65.6 69.0301 64.6C67.2967 63.5667 64.9134 63.05 61.8801 63.05H56.8801V87.9ZM83.9387 93V58H89.9387V72.45L103.139 58H110.589L97.6387 71.9L110.889 93H103.589L93.3887 76.5L89.9387 80.25V93H83.9387ZM113.579 93V58H119.579V72.45L132.779 58H140.229L127.279 71.9L140.529 93H133.229L123.029 76.5L119.579 80.25V93H113.579Z" fill="white"/>
</svg>
