<svg width="150" height="150" viewBox="0 0 150 150" fill="none" xmlns="http://www.w3.org/2000/svg">
<path fill-rule="evenodd" clip-rule="evenodd" d="M0 75C0 33.5786 33.5786 0 75 0C116.421 0 150 33.5786 150 75C150 116.421 116.421 150 75 150C33.5786 150 0 116.421 0 75ZM10.19 58C9.53274 58 9 58.5328 9 59.19V63.61C9 64.2672 9.53274 64.8 10.19 64.8H14.61C15.2673 64.8 15.8 65.3328 15.8 65.99V70.41C15.8 71.0673 15.2673 71.6 14.61 71.6H10.19C9.53274 71.6 9 72.1328 9 72.79V74.507C9 74.8312 9.12966 75.1252 9.34 75.3398L15.4602 81.46C15.6748 81.6703 15.9688 81.8 16.293 81.8H23.45C24.1073 81.8 24.64 82.3328 24.64 82.99V84.01C24.64 84.6673 24.1073 85.2 23.45 85.2H10.19C9.53274 85.2 9 85.7328 9 86.39V90.81C9 91.4672 9.53274 92 10.19 92H28.21C28.8673 92 29.4 91.4672 29.4 90.81V86.39C29.4 85.7327 29.9327 85.2 30.59 85.2H35.01C35.6673 85.2 36.2 85.7328 36.2 86.39V90.81C36.2 91.4672 36.7327 92 37.39 92H41.81C42.4673 92 43 91.4672 43 90.81V86.39C43 85.7328 42.4673 85.2 41.81 85.2H37.39C36.7327 85.2 36.2 84.6672 36.2 84.01V82.293C36.2 81.9688 36.0703 81.6748 35.86 81.4602L29.7398 75.34C29.5252 75.1297 29.2312 75 28.907 75H21.75C21.0927 75 20.56 74.4672 20.56 73.81V72.79C20.56 72.1327 21.0927 71.6 21.75 71.6H35.01C35.6673 71.6 36.2 71.0672 36.2 70.41V65.99C36.2 65.3328 35.6673 64.8 35.01 64.8H16.99C16.3327 64.8 15.8 64.2672 15.8 63.61V59.19C15.8 58.5328 15.2673 58 14.61 58H10.19ZM75.0001 14C99.39 14 120.437 28.3142 130.198 49H134.592C124.561 26.0432 101.654 10 75.0001 10C48.346 10 25.4389 26.0432 15.4087 49H19.8027C29.5635 28.3142 50.6102 14 75.0001 14ZM75.0001 136C50.6102 136 29.5635 121.686 19.8027 101H15.4087C25.4389 123.957 48.346 140 75.0001 140C101.654 140 124.561 123.957 134.592 101H130.198C120.437 121.686 99.39 136 75.0001 136Z" fill="#FB5108"/>
<path d="M47.9016 93V58H59.2016C63.2682 58 66.6182 58.7167 69.2516 60.15C71.9182 61.5833 73.8849 63.6167 75.1516 66.25C76.4516 68.85 77.1016 71.95 77.1016 75.55C77.1016 79.0833 76.4516 82.1667 75.1516 84.8C73.8849 87.4 71.9182 89.4167 69.2516 90.85C66.6182 92.2833 63.2682 93 59.2016 93H47.9016ZM53.9016 87.9H58.9016C61.9349 87.9 64.3182 87.4167 66.0516 86.45C67.8182 85.45 69.0682 84.0333 69.8016 82.2C70.5682 80.3333 70.9516 78.1167 70.9516 75.55C70.9516 72.95 70.5682 70.7333 69.8016 68.9C69.0682 67.0333 67.8182 65.6 66.0516 64.6C64.3182 63.5667 61.9349 63.05 58.9016 63.05H53.9016V87.9ZM96.9102 93.6C93.5435 93.6 90.5602 92.85 87.9602 91.35C85.3935 89.8167 83.3768 87.7 81.9102 85C80.4435 82.2667 79.7102 79.1 79.7102 75.5C79.7102 71.9333 80.4435 68.8 81.9102 66.1C83.3768 63.3667 85.3935 61.2333 87.9602 59.7C90.5602 58.1667 93.5435 57.4 96.9102 57.4C100.343 57.4 103.36 58.1667 105.96 59.7C108.56 61.2333 110.577 63.3667 112.01 66.1C113.443 68.8 114.16 71.9333 114.16 75.5C114.16 79.1 113.443 82.2667 112.01 85C110.577 87.7 108.56 89.8167 105.96 91.35C103.36 92.85 100.343 93.6 96.9102 93.6ZM96.9602 88.2C99.1935 88.2 101.143 87.7 102.81 86.7C104.477 85.6667 105.76 84.2 106.66 82.3C107.56 80.4 108.01 78.1333 108.01 75.5C108.01 72.8667 107.56 70.6 106.66 68.7C105.76 66.8 104.477 65.35 102.81 64.35C101.143 63.3167 99.1935 62.8 96.9602 62.8C94.7268 62.8 92.7768 63.3167 91.1102 64.35C89.4435 65.35 88.1435 66.8 87.2102 68.7C86.3102 70.6 85.8602 72.8667 85.8602 75.5C85.8602 78.1333 86.3102 80.4 87.2102 82.3C88.1435 84.2 89.4435 85.6667 91.1102 86.7C92.7768 87.7 94.7268 88.2 96.9602 88.2ZM118.023 93V58H130.623C133.423 58 135.739 58.4833 137.573 59.45C139.406 60.3833 140.773 61.65 141.673 63.25C142.573 64.85 143.023 66.6833 143.023 68.75C143.023 70.6833 142.589 72.4667 141.723 74.1C140.856 75.7 139.506 77 137.673 78C135.839 78.9667 133.489 79.45 130.623 79.45H124.023V93H118.023ZM124.023 74.55H130.273C132.639 74.55 134.339 74.0333 135.373 73C136.406 71.9333 136.923 70.5167 136.923 68.75C136.923 66.9167 136.406 65.4833 135.373 64.45C134.339 63.4167 132.639 62.9 130.273 62.9H124.023V74.55Z" fill="white"/>
</svg>
