<svg width="150" height="150" viewBox="0 0 150 150" fill="none" xmlns="http://www.w3.org/2000/svg">
<path fill-rule="evenodd" clip-rule="evenodd" d="M0 75C0 33.5786 33.5786 0 75 0C116.421 0 150 33.5786 150 75C150 116.421 116.421 150 75 150C33.5786 150 0 116.421 0 75ZM10.19 58C9.53274 58 9 58.5328 9 59.19V63.61C9 64.2672 9.53274 64.8 10.19 64.8H14.61C15.2673 64.8 15.8 65.3328 15.8 65.99V70.41C15.8 71.0673 15.2673 71.6 14.61 71.6H10.19C9.53274 71.6 9 72.1328 9 72.79V74.507C9 74.8312 9.12966 75.1252 9.34 75.3398L15.4602 81.46C15.6748 81.6703 15.9688 81.8 16.293 81.8H23.45C24.1073 81.8 24.64 82.3328 24.64 82.99V84.01C24.64 84.6673 24.1073 85.2 23.45 85.2H10.19C9.53274 85.2 9 85.7328 9 86.39V90.81C9 91.4672 9.53274 92 10.19 92H28.21C28.8673 92 29.4 91.4672 29.4 90.81V86.39C29.4 85.7327 29.9327 85.2 30.59 85.2H35.01C35.6673 85.2 36.2 85.7328 36.2 86.39V90.81C36.2 91.4672 36.7327 92 37.39 92H41.81C42.4673 92 43 91.4672 43 90.81V86.39C43 85.7328 42.4673 85.2 41.81 85.2H37.39C36.7327 85.2 36.2 84.6672 36.2 84.01V82.293C36.2 81.9688 36.0703 81.6748 35.86 81.4602L29.7398 75.34C29.5252 75.1297 29.2312 75 28.907 75H21.75C21.0927 75 20.56 74.4672 20.56 73.81V72.79C20.56 72.1327 21.0927 71.6 21.75 71.6H35.01C35.6673 71.6 36.2 71.0672 36.2 70.41V65.99C36.2 65.3328 35.6673 64.8 35.01 64.8H16.99C16.3327 64.8 15.8 64.2672 15.8 63.61V59.19C15.8 58.5328 15.2673 58 14.61 58H10.19ZM75.0001 14C99.39 14 120.437 28.3142 130.198 49H134.592C124.561 26.0432 101.654 10 75.0001 10C48.346 10 25.4389 26.0432 15.4087 49H19.8027C29.5635 28.3142 50.6102 14 75.0001 14ZM75.0001 136C50.6102 136 29.5635 121.686 19.8027 101H15.4087C25.4389 123.957 48.346 140 75.0001 140C101.654 140 124.561 123.957 134.592 101H130.198C120.437 121.686 99.39 136 75.0001 136Z" fill="#FB5108"/>
<path d="M48.8068 93V58H60.1068C64.1735 58 67.5235 58.7167 70.1568 60.15C72.8235 61.5833 74.7902 63.6167 76.0568 66.25C77.3568 68.85 78.0068 71.95 78.0068 75.55C78.0068 79.0833 77.3568 82.1667 76.0568 84.8C74.7902 87.4 72.8235 89.4167 70.1568 90.85C67.5235 92.2833 64.1735 93 60.1068 93H48.8068ZM54.8068 87.9H59.8068C62.8402 87.9 65.2235 87.4167 66.9568 86.45C68.7235 85.45 69.9735 84.0333 70.7068 82.2C71.4735 80.3333 71.8568 78.1167 71.8568 75.55C71.8568 72.95 71.4735 70.7333 70.7068 68.9C69.9735 67.0333 68.7235 65.6 66.9568 64.6C65.2235 63.5667 62.8402 63.05 59.8068 63.05H54.8068V87.9ZM82.7154 93V88.4L99.2154 63.05H82.8154V58H106.165V62.6L89.5654 87.95H106.265V93H82.7154ZM112.235 93V58H123.535C127.601 58 130.951 58.7167 133.585 60.15C136.251 61.5833 138.218 63.6167 139.485 66.25C140.785 68.85 141.435 71.95 141.435 75.55C141.435 79.0833 140.785 82.1667 139.485 84.8C138.218 87.4 136.251 89.4167 133.585 90.85C130.951 92.2833 127.601 93 123.535 93H112.235ZM118.235 87.9H123.235C126.268 87.9 128.651 87.4167 130.385 86.45C132.151 85.45 133.401 84.0333 134.135 82.2C134.901 80.3333 135.285 78.1167 135.285 75.55C135.285 72.95 134.901 70.7333 134.135 68.9C133.401 67.0333 132.151 65.6 130.385 64.6C128.651 63.5667 126.268 63.05 123.235 63.05H118.235V87.9Z" fill="white"/>
</svg>
