<svg width="150" height="150" viewBox="0 0 150 150" fill="none" xmlns="http://www.w3.org/2000/svg">
<path fill-rule="evenodd" clip-rule="evenodd" d="M0 75C0 33.5786 33.5786 0 75 0C116.421 0 150 33.5786 150 75C150 116.421 116.421 150 75 150C33.5786 150 0 116.421 0 75ZM10.19 58C9.53274 58 9 58.5328 9 59.19V63.61C9 64.2672 9.53274 64.8 10.19 64.8H14.61C15.2673 64.8 15.8 65.3328 15.8 65.99V70.41C15.8 71.0673 15.2673 71.6 14.61 71.6H10.19C9.53274 71.6 9 72.1328 9 72.79V74.507C9 74.8312 9.12966 75.1252 9.34 75.3398L15.4602 81.46C15.6748 81.6703 15.9688 81.8 16.293 81.8H23.45C24.1073 81.8 24.64 82.3328 24.64 82.99V84.01C24.64 84.6673 24.1073 85.2 23.45 85.2H10.19C9.53274 85.2 9 85.7328 9 86.39V90.81C9 91.4672 9.53274 92 10.19 92H28.21C28.8673 92 29.4 91.4672 29.4 90.81V86.39C29.4 85.7327 29.9327 85.2 30.59 85.2H35.01C35.6673 85.2 36.2 85.7328 36.2 86.39V90.81C36.2 91.4672 36.7327 92 37.39 92H41.81C42.4673 92 43 91.4672 43 90.81V86.39C43 85.7328 42.4673 85.2 41.81 85.2H37.39C36.7327 85.2 36.2 84.6672 36.2 84.01V82.293C36.2 81.9688 36.0703 81.6748 35.86 81.4602L29.7398 75.34C29.5252 75.1297 29.2312 75 28.907 75H21.75C21.0927 75 20.56 74.4672 20.56 73.81V72.79C20.56 72.1327 21.0927 71.6 21.75 71.6H35.01C35.6673 71.6 36.2 71.0672 36.2 70.41V65.99C36.2 65.3328 35.6673 64.8 35.01 64.8H16.99C16.3327 64.8 15.8 64.2672 15.8 63.61V59.19C15.8 58.5328 15.2673 58 14.61 58H10.19ZM75.0001 14C99.39 14 120.437 28.3142 130.198 49H134.592C124.561 26.0432 101.654 10 75.0001 10C48.346 10 25.4389 26.0432 15.4087 49H19.8027C29.5635 28.3142 50.6102 14 75.0001 14ZM75.0001 136C50.6102 136 29.5635 121.686 19.8027 101H15.4087C25.4389 123.957 48.346 140 75.0001 140C101.654 140 124.561 123.957 134.592 101H130.198C120.437 121.686 99.39 136 75.0001 136Z" fill="#FB5108"/>
<path d="M50.6975 93V58H73.2975V62.85H56.6975V72.9H71.7975V77.65H56.6975V88.15H73.2975V93H50.6975ZM92.8537 93.6C89.5537 93.6 86.6537 92.85 84.1537 91.35C81.687 89.85 79.7704 87.7667 78.4037 85.1C77.037 82.4 76.3537 79.25 76.3537 75.65C76.3537 72.0833 77.0537 68.9333 78.4537 66.2C79.8537 63.4333 81.8537 61.2833 84.4537 59.75C87.087 58.1833 90.2037 57.4 93.8037 57.4C97.8704 57.4 101.237 58.3833 103.904 60.35C106.604 62.2833 108.354 64.9833 109.154 68.45H102.404C101.904 66.7167 100.92 65.3667 99.4537 64.4C97.987 63.4333 96.087 62.95 93.7537 62.95C91.387 62.95 89.3537 63.4667 87.6537 64.5C85.987 65.5 84.7037 66.9667 83.8037 68.9C82.937 70.8 82.5037 73.0667 82.5037 75.7C82.5037 78.3333 82.937 80.6 83.8037 82.5C84.7037 84.4 85.9704 85.85 87.6037 86.85C89.237 87.8167 91.1537 88.3 93.3537 88.3C96.6204 88.3 99.087 87.3833 100.754 85.55C102.42 83.7167 103.404 81.3333 103.704 78.4H94.6537V73.85H109.754V93H104.254L103.754 88.2C102.987 89.3333 102.104 90.3167 101.104 91.15C100.104 91.95 98.9204 92.5667 97.5537 93C96.2204 93.4 94.6537 93.6 92.8537 93.6ZM114.227 93V58H126.827C129.627 58 131.943 58.4833 133.777 59.45C135.61 60.3833 136.977 61.65 137.877 63.25C138.777 64.85 139.227 66.6833 139.227 68.75C139.227 70.6833 138.793 72.4667 137.927 74.1C137.06 75.7 135.71 77 133.877 78C132.043 78.9667 129.693 79.45 126.827 79.45H120.227V93H114.227ZM120.227 74.55H126.477C128.843 74.55 130.543 74.0333 131.577 73C132.61 71.9333 133.127 70.5167 133.127 68.75C133.127 66.9167 132.61 65.4833 131.577 64.45C130.543 63.4167 128.843 62.9 126.477 62.9H120.227V74.55Z" fill="white"/>
</svg>
