<svg width="150" height="150" viewBox="0 0 150 150" fill="none" xmlns="http://www.w3.org/2000/svg">
<path fill-rule="evenodd" clip-rule="evenodd" d="M0 75C0 33.5786 33.5786 0 75 0C116.421 0 150 33.5786 150 75C150 116.421 116.421 150 75 150C33.5786 150 0 116.421 0 75ZM10.19 58C9.53274 58 9 58.5328 9 59.19V63.61C9 64.2672 9.53274 64.8 10.19 64.8H14.61C15.2673 64.8 15.8 65.3328 15.8 65.99V70.41C15.8 71.0673 15.2673 71.6 14.61 71.6H10.19C9.53274 71.6 9 72.1328 9 72.79V74.507C9 74.8312 9.12966 75.1252 9.34 75.3398L15.4602 81.46C15.6748 81.6703 15.9688 81.8 16.293 81.8H23.45C24.1073 81.8 24.64 82.3328 24.64 82.99V84.01C24.64 84.6673 24.1073 85.2 23.45 85.2H10.19C9.53274 85.2 9 85.7328 9 86.39V90.81C9 91.4672 9.53274 92 10.19 92H28.21C28.8673 92 29.4 91.4672 29.4 90.81V86.39C29.4 85.7327 29.9327 85.2 30.59 85.2H35.01C35.6673 85.2 36.2 85.7328 36.2 86.39V90.81C36.2 91.4672 36.7327 92 37.39 92H41.81C42.4673 92 43 91.4672 43 90.81V86.39C43 85.7328 42.4673 85.2 41.81 85.2H37.39C36.7327 85.2 36.2 84.6672 36.2 84.01V82.293C36.2 81.9688 36.0703 81.6748 35.86 81.4602L29.7398 75.34C29.5252 75.1297 29.2312 75 28.907 75H21.75C21.0927 75 20.56 74.4672 20.56 73.81V72.79C20.56 72.1327 21.0927 71.6 21.75 71.6H35.01C35.6673 71.6 36.2 71.0672 36.2 70.41V65.99C36.2 65.3328 35.6673 64.8 35.01 64.8H16.99C16.3327 64.8 15.8 64.2672 15.8 63.61V59.19C15.8 58.5328 15.2673 58 14.61 58H10.19ZM75.0001 14C99.39 14 120.437 28.3142 130.198 49H134.592C124.561 26.0432 101.654 10 75.0001 10C48.346 10 25.4389 26.0432 15.4087 49H19.8027C29.5635 28.3142 50.6102 14 75.0001 14ZM75.0001 136C50.6102 136 29.5635 121.686 19.8027 101H15.4087C25.4389 123.957 48.346 140 75.0001 140C101.654 140 124.561 123.957 134.592 101H130.198C120.437 121.686 99.39 136 75.0001 136Z" fill="#FB5108"/>
<path d="M52.7258 93V58H75.3258V62.85H58.7258V72.9H73.8258V77.65H58.7258V88.15H75.3258V93H52.7258ZM89.782 93V62.85H79.482V58H106.032V62.85H95.732V93H89.782ZM110.978 93V58H124.678C127.144 58 129.194 58.3833 130.828 59.15C132.494 59.9167 133.744 60.9833 134.578 62.35C135.411 63.6833 135.828 65.2333 135.828 67C135.828 68.7667 135.444 70.25 134.678 71.45C133.911 72.65 132.894 73.5667 131.628 74.2C130.394 74.8333 129.044 75.2167 127.578 75.35L128.328 74.8C129.894 74.8333 131.294 75.25 132.528 76.05C133.794 76.85 134.794 77.9 135.528 79.2C136.261 80.4667 136.628 81.8833 136.628 83.45C136.628 85.2833 136.178 86.9333 135.278 88.4C134.411 89.8333 133.128 90.9667 131.428 91.8C129.728 92.6 127.644 93 125.178 93H110.978ZM116.978 88.1H124.278C126.244 88.1 127.778 87.6333 128.878 86.7C129.978 85.7667 130.528 84.4667 130.528 82.8C130.528 81.1333 129.961 79.8167 128.828 78.85C127.694 77.85 126.144 77.35 124.178 77.35H116.978V88.1ZM116.978 72.8H123.828C125.761 72.8 127.228 72.3667 128.228 71.5C129.228 70.6 129.728 69.3667 129.728 67.8C129.728 66.2667 129.228 65.0667 128.228 64.2C127.228 63.3 125.744 62.85 123.778 62.85H116.978V72.8Z" fill="white"/>
</svg>
