<svg width="150" height="150" viewBox="0 0 150 150" fill="none" xmlns="http://www.w3.org/2000/svg">
<path fill-rule="evenodd" clip-rule="evenodd" d="M0 75C0 33.5786 33.5786 0 75 0C116.421 0 150 33.5786 150 75C150 116.421 116.421 150 75 150C33.5786 150 0 116.421 0 75ZM10.19 58C9.53274 58 9 58.5328 9 59.19V63.61C9 64.2672 9.53274 64.8 10.19 64.8H14.61C15.2673 64.8 15.8 65.3328 15.8 65.99V70.41C15.8 71.0673 15.2673 71.6 14.61 71.6H10.19C9.53274 71.6 9 72.1328 9 72.79V74.507C9 74.8312 9.12966 75.1252 9.34 75.3398L15.4602 81.46C15.6748 81.6703 15.9688 81.8 16.293 81.8H23.45C24.1073 81.8 24.64 82.3328 24.64 82.99V84.01C24.64 84.6673 24.1073 85.2 23.45 85.2H10.19C9.53274 85.2 9 85.7328 9 86.39V90.81C9 91.4672 9.53274 92 10.19 92H28.21C28.8673 92 29.4 91.4672 29.4 90.81V86.39C29.4 85.7327 29.9327 85.2 30.59 85.2H35.01C35.6673 85.2 36.2 85.7328 36.2 86.39V90.81C36.2 91.4672 36.7327 92 37.39 92H41.81C42.4673 92 43 91.4672 43 90.81V86.39C43 85.7328 42.4673 85.2 41.81 85.2H37.39C36.7327 85.2 36.2 84.6672 36.2 84.01V82.293C36.2 81.9688 36.0703 81.6748 35.86 81.4602L29.7398 75.34C29.5252 75.1297 29.2312 75 28.907 75H21.75C21.0927 75 20.56 74.4672 20.56 73.81V72.79C20.56 72.1327 21.0927 71.6 21.75 71.6H35.01C35.6673 71.6 36.2 71.0672 36.2 70.41V65.99C36.2 65.3328 35.6673 64.8 35.01 64.8H16.99C16.3327 64.8 15.8 64.2672 15.8 63.61V59.19C15.8 58.5328 15.2673 58 14.61 58H10.19ZM75.0001 14C99.39 14 120.437 28.3142 130.198 49H134.592C124.561 26.0432 101.654 10 75.0001 10C48.346 10 25.4389 26.0432 15.4087 49H19.8027C29.5635 28.3142 50.6102 14 75.0001 14ZM75.0001 136C50.6102 136 29.5635 121.686 19.8027 101H15.4087C25.4389 123.957 48.346 140 75.0001 140C101.654 140 124.561 123.957 134.592 101H130.198C120.437 121.686 99.39 136 75.0001 136Z" fill="#FB5108"/>
<path d="M54.7883 93V58H77.1383V62.85H60.7883V73.1H74.1383V77.85H60.7883V93H54.7883ZM88.6883 93.6C86.4549 93.6 84.5049 93.1833 82.8383 92.35C81.2049 91.4833 79.9383 90.25 79.0383 88.65C78.1383 87.0167 77.6883 85.05 77.6883 82.75H83.6883C83.6883 83.85 83.8549 84.8167 84.1883 85.65C84.5216 86.4833 85.0383 87.1333 85.7383 87.6C86.4716 88.0333 87.4049 88.25 88.5383 88.25C89.6716 88.25 90.5716 88.0333 91.2383 87.6C91.9049 87.1667 92.3883 86.5667 92.6883 85.8C93.0216 85 93.1883 84.0833 93.1883 83.05V58H99.1883V83.05C99.1883 86.45 98.2383 89.0667 96.3383 90.9C94.4716 92.7 91.9216 93.6 88.6883 93.6ZM106.253 93V58H117.553C121.62 58 124.97 58.7167 127.603 60.15C130.27 61.5833 132.236 63.6167 133.503 66.25C134.803 68.85 135.453 71.95 135.453 75.55C135.453 79.0833 134.803 82.1667 133.503 84.8C132.236 87.4 130.27 89.4167 127.603 90.85C124.97 92.2833 121.62 93 117.553 93H106.253ZM112.253 87.9H117.253C120.286 87.9 122.67 87.4167 124.403 86.45C126.17 85.45 127.42 84.0333 128.153 82.2C128.92 80.3333 129.303 78.1167 129.303 75.55C129.303 72.95 128.92 70.7333 128.153 68.9C127.42 67.0333 126.17 65.6 124.403 64.6C122.67 63.5667 120.286 63.05 117.253 63.05H112.253V87.9Z" fill="white"/>
</svg>
