<svg width="150" height="150" viewBox="0 0 150 150" fill="none" xmlns="http://www.w3.org/2000/svg">
<path fill-rule="evenodd" clip-rule="evenodd" d="M0 75C0 33.5786 33.5786 0 75 0C116.421 0 150 33.5786 150 75C150 116.421 116.421 150 75 150C33.5786 150 0 116.421 0 75ZM10.19 58C9.53274 58 9 58.5328 9 59.19V63.61C9 64.2672 9.53274 64.8 10.19 64.8H14.61C15.2673 64.8 15.8 65.3328 15.8 65.99V70.41C15.8 71.0673 15.2673 71.6 14.61 71.6H10.19C9.53274 71.6 9 72.1328 9 72.79V74.507C9 74.8312 9.12966 75.1252 9.34 75.3398L15.4602 81.46C15.6748 81.6703 15.9688 81.8 16.293 81.8H23.45C24.1073 81.8 24.64 82.3328 24.64 82.99V84.01C24.64 84.6673 24.1073 85.2 23.45 85.2H10.19C9.53274 85.2 9 85.7328 9 86.39V90.81C9 91.4672 9.53274 92 10.19 92H28.21C28.8673 92 29.4 91.4672 29.4 90.81V86.39C29.4 85.7327 29.9327 85.2 30.59 85.2H35.01C35.6673 85.2 36.2 85.7328 36.2 86.39V90.81C36.2 91.4672 36.7327 92 37.39 92H41.81C42.4673 92 43 91.4672 43 90.81V86.39C43 85.7328 42.4673 85.2 41.81 85.2H37.39C36.7327 85.2 36.2 84.6672 36.2 84.01V82.293C36.2 81.9688 36.0703 81.6748 35.86 81.4602L29.7398 75.34C29.5252 75.1297 29.2312 75 28.907 75H21.75C21.0927 75 20.56 74.4672 20.56 73.81V72.79C20.56 72.1327 21.0927 71.6 21.75 71.6H35.01C35.6673 71.6 36.2 71.0672 36.2 70.41V65.99C36.2 65.3328 35.6673 64.8 35.01 64.8H16.99C16.3327 64.8 15.8 64.2672 15.8 63.61V59.19C15.8 58.5328 15.2673 58 14.61 58H10.19ZM75.0001 14C99.39 14 120.437 28.3142 130.198 49H134.592C124.561 26.0432 101.654 10 75.0001 10C48.346 10 25.4389 26.0432 15.4087 49H19.8027C29.5635 28.3142 50.6102 14 75.0001 14ZM75.0001 136C50.6102 136 29.5635 121.686 19.8027 101H15.4087C25.4389 123.957 48.346 140 75.0001 140C101.654 140 124.561 123.957 134.592 101H130.198C120.437 121.686 99.39 136 75.0001 136Z" fill="#FB5108"/>
<path d="M65.2023 93.6C61.9023 93.6 59.0023 92.85 56.5023 91.35C54.0357 89.85 52.119 87.7667 50.7523 85.1C49.3857 82.4 48.7023 79.25 48.7023 75.65C48.7023 72.0833 49.4023 68.9333 50.8023 66.2C52.2023 63.4333 54.2023 61.2833 56.8023 59.75C59.4357 58.1833 62.5523 57.4 66.1523 57.4C70.219 57.4 73.5857 58.3833 76.2523 60.35C78.9523 62.2833 80.7023 64.9833 81.5023 68.45H74.7523C74.2523 66.7167 73.269 65.3667 71.8023 64.4C70.3357 63.4333 68.4357 62.95 66.1023 62.95C63.7357 62.95 61.7023 63.4667 60.0023 64.5C58.3357 65.5 57.0523 66.9667 56.1523 68.9C55.2857 70.8 54.8523 73.0667 54.8523 75.7C54.8523 78.3333 55.2857 80.6 56.1523 82.5C57.0523 84.4 58.319 85.85 59.9523 86.85C61.5857 87.8167 63.5023 88.3 65.7023 88.3C68.969 88.3 71.4357 87.3833 73.1023 85.55C74.769 83.7167 75.7523 81.3333 76.0523 78.4H67.0023V73.85H82.1023V93H76.6023L76.1023 88.2C75.3357 89.3333 74.4523 90.3167 73.4523 91.15C72.4523 91.95 71.269 92.5667 69.9023 93C68.569 93.4 67.0023 93.6 65.2023 93.6ZM86.5754 93V58H100.275C102.742 58 104.792 58.3833 106.425 59.15C108.092 59.9167 109.342 60.9833 110.175 62.35C111.009 63.6833 111.425 65.2333 111.425 67C111.425 68.7667 111.042 70.25 110.275 71.45C109.509 72.65 108.492 73.5667 107.225 74.2C105.992 74.8333 104.642 75.2167 103.175 75.35L103.925 74.8C105.492 74.8333 106.892 75.25 108.125 76.05C109.392 76.85 110.392 77.9 111.125 79.2C111.859 80.4667 112.225 81.8833 112.225 83.45C112.225 85.2833 111.775 86.9333 110.875 88.4C110.009 89.8333 108.725 90.9667 107.025 91.8C105.325 92.6 103.242 93 100.775 93H86.5754ZM92.5754 88.1H99.8754C101.842 88.1 103.375 87.6333 104.475 86.7C105.575 85.7667 106.125 84.4667 106.125 82.8C106.125 81.1333 105.559 79.8167 104.425 78.85C103.292 77.85 101.742 77.35 99.7754 77.35H92.5754V88.1ZM92.5754 72.8H99.4254C101.359 72.8 102.825 72.3667 103.825 71.5C104.825 70.6 105.325 69.3667 105.325 67.8C105.325 66.2667 104.825 65.0667 103.825 64.2C102.825 63.3 101.342 62.85 99.3754 62.85H92.5754V72.8ZM115.972 93V58H128.572C131.372 58 133.689 58.4833 135.522 59.45C137.355 60.3833 138.722 61.65 139.622 63.25C140.522 64.85 140.972 66.6833 140.972 68.75C140.972 70.6833 140.539 72.4667 139.672 74.1C138.805 75.7 137.455 77 135.622 78C133.789 78.9667 131.439 79.45 128.572 79.45H121.972V93H115.972ZM121.972 74.55H128.222C130.589 74.55 132.289 74.0333 133.322 73C134.355 71.9333 134.872 70.5167 134.872 68.75C134.872 66.9167 134.355 65.4833 133.322 64.45C132.289 63.4167 130.589 62.9 128.222 62.9H121.972V74.55Z" fill="white"/>
</svg>
