<svg width="150" height="150" viewBox="0 0 150 150" fill="none" xmlns="http://www.w3.org/2000/svg">
<path fill-rule="evenodd" clip-rule="evenodd" d="M0 75C0 33.5786 33.5786 0 75 0C116.421 0 150 33.5786 150 75C150 116.421 116.421 150 75 150C33.5786 150 0 116.421 0 75ZM10.19 58C9.53274 58 9 58.5328 9 59.19V63.61C9 64.2672 9.53274 64.8 10.19 64.8H14.61C15.2673 64.8 15.8 65.3328 15.8 65.99V70.41C15.8 71.0673 15.2673 71.6 14.61 71.6H10.19C9.53274 71.6 9 72.1328 9 72.79V74.507C9 74.8312 9.12966 75.1252 9.34 75.3398L15.4602 81.46C15.6748 81.6703 15.9688 81.8 16.293 81.8H23.45C24.1073 81.8 24.64 82.3328 24.64 82.99V84.01C24.64 84.6673 24.1073 85.2 23.45 85.2H10.19C9.53274 85.2 9 85.7328 9 86.39V90.81C9 91.4672 9.53274 92 10.19 92H28.21C28.8673 92 29.4 91.4672 29.4 90.81V86.39C29.4 85.7327 29.9327 85.2 30.59 85.2H35.01C35.6673 85.2 36.2 85.7328 36.2 86.39V90.81C36.2 91.4672 36.7327 92 37.39 92H41.81C42.4673 92 43 91.4672 43 90.81V86.39C43 85.7328 42.4673 85.2 41.81 85.2H37.39C36.7327 85.2 36.2 84.6672 36.2 84.01V82.293C36.2 81.9688 36.0703 81.6748 35.86 81.4602L29.7398 75.34C29.5252 75.1297 29.2312 75 28.907 75H21.75C21.0927 75 20.56 74.4672 20.56 73.81V72.79C20.56 72.1327 21.0927 71.6 21.75 71.6H35.01C35.6673 71.6 36.2 71.0672 36.2 70.41V65.99C36.2 65.3328 35.6673 64.8 35.01 64.8H16.99C16.3327 64.8 15.8 64.2672 15.8 63.61V59.19C15.8 58.5328 15.2673 58 14.61 58H10.19ZM75.0001 14C99.39 14 120.437 28.3142 130.198 49H134.592C124.561 26.0432 101.654 10 75.0001 10C48.346 10 25.4389 26.0432 15.4087 49H19.8027C29.5635 28.3142 50.6102 14 75.0001 14ZM75.0001 136C50.6102 136 29.5635 121.686 19.8027 101H15.4087C25.4389 123.957 48.346 140 75.0001 140C101.654 140 124.561 123.957 134.592 101H130.198C120.437 121.686 99.39 136 75.0001 136Z" fill="#FB5108"/>
<path d="M65.8146 93.6C62.5146 93.6 59.6146 92.85 57.1146 91.35C54.648 89.85 52.7313 87.7667 51.3646 85.1C49.998 82.4 49.3146 79.25 49.3146 75.65C49.3146 72.0833 50.0146 68.9333 51.4146 66.2C52.8146 63.4333 54.8146 61.2833 57.4146 59.75C60.048 58.1833 63.1646 57.4 66.7646 57.4C70.8313 57.4 74.198 58.3833 76.8646 60.35C79.5646 62.2833 81.3146 64.9833 82.1146 68.45H75.3647C74.8647 66.7167 73.8813 65.3667 72.4146 64.4C70.948 63.4333 69.048 62.95 66.7146 62.95C64.348 62.95 62.3146 63.4667 60.6146 64.5C58.948 65.5 57.6646 66.9667 56.7646 68.9C55.898 70.8 55.4646 73.0667 55.4646 75.7C55.4646 78.3333 55.898 80.6 56.7646 82.5C57.6646 84.4 58.9313 85.85 60.5646 86.85C62.198 87.8167 64.1146 88.3 66.3146 88.3C69.5813 88.3 72.048 87.3833 73.7147 85.55C75.3813 83.7167 76.3647 81.3333 76.6647 78.4H67.6146V73.85H82.7147V93H77.2147L76.7147 88.2C75.948 89.3333 75.0646 90.3167 74.0646 91.15C73.0646 91.95 71.8813 92.5667 70.5146 93C69.1813 93.4 67.6146 93.6 65.8146 93.6ZM89.1877 93V58H111.788V62.85H95.1877V72.9H110.288V77.65H95.1877V88.15H111.788V93H89.1877ZM118.094 93V58H124.094V88.3H139.694V93H118.094Z" fill="white"/>
</svg>
