<svg width="150" height="150" viewBox="0 0 150 150" fill="none" xmlns="http://www.w3.org/2000/svg">
<path fill-rule="evenodd" clip-rule="evenodd" d="M0 75C0 33.5786 33.5786 0 75 0C116.421 0 150 33.5786 150 75C150 116.421 116.421 150 75 150C33.5786 150 0 116.421 0 75ZM10.19 58C9.53274 58 9 58.5328 9 59.19V63.61C9 64.2672 9.53274 64.8 10.19 64.8H14.61C15.2673 64.8 15.8 65.3328 15.8 65.99V70.41C15.8 71.0673 15.2673 71.6 14.61 71.6H10.19C9.53274 71.6 9 72.1328 9 72.79V74.507C9 74.8312 9.12966 75.1252 9.34 75.3398L15.4602 81.46C15.6748 81.6703 15.9688 81.8 16.293 81.8H23.45C24.1073 81.8 24.64 82.3328 24.64 82.99V84.01C24.64 84.6673 24.1073 85.2 23.45 85.2H10.19C9.53274 85.2 9 85.7328 9 86.39V90.81C9 91.4672 9.53274 92 10.19 92H28.21C28.8673 92 29.4 91.4672 29.4 90.81V86.39C29.4 85.7327 29.9327 85.2 30.59 85.2H35.01C35.6673 85.2 36.2 85.7328 36.2 86.39V90.81C36.2 91.4672 36.7327 92 37.39 92H41.81C42.4673 92 43 91.4672 43 90.81V86.39C43 85.7328 42.4673 85.2 41.81 85.2H37.39C36.7327 85.2 36.2 84.6672 36.2 84.01V82.293C36.2 81.9688 36.0703 81.6748 35.86 81.4602L29.7398 75.34C29.5252 75.1297 29.2312 75 28.907 75H21.75C21.0927 75 20.56 74.4672 20.56 73.81V72.79C20.56 72.1327 21.0927 71.6 21.75 71.6H35.01C35.6673 71.6 36.2 71.0672 36.2 70.41V65.99C36.2 65.3328 35.6673 64.8 35.01 64.8H16.99C16.3327 64.8 15.8 64.2672 15.8 63.61V59.19C15.8 58.5328 15.2673 58 14.61 58H10.19ZM75.0001 14C99.39 14 120.437 28.3142 130.198 49H134.592C124.561 26.0432 101.654 10 75.0001 10C48.346 10 25.4389 26.0432 15.4087 49H19.8027C29.5635 28.3142 50.6102 14 75.0001 14ZM75.0001 136C50.6102 136 29.5635 121.686 19.8027 101H15.4087C25.4389 123.957 48.346 140 75.0001 140C101.654 140 124.561 123.957 134.592 101H130.198C120.437 121.686 99.39 136 75.0001 136Z" fill="#FB5108"/>
<path d="M61.0891 93.6C57.7891 93.6 54.8891 92.85 52.3891 91.35C49.9224 89.85 48.0057 87.7667 46.6391 85.1C45.2724 82.4 44.5891 79.25 44.5891 75.65C44.5891 72.0833 45.2891 68.9333 46.6891 66.2C48.0891 63.4333 50.0891 61.2833 52.6891 59.75C55.3224 58.1833 58.4391 57.4 62.0391 57.4C66.1057 57.4 69.4724 58.3833 72.1391 60.35C74.8391 62.2833 76.5891 64.9833 77.3891 68.45H70.6391C70.1391 66.7167 69.1557 65.3667 67.6891 64.4C66.2224 63.4333 64.3224 62.95 61.9891 62.95C59.6224 62.95 57.5891 63.4667 55.8891 64.5C54.2224 65.5 52.9391 66.9667 52.0391 68.9C51.1724 70.8 50.7391 73.0667 50.7391 75.7C50.7391 78.3333 51.1724 80.6 52.0391 82.5C52.9391 84.4 54.2057 85.85 55.8391 86.85C57.4724 87.8167 59.3891 88.3 61.5891 88.3C64.8557 88.3 67.3224 87.3833 68.9891 85.55C70.6557 83.7167 71.6391 81.3333 71.9391 78.4H62.8891V73.85H77.9891V93H72.4891L71.9891 88.2C71.2224 89.3333 70.3391 90.3167 69.3391 91.15C68.3391 91.95 67.1557 92.5667 65.7891 93C64.4557 93.4 62.8891 93.6 61.0891 93.6ZM97.7121 93.6C94.4121 93.6 91.5121 92.85 89.0121 91.35C86.5454 89.85 84.6288 87.7667 83.2621 85.1C81.8954 82.4 81.2121 79.25 81.2121 75.65C81.2121 72.0833 81.9121 68.9333 83.3121 66.2C84.7121 63.4333 86.7121 61.2833 89.3121 59.75C91.9454 58.1833 95.0621 57.4 98.6621 57.4C102.729 57.4 106.095 58.3833 108.762 60.35C111.462 62.2833 113.212 64.9833 114.012 68.45H107.262C106.762 66.7167 105.779 65.3667 104.312 64.4C102.845 63.4333 100.945 62.95 98.6121 62.95C96.2454 62.95 94.2121 63.4667 92.5121 64.5C90.8454 65.5 89.5621 66.9667 88.6621 68.9C87.7954 70.8 87.3621 73.0667 87.3621 75.7C87.3621 78.3333 87.7954 80.6 88.6621 82.5C89.5621 84.4 90.8288 85.85 92.4621 86.85C94.0954 87.8167 96.0121 88.3 98.2121 88.3C101.479 88.3 103.945 87.3833 105.612 85.55C107.279 83.7167 108.262 81.3333 108.562 78.4H99.5121V73.85H114.612V93H109.112L108.612 88.2C107.845 89.3333 106.962 90.3167 105.962 91.15C104.962 91.95 103.779 92.5667 102.412 93C101.079 93.4 99.5121 93.6 97.7121 93.6ZM119.085 93V58H131.685C134.485 58 136.802 58.4833 138.635 59.45C140.468 60.3833 141.835 61.65 142.735 63.25C143.635 64.85 144.085 66.6833 144.085 68.75C144.085 70.6833 143.652 72.4667 142.785 74.1C141.918 75.7 140.568 77 138.735 78C136.902 78.9667 134.552 79.45 131.685 79.45H125.085V93H119.085ZM125.085 74.55H131.335C133.702 74.55 135.402 74.0333 136.435 73C137.468 71.9333 137.985 70.5167 137.985 68.75C137.985 66.9167 137.468 65.4833 136.435 64.45C135.402 63.4167 133.702 62.9 131.335 62.9H125.085V74.55Z" fill="white"/>
</svg>
