<svg width="150" height="150" viewBox="0 0 150 150" fill="none" xmlns="http://www.w3.org/2000/svg">
<path fill-rule="evenodd" clip-rule="evenodd" d="M0 75C0 33.5786 33.5786 0 75 0C116.421 0 150 33.5786 150 75C150 116.421 116.421 150 75 150C33.5786 150 0 116.421 0 75ZM10.19 58C9.53274 58 9 58.5328 9 59.19V63.61C9 64.2672 9.53274 64.8 10.19 64.8H14.61C15.2673 64.8 15.8 65.3328 15.8 65.99V70.41C15.8 71.0673 15.2673 71.6 14.61 71.6H10.19C9.53274 71.6 9 72.1328 9 72.79V74.507C9 74.8312 9.12966 75.1252 9.34 75.3398L15.4602 81.46C15.6748 81.6703 15.9688 81.8 16.293 81.8H23.45C24.1073 81.8 24.64 82.3328 24.64 82.99V84.01C24.64 84.6673 24.1073 85.2 23.45 85.2H10.19C9.53274 85.2 9 85.7328 9 86.39V90.81C9 91.4672 9.53274 92 10.19 92H28.21C28.8673 92 29.4 91.4672 29.4 90.81V86.39C29.4 85.7327 29.9327 85.2 30.59 85.2H35.01C35.6673 85.2 36.2 85.7328 36.2 86.39V90.81C36.2 91.4672 36.7327 92 37.39 92H41.81C42.4673 92 43 91.4672 43 90.81V86.39C43 85.7328 42.4673 85.2 41.81 85.2H37.39C36.7327 85.2 36.2 84.6672 36.2 84.01V82.293C36.2 81.9688 36.0703 81.6748 35.86 81.4602L29.7398 75.34C29.5252 75.1297 29.2312 75 28.907 75H21.75C21.0927 75 20.56 74.4672 20.56 73.81V72.79C20.56 72.1327 21.0927 71.6 21.75 71.6H35.01C35.6673 71.6 36.2 71.0672 36.2 70.41V65.99C36.2 65.3328 35.6673 64.8 35.01 64.8H16.99C16.3327 64.8 15.8 64.2672 15.8 63.61V59.19C15.8 58.5328 15.2673 58 14.61 58H10.19ZM75.0001 14C99.39 14 120.437 28.3142 130.198 49H134.592C124.561 26.0432 101.654 10 75.0001 10C48.346 10 25.4389 26.0432 15.4087 49H19.8027C29.5635 28.3142 50.6102 14 75.0001 14ZM75.0001 136C50.6102 136 29.5635 121.686 19.8027 101H15.4087C25.4389 123.957 48.346 140 75.0001 140C101.654 140 124.561 123.957 134.592 101H130.198C120.437 121.686 99.39 136 75.0001 136Z" fill="#FB5108"/>
<path d="M62.9689 93.6C59.6689 93.6 56.7689 92.85 54.2689 91.35C51.8023 89.85 49.8856 87.7667 48.5189 85.1C47.1523 82.4 46.4689 79.25 46.4689 75.65C46.4689 72.0833 47.1689 68.9333 48.5689 66.2C49.9689 63.4333 51.9689 61.2833 54.5689 59.75C57.2023 58.1833 60.3189 57.4 63.9189 57.4C67.9856 57.4 71.3523 58.3833 74.0189 60.35C76.7189 62.2833 78.4689 64.9833 79.2689 68.45H72.5189C72.0189 66.7167 71.0356 65.3667 69.5689 64.4C68.1023 63.4333 66.2023 62.95 63.8689 62.95C61.5023 62.95 59.4689 63.4667 57.7689 64.5C56.1023 65.5 54.8189 66.9667 53.9189 68.9C53.0523 70.8 52.6189 73.0667 52.6189 75.7C52.6189 78.3333 53.0523 80.6 53.9189 82.5C54.8189 84.4 56.0856 85.85 57.7189 86.85C59.3523 87.8167 61.2689 88.3 63.4689 88.3C66.7356 88.3 69.2023 87.3833 70.8689 85.55C72.5356 83.7167 73.5189 81.3333 73.8189 78.4H64.7689V73.85H79.8689V93H74.3689L73.8689 88.2C73.1023 89.3333 72.2189 90.3167 71.2189 91.15C70.2189 91.95 69.0356 92.5667 67.6689 93C66.3356 93.4 64.7689 93.6 62.9689 93.6ZM106.442 93V58H112.442V93H106.442ZM84.342 93V58H90.342V93H84.342ZM89.442 77.6V72.7H107.592V77.6H89.442ZM129.297 93.6C126.764 93.6 124.514 93.15 122.547 92.25C120.58 91.35 119.047 90.0667 117.947 88.4C116.847 86.7333 116.28 84.75 116.247 82.45H122.597C122.597 83.6167 122.864 84.6667 123.397 85.6C123.964 86.5 124.73 87.2167 125.697 87.75C126.697 88.2833 127.897 88.55 129.297 88.55C130.497 88.55 131.53 88.3667 132.397 88C133.297 87.6 133.98 87.05 134.447 86.35C134.947 85.6167 135.197 84.7667 135.197 83.8C135.197 82.7 134.93 81.8 134.397 81.1C133.897 80.3667 133.197 79.75 132.297 79.25C131.397 78.75 130.364 78.3167 129.197 77.95C128.03 77.55 126.797 77.1333 125.497 76.7C122.73 75.7667 120.647 74.5833 119.247 73.15C117.847 71.6833 117.147 69.7333 117.147 67.3C117.147 65.2667 117.63 63.5167 118.597 62.05C119.564 60.5833 120.914 59.45 122.647 58.65C124.414 57.8167 126.447 57.4 128.747 57.4C131.08 57.4 133.114 57.8167 134.847 58.65C136.614 59.4833 137.997 60.65 138.997 62.15C140.03 63.6167 140.564 65.3833 140.597 67.45H134.197C134.164 66.5833 133.93 65.7833 133.497 65.05C133.064 64.2833 132.43 63.6667 131.597 63.2C130.797 62.7 129.814 62.45 128.647 62.45C127.647 62.4167 126.747 62.5833 125.947 62.95C125.18 63.2833 124.564 63.7833 124.097 64.45C123.664 65.0833 123.447 65.8833 123.447 66.85C123.447 67.7833 123.647 68.5667 124.047 69.2C124.48 69.8 125.097 70.3167 125.897 70.75C126.697 71.15 127.63 71.5333 128.697 71.9C129.764 72.2667 130.93 72.6667 132.197 73.1C133.93 73.6667 135.497 74.3667 136.897 75.2C138.33 76 139.464 77.05 140.297 78.35C141.13 79.65 141.547 81.3333 141.547 83.4C141.547 85.2 141.08 86.8833 140.147 88.45C139.214 89.9833 137.847 91.2333 136.047 92.2C134.247 93.1333 131.997 93.6 129.297 93.6Z" fill="white"/>
</svg>
