<svg width="150" height="150" viewBox="0 0 150 150" fill="none" xmlns="http://www.w3.org/2000/svg">
<path fill-rule="evenodd" clip-rule="evenodd" d="M0 75C0 33.5786 33.5786 0 75 0C116.421 0 150 33.5786 150 75C150 116.421 116.421 150 75 150C33.5786 150 0 116.421 0 75ZM10.19 58C9.53274 58 9 58.5328 9 59.19V63.61C9 64.2672 9.53274 64.8 10.19 64.8H14.61C15.2673 64.8 15.8 65.3328 15.8 65.99V70.41C15.8 71.0673 15.2673 71.6 14.61 71.6H10.19C9.53274 71.6 9 72.1328 9 72.79V74.507C9 74.8312 9.12966 75.1252 9.34 75.3398L15.4602 81.46C15.6748 81.6703 15.9688 81.8 16.293 81.8H23.45C24.1073 81.8 24.64 82.3328 24.64 82.99V84.01C24.64 84.6673 24.1073 85.2 23.45 85.2H10.19C9.53274 85.2 9 85.7328 9 86.39V90.81C9 91.4672 9.53274 92 10.19 92H28.21C28.8673 92 29.4 91.4672 29.4 90.81V86.39C29.4 85.7327 29.9327 85.2 30.59 85.2H35.01C35.6673 85.2 36.2 85.7328 36.2 86.39V90.81C36.2 91.4672 36.7327 92 37.39 92H41.81C42.4673 92 43 91.4672 43 90.81V86.39C43 85.7328 42.4673 85.2 41.81 85.2H37.39C36.7327 85.2 36.2 84.6672 36.2 84.01V82.293C36.2 81.9688 36.0703 81.6748 35.86 81.4602L29.7398 75.34C29.5252 75.1297 29.2312 75 28.907 75H21.75C21.0927 75 20.56 74.4672 20.56 73.81V72.79C20.56 72.1327 21.0927 71.6 21.75 71.6H35.01C35.6673 71.6 36.2 71.0672 36.2 70.41V65.99C36.2 65.3328 35.6673 64.8 35.01 64.8H16.99C16.3327 64.8 15.8 64.2672 15.8 63.61V59.19C15.8 58.5328 15.2673 58 14.61 58H10.19ZM75.0001 14C99.39 14 120.437 28.3142 130.198 49H134.592C124.561 26.0432 101.654 10 75.0001 10C48.346 10 25.4389 26.0432 15.4087 49H19.8027C29.5635 28.3142 50.6102 14 75.0001 14ZM75.0001 136C50.6102 136 29.5635 121.686 19.8027 101H15.4087C25.4389 123.957 48.346 140 75.0001 140C101.654 140 124.561 123.957 134.592 101H130.198C120.437 121.686 99.39 136 75.0001 136Z" fill="#FB5108"/>
<path d="M66.882 93.6C63.582 93.6 60.682 92.85 58.182 91.35C55.7154 89.85 53.7987 87.7667 52.432 85.1C51.0654 82.4 50.382 79.25 50.382 75.65C50.382 72.0833 51.082 68.9333 52.482 66.2C53.882 63.4333 55.882 61.2833 58.482 59.75C61.1154 58.1833 64.232 57.4 67.832 57.4C71.8987 57.4 75.2654 58.3833 77.932 60.35C80.632 62.2833 82.382 64.9833 83.182 68.45H76.432C75.932 66.7167 74.9487 65.3667 73.482 64.4C72.0154 63.4333 70.1154 62.95 67.782 62.95C65.4154 62.95 63.382 63.4667 61.682 64.5C60.0154 65.5 58.732 66.9667 57.832 68.9C56.9654 70.8 56.532 73.0667 56.532 75.7C56.532 78.3333 56.9654 80.6 57.832 82.5C58.732 84.4 59.9987 85.85 61.632 86.85C63.2654 87.8167 65.182 88.3 67.382 88.3C70.6487 88.3 73.1154 87.3833 74.782 85.55C76.4487 83.7167 77.432 81.3333 77.732 78.4H68.682V73.85H83.782V93H78.282L77.782 88.2C77.0154 89.3333 76.132 90.3167 75.132 91.15C74.132 91.95 72.9487 92.5667 71.582 93C70.2487 93.4 68.682 93.6 66.882 93.6ZM95.2551 93V58H101.255V93H95.2551ZM113.292 93V58H125.892C128.692 58 131.009 58.4833 132.842 59.45C134.676 60.3833 136.042 61.65 136.942 63.25C137.842 64.85 138.292 66.6833 138.292 68.75C138.292 70.6833 137.859 72.4667 136.992 74.1C136.126 75.7 134.776 77 132.942 78C131.109 78.9667 128.759 79.45 125.892 79.45H119.292V93H113.292ZM119.292 74.55H125.542C127.909 74.55 129.609 74.0333 130.642 73C131.676 71.9333 132.192 70.5167 132.192 68.75C132.192 66.9167 131.676 65.4833 130.642 64.45C129.609 63.4167 127.909 62.9 125.542 62.9H119.292V74.55Z" fill="white"/>
</svg>
