<svg width="150" height="150" viewBox="0 0 150 150" fill="none" xmlns="http://www.w3.org/2000/svg">
<path fill-rule="evenodd" clip-rule="evenodd" d="M0 75C0 33.5786 33.5786 0 75 0C116.421 0 150 33.5786 150 75C150 116.421 116.421 150 75 150C33.5786 150 0 116.421 0 75ZM10.19 58C9.53274 58 9 58.5328 9 59.19V63.61C9 64.2672 9.53274 64.8 10.19 64.8H14.61C15.2673 64.8 15.8 65.3328 15.8 65.99V70.41C15.8 71.0673 15.2673 71.6 14.61 71.6H10.19C9.53274 71.6 9 72.1328 9 72.79V74.507C9 74.8312 9.12966 75.1252 9.34 75.3398L15.4602 81.46C15.6748 81.6703 15.9688 81.8 16.293 81.8H23.45C24.1073 81.8 24.64 82.3328 24.64 82.99V84.01C24.64 84.6673 24.1073 85.2 23.45 85.2H10.19C9.53274 85.2 9 85.7328 9 86.39V90.81C9 91.4672 9.53274 92 10.19 92H28.21C28.8673 92 29.4 91.4672 29.4 90.81V86.39C29.4 85.7327 29.9327 85.2 30.59 85.2H35.01C35.6673 85.2 36.2 85.7328 36.2 86.39V90.81C36.2 91.4672 36.7327 92 37.39 92H41.81C42.4673 92 43 91.4672 43 90.81V86.39C43 85.7328 42.4673 85.2 41.81 85.2H37.39C36.7327 85.2 36.2 84.6672 36.2 84.01V82.293C36.2 81.9688 36.0703 81.6748 35.86 81.4602L29.7398 75.34C29.5252 75.1297 29.2312 75 28.907 75H21.75C21.0927 75 20.56 74.4672 20.56 73.81V72.79C20.56 72.1327 21.0927 71.6 21.75 71.6H35.01C35.6673 71.6 36.2 71.0672 36.2 70.41V65.99C36.2 65.3328 35.6673 64.8 35.01 64.8H16.99C16.3327 64.8 15.8 64.2672 15.8 63.61V59.19C15.8 58.5328 15.2673 58 14.61 58H10.19ZM75.0001 14C99.39 14 120.437 28.3142 130.198 49H134.592C124.561 26.0432 101.654 10 75.0001 10C48.346 10 25.4389 26.0432 15.4087 49H19.8027C29.5635 28.3142 50.6102 14 75.0001 14ZM75.0001 136C50.6102 136 29.5635 121.686 19.8027 101H15.4087C25.4389 123.957 48.346 140 75.0001 140C101.654 140 124.561 123.957 134.592 101H130.198C120.437 121.686 99.39 136 75.0001 136Z" fill="#FB5108"/>
<path d="M59.6624 92.552C56.6264 92.552 53.9584 91.862 51.6584 90.482C49.389 89.102 47.6257 87.1853 46.3684 84.732C45.111 82.248 44.4824 79.35 44.4824 76.038C44.4824 72.7567 45.1264 69.8587 46.4144 67.344C47.7024 64.7987 49.5424 62.8207 51.9344 61.41C54.357 59.9687 57.2244 59.248 60.5364 59.248C64.2777 59.248 67.375 60.1527 69.8284 61.962C72.3124 63.7407 73.9224 66.2247 74.6584 69.414H68.4484C67.9884 67.8193 67.0837 66.5773 65.7344 65.688C64.385 64.7987 62.637 64.354 60.4904 64.354C58.313 64.354 56.4424 64.8293 54.8784 65.78C53.345 66.7 52.1644 68.0493 51.3364 69.828C50.539 71.576 50.1404 73.6613 50.1404 76.084C50.1404 78.5067 50.539 80.592 51.3364 82.34C52.1644 84.088 53.3297 85.422 54.8324 86.342C56.335 87.2313 58.0984 87.676 60.1224 87.676C63.1277 87.676 65.397 86.8327 66.9304 85.146C68.4637 83.4593 69.3684 81.2667 69.6444 78.568H61.3184V74.382H75.2104V92H70.1504L69.6904 87.584C68.985 88.6267 68.1724 89.5313 67.2524 90.298C66.3324 91.034 65.2437 91.6013 63.9864 92C62.7597 92.368 61.3184 92.552 59.6624 92.552ZM79.3256 92V59.8H85.8576L96.1616 80.592L106.374 59.8H112.952V92H107.432V69.276L98.3236 87.492H93.9996L84.8456 69.322V92H79.3256ZM117.646 92V59.8H128.042C131.783 59.8 134.865 60.4593 137.288 61.778C139.741 63.0967 141.55 64.9673 142.716 67.39C143.912 69.782 144.51 72.634 144.51 75.946C144.51 79.1967 143.912 82.0333 142.716 84.456C141.55 86.848 139.741 88.7033 137.288 90.022C134.865 91.3407 131.783 92 128.042 92H117.646ZM123.166 87.308H127.766C130.556 87.308 132.749 86.8633 134.344 85.974C135.969 85.054 137.119 83.7507 137.794 82.064C138.499 80.3467 138.852 78.3073 138.852 75.946C138.852 73.554 138.499 71.5147 137.794 69.828C137.119 68.1107 135.969 66.792 134.344 65.872C132.749 64.9213 130.556 64.446 127.766 64.446H123.166V87.308Z" fill="white"/>
</svg>
