<svg width="150" height="150" viewBox="0 0 150 150" fill="none" xmlns="http://www.w3.org/2000/svg">
<path fill-rule="evenodd" clip-rule="evenodd" d="M0 75C0 33.5786 33.5786 0 75 0C116.421 0 150 33.5786 150 75C150 116.421 116.421 150 75 150C33.5786 150 0 116.421 0 75ZM10.19 58C9.53274 58 9 58.5328 9 59.19V63.61C9 64.2672 9.53274 64.8 10.19 64.8H14.61C15.2673 64.8 15.8 65.3328 15.8 65.99V70.41C15.8 71.0673 15.2673 71.6 14.61 71.6H10.19C9.53274 71.6 9 72.1328 9 72.79V74.507C9 74.8312 9.12966 75.1252 9.34 75.3398L15.4602 81.46C15.6748 81.6703 15.9688 81.8 16.293 81.8H23.45C24.1073 81.8 24.64 82.3328 24.64 82.99V84.01C24.64 84.6673 24.1073 85.2 23.45 85.2H10.19C9.53274 85.2 9 85.7328 9 86.39V90.81C9 91.4672 9.53274 92 10.19 92H28.21C28.8673 92 29.4 91.4672 29.4 90.81V86.39C29.4 85.7327 29.9327 85.2 30.59 85.2H35.01C35.6673 85.2 36.2 85.7328 36.2 86.39V90.81C36.2 91.4672 36.7327 92 37.39 92H41.81C42.4673 92 43 91.4672 43 90.81V86.39C43 85.7328 42.4673 85.2 41.81 85.2H37.39C36.7327 85.2 36.2 84.6672 36.2 84.01V82.293C36.2 81.9688 36.0703 81.6748 35.86 81.4602L29.7398 75.34C29.5252 75.1297 29.2312 75 28.907 75H21.75C21.0927 75 20.56 74.4672 20.56 73.81V72.79C20.56 72.1327 21.0927 71.6 21.75 71.6H35.01C35.6673 71.6 36.2 71.0672 36.2 70.41V65.99C36.2 65.3328 35.6673 64.8 35.01 64.8H16.99C16.3327 64.8 15.8 64.2672 15.8 63.61V59.19C15.8 58.5328 15.2673 58 14.61 58H10.19ZM75.0001 14C99.39 14 120.437 28.3142 130.198 49H134.592C124.561 26.0432 101.654 10 75.0001 10C48.346 10 25.4389 26.0432 15.4087 49H19.8027C29.5635 28.3142 50.6102 14 75.0001 14ZM75.0001 136C50.6102 136 29.5635 121.686 19.8027 101H15.4087C25.4389 123.957 48.346 140 75.0001 140C101.654 140 124.561 123.957 134.592 101H130.198C120.437 121.686 99.39 136 75.0001 136Z" fill="#FB5108"/>
<path d="M64.3751 92.552C61.3391 92.552 58.6711 91.862 56.3711 90.482C54.1018 89.102 52.3384 87.1853 51.0811 84.732C49.8238 82.248 49.1951 79.35 49.1951 76.038C49.1951 72.7567 49.8391 69.8587 51.1271 67.344C52.4151 64.7987 54.2551 62.8207 56.6471 61.41C59.0698 59.9687 61.9371 59.248 65.2491 59.248C68.9904 59.248 72.0878 60.1527 74.5411 61.962C77.0251 63.7407 78.6351 66.2247 79.3711 69.414H73.1611C72.7011 67.8193 71.7964 66.5773 70.4471 65.688C69.0978 64.7987 67.3498 64.354 65.2031 64.354C63.0258 64.354 61.1551 64.8293 59.5911 65.78C58.0578 66.7 56.8771 68.0493 56.0491 69.828C55.2518 71.576 54.8531 73.6613 54.8531 76.084C54.8531 78.5067 55.2518 80.592 56.0491 82.34C56.8771 84.088 58.0424 85.422 59.5451 86.342C61.0478 87.2313 62.8111 87.676 64.8351 87.676C67.8404 87.676 70.1098 86.8327 71.6431 85.146C73.1764 83.4593 74.0811 81.2667 74.3571 78.568H66.0311V74.382H79.9231V92H74.8631L74.4031 87.584C73.6978 88.6267 72.8851 89.5313 71.9651 90.298C71.0451 91.034 69.9564 91.6013 68.6991 92C67.4724 92.368 66.0311 92.552 64.3751 92.552ZM85.8783 92V59.8H91.3983L106.9 83.076V59.8H112.42V92H106.9L91.3983 68.77V92H85.8783ZM118.896 92V59.8H139.458V64.262H124.416V73.692H136.698V78.062H124.416V92H118.896Z" fill="white"/>
</svg>
