<svg width="150" height="150" viewBox="0 0 150 150" fill="none" xmlns="http://www.w3.org/2000/svg">
<path fill-rule="evenodd" clip-rule="evenodd" d="M0 75C0 33.5786 33.5786 0 75 0C116.421 0 150 33.5786 150 75C150 116.421 116.421 150 75 150C33.5786 150 0 116.421 0 75ZM10.19 58C9.53274 58 9 58.5328 9 59.19V63.61C9 64.2672 9.53274 64.8 10.19 64.8H14.61C15.2673 64.8 15.8 65.3328 15.8 65.99V70.41C15.8 71.0673 15.2673 71.6 14.61 71.6H10.19C9.53274 71.6 9 72.1328 9 72.79V74.507C9 74.8312 9.12966 75.1252 9.34 75.3398L15.4602 81.46C15.6748 81.6703 15.9688 81.8 16.293 81.8H23.45C24.1073 81.8 24.64 82.3328 24.64 82.99V84.01C24.64 84.6673 24.1073 85.2 23.45 85.2H10.19C9.53274 85.2 9 85.7328 9 86.39V90.81C9 91.4672 9.53274 92 10.19 92H28.21C28.8673 92 29.4 91.4672 29.4 90.81V86.39C29.4 85.7327 29.9327 85.2 30.59 85.2H35.01C35.6673 85.2 36.2 85.7328 36.2 86.39V90.81C36.2 91.4672 36.7327 92 37.39 92H41.81C42.4673 92 43 91.4672 43 90.81V86.39C43 85.7328 42.4673 85.2 41.81 85.2H37.39C36.7327 85.2 36.2 84.6672 36.2 84.01V82.293C36.2 81.9688 36.0703 81.6748 35.86 81.4602L29.7398 75.34C29.5252 75.1297 29.2312 75 28.907 75H21.75C21.0927 75 20.56 74.4672 20.56 73.81V72.79C20.56 72.1327 21.0927 71.6 21.75 71.6H35.01C35.6673 71.6 36.2 71.0672 36.2 70.41V65.99C36.2 65.3328 35.6673 64.8 35.01 64.8H16.99C16.3327 64.8 15.8 64.2672 15.8 63.61V59.19C15.8 58.5328 15.2673 58 14.61 58H10.19ZM75.0001 14C99.39 14 120.437 28.3142 130.198 49H134.592C124.561 26.0432 101.654 10 75.0001 10C48.346 10 25.4389 26.0432 15.4087 49H19.8027C29.5635 28.3142 50.6102 14 75.0001 14ZM75.0001 136C50.6102 136 29.5635 121.686 19.8027 101H15.4087C25.4389 123.957 48.346 140 75.0001 140C101.654 140 124.561 123.957 134.592 101H130.198C120.437 121.686 99.39 136 75.0001 136Z" fill="#FB5108"/>
<path d="M64.5305 92.552C61.4945 92.552 58.8265 91.862 56.5265 90.482C54.2572 89.102 52.4939 87.1853 51.2365 84.732C49.9792 82.248 49.3505 79.35 49.3505 76.038C49.3505 72.7567 49.9945 69.8587 51.2825 67.344C52.5705 64.7987 54.4105 62.8207 56.8025 61.41C59.2252 59.9687 62.0925 59.248 65.4045 59.248C69.1459 59.248 72.2432 60.1527 74.6965 61.962C77.1805 63.7407 78.7905 66.2247 79.5265 69.414H73.3165C72.8565 67.8193 71.9519 66.5773 70.6025 65.688C69.2532 64.7987 67.5052 64.354 65.3585 64.354C63.1812 64.354 61.3105 64.8293 59.7465 65.78C58.2132 66.7 57.0325 68.0493 56.2045 69.828C55.4072 71.576 55.0085 73.6613 55.0085 76.084C55.0085 78.5067 55.4072 80.592 56.2045 82.34C57.0325 84.088 58.1979 85.422 59.7005 86.342C61.2032 87.2313 62.9665 87.676 64.9905 87.676C67.9959 87.676 70.2652 86.8327 71.7985 85.146C73.3319 83.4593 74.2365 81.2667 74.5125 78.568H66.1865V74.382H80.0785V92H75.0185L74.5585 87.584C73.8532 88.6267 73.0405 89.5313 72.1205 90.298C71.2005 91.034 70.1119 91.6013 68.8545 92C67.6279 92.368 66.1865 92.552 64.5305 92.552ZM91.6917 92V64.262H82.2157V59.8H106.642V64.262H97.1657V92H91.6917ZM130.68 96.83L119.226 78.89H125.574L137.212 96.83H130.68ZM122.768 92.552C119.671 92.552 116.926 91.862 114.534 90.482C112.173 89.0713 110.317 87.124 108.968 84.64C107.619 82.1253 106.944 79.212 106.944 75.9C106.944 72.6187 107.619 69.736 108.968 67.252C110.317 64.7373 112.173 62.7747 114.534 61.364C116.926 59.9533 119.671 59.248 122.768 59.248C125.927 59.248 128.702 59.9533 131.094 61.364C133.486 62.7747 135.341 64.7373 136.66 67.252C137.979 69.736 138.638 72.6187 138.638 75.9C138.638 79.212 137.979 82.1253 136.66 84.64C135.341 87.124 133.486 89.0713 131.094 90.482C128.702 91.862 125.927 92.552 122.768 92.552ZM122.814 87.584C124.869 87.584 126.663 87.124 128.196 86.204C129.729 85.2533 130.91 83.904 131.738 82.156C132.566 80.408 132.98 78.3227 132.98 75.9C132.98 73.4773 132.566 71.392 131.738 69.644C130.91 67.896 129.729 66.562 128.196 65.642C126.663 64.6913 124.869 64.216 122.814 64.216C120.759 64.216 118.965 64.6913 117.432 65.642C115.899 66.562 114.703 67.896 113.844 69.644C113.016 71.392 112.602 73.4773 112.602 75.9C112.602 78.3227 113.016 80.408 113.844 82.156C114.703 83.904 115.899 85.2533 117.432 86.204C118.965 87.124 120.759 87.584 122.814 87.584Z" fill="white"/>
</svg>
