<svg width="150" height="150" viewBox="0 0 150 150" fill="none" xmlns="http://www.w3.org/2000/svg">
<path fill-rule="evenodd" clip-rule="evenodd" d="M0 75C0 33.5786 33.5786 0 75 0C116.421 0 150 33.5786 150 75C150 116.421 116.421 150 75 150C33.5786 150 0 116.421 0 75ZM10.19 58C9.53274 58 9 58.5328 9 59.19V63.61C9 64.2672 9.53274 64.8 10.19 64.8H14.61C15.2673 64.8 15.8 65.3328 15.8 65.99V70.41C15.8 71.0673 15.2673 71.6 14.61 71.6H10.19C9.53274 71.6 9 72.1328 9 72.79V74.507C9 74.8312 9.12966 75.1252 9.34 75.3398L15.4602 81.46C15.6748 81.6703 15.9688 81.8 16.293 81.8H23.45C24.1073 81.8 24.64 82.3328 24.64 82.99V84.01C24.64 84.6673 24.1073 85.2 23.45 85.2H10.19C9.53274 85.2 9 85.7328 9 86.39V90.81C9 91.4672 9.53274 92 10.19 92H28.21C28.8673 92 29.4 91.4672 29.4 90.81V86.39C29.4 85.7327 29.9327 85.2 30.59 85.2H35.01C35.6673 85.2 36.2 85.7328 36.2 86.39V90.81C36.2 91.4672 36.7327 92 37.39 92H41.81C42.4673 92 43 91.4672 43 90.81V86.39C43 85.7328 42.4673 85.2 41.81 85.2H37.39C36.7327 85.2 36.2 84.6672 36.2 84.01V82.293C36.2 81.9688 36.0703 81.6748 35.86 81.4602L29.7398 75.34C29.5252 75.1297 29.2312 75 28.907 75H21.75C21.0927 75 20.56 74.4672 20.56 73.81V72.79C20.56 72.1327 21.0927 71.6 21.75 71.6H35.01C35.6673 71.6 36.2 71.0672 36.2 70.41V65.99C36.2 65.3328 35.6673 64.8 35.01 64.8H16.99C16.3327 64.8 15.8 64.2672 15.8 63.61V59.19C15.8 58.5328 15.2673 58 14.61 58H10.19ZM75.0001 14C99.39 14 120.437 28.3142 130.198 49H134.592C124.561 26.0432 101.654 10 75.0001 10C48.346 10 25.4389 26.0432 15.4087 49H19.8027C29.5635 28.3142 50.6102 14 75.0001 14ZM75.0001 136C50.6102 136 29.5635 121.686 19.8027 101H15.4087C25.4389 123.957 48.346 140 75.0001 140C101.654 140 124.561 123.957 134.592 101H130.198C120.437 121.686 99.39 136 75.0001 136Z" fill="#FB5108"/>
<path d="M64.0061 93.6C60.7061 93.6 57.8061 92.85 55.3061 91.35C52.8394 89.85 50.9227 87.7667 49.5561 85.1C48.1894 82.4 47.5061 79.25 47.5061 75.65C47.5061 72.0833 48.2061 68.9333 49.6061 66.2C51.0061 63.4333 53.0061 61.2833 55.6061 59.75C58.2394 58.1833 61.3561 57.4 64.9561 57.4C69.0227 57.4 72.3894 58.3833 75.0561 60.35C77.7561 62.2833 79.5061 64.9833 80.3061 68.45H73.5561C73.0561 66.7167 72.0727 65.3667 70.6061 64.4C69.1394 63.4333 67.2394 62.95 64.9061 62.95C62.5394 62.95 60.5061 63.4667 58.8061 64.5C57.1394 65.5 55.8561 66.9667 54.9561 68.9C54.0894 70.8 53.6561 73.0667 53.6561 75.7C53.6561 78.3333 54.0894 80.6 54.9561 82.5C55.8561 84.4 57.1227 85.85 58.7561 86.85C60.3894 87.8167 62.3061 88.3 64.5061 88.3C67.7727 88.3 70.2394 87.3833 71.9061 85.55C73.5727 83.7167 74.5561 81.3333 74.8561 78.4H65.8061V73.85H80.9061V93H75.4061L74.9061 88.2C74.1394 89.3333 73.2561 90.3167 72.2561 91.15C71.2561 91.95 70.0727 92.5667 68.7061 93C67.3727 93.4 65.8061 93.6 64.0061 93.6ZM92.2771 93V80.4L80.6271 58H87.4271L95.9771 75.8H94.6771L103.227 58H109.977L98.2771 80.4V93H92.2771ZM112.285 93V58H123.585C127.652 58 131.002 58.7167 133.635 60.15C136.302 61.5833 138.269 63.6167 139.535 66.25C140.835 68.85 141.485 71.95 141.485 75.55C141.485 79.0833 140.835 82.1667 139.535 84.8C138.269 87.4 136.302 89.4167 133.635 90.85C131.002 92.2833 127.652 93 123.585 93H112.285ZM118.285 87.9H123.285C126.319 87.9 128.702 87.4167 130.435 86.45C132.202 85.45 133.452 84.0333 134.185 82.2C134.952 80.3333 135.335 78.1167 135.335 75.55C135.335 72.95 134.952 70.7333 134.185 68.9C133.452 67.0333 132.202 65.6 130.435 64.6C128.702 63.5667 126.319 63.05 123.285 63.05H118.285V87.9Z" fill="white"/>
</svg>
