<svg width="150" height="150" viewBox="0 0 150 150" fill="none" xmlns="http://www.w3.org/2000/svg">
<path fill-rule="evenodd" clip-rule="evenodd" d="M0 75C0 33.5786 33.5786 0 75 0C116.421 0 150 33.5786 150 75C150 116.421 116.421 150 75 150C33.5786 150 0 116.421 0 75ZM10.19 58C9.53274 58 9 58.5328 9 59.19V63.61C9 64.2672 9.53274 64.8 10.19 64.8H14.61C15.2673 64.8 15.8 65.3328 15.8 65.99V70.41C15.8 71.0673 15.2673 71.6 14.61 71.6H10.19C9.53274 71.6 9 72.1328 9 72.79V74.507C9 74.8312 9.12966 75.1252 9.34 75.3398L15.4602 81.46C15.6748 81.6703 15.9688 81.8 16.293 81.8H23.45C24.1073 81.8 24.64 82.3328 24.64 82.99V84.01C24.64 84.6673 24.1073 85.2 23.45 85.2H10.19C9.53274 85.2 9 85.7328 9 86.39V90.81C9 91.4672 9.53274 92 10.19 92H28.21C28.8673 92 29.4 91.4672 29.4 90.81V86.39C29.4 85.7327 29.9327 85.2 30.59 85.2H35.01C35.6673 85.2 36.2 85.7328 36.2 86.39V90.81C36.2 91.4672 36.7327 92 37.39 92H41.81C42.4673 92 43 91.4672 43 90.81V86.39C43 85.7328 42.4673 85.2 41.81 85.2H37.39C36.7327 85.2 36.2 84.6672 36.2 84.01V82.293C36.2 81.9688 36.0703 81.6748 35.86 81.4602L29.7398 75.34C29.5252 75.1297 29.2312 75 28.907 75H21.75C21.0927 75 20.56 74.4672 20.56 73.81V72.79C20.56 72.1327 21.0927 71.6 21.75 71.6H35.01C35.6673 71.6 36.2 71.0672 36.2 70.41V65.99C36.2 65.3328 35.6673 64.8 35.01 64.8H16.99C16.3327 64.8 15.8 64.2672 15.8 63.61V59.19C15.8 58.5328 15.2673 58 14.61 58H10.19ZM75.0001 14C99.39 14 120.437 28.3142 130.198 49H134.592C124.561 26.0432 101.654 10 75.0001 10C48.346 10 25.4389 26.0432 15.4087 49H19.8027C29.5635 28.3142 50.6102 14 75.0001 14ZM75.0001 136C50.6102 136 29.5635 121.686 19.8027 101H15.4087C25.4389 123.957 48.346 140 75.0001 140C101.654 140 124.561 123.957 134.592 101H130.198C120.437 121.686 99.39 136 75.0001 136Z" fill="#FB5108"/>
<path d="M72.7242 93V58H78.7242V93H72.7242ZM50.6242 93V58H56.6242V93H50.6242ZM55.7242 77.6V72.7H73.8742V77.6H55.7242ZM83.8293 93V58H96.3793C99.146 58 101.429 58.4833 103.229 59.45C105.063 60.3833 106.413 61.65 107.279 63.25C108.179 64.8167 108.629 66.6 108.629 68.6C108.629 70.4667 108.196 72.2 107.329 73.8C106.463 75.4 105.113 76.6833 103.279 77.65C101.446 78.6167 99.096 79.1 96.2293 79.1H89.8293V93H83.8293ZM102.079 93L94.7293 77.55H101.229L108.929 93H102.079ZM89.8293 74.65H95.9793C98.2126 74.65 99.846 74.1167 100.879 73.05C101.946 71.95 102.479 70.5167 102.479 68.75C102.479 67.0167 101.963 65.6333 100.929 64.6C99.896 63.5333 98.246 63 95.9793 63H89.8293V74.65ZM112.835 93V58H118.835V72.45L132.035 58H139.485L126.535 71.9L139.785 93H132.485L122.285 76.5L118.835 80.25V93H112.835Z" fill="white"/>
</svg>
