<svg width="150" height="150" viewBox="0 0 150 150" fill="none" xmlns="http://www.w3.org/2000/svg">
<path fill-rule="evenodd" clip-rule="evenodd" d="M0 75C0 33.5786 33.5786 0 75 0C116.421 0 150 33.5786 150 75C150 116.421 116.421 150 75 150C33.5786 150 0 116.421 0 75ZM10.19 58C9.53274 58 9 58.5328 9 59.19V63.61C9 64.2672 9.53274 64.8 10.19 64.8H14.61C15.2673 64.8 15.8 65.3328 15.8 65.99V70.41C15.8 71.0673 15.2673 71.6 14.61 71.6H10.19C9.53274 71.6 9 72.1328 9 72.79V74.507C9 74.8312 9.12966 75.1252 9.34 75.3398L15.4602 81.46C15.6748 81.6703 15.9688 81.8 16.293 81.8H23.45C24.1073 81.8 24.64 82.3328 24.64 82.99V84.01C24.64 84.6673 24.1073 85.2 23.45 85.2H10.19C9.53274 85.2 9 85.7328 9 86.39V90.81C9 91.4672 9.53274 92 10.19 92H28.21C28.8673 92 29.4 91.4672 29.4 90.81V86.39C29.4 85.7327 29.9327 85.2 30.59 85.2H35.01C35.6673 85.2 36.2 85.7328 36.2 86.39V90.81C36.2 91.4672 36.7327 92 37.39 92H41.81C42.4673 92 43 91.4672 43 90.81V86.39C43 85.7328 42.4673 85.2 41.81 85.2H37.39C36.7327 85.2 36.2 84.6672 36.2 84.01V82.293C36.2 81.9688 36.0703 81.6748 35.86 81.4602L29.7398 75.34C29.5252 75.1297 29.2312 75 28.907 75H21.75C21.0927 75 20.56 74.4672 20.56 73.81V72.79C20.56 72.1327 21.0927 71.6 21.75 71.6H35.01C35.6673 71.6 36.2 71.0672 36.2 70.41V65.99C36.2 65.3328 35.6673 64.8 35.01 64.8H16.99C16.3327 64.8 15.8 64.2672 15.8 63.61V59.19C15.8 58.5328 15.2673 58 14.61 58H10.19ZM75.0001 14C99.39 14 120.437 28.3142 130.198 49H134.592C124.561 26.0432 101.654 10 75.0001 10C48.346 10 25.4389 26.0432 15.4087 49H19.8027C29.5635 28.3142 50.6102 14 75.0001 14ZM75.0001 136C50.6102 136 29.5635 121.686 19.8027 101H15.4087C25.4389 123.957 48.346 140 75.0001 140C101.654 140 124.561 123.957 134.592 101H130.198C120.437 121.686 99.39 136 75.0001 136Z" fill="#FB5108"/>
<path d="M70.7467 93V58H76.7467V93H70.7467ZM48.6467 93V58H54.6467V93H48.6467ZM53.7467 77.6V72.7H71.8967V77.6H53.7467ZM90.0018 93V62.85H79.7018V58H106.252V62.85H95.9518V93H90.0018ZM123.08 93.6C119.78 93.6 116.88 92.85 114.38 91.35C111.914 89.85 109.997 87.7667 108.63 85.1C107.264 82.4 106.58 79.25 106.58 75.65C106.58 72.0833 107.28 68.9333 108.68 66.2C110.08 63.4333 112.08 61.2833 114.68 59.75C117.314 58.1833 120.43 57.4 124.03 57.4C128.097 57.4 131.464 58.3833 134.13 60.35C136.83 62.2833 138.58 64.9833 139.38 68.45H132.63C132.13 66.7167 131.147 65.3667 129.68 64.4C128.214 63.4333 126.314 62.95 123.98 62.95C121.614 62.95 119.58 63.4667 117.88 64.5C116.214 65.5 114.93 66.9667 114.03 68.9C113.164 70.8 112.73 73.0667 112.73 75.7C112.73 78.3333 113.164 80.6 114.03 82.5C114.93 84.4 116.197 85.85 117.83 86.85C119.464 87.8167 121.38 88.3 123.58 88.3C126.847 88.3 129.314 87.3833 130.98 85.55C132.647 83.7167 133.63 81.3333 133.93 78.4H124.88V73.85H139.98V93H134.48L133.98 88.2C133.214 89.3333 132.33 90.3167 131.33 91.15C130.33 91.95 129.147 92.5667 127.78 93C126.447 93.4 124.88 93.6 123.08 93.6Z" fill="white"/>
</svg>
