<svg width="150" height="150" viewBox="0 0 150 150" fill="none" xmlns="http://www.w3.org/2000/svg">
<path fill-rule="evenodd" clip-rule="evenodd" d="M0 75C0 33.5786 33.5786 0 75 0C116.421 0 150 33.5786 150 75C150 116.421 116.421 150 75 150C33.5786 150 0 116.421 0 75ZM10.19 58C9.53274 58 9 58.5328 9 59.19V63.61C9 64.2672 9.53274 64.8 10.19 64.8H14.61C15.2673 64.8 15.8 65.3328 15.8 65.99V70.41C15.8 71.0673 15.2673 71.6 14.61 71.6H10.19C9.53274 71.6 9 72.1328 9 72.79V74.507C9 74.8312 9.12966 75.1252 9.34 75.3398L15.4602 81.46C15.6748 81.6703 15.9688 81.8 16.293 81.8H23.45C24.1073 81.8 24.64 82.3328 24.64 82.99V84.01C24.64 84.6673 24.1073 85.2 23.45 85.2H10.19C9.53274 85.2 9 85.7328 9 86.39V90.81C9 91.4672 9.53274 92 10.19 92H28.21C28.8673 92 29.4 91.4672 29.4 90.81V86.39C29.4 85.7327 29.9327 85.2 30.59 85.2H35.01C35.6673 85.2 36.2 85.7328 36.2 86.39V90.81C36.2 91.4672 36.7327 92 37.39 92H41.81C42.4673 92 43 91.4672 43 90.81V86.39C43 85.7328 42.4673 85.2 41.81 85.2H37.39C36.7327 85.2 36.2 84.6672 36.2 84.01V82.293C36.2 81.9688 36.0703 81.6748 35.86 81.4602L29.7398 75.34C29.5252 75.1297 29.2312 75 28.907 75H21.75C21.0927 75 20.56 74.4672 20.56 73.81V72.79C20.56 72.1327 21.0927 71.6 21.75 71.6H35.01C35.6673 71.6 36.2 71.0672 36.2 70.41V65.99C36.2 65.3328 35.6673 64.8 35.01 64.8H16.99C16.3327 64.8 15.8 64.2672 15.8 63.61V59.19C15.8 58.5328 15.2673 58 14.61 58H10.19ZM75.0001 14C99.39 14 120.437 28.3142 130.198 49H134.592C124.561 26.0432 101.654 10 75.0001 10C48.346 10 25.4389 26.0432 15.4087 49H19.8027C29.5635 28.3142 50.6102 14 75.0001 14ZM75.0001 136C50.6102 136 29.5635 121.686 19.8027 101H15.4087C25.4389 123.957 48.346 140 75.0001 140C101.654 140 124.561 123.957 134.592 101H130.198C120.437 121.686 99.39 136 75.0001 136Z" fill="#FB5108"/>
<path d="M52.9992 93V58H58.9992V93H52.9992ZM71.0363 93V58H82.3363C86.403 58 89.753 58.7167 92.3863 60.15C95.053 61.5833 97.0197 63.6167 98.2863 66.25C99.5863 68.85 100.236 71.95 100.236 75.55C100.236 79.0833 99.5863 82.1667 98.2863 84.8C97.0197 87.4 95.053 89.4167 92.3863 90.85C89.753 92.2833 86.403 93 82.3363 93H71.0363ZM77.0363 87.9H82.0363C85.0697 87.9 87.453 87.4167 89.1863 86.45C90.953 85.45 92.203 84.0333 92.9363 82.2C93.703 80.3333 94.0863 78.1167 94.0863 75.55C94.0863 72.95 93.703 70.7333 92.9363 68.9C92.203 67.0333 90.953 65.6 89.1863 64.6C87.453 63.5667 85.0697 63.05 82.0363 63.05H77.0363V87.9ZM111.095 93V58H123.645C126.412 58 128.695 58.4833 130.495 59.45C132.328 60.3833 133.678 61.65 134.545 63.25C135.445 64.8167 135.895 66.6 135.895 68.6C135.895 70.4667 135.462 72.2 134.595 73.8C133.728 75.4 132.378 76.6833 130.545 77.65C128.712 78.6167 126.362 79.1 123.495 79.1H117.095V93H111.095ZM129.345 93L121.995 77.55H128.495L136.195 93H129.345ZM117.095 74.65H123.245C125.478 74.65 127.112 74.1167 128.145 73.05C129.212 71.95 129.745 70.5167 129.745 68.75C129.745 67.0167 129.228 65.6333 128.195 64.6C127.162 63.5333 125.512 63 123.245 63H117.095V74.65Z" fill="white"/>
</svg>
