<svg width="150" height="150" viewBox="0 0 150 150" fill="none" xmlns="http://www.w3.org/2000/svg">
<path fill-rule="evenodd" clip-rule="evenodd" d="M0 75C0 33.5786 33.5786 0 75 0C116.421 0 150 33.5786 150 75C150 116.421 116.421 150 75 150C33.5786 150 0 116.421 0 75ZM10.19 58C9.53274 58 9 58.5328 9 59.19V63.61C9 64.2672 9.53274 64.8 10.19 64.8H14.61C15.2673 64.8 15.8 65.3328 15.8 65.99V70.41C15.8 71.0673 15.2673 71.6 14.61 71.6H10.19C9.53274 71.6 9 72.1328 9 72.79V74.507C9 74.8312 9.12966 75.1252 9.34 75.3398L15.4602 81.46C15.6748 81.6703 15.9688 81.8 16.293 81.8H23.45C24.1073 81.8 24.64 82.3328 24.64 82.99V84.01C24.64 84.6673 24.1073 85.2 23.45 85.2H10.19C9.53274 85.2 9 85.7328 9 86.39V90.81C9 91.4672 9.53274 92 10.19 92H28.21C28.8673 92 29.4 91.4672 29.4 90.81V86.39C29.4 85.7327 29.9327 85.2 30.59 85.2H35.01C35.6673 85.2 36.2 85.7328 36.2 86.39V90.81C36.2 91.4672 36.7327 92 37.39 92H41.81C42.4673 92 43 91.4672 43 90.81V86.39C43 85.7328 42.4673 85.2 41.81 85.2H37.39C36.7327 85.2 36.2 84.6672 36.2 84.01V82.293C36.2 81.9688 36.0703 81.6748 35.86 81.4602L29.7398 75.34C29.5252 75.1297 29.2312 75 28.907 75H21.75C21.0927 75 20.56 74.4672 20.56 73.81V72.79C20.56 72.1327 21.0927 71.6 21.75 71.6H35.01C35.6673 71.6 36.2 71.0672 36.2 70.41V65.99C36.2 65.3328 35.6673 64.8 35.01 64.8H16.99C16.3327 64.8 15.8 64.2672 15.8 63.61V59.19C15.8 58.5328 15.2673 58 14.61 58H10.19ZM75.0001 14C99.39 14 120.437 28.3142 130.198 49H134.592C124.561 26.0432 101.654 10 75.0001 10C48.346 10 25.4389 26.0432 15.4087 49H19.8027C29.5635 28.3142 50.6102 14 75.0001 14ZM75.0001 136C50.6102 136 29.5635 121.686 19.8027 101H15.4087C25.4389 123.957 48.346 140 75.0001 140C101.654 140 124.561 123.957 134.592 101H130.198C120.437 121.686 99.39 136 75.0001 136Z" fill="#FB5108"/>
<path d="M58.6506 93V58H64.6506V93H58.6506ZM76.6877 93V58H82.6877V88.3H98.2877V93H76.6877ZM119.365 93.6C116.832 93.6 114.582 93.15 112.615 92.25C110.649 91.35 109.115 90.0667 108.015 88.4C106.915 86.7333 106.349 84.75 106.315 82.45H112.665C112.665 83.6167 112.932 84.6667 113.465 85.6C114.032 86.5 114.799 87.2167 115.765 87.75C116.765 88.2833 117.965 88.55 119.365 88.55C120.565 88.55 121.599 88.3667 122.465 88C123.365 87.6 124.049 87.05 124.515 86.35C125.015 85.6167 125.265 84.7667 125.265 83.8C125.265 82.7 124.999 81.8 124.465 81.1C123.965 80.3667 123.265 79.75 122.365 79.25C121.465 78.75 120.432 78.3167 119.265 77.95C118.099 77.55 116.865 77.1333 115.565 76.7C112.799 75.7667 110.715 74.5833 109.315 73.15C107.915 71.6833 107.215 69.7333 107.215 67.3C107.215 65.2667 107.699 63.5167 108.665 62.05C109.632 60.5833 110.982 59.45 112.715 58.65C114.482 57.8167 116.515 57.4 118.815 57.4C121.149 57.4 123.182 57.8167 124.915 58.65C126.682 59.4833 128.065 60.65 129.065 62.15C130.099 63.6167 130.632 65.3833 130.665 67.45H124.265C124.232 66.5833 123.999 65.7833 123.565 65.05C123.132 64.2833 122.499 63.6667 121.665 63.2C120.865 62.7 119.882 62.45 118.715 62.45C117.715 62.4167 116.815 62.5833 116.015 62.95C115.249 63.2833 114.632 63.7833 114.165 64.45C113.732 65.0833 113.515 65.8833 113.515 66.85C113.515 67.7833 113.715 68.5667 114.115 69.2C114.549 69.8 115.165 70.3167 115.965 70.75C116.765 71.15 117.699 71.5333 118.765 71.9C119.832 72.2667 120.999 72.6667 122.265 73.1C123.999 73.6667 125.565 74.3667 126.965 75.2C128.399 76 129.532 77.05 130.365 78.35C131.199 79.65 131.615 81.3333 131.615 83.4C131.615 85.2 131.149 86.8833 130.215 88.45C129.282 89.9833 127.915 91.2333 126.115 92.2C124.315 93.1333 122.065 93.6 119.365 93.6Z" fill="white"/>
</svg>
