<svg width="150" height="150" viewBox="0 0 150 150" fill="none" xmlns="http://www.w3.org/2000/svg">
<path fill-rule="evenodd" clip-rule="evenodd" d="M0 75C0 33.5786 33.5786 0 75 0C116.421 0 150 33.5786 150 75C150 116.421 116.421 150 75 150C33.5786 150 0 116.421 0 75ZM10.19 58C9.53274 58 9 58.5328 9 59.19V63.61C9 64.2672 9.53274 64.8 10.19 64.8H14.61C15.2673 64.8 15.8 65.3328 15.8 65.99V70.41C15.8 71.0673 15.2673 71.6 14.61 71.6H10.19C9.53274 71.6 9 72.1328 9 72.79V74.507C9 74.8312 9.12966 75.1252 9.34 75.3398L15.4602 81.46C15.6748 81.6703 15.9688 81.8 16.293 81.8H23.45C24.1073 81.8 24.64 82.3328 24.64 82.99V84.01C24.64 84.6673 24.1073 85.2 23.45 85.2H10.19C9.53274 85.2 9 85.7328 9 86.39V90.81C9 91.4672 9.53274 92 10.19 92H28.21C28.8673 92 29.4 91.4672 29.4 90.81V86.39C29.4 85.7327 29.9327 85.2 30.59 85.2H35.01C35.6673 85.2 36.2 85.7328 36.2 86.39V90.81C36.2 91.4672 36.7327 92 37.39 92H41.81C42.4673 92 43 91.4672 43 90.81V86.39C43 85.7328 42.4673 85.2 41.81 85.2H37.39C36.7327 85.2 36.2 84.6672 36.2 84.01V82.293C36.2 81.9688 36.0703 81.6748 35.86 81.4602L29.7398 75.34C29.5252 75.1297 29.2312 75 28.907 75H21.75C21.0927 75 20.56 74.4672 20.56 73.81V72.79C20.56 72.1327 21.0927 71.6 21.75 71.6H35.01C35.6673 71.6 36.2 71.0672 36.2 70.41V65.99C36.2 65.3328 35.6673 64.8 35.01 64.8H16.99C16.3327 64.8 15.8 64.2672 15.8 63.61V59.19C15.8 58.5328 15.2673 58 14.61 58H10.19ZM75.0001 14C99.39 14 120.437 28.3142 130.198 49H134.592C124.561 26.0432 101.654 10 75.0001 10C48.346 10 25.4389 26.0432 15.4087 49H19.8027C29.5635 28.3142 50.6102 14 75.0001 14ZM75.0001 136C50.6102 136 29.5635 121.686 19.8027 101H15.4087C25.4389 123.957 48.346 140 75.0001 140C101.654 140 124.561 123.957 134.592 101H130.198C120.437 121.686 99.39 136 75.0001 136Z" fill="#FB5108"/>
<path d="M53.9709 93V58H59.9709V93H53.9709ZM91.558 98.25L79.108 78.75H86.008L98.658 98.25H91.558ZM82.958 93.6C79.5913 93.6 76.608 92.85 74.008 91.35C71.4413 89.8167 69.4247 87.7 67.958 85C66.4913 82.2667 65.758 79.1 65.758 75.5C65.758 71.9333 66.4913 68.8 67.958 66.1C69.4247 63.3667 71.4413 61.2333 74.008 59.7C76.608 58.1667 79.5913 57.4 82.958 57.4C86.3913 57.4 89.408 58.1667 92.008 59.7C94.608 61.2333 96.6247 63.3667 98.058 66.1C99.4913 68.8 100.208 71.9333 100.208 75.5C100.208 79.1 99.4913 82.2667 98.058 85C96.6247 87.7 94.608 89.8167 92.008 91.35C89.408 92.85 86.3913 93.6 82.958 93.6ZM83.008 88.2C85.2413 88.2 87.1913 87.7 88.858 86.7C90.5247 85.6667 91.808 84.2 92.708 82.3C93.608 80.4 94.058 78.1333 94.058 75.5C94.058 72.8667 93.608 70.6 92.708 68.7C91.808 66.8 90.5247 65.35 88.858 64.35C87.1913 63.3167 85.2413 62.8 83.008 62.8C80.7747 62.8 78.8247 63.3167 77.158 64.35C75.4913 65.35 74.1913 66.8 73.258 68.7C72.358 70.6 71.908 72.8667 71.908 75.5C71.908 78.1333 72.358 80.4 73.258 82.3C74.1913 84.2 75.4913 85.6667 77.158 86.7C78.8247 87.7 80.7747 88.2 83.008 88.2ZM106.071 93V58H117.371C121.437 58 124.787 58.7167 127.421 60.15C130.087 61.5833 132.054 63.6167 133.321 66.25C134.621 68.85 135.271 71.95 135.271 75.55C135.271 79.0833 134.621 82.1667 133.321 84.8C132.054 87.4 130.087 89.4167 127.421 90.85C124.787 92.2833 121.437 93 117.371 93H106.071ZM112.071 87.9H117.071C120.104 87.9 122.487 87.4167 124.221 86.45C125.987 85.45 127.237 84.0333 127.971 82.2C128.737 80.3333 129.121 78.1167 129.121 75.55C129.121 72.95 128.737 70.7333 127.971 68.9C127.237 67.0333 125.987 65.6 124.221 64.6C122.487 63.5667 120.104 63.05 117.071 63.05H112.071V87.9Z" fill="white"/>
</svg>
