<svg width="150" height="150" viewBox="0 0 150 150" fill="none" xmlns="http://www.w3.org/2000/svg">
<path fill-rule="evenodd" clip-rule="evenodd" d="M0 75C0 33.5786 33.5786 0 75 0C116.421 0 150 33.5786 150 75C150 116.421 116.421 150 75 150C33.5786 150 0 116.421 0 75ZM10.19 58C9.53274 58 9 58.5328 9 59.19V63.61C9 64.2672 9.53274 64.8 10.19 64.8H14.61C15.2673 64.8 15.8 65.3328 15.8 65.99V70.41C15.8 71.0673 15.2673 71.6 14.61 71.6H10.19C9.53274 71.6 9 72.1328 9 72.79V74.507C9 74.8312 9.12966 75.1252 9.34 75.3398L15.4602 81.46C15.6748 81.6703 15.9688 81.8 16.293 81.8H23.45C24.1073 81.8 24.64 82.3328 24.64 82.99V84.01C24.64 84.6673 24.1073 85.2 23.45 85.2H10.19C9.53274 85.2 9 85.7328 9 86.39V90.81C9 91.4672 9.53274 92 10.19 92H28.21C28.8673 92 29.4 91.4672 29.4 90.81V86.39C29.4 85.7327 29.9327 85.2 30.59 85.2H35.01C35.6673 85.2 36.2 85.7328 36.2 86.39V90.81C36.2 91.4672 36.7327 92 37.39 92H41.81C42.4673 92 43 91.4672 43 90.81V86.39C43 85.7328 42.4673 85.2 41.81 85.2H37.39C36.7327 85.2 36.2 84.6672 36.2 84.01V82.293C36.2 81.9688 36.0703 81.6748 35.86 81.4602L29.7398 75.34C29.5252 75.1297 29.2312 75 28.907 75H21.75C21.0927 75 20.56 74.4672 20.56 73.81V72.79C20.56 72.1327 21.0927 71.6 21.75 71.6H35.01C35.6673 71.6 36.2 71.0672 36.2 70.41V65.99C36.2 65.3328 35.6673 64.8 35.01 64.8H16.99C16.3327 64.8 15.8 64.2672 15.8 63.61V59.19C15.8 58.5328 15.2673 58 14.61 58H10.19ZM75.0001 14C99.39 14 120.437 28.3142 130.198 49H134.592C124.561 26.0432 101.654 10 75.0001 10C48.346 10 25.4389 26.0432 15.4087 49H19.8027C29.5635 28.3142 50.6102 14 75.0001 14ZM75.0001 136C50.6102 136 29.5635 121.686 19.8027 101H15.4087C25.4389 123.957 48.346 140 75.0001 140C101.654 140 124.561 123.957 134.592 101H130.198C120.437 121.686 99.39 136 75.0001 136Z" fill="#FB5108"/>
<path d="M55.7941 93V58H61.7941V93H55.7941ZM85.5813 93.6C83.0479 93.6 80.7979 93.15 78.8313 92.25C76.8646 91.35 75.3313 90.0667 74.2313 88.4C73.1313 86.7333 72.5646 84.75 72.5313 82.45H78.8813C78.8813 83.6167 79.1479 84.6667 79.6813 85.6C80.2479 86.5 81.0146 87.2167 81.9813 87.75C82.9813 88.2833 84.1813 88.55 85.5813 88.55C86.7813 88.55 87.8146 88.3667 88.6813 88C89.5813 87.6 90.2646 87.05 90.7313 86.35C91.2313 85.6167 91.4813 84.7667 91.4813 83.8C91.4813 82.7 91.2146 81.8 90.6813 81.1C90.1813 80.3667 89.4813 79.75 88.5813 79.25C87.6813 78.75 86.6479 78.3167 85.4813 77.95C84.3146 77.55 83.0813 77.1333 81.7813 76.7C79.0146 75.7667 76.9313 74.5833 75.5313 73.15C74.1313 71.6833 73.4313 69.7333 73.4313 67.3C73.4313 65.2667 73.9146 63.5167 74.8813 62.05C75.8479 60.5833 77.1979 59.45 78.9313 58.65C80.6979 57.8167 82.7313 57.4 85.0313 57.4C87.3646 57.4 89.3979 57.8167 91.1313 58.65C92.8979 59.4833 94.2813 60.65 95.2812 62.15C96.3146 63.6167 96.8479 65.3833 96.8813 67.45H90.4813C90.4479 66.5833 90.2146 65.7833 89.7813 65.05C89.3479 64.2833 88.7146 63.6667 87.8813 63.2C87.0813 62.7 86.0979 62.45 84.9313 62.45C83.9313 62.4167 83.0313 62.5833 82.2313 62.95C81.4646 63.2833 80.8479 63.7833 80.3813 64.45C79.9479 65.0833 79.7313 65.8833 79.7313 66.85C79.7313 67.7833 79.9313 68.5667 80.3313 69.2C80.7646 69.8 81.3813 70.3167 82.1813 70.75C82.9813 71.15 83.9146 71.5333 84.9812 71.9C86.0479 72.2667 87.2146 72.6667 88.4813 73.1C90.2146 73.6667 91.7813 74.3667 93.1813 75.2C94.6146 76 95.7479 77.05 96.5813 78.35C97.4146 79.65 97.8312 81.3333 97.8312 83.4C97.8312 85.2 97.3646 86.8833 96.4313 88.45C95.4979 89.9833 94.1313 91.2333 92.3313 92.2C90.5313 93.1333 88.2813 93.6 85.5813 93.6ZM108.665 93V58H114.665V72.45L127.865 58H135.315L122.365 71.9L135.615 93H128.315L118.115 76.5L114.665 80.25V93H108.665Z" fill="white"/>
</svg>
