<svg width="150" height="150" viewBox="0 0 150 150" fill="none" xmlns="http://www.w3.org/2000/svg">
<path fill-rule="evenodd" clip-rule="evenodd" d="M0 75C0 33.5786 33.5786 0 75 0C116.421 0 150 33.5786 150 75C150 116.421 116.421 150 75 150C33.5786 150 0 116.421 0 75ZM10.19 58C9.53274 58 9 58.5328 9 59.19V63.61C9 64.2672 9.53274 64.8 10.19 64.8H14.61C15.2673 64.8 15.8 65.3328 15.8 65.99V70.41C15.8 71.0673 15.2673 71.6 14.61 71.6H10.19C9.53274 71.6 9 72.1328 9 72.79V74.507C9 74.8312 9.12966 75.1252 9.34 75.3398L15.4602 81.46C15.6748 81.6703 15.9688 81.8 16.293 81.8H23.45C24.1073 81.8 24.64 82.3328 24.64 82.99V84.01C24.64 84.6673 24.1073 85.2 23.45 85.2H10.19C9.53274 85.2 9 85.7328 9 86.39V90.81C9 91.4672 9.53274 92 10.19 92H28.21C28.8673 92 29.4 91.4672 29.4 90.81V86.39C29.4 85.7327 29.9327 85.2 30.59 85.2H35.01C35.6673 85.2 36.2 85.7328 36.2 86.39V90.81C36.2 91.4672 36.7327 92 37.39 92H41.81C42.4673 92 43 91.4672 43 90.81V86.39C43 85.7328 42.4673 85.2 41.81 85.2H37.39C36.7327 85.2 36.2 84.6672 36.2 84.01V82.293C36.2 81.9688 36.0703 81.6748 35.86 81.4602L29.7398 75.34C29.5252 75.1297 29.2312 75 28.907 75H21.75C21.0927 75 20.56 74.4672 20.56 73.81V72.79C20.56 72.1327 21.0927 71.6 21.75 71.6H35.01C35.6673 71.6 36.2 71.0672 36.2 70.41V65.99C36.2 65.3328 35.6673 64.8 35.01 64.8H16.99C16.3327 64.8 15.8 64.2672 15.8 63.61V59.19C15.8 58.5328 15.2673 58 14.61 58H10.19ZM75.0001 14C99.39 14 120.437 28.3142 130.198 49H134.592C124.561 26.0432 101.654 10 75.0001 10C48.346 10 25.4389 26.0432 15.4087 49H19.8027C29.5635 28.3142 50.6102 14 75.0001 14ZM75.0001 136C50.6102 136 29.5635 121.686 19.8027 101H15.4087C25.4389 123.957 48.346 140 75.0001 140C101.654 140 124.561 123.957 134.592 101H130.198C120.437 121.686 99.39 136 75.0001 136Z" fill="#FB5108"/>
<path d="M63.6766 93.6C61.4432 93.6 59.4932 93.1833 57.8266 92.35C56.1932 91.4833 54.9266 90.25 54.0266 88.65C53.1266 87.0167 52.6766 85.05 52.6766 82.75H58.6766C58.6766 83.85 58.8432 84.8167 59.1766 85.65C59.5099 86.4833 60.0266 87.1333 60.7266 87.6C61.4599 88.0333 62.3932 88.25 63.5266 88.25C64.6599 88.25 65.5599 88.0333 66.2266 87.6C66.8932 87.1667 67.3766 86.5667 67.6766 85.8C68.0099 85 68.1766 84.0833 68.1766 83.05V58H74.1766V83.05C74.1766 86.45 73.2266 89.0667 71.3266 90.9C69.4599 92.7 66.9099 93.6 63.6766 93.6ZM81.2414 93V58H103.841V62.85H87.2414V72.9H102.341V77.65H87.2414V88.15H103.841V93H81.2414ZM110.148 93V58H122.748C125.548 58 127.864 58.4833 129.698 59.45C131.531 60.3833 132.898 61.65 133.798 63.25C134.698 64.85 135.148 66.6833 135.148 68.75C135.148 70.6833 134.714 72.4667 133.848 74.1C132.981 75.7 131.631 77 129.798 78C127.964 78.9667 125.614 79.45 122.748 79.45H116.148V93H110.148ZM116.148 74.55H122.398C124.764 74.55 126.464 74.0333 127.498 73C128.531 71.9333 129.048 70.5167 129.048 68.75C129.048 66.9167 128.531 65.4833 127.498 64.45C126.464 63.4167 124.764 62.9 122.398 62.9H116.148V74.55Z" fill="white"/>
</svg>
