<svg width="150" height="150" viewBox="0 0 150 150" fill="none" xmlns="http://www.w3.org/2000/svg">
<path fill-rule="evenodd" clip-rule="evenodd" d="M0 75C0 33.5786 33.5786 0 75 0C116.421 0 150 33.5786 150 75C150 116.421 116.421 150 75 150C33.5786 150 0 116.421 0 75ZM10.19 58C9.53274 58 9 58.5328 9 59.19V63.61C9 64.2672 9.53274 64.8 10.19 64.8H14.61C15.2673 64.8 15.8 65.3328 15.8 65.99V70.41C15.8 71.0673 15.2673 71.6 14.61 71.6H10.19C9.53274 71.6 9 72.1328 9 72.79V74.507C9 74.8312 9.12966 75.1252 9.34 75.3398L15.4602 81.46C15.6748 81.6703 15.9688 81.8 16.293 81.8H23.45C24.1073 81.8 24.64 82.3328 24.64 82.99V84.01C24.64 84.6673 24.1073 85.2 23.45 85.2H10.19C9.53274 85.2 9 85.7328 9 86.39V90.81C9 91.4672 9.53274 92 10.19 92H28.21C28.8673 92 29.4 91.4672 29.4 90.81V86.39C29.4 85.7327 29.9327 85.2 30.59 85.2H35.01C35.6673 85.2 36.2 85.7328 36.2 86.39V90.81C36.2 91.4672 36.7327 92 37.39 92H41.81C42.4673 92 43 91.4672 43 90.81V86.39C43 85.7328 42.4673 85.2 41.81 85.2H37.39C36.7327 85.2 36.2 84.6672 36.2 84.01V82.293C36.2 81.9688 36.0703 81.6748 35.86 81.4602L29.7398 75.34C29.5252 75.1297 29.2312 75 28.907 75H21.75C21.0927 75 20.56 74.4672 20.56 73.81V72.79C20.56 72.1327 21.0927 71.6 21.75 71.6H35.01C35.6673 71.6 36.2 71.0672 36.2 70.41V65.99C36.2 65.3328 35.6673 64.8 35.01 64.8H16.99C16.3327 64.8 15.8 64.2672 15.8 63.61V59.19C15.8 58.5328 15.2673 58 14.61 58H10.19ZM75.0001 14C99.39 14 120.437 28.3142 130.198 49H134.592C124.561 26.0432 101.654 10 75.0001 10C48.346 10 25.4389 26.0432 15.4087 49H19.8027C29.5635 28.3142 50.6102 14 75.0001 14ZM75.0001 136C50.6102 136 29.5635 121.686 19.8027 101H15.4087C25.4389 123.957 48.346 140 75.0001 140C101.654 140 124.561 123.957 134.592 101H130.198C120.437 121.686 99.39 136 75.0001 136Z" fill="#FB5108"/>
<path d="M55.8621 93.6C53.6288 93.6 51.6788 93.1833 50.0121 92.35C48.3788 91.4833 47.1121 90.25 46.2121 88.65C45.3121 87.0167 44.8621 85.05 44.8621 82.75H50.8621C50.8621 83.85 51.0288 84.8167 51.3621 85.65C51.6954 86.4833 52.2121 87.1333 52.9121 87.6C53.6454 88.0333 54.5788 88.25 55.7121 88.25C56.8454 88.25 57.7454 88.0333 58.4121 87.6C59.0788 87.1667 59.5621 86.5667 59.8621 85.8C60.1954 85 60.3621 84.0833 60.3621 83.05V58H66.3621V83.05C66.3621 86.45 65.4121 89.0667 63.5121 90.9C61.6454 92.7 59.0954 93.6 55.8621 93.6ZM71.427 93V58H78.527L89.727 80.6L100.827 58H107.977V93H101.977V68.3L92.077 88.1H87.377L77.427 68.35V93H71.427ZM113.079 93V58H124.379C128.446 58 131.796 58.7167 134.429 60.15C137.096 61.5833 139.063 63.6167 140.329 66.25C141.629 68.85 142.279 71.95 142.279 75.55C142.279 79.0833 141.629 82.1667 140.329 84.8C139.063 87.4 137.096 89.4167 134.429 90.85C131.796 92.2833 128.446 93 124.379 93H113.079ZM119.079 87.9H124.079C127.113 87.9 129.496 87.4167 131.229 86.45C132.996 85.45 134.246 84.0333 134.979 82.2C135.746 80.3333 136.129 78.1167 136.129 75.55C136.129 72.95 135.746 70.7333 134.979 68.9C134.246 67.0333 132.996 65.6 131.229 64.6C129.496 63.5667 127.113 63.05 124.079 63.05H119.079V87.9Z" fill="white"/>
</svg>
