<svg width="150" height="150" viewBox="0 0 150 150" fill="none" xmlns="http://www.w3.org/2000/svg">
<path fill-rule="evenodd" clip-rule="evenodd" d="M0 75C0 33.5786 33.5786 0 75 0C116.421 0 150 33.5786 150 75C150 116.421 116.421 150 75 150C33.5786 150 0 116.421 0 75ZM10.19 58C9.53274 58 9 58.5328 9 59.19V63.61C9 64.2672 9.53274 64.8 10.19 64.8H14.61C15.2673 64.8 15.8 65.3328 15.8 65.99V70.41C15.8 71.0673 15.2673 71.6 14.61 71.6H10.19C9.53274 71.6 9 72.1328 9 72.79V74.507C9 74.8312 9.12966 75.1252 9.34 75.3398L15.4602 81.46C15.6748 81.6703 15.9688 81.8 16.293 81.8H23.45C24.1073 81.8 24.64 82.3328 24.64 82.99V84.01C24.64 84.6673 24.1073 85.2 23.45 85.2H10.19C9.53274 85.2 9 85.7328 9 86.39V90.81C9 91.4672 9.53274 92 10.19 92H28.21C28.8673 92 29.4 91.4672 29.4 90.81V86.39C29.4 85.7327 29.9327 85.2 30.59 85.2H35.01C35.6673 85.2 36.2 85.7328 36.2 86.39V90.81C36.2 91.4672 36.7327 92 37.39 92H41.81C42.4673 92 43 91.4672 43 90.81V86.39C43 85.7328 42.4673 85.2 41.81 85.2H37.39C36.7327 85.2 36.2 84.6672 36.2 84.01V82.293C36.2 81.9688 36.0703 81.6748 35.86 81.4602L29.7398 75.34C29.5252 75.1297 29.2312 75 28.907 75H21.75C21.0927 75 20.56 74.4672 20.56 73.81V72.79C20.56 72.1327 21.0927 71.6 21.75 71.6H35.01C35.6673 71.6 36.2 71.0672 36.2 70.41V65.99C36.2 65.3328 35.6673 64.8 35.01 64.8H16.99C16.3327 64.8 15.8 64.2672 15.8 63.61V59.19C15.8 58.5328 15.2673 58 14.61 58H10.19ZM75.0001 14C99.39 14 120.437 28.3142 130.198 49H134.592C124.561 26.0432 101.654 10 75.0001 10C48.346 10 25.4389 26.0432 15.4087 49H19.8027C29.5635 28.3142 50.6102 14 75.0001 14ZM75.0001 136C50.6102 136 29.5635 121.686 19.8027 101H15.4087C25.4389 123.957 48.346 140 75.0001 140C101.654 140 124.561 123.957 134.592 101H130.198C120.437 121.686 99.39 136 75.0001 136Z" fill="#FB5108"/>
<path d="M58.657 93.6C56.4237 93.6 54.4737 93.1833 52.807 92.35C51.1737 91.4833 49.907 90.25 49.007 88.65C48.107 87.0167 47.657 85.05 47.657 82.75H53.657C53.657 83.85 53.8237 84.8167 54.157 85.65C54.4904 86.4833 55.007 87.1333 55.707 87.6C56.4404 88.0333 57.3737 88.25 58.507 88.25C59.6404 88.25 60.5404 88.0333 61.207 87.6C61.8737 87.1667 62.357 86.5667 62.657 85.8C62.9904 85 63.157 84.0833 63.157 83.05V58H69.157V83.05C69.157 86.45 68.207 89.0667 66.307 90.9C64.4404 92.7 61.8904 93.6 58.657 93.6ZM90.1719 93.6C86.8052 93.6 83.8219 92.85 81.2219 91.35C78.6552 89.8167 76.6385 87.7 75.1719 85C73.7052 82.2667 72.9719 79.1 72.9719 75.5C72.9719 71.9333 73.7052 68.8 75.1719 66.1C76.6385 63.3667 78.6552 61.2333 81.2219 59.7C83.8219 58.1667 86.8052 57.4 90.1719 57.4C93.6052 57.4 96.6219 58.1667 99.2219 59.7C101.822 61.2333 103.839 63.3667 105.272 66.1C106.705 68.8 107.422 71.9333 107.422 75.5C107.422 79.1 106.705 82.2667 105.272 85C103.839 87.7 101.822 89.8167 99.2219 91.35C96.6219 92.85 93.6052 93.6 90.1719 93.6ZM90.2219 88.2C92.4552 88.2 94.4052 87.7 96.0719 86.7C97.7385 85.6667 99.0219 84.2 99.9219 82.3C100.822 80.4 101.272 78.1333 101.272 75.5C101.272 72.8667 100.822 70.6 99.9219 68.7C99.0219 66.8 97.7385 65.35 96.0719 64.35C94.4052 63.3167 92.4552 62.8 90.2219 62.8C87.9885 62.8 86.0385 63.3167 84.3719 64.35C82.7052 65.35 81.4052 66.8 80.4719 68.7C79.5719 70.6 79.1219 72.8667 79.1219 75.5C79.1219 78.1333 79.5719 80.4 80.4719 82.3C81.4052 84.2 82.7052 85.6667 84.3719 86.7C86.0385 87.7 87.9885 88.2 90.2219 88.2ZM111.284 93V58H122.584C126.651 58 130.001 58.7167 132.634 60.15C135.301 61.5833 137.268 63.6167 138.534 66.25C139.834 68.85 140.484 71.95 140.484 75.55C140.484 79.0833 139.834 82.1667 138.534 84.8C137.268 87.4 135.301 89.4167 132.634 90.85C130.001 92.2833 126.651 93 122.584 93H111.284ZM117.284 87.9H122.284C125.318 87.9 127.701 87.4167 129.434 86.45C131.201 85.45 132.451 84.0333 133.184 82.2C133.951 80.3333 134.334 78.1167 134.334 75.55C134.334 72.95 133.951 70.7333 133.184 68.9C132.451 67.0333 131.201 65.6 129.434 64.6C127.701 63.5667 125.318 63.05 122.284 63.05H117.284V87.9Z" fill="white"/>
</svg>
