<svg width="150" height="150" viewBox="0 0 150 150" fill="none" xmlns="http://www.w3.org/2000/svg">
<path fill-rule="evenodd" clip-rule="evenodd" d="M0 75C0 33.5786 33.5786 0 75 0C116.421 0 150 33.5786 150 75C150 116.421 116.421 150 75 150C33.5786 150 0 116.421 0 75ZM10.19 58C9.53274 58 9 58.5328 9 59.19V63.61C9 64.2672 9.53274 64.8 10.19 64.8H14.61C15.2673 64.8 15.8 65.3328 15.8 65.99V70.41C15.8 71.0673 15.2673 71.6 14.61 71.6H10.19C9.53274 71.6 9 72.1328 9 72.79V74.507C9 74.8312 9.12966 75.1252 9.34 75.3398L15.4602 81.46C15.6748 81.6703 15.9688 81.8 16.293 81.8H23.45C24.1073 81.8 24.64 82.3328 24.64 82.99V84.01C24.64 84.6673 24.1073 85.2 23.45 85.2H10.19C9.53274 85.2 9 85.7328 9 86.39V90.81C9 91.4672 9.53274 92 10.19 92H28.21C28.8673 92 29.4 91.4672 29.4 90.81V86.39C29.4 85.7327 29.9327 85.2 30.59 85.2H35.01C35.6673 85.2 36.2 85.7328 36.2 86.39V90.81C36.2 91.4672 36.7327 92 37.39 92H41.81C42.4673 92 43 91.4672 43 90.81V86.39C43 85.7328 42.4673 85.2 41.81 85.2H37.39C36.7327 85.2 36.2 84.6672 36.2 84.01V82.293C36.2 81.9688 36.0703 81.6748 35.86 81.4602L29.7398 75.34C29.5252 75.1297 29.2312 75 28.907 75H21.75C21.0927 75 20.56 74.4672 20.56 73.81V72.79C20.56 72.1327 21.0927 71.6 21.75 71.6H35.01C35.6673 71.6 36.2 71.0672 36.2 70.41V65.99C36.2 65.3328 35.6673 64.8 35.01 64.8H16.99C16.3327 64.8 15.8 64.2672 15.8 63.61V59.19C15.8 58.5328 15.2673 58 14.61 58H10.19ZM75.0001 14C99.39 14 120.437 28.3142 130.198 49H134.592C124.561 26.0432 101.654 10 75.0001 10C48.346 10 25.4389 26.0432 15.4087 49H19.8027C29.5635 28.3142 50.6102 14 75.0001 14ZM75.0001 136C50.6102 136 29.5635 121.686 19.8027 101H15.4087C25.4389 123.957 48.346 140 75.0001 140C101.654 140 124.561 123.957 134.592 101H130.198C120.437 121.686 99.39 136 75.0001 136Z" fill="#FB5108"/>
<path d="M62.8465 93.6C60.6132 93.6 58.6632 93.1833 56.9965 92.35C55.3632 91.4833 54.0965 90.25 53.1965 88.65C52.2965 87.0167 51.8465 85.05 51.8465 82.75H57.8465C57.8465 83.85 58.0132 84.8167 58.3465 85.65C58.6798 86.4833 59.1965 87.1333 59.8965 87.6C60.6298 88.0333 61.5632 88.25 62.6965 88.25C63.8298 88.25 64.7298 88.0333 65.3965 87.6C66.0632 87.1667 66.5465 86.5667 66.8465 85.8C67.1798 85 67.3465 84.0833 67.3465 83.05V58H73.3465V83.05C73.3465 86.45 72.3965 89.0667 70.4965 90.9C68.6298 92.7 66.0798 93.6 62.8465 93.6ZM80.4113 93V58H93.0113C95.8113 58 98.128 58.4833 99.9613 59.45C101.795 60.3833 103.161 61.65 104.061 63.25C104.961 64.85 105.411 66.6833 105.411 68.75C105.411 70.6833 104.978 72.4667 104.111 74.1C103.245 75.7 101.895 77 100.061 78C98.228 78.9667 95.878 79.45 93.0113 79.45H86.4113V93H80.4113ZM86.4113 74.55H92.6613C95.028 74.55 96.728 74.0333 97.7613 73C98.7947 71.9333 99.3113 70.5167 99.3113 68.75C99.3113 66.9167 98.7947 65.4833 97.7613 64.45C96.728 63.4167 95.028 62.9 92.6613 62.9H86.4113V74.55ZM119.145 93V80.4L107.495 58H114.295L122.845 75.8H121.545L130.095 58H136.845L125.145 80.4V93H119.145Z" fill="white"/>
</svg>
