<svg width="150" height="150" viewBox="0 0 150 150" fill="none" xmlns="http://www.w3.org/2000/svg">
<path fill-rule="evenodd" clip-rule="evenodd" d="M0 75C0 33.5786 33.5786 0 75 0C116.421 0 150 33.5786 150 75C150 116.421 116.421 150 75 150C33.5786 150 0 116.421 0 75ZM10.19 58C9.53274 58 9 58.5328 9 59.19V63.61C9 64.2672 9.53274 64.8 10.19 64.8H14.61C15.2673 64.8 15.8 65.3328 15.8 65.99V70.41C15.8 71.0673 15.2673 71.6 14.61 71.6H10.19C9.53274 71.6 9 72.1328 9 72.79V74.507C9 74.8312 9.12966 75.1252 9.34 75.3398L15.4602 81.46C15.6748 81.6703 15.9688 81.8 16.293 81.8H23.45C24.1073 81.8 24.64 82.3328 24.64 82.99V84.01C24.64 84.6673 24.1073 85.2 23.45 85.2H10.19C9.53274 85.2 9 85.7328 9 86.39V90.81C9 91.4672 9.53274 92 10.19 92H28.21C28.8673 92 29.4 91.4672 29.4 90.81V86.39C29.4 85.7327 29.9327 85.2 30.59 85.2H35.01C35.6673 85.2 36.2 85.7328 36.2 86.39V90.81C36.2 91.4672 36.7327 92 37.39 92H41.81C42.4673 92 43 91.4672 43 90.81V86.39C43 85.7328 42.4673 85.2 41.81 85.2H37.39C36.7327 85.2 36.2 84.6672 36.2 84.01V82.293C36.2 81.9688 36.0703 81.6748 35.86 81.4602L29.7398 75.34C29.5252 75.1297 29.2312 75 28.907 75H21.75C21.0927 75 20.56 74.4672 20.56 73.81V72.79C20.56 72.1327 21.0927 71.6 21.75 71.6H35.01C35.6673 71.6 36.2 71.0672 36.2 70.41V65.99C36.2 65.3328 35.6673 64.8 35.01 64.8H16.99C16.3327 64.8 15.8 64.2672 15.8 63.61V59.19C15.8 58.5328 15.2673 58 14.61 58H10.19ZM75.0001 14C99.39 14 120.437 28.3142 130.198 49H134.592C124.561 26.0432 101.654 10 75.0001 10C48.346 10 25.4389 26.0432 15.4087 49H19.8027C29.5635 28.3142 50.6102 14 75.0001 14ZM75.0001 136C50.6102 136 29.5635 121.686 19.8027 101H15.4087C25.4389 123.957 48.346 140 75.0001 140C101.654 140 124.561 123.957 134.592 101H130.198C120.437 121.686 99.39 136 75.0001 136Z" fill="#FB5108"/>
<path d="M52.8596 93V58H58.8596V72.45L72.0596 58H79.5096L66.5596 71.9L79.8096 93H72.5096L62.3096 76.5L58.8596 80.25V93H52.8596ZM84.5002 93V58H107.1V62.85H90.5002V72.9H105.6V77.65H90.5002V88.15H107.1V93H84.5002ZM125.156 93.6C122.623 93.6 120.373 93.15 118.406 92.25C116.44 91.35 114.906 90.0667 113.806 88.4C112.706 86.7333 112.14 84.75 112.106 82.45H118.456C118.456 83.6167 118.723 84.6667 119.256 85.6C119.823 86.5 120.59 87.2167 121.556 87.75C122.556 88.2833 123.756 88.55 125.156 88.55C126.356 88.55 127.39 88.3667 128.256 88C129.156 87.6 129.84 87.05 130.306 86.35C130.806 85.6167 131.056 84.7667 131.056 83.8C131.056 82.7 130.79 81.8 130.256 81.1C129.756 80.3667 129.056 79.75 128.156 79.25C127.256 78.75 126.223 78.3167 125.056 77.95C123.89 77.55 122.656 77.1333 121.356 76.7C118.59 75.7667 116.506 74.5833 115.106 73.15C113.706 71.6833 113.006 69.7333 113.006 67.3C113.006 65.2667 113.49 63.5167 114.456 62.05C115.423 60.5833 116.773 59.45 118.506 58.65C120.273 57.8167 122.306 57.4 124.606 57.4C126.94 57.4 128.973 57.8167 130.706 58.65C132.473 59.4833 133.856 60.65 134.856 62.15C135.89 63.6167 136.423 65.3833 136.456 67.45H130.056C130.023 66.5833 129.79 65.7833 129.356 65.05C128.923 64.2833 128.29 63.6667 127.456 63.2C126.656 62.7 125.673 62.45 124.506 62.45C123.506 62.4167 122.606 62.5833 121.806 62.95C121.04 63.2833 120.423 63.7833 119.956 64.45C119.523 65.0833 119.306 65.8833 119.306 66.85C119.306 67.7833 119.506 68.5667 119.906 69.2C120.34 69.8 120.956 70.3167 121.756 70.75C122.556 71.15 123.49 71.5333 124.556 71.9C125.623 72.2667 126.79 72.6667 128.056 73.1C129.79 73.6667 131.356 74.3667 132.756 75.2C134.19 76 135.323 77.05 136.156 78.35C136.99 79.65 137.406 81.3333 137.406 83.4C137.406 85.2 136.94 86.8833 136.006 88.45C135.073 89.9833 133.706 91.2333 131.906 92.2C130.106 93.1333 127.856 93.6 125.156 93.6Z" fill="white"/>
</svg>
