<svg width="150" height="150" viewBox="0 0 150 150" fill="none" xmlns="http://www.w3.org/2000/svg">
<path fill-rule="evenodd" clip-rule="evenodd" d="M0 75C0 33.5786 33.5786 0 75 0C116.421 0 150 33.5786 150 75C150 116.421 116.421 150 75 150C33.5786 150 0 116.421 0 75ZM10.19 58C9.53274 58 9 58.5328 9 59.19V63.61C9 64.2672 9.53274 64.8 10.19 64.8H14.61C15.2673 64.8 15.8 65.3328 15.8 65.99V70.41C15.8 71.0673 15.2673 71.6 14.61 71.6H10.19C9.53274 71.6 9 72.1328 9 72.79V74.507C9 74.8312 9.12966 75.1252 9.34 75.3398L15.4602 81.46C15.6748 81.6703 15.9688 81.8 16.293 81.8H23.45C24.1073 81.8 24.64 82.3328 24.64 82.99V84.01C24.64 84.6673 24.1073 85.2 23.45 85.2H10.19C9.53274 85.2 9 85.7328 9 86.39V90.81C9 91.4672 9.53274 92 10.19 92H28.21C28.8673 92 29.4 91.4672 29.4 90.81V86.39C29.4 85.7327 29.9327 85.2 30.59 85.2H35.01C35.6673 85.2 36.2 85.7328 36.2 86.39V90.81C36.2 91.4672 36.7327 92 37.39 92H41.81C42.4673 92 43 91.4672 43 90.81V86.39C43 85.7328 42.4673 85.2 41.81 85.2H37.39C36.7327 85.2 36.2 84.6672 36.2 84.01V82.293C36.2 81.9688 36.0703 81.6748 35.86 81.4602L29.7398 75.34C29.5252 75.1297 29.2312 75 28.907 75H21.75C21.0927 75 20.56 74.4672 20.56 73.81V72.79C20.56 72.1327 21.0927 71.6 21.75 71.6H35.01C35.6673 71.6 36.2 71.0672 36.2 70.41V65.99C36.2 65.3328 35.6673 64.8 35.01 64.8H16.99C16.3327 64.8 15.8 64.2672 15.8 63.61V59.19C15.8 58.5328 15.2673 58 14.61 58H10.19ZM75.0001 14C99.39 14 120.437 28.3142 130.198 49H134.592C124.561 26.0432 101.654 10 75.0001 10C48.346 10 25.4389 26.0432 15.4087 49H19.8027C29.5635 28.3142 50.6102 14 75.0001 14ZM75.0001 136C50.6102 136 29.5635 121.686 19.8027 101H15.4087C25.4389 123.957 48.346 140 75.0001 140C101.654 140 124.561 123.957 134.592 101H130.198C120.437 121.686 99.39 136 75.0001 136Z" fill="#FB5108"/>
<path d="M48.7219 93V58H54.7219V72.45L67.9219 58H75.3719L62.4219 71.9L75.6719 93H68.3719L58.1719 76.5L54.7219 80.25V93H48.7219ZM93.1711 93.6C89.8711 93.6 86.9711 92.85 84.4711 91.35C82.0044 89.85 80.0878 87.7667 78.7211 85.1C77.3544 82.4 76.6711 79.25 76.6711 75.65C76.6711 72.0833 77.3711 68.9333 78.7711 66.2C80.1711 63.4333 82.1711 61.2833 84.7711 59.75C87.4044 58.1833 90.5211 57.4 94.1211 57.4C98.1878 57.4 101.554 58.3833 104.221 60.35C106.921 62.2833 108.671 64.9833 109.471 68.45H102.721C102.221 66.7167 101.238 65.3667 99.7711 64.4C98.3044 63.4333 96.4044 62.95 94.0711 62.95C91.7044 62.95 89.6711 63.4667 87.9711 64.5C86.3044 65.5 85.0211 66.9667 84.1211 68.9C83.2544 70.8 82.8211 73.0667 82.8211 75.7C82.8211 78.3333 83.2544 80.6 84.1211 82.5C85.0211 84.4 86.2878 85.85 87.9211 86.85C89.5544 87.8167 91.4711 88.3 93.6711 88.3C96.9378 88.3 99.4044 87.3833 101.071 85.55C102.738 83.7167 103.721 81.3333 104.021 78.4H94.9711V73.85H110.071V93H104.571L104.071 88.2C103.304 89.3333 102.421 90.3167 101.421 91.15C100.421 91.95 99.2378 92.5667 97.8711 93C96.5378 93.4 94.9711 93.6 93.1711 93.6ZM128.294 93.6C125.761 93.6 123.511 93.15 121.544 92.25C119.577 91.35 118.044 90.0667 116.944 88.4C115.844 86.7333 115.277 84.75 115.244 82.45H121.594C121.594 83.6167 121.861 84.6667 122.394 85.6C122.961 86.5 123.727 87.2167 124.694 87.75C125.694 88.2833 126.894 88.55 128.294 88.55C129.494 88.55 130.527 88.3667 131.394 88C132.294 87.6 132.977 87.05 133.444 86.35C133.944 85.6167 134.194 84.7667 134.194 83.8C134.194 82.7 133.927 81.8 133.394 81.1C132.894 80.3667 132.194 79.75 131.294 79.25C130.394 78.75 129.361 78.3167 128.194 77.95C127.027 77.55 125.794 77.1333 124.494 76.7C121.727 75.7667 119.644 74.5833 118.244 73.15C116.844 71.6833 116.144 69.7333 116.144 67.3C116.144 65.2667 116.627 63.5167 117.594 62.05C118.561 60.5833 119.911 59.45 121.644 58.65C123.411 57.8167 125.444 57.4 127.744 57.4C130.077 57.4 132.111 57.8167 133.844 58.65C135.611 59.4833 136.994 60.65 137.994 62.15C139.027 63.6167 139.561 65.3833 139.594 67.45H133.194C133.161 66.5833 132.927 65.7833 132.494 65.05C132.061 64.2833 131.427 63.6667 130.594 63.2C129.794 62.7 128.811 62.45 127.644 62.45C126.644 62.4167 125.744 62.5833 124.944 62.95C124.177 63.2833 123.561 63.7833 123.094 64.45C122.661 65.0833 122.444 65.8833 122.444 66.85C122.444 67.7833 122.644 68.5667 123.044 69.2C123.477 69.8 124.094 70.3167 124.894 70.75C125.694 71.15 126.627 71.5333 127.694 71.9C128.761 72.2667 129.927 72.6667 131.194 73.1C132.927 73.6667 134.494 74.3667 135.894 75.2C137.327 76 138.461 77.05 139.294 78.35C140.127 79.65 140.544 81.3333 140.544 83.4C140.544 85.2 140.077 86.8833 139.144 88.45C138.211 89.9833 136.844 91.2333 135.044 92.2C133.244 93.1333 130.994 93.6 128.294 93.6Z" fill="white"/>
</svg>
