<svg width="150" height="150" viewBox="0 0 150 150" fill="none" xmlns="http://www.w3.org/2000/svg">
<path fill-rule="evenodd" clip-rule="evenodd" d="M0 75C0 33.5786 33.5786 0 75 0C116.421 0 150 33.5786 150 75C150 116.421 116.421 150 75 150C33.5786 150 0 116.421 0 75ZM10.19 58C9.53274 58 9 58.5328 9 59.19V63.61C9 64.2672 9.53274 64.8 10.19 64.8H14.61C15.2673 64.8 15.8 65.3328 15.8 65.99V70.41C15.8 71.0673 15.2673 71.6 14.61 71.6H10.19C9.53274 71.6 9 72.1328 9 72.79V74.507C9 74.8312 9.12966 75.1252 9.34 75.3398L15.4602 81.46C15.6748 81.6703 15.9688 81.8 16.293 81.8H23.45C24.1073 81.8 24.64 82.3328 24.64 82.99V84.01C24.64 84.6673 24.1073 85.2 23.45 85.2H10.19C9.53274 85.2 9 85.7328 9 86.39V90.81C9 91.4672 9.53274 92 10.19 92H28.21C28.8673 92 29.4 91.4672 29.4 90.81V86.39C29.4 85.7327 29.9327 85.2 30.59 85.2H35.01C35.6673 85.2 36.2 85.7328 36.2 86.39V90.81C36.2 91.4672 36.7327 92 37.39 92H41.81C42.4673 92 43 91.4672 43 90.81V86.39C43 85.7328 42.4673 85.2 41.81 85.2H37.39C36.7327 85.2 36.2 84.6672 36.2 84.01V82.293C36.2 81.9688 36.0703 81.6748 35.86 81.4602L29.7398 75.34C29.5252 75.1297 29.2312 75 28.907 75H21.75C21.0927 75 20.56 74.4672 20.56 73.81V72.79C20.56 72.1327 21.0927 71.6 21.75 71.6H35.01C35.6673 71.6 36.2 71.0672 36.2 70.41V65.99C36.2 65.3328 35.6673 64.8 35.01 64.8H16.99C16.3327 64.8 15.8 64.2672 15.8 63.61V59.19C15.8 58.5328 15.2673 58 14.61 58H10.19ZM75.0001 14C99.39 14 120.437 28.3142 130.198 49H134.592C124.561 26.0432 101.654 10 75.0001 10C48.346 10 25.4389 26.0432 15.4087 49H19.8027C29.5635 28.3142 50.6102 14 75.0001 14ZM75.0001 136C50.6102 136 29.5635 121.686 19.8027 101H15.4087C25.4389 123.957 48.346 140 75.0001 140C101.654 140 124.561 123.957 134.592 101H130.198C120.437 121.686 99.39 136 75.0001 136Z" fill="#FB5108"/>
<path d="M47.4458 92V59.8H52.9658V73.094L65.1098 59.8H71.9638L60.0498 72.588L72.2398 92H65.5238L56.1398 76.82L52.9658 80.27V92H47.4458ZM74.7152 92V59.8H86.2612C88.8066 59.8 90.9072 60.2447 92.5632 61.134C94.2499 61.9927 95.4919 63.158 96.2892 64.63C97.1172 66.0713 97.5312 67.712 97.5312 69.552C97.5312 71.2693 97.1326 72.864 96.3352 74.336C95.5379 75.808 94.2959 76.9887 92.6092 77.878C90.9226 78.7673 88.7606 79.212 86.1232 79.212H80.2352V92H74.7152ZM91.5052 92L84.7432 77.786H90.7232L97.8072 92H91.5052ZM80.2352 75.118H85.8932C87.9479 75.118 89.4506 74.6273 90.4012 73.646C91.3826 72.634 91.8732 71.3153 91.8732 69.69C91.8732 68.0953 91.3979 66.8227 90.4472 65.872C89.4966 64.8907 87.9786 64.4 85.8932 64.4H80.2352V75.118ZM107.437 92L98.8814 59.8H104.769L110.795 85.698L117.787 59.8H123.905L130.667 85.744L136.739 59.8H142.673L133.887 92H127.355L120.731 67.62L113.923 92H107.437Z" fill="white"/>
</svg>
