<svg width="150" height="150" viewBox="0 0 150 150" fill="none" xmlns="http://www.w3.org/2000/svg">
<path fill-rule="evenodd" clip-rule="evenodd" d="M0 75C0 33.5786 33.5786 0 75 0C116.421 0 150 33.5786 150 75C150 116.421 116.421 150 75 150C33.5786 150 0 116.421 0 75ZM10.19 58C9.53274 58 9 58.5328 9 59.19V63.61C9 64.2672 9.53274 64.8 10.19 64.8H14.61C15.2673 64.8 15.8 65.3328 15.8 65.99V70.41C15.8 71.0673 15.2673 71.6 14.61 71.6H10.19C9.53274 71.6 9 72.1328 9 72.79V74.507C9 74.8312 9.12966 75.1252 9.34 75.3398L15.4602 81.46C15.6748 81.6703 15.9688 81.8 16.293 81.8H23.45C24.1073 81.8 24.64 82.3328 24.64 82.99V84.01C24.64 84.6673 24.1073 85.2 23.45 85.2H10.19C9.53274 85.2 9 85.7328 9 86.39V90.81C9 91.4672 9.53274 92 10.19 92H28.21C28.8673 92 29.4 91.4672 29.4 90.81V86.39C29.4 85.7327 29.9327 85.2 30.59 85.2H35.01C35.6673 85.2 36.2 85.7328 36.2 86.39V90.81C36.2 91.4672 36.7327 92 37.39 92H41.81C42.4673 92 43 91.4672 43 90.81V86.39C43 85.7328 42.4673 85.2 41.81 85.2H37.39C36.7327 85.2 36.2 84.6672 36.2 84.01V82.293C36.2 81.9688 36.0703 81.6748 35.86 81.4602L29.7398 75.34C29.5252 75.1297 29.2312 75 28.907 75H21.75C21.0927 75 20.56 74.4672 20.56 73.81V72.79C20.56 72.1327 21.0927 71.6 21.75 71.6H35.01C35.6673 71.6 36.2 71.0672 36.2 70.41V65.99C36.2 65.3328 35.6673 64.8 35.01 64.8H16.99C16.3327 64.8 15.8 64.2672 15.8 63.61V59.19C15.8 58.5328 15.2673 58 14.61 58H10.19ZM75.0001 14C99.39 14 120.437 28.3142 130.198 49H134.592C124.561 26.0432 101.654 10 75.0001 10C48.346 10 25.4389 26.0432 15.4087 49H19.8027C29.5635 28.3142 50.6102 14 75.0001 14ZM75.0001 136C50.6102 136 29.5635 121.686 19.8027 101H15.4087C25.4389 123.957 48.346 140 75.0001 140C101.654 140 124.561 123.957 134.592 101H130.198C120.437 121.686 99.39 136 75.0001 136Z" fill="#FB5108"/>
<path d="M53.0432 93V58H59.0432V88.3H74.6432V93H53.0432ZM80.4846 93V58H94.1846C96.6512 58 98.7012 58.3833 100.335 59.15C102.001 59.9167 103.251 60.9833 104.085 62.35C104.918 63.6833 105.335 65.2333 105.335 67C105.335 68.7667 104.951 70.25 104.185 71.45C103.418 72.65 102.401 73.5667 101.135 74.2C99.9012 74.8333 98.5512 75.2167 97.0846 75.35L97.8346 74.8C99.4012 74.8333 100.801 75.25 102.035 76.05C103.301 76.85 104.301 77.9 105.035 79.2C105.768 80.4667 106.135 81.8833 106.135 83.45C106.135 85.2833 105.685 86.9333 104.785 88.4C103.918 89.8333 102.635 90.9667 100.935 91.8C99.2346 92.6 97.1512 93 94.6846 93H80.4846ZM86.4846 88.1H93.7846C95.7512 88.1 97.2846 87.6333 98.3846 86.7C99.4846 85.7667 100.035 84.4667 100.035 82.8C100.035 81.1333 99.4679 79.8167 98.3346 78.85C97.2012 77.85 95.6512 77.35 93.6846 77.35H86.4846V88.1ZM86.4846 72.8H93.3346C95.2679 72.8 96.7346 72.3667 97.7346 71.5C98.7346 70.6 99.2346 69.3667 99.2346 67.8C99.2346 66.2667 98.7346 65.0667 97.7346 64.2C96.7346 63.3 95.2512 62.85 93.2846 62.85H86.4846V72.8ZM111.881 93V58H124.481C127.281 58 129.598 58.4833 131.431 59.45C133.264 60.3833 134.631 61.65 135.531 63.25C136.431 64.85 136.881 66.6833 136.881 68.75C136.881 70.6833 136.448 72.4667 135.581 74.1C134.714 75.7 133.364 77 131.531 78C129.698 78.9667 127.348 79.45 124.481 79.45H117.881V93H111.881ZM117.881 74.55H124.131C126.498 74.55 128.198 74.0333 129.231 73C130.264 71.9333 130.781 70.5167 130.781 68.75C130.781 66.9167 130.264 65.4833 129.231 64.45C128.198 63.4167 126.498 62.9 124.131 62.9H117.881V74.55Z" fill="white"/>
</svg>
