<svg width="150" height="150" viewBox="0 0 150 150" fill="none" xmlns="http://www.w3.org/2000/svg">
<path fill-rule="evenodd" clip-rule="evenodd" d="M0 75C0 33.5786 33.5786 0 75 0C116.421 0 150 33.5786 150 75C150 116.421 116.421 150 75 150C33.5786 150 0 116.421 0 75ZM10.19 58C9.53274 58 9 58.5328 9 59.19V63.61C9 64.2672 9.53274 64.8 10.19 64.8H14.61C15.2673 64.8 15.8 65.3328 15.8 65.99V70.41C15.8 71.0673 15.2673 71.6 14.61 71.6H10.19C9.53274 71.6 9 72.1328 9 72.79V74.507C9 74.8312 9.12966 75.1252 9.34 75.3398L15.4602 81.46C15.6748 81.6703 15.9688 81.8 16.293 81.8H23.45C24.1073 81.8 24.64 82.3328 24.64 82.99V84.01C24.64 84.6673 24.1073 85.2 23.45 85.2H10.19C9.53274 85.2 9 85.7328 9 86.39V90.81C9 91.4672 9.53274 92 10.19 92H28.21C28.8673 92 29.4 91.4672 29.4 90.81V86.39C29.4 85.7327 29.9327 85.2 30.59 85.2H35.01C35.6673 85.2 36.2 85.7328 36.2 86.39V90.81C36.2 91.4672 36.7327 92 37.39 92H41.81C42.4673 92 43 91.4672 43 90.81V86.39C43 85.7328 42.4673 85.2 41.81 85.2H37.39C36.7327 85.2 36.2 84.6672 36.2 84.01V82.293C36.2 81.9688 36.0703 81.6748 35.86 81.4602L29.7398 75.34C29.5252 75.1297 29.2312 75 28.907 75H21.75C21.0927 75 20.56 74.4672 20.56 73.81V72.79C20.56 72.1327 21.0927 71.6 21.75 71.6H35.01C35.6673 71.6 36.2 71.0672 36.2 70.41V65.99C36.2 65.3328 35.6673 64.8 35.01 64.8H16.99C16.3327 64.8 15.8 64.2672 15.8 63.61V59.19C15.8 58.5328 15.2673 58 14.61 58H10.19ZM75.0001 14C99.39 14 120.437 28.3142 130.198 49H134.592C124.561 26.0432 101.654 10 75.0001 10C48.346 10 25.4389 26.0432 15.4087 49H19.8027C29.5635 28.3142 50.6102 14 75.0001 14ZM75.0001 136C50.6102 136 29.5635 121.686 19.8027 101H15.4087C25.4389 123.957 48.346 140 75.0001 140C101.654 140 124.561 123.957 134.592 101H130.198C120.437 121.686 99.39 136 75.0001 136Z" fill="#FB5108"/>
<path d="M51.0061 93V58H57.0061V88.3H72.6061V93H51.0061ZM80.4475 93V58H86.4475V72.45L99.6475 58H107.097L94.1475 71.9L107.397 93H100.097L89.8975 76.5L86.4475 80.25V93H80.4475ZM114.088 93V58H126.638C129.405 58 131.688 58.4833 133.488 59.45C135.321 60.3833 136.671 61.65 137.538 63.25C138.438 64.8167 138.888 66.6 138.888 68.6C138.888 70.4667 138.455 72.2 137.588 73.8C136.721 75.4 135.371 76.6833 133.538 77.65C131.705 78.6167 129.355 79.1 126.488 79.1H120.088V93H114.088ZM132.338 93L124.988 77.55H131.488L139.188 93H132.338ZM120.088 74.65H126.238C128.471 74.65 130.105 74.1167 131.138 73.05C132.205 71.95 132.738 70.5167 132.738 68.75C132.738 67.0167 132.221 65.6333 131.188 64.6C130.155 63.5333 128.505 63 126.238 63H120.088V74.65Z" fill="white"/>
</svg>
