<svg width="150" height="150" viewBox="0 0 150 150" fill="none" xmlns="http://www.w3.org/2000/svg">
<path fill-rule="evenodd" clip-rule="evenodd" d="M0 75C0 33.5786 33.5786 0 75 0C116.421 0 150 33.5786 150 75C150 116.421 116.421 150 75 150C33.5786 150 0 116.421 0 75ZM10.19 58C9.53274 58 9 58.5328 9 59.19V63.61C9 64.2672 9.53274 64.8 10.19 64.8H14.61C15.2673 64.8 15.8 65.3328 15.8 65.99V70.41C15.8 71.0673 15.2673 71.6 14.61 71.6H10.19C9.53274 71.6 9 72.1328 9 72.79V74.507C9 74.8312 9.12966 75.1252 9.34 75.3398L15.4602 81.46C15.6748 81.6703 15.9688 81.8 16.293 81.8H23.45C24.1073 81.8 24.64 82.3328 24.64 82.99V84.01C24.64 84.6673 24.1073 85.2 23.45 85.2H10.19C9.53274 85.2 9 85.7328 9 86.39V90.81C9 91.4672 9.53274 92 10.19 92H28.21C28.8673 92 29.4 91.4672 29.4 90.81V86.39C29.4 85.7327 29.9327 85.2 30.59 85.2H35.01C35.6673 85.2 36.2 85.7328 36.2 86.39V90.81C36.2 91.4672 36.7327 92 37.39 92H41.81C42.4673 92 43 91.4672 43 90.81V86.39C43 85.7328 42.4673 85.2 41.81 85.2H37.39C36.7327 85.2 36.2 84.6672 36.2 84.01V82.293C36.2 81.9688 36.0703 81.6748 35.86 81.4602L29.7398 75.34C29.5252 75.1297 29.2312 75 28.907 75H21.75C21.0927 75 20.56 74.4672 20.56 73.81V72.79C20.56 72.1327 21.0927 71.6 21.75 71.6H35.01C35.6673 71.6 36.2 71.0672 36.2 70.41V65.99C36.2 65.3328 35.6673 64.8 35.01 64.8H16.99C16.3327 64.8 15.8 64.2672 15.8 63.61V59.19C15.8 58.5328 15.2673 58 14.61 58H10.19ZM75.0001 14C99.39 14 120.437 28.3142 130.198 49H134.592C124.561 26.0432 101.654 10 75.0001 10C48.346 10 25.4389 26.0432 15.4087 49H19.8027C29.5635 28.3142 50.6102 14 75.0001 14ZM75.0001 136C50.6102 136 29.5635 121.686 19.8027 101H15.4087C25.4389 123.957 48.346 140 75.0001 140C101.654 140 124.561 123.957 134.592 101H130.198C120.437 121.686 99.39 136 75.0001 136Z" fill="#FB5108"/>
<path d="M50.7971 93V58H56.7971V88.3H72.3971V93H50.7971ZM78.2385 93V58H90.7885C93.5551 58 95.8385 58.4833 97.6385 59.45C99.4718 60.3833 100.822 61.65 101.688 63.25C102.588 64.8167 103.038 66.6 103.038 68.6C103.038 70.4667 102.605 72.2 101.738 73.8C100.872 75.4 99.5218 76.6833 97.6885 77.65C95.8551 78.6167 93.5051 79.1 90.6385 79.1H84.2385V93H78.2385ZM96.4885 93L89.1385 77.55H95.6385L103.338 93H96.4885ZM84.2385 74.65H90.3885C92.6218 74.65 94.2551 74.1167 95.2885 73.05C96.3551 71.95 96.8885 70.5167 96.8885 68.75C96.8885 67.0167 96.3718 65.6333 95.3385 64.6C94.3051 63.5333 92.6551 63 90.3885 63H84.2385V74.65ZM109.244 93V58H120.544C124.611 58 127.961 58.7167 130.594 60.15C133.261 61.5833 135.228 63.6167 136.494 66.25C137.794 68.85 138.444 71.95 138.444 75.55C138.444 79.0833 137.794 82.1667 136.494 84.8C135.228 87.4 133.261 89.4167 130.594 90.85C127.961 92.2833 124.611 93 120.544 93H109.244ZM115.244 87.9H120.244C123.278 87.9 125.661 87.4167 127.394 86.45C129.161 85.45 130.411 84.0333 131.144 82.2C131.911 80.3333 132.294 78.1167 132.294 75.55C132.294 72.95 131.911 70.7333 131.144 68.9C130.411 67.0333 129.161 65.6 127.394 64.6C125.661 63.5667 123.278 63.05 120.244 63.05H115.244V87.9Z" fill="white"/>
</svg>
