<svg width="150" height="150" viewBox="0 0 150 150" fill="none" xmlns="http://www.w3.org/2000/svg">
<path fill-rule="evenodd" clip-rule="evenodd" d="M0 75C0 33.5786 33.5786 0 75 0C116.421 0 150 33.5786 150 75C150 116.421 116.421 150 75 150C33.5786 150 0 116.421 0 75ZM10.19 58C9.53274 58 9 58.5328 9 59.19V63.61C9 64.2672 9.53274 64.8 10.19 64.8H14.61C15.2673 64.8 15.8 65.3328 15.8 65.99V70.41C15.8 71.0673 15.2673 71.6 14.61 71.6H10.19C9.53274 71.6 9 72.1328 9 72.79V74.507C9 74.8312 9.12966 75.1252 9.34 75.3398L15.4602 81.46C15.6748 81.6703 15.9688 81.8 16.293 81.8H23.45C24.1073 81.8 24.64 82.3328 24.64 82.99V84.01C24.64 84.6673 24.1073 85.2 23.45 85.2H10.19C9.53274 85.2 9 85.7328 9 86.39V90.81C9 91.4672 9.53274 92 10.19 92H28.21C28.8673 92 29.4 91.4672 29.4 90.81V86.39C29.4 85.7327 29.9327 85.2 30.59 85.2H35.01C35.6673 85.2 36.2 85.7328 36.2 86.39V90.81C36.2 91.4672 36.7327 92 37.39 92H41.81C42.4673 92 43 91.4672 43 90.81V86.39C43 85.7328 42.4673 85.2 41.81 85.2H37.39C36.7327 85.2 36.2 84.6672 36.2 84.01V82.293C36.2 81.9688 36.0703 81.6748 35.86 81.4602L29.7398 75.34C29.5252 75.1297 29.2312 75 28.907 75H21.75C21.0927 75 20.56 74.4672 20.56 73.81V72.79C20.56 72.1327 21.0927 71.6 21.75 71.6H35.01C35.6673 71.6 36.2 71.0672 36.2 70.41V65.99C36.2 65.3328 35.6673 64.8 35.01 64.8H16.99C16.3327 64.8 15.8 64.2672 15.8 63.61V59.19C15.8 58.5328 15.2673 58 14.61 58H10.19ZM75.0001 14C99.39 14 120.437 28.3142 130.198 49H134.592C124.561 26.0432 101.654 10 75.0001 10C48.346 10 25.4389 26.0432 15.4087 49H19.8027C29.5635 28.3142 50.6102 14 75.0001 14ZM75.0001 136C50.6102 136 29.5635 121.686 19.8027 101H15.4087C25.4389 123.957 48.346 140 75.0001 140C101.654 140 124.561 123.957 134.592 101H130.198C120.437 121.686 99.39 136 75.0001 136Z" fill="#FB5108"/>
<path d="M50.9484 93V58H56.9484V88.3H72.5484V93H50.9484ZM93.6262 93.6C91.0928 93.6 88.8428 93.15 86.8762 92.25C84.9095 91.35 83.3762 90.0667 82.2762 88.4C81.1762 86.7333 80.6095 84.75 80.5762 82.45H86.9262C86.9262 83.6167 87.1928 84.6667 87.7262 85.6C88.2928 86.5 89.0595 87.2167 90.0262 87.75C91.0262 88.2833 92.2262 88.55 93.6262 88.55C94.8262 88.55 95.8595 88.3667 96.7262 88C97.6262 87.6 98.3095 87.05 98.7762 86.35C99.2762 85.6167 99.5262 84.7667 99.5262 83.8C99.5262 82.7 99.2595 81.8 98.7262 81.1C98.2262 80.3667 97.5262 79.75 96.6262 79.25C95.7262 78.75 94.6928 78.3167 93.5262 77.95C92.3595 77.55 91.1262 77.1333 89.8262 76.7C87.0595 75.7667 84.9762 74.5833 83.5762 73.15C82.1762 71.6833 81.4762 69.7333 81.4762 67.3C81.4762 65.2667 81.9595 63.5167 82.9262 62.05C83.8928 60.5833 85.2428 59.45 86.9762 58.65C88.7428 57.8167 90.7762 57.4 93.0762 57.4C95.4095 57.4 97.4428 57.8167 99.1762 58.65C100.943 59.4833 102.326 60.65 103.326 62.15C104.36 63.6167 104.893 65.3833 104.926 67.45H98.5262C98.4928 66.5833 98.2595 65.7833 97.8262 65.05C97.3928 64.2833 96.7595 63.6667 95.9262 63.2C95.1262 62.7 94.1428 62.45 92.9762 62.45C91.9762 62.4167 91.0762 62.5833 90.2762 62.95C89.5095 63.2833 88.8928 63.7833 88.4262 64.45C87.9928 65.0833 87.7762 65.8833 87.7762 66.85C87.7762 67.7833 87.9762 68.5667 88.3762 69.2C88.8095 69.8 89.4262 70.3167 90.2262 70.75C91.0262 71.15 91.9595 71.5333 93.0262 71.9C94.0928 72.2667 95.2595 72.6667 96.5262 73.1C98.2595 73.6667 99.8262 74.3667 101.226 75.2C102.66 76 103.793 77.05 104.626 78.35C105.46 79.65 105.876 81.3333 105.876 83.4C105.876 85.2 105.41 86.8833 104.476 88.45C103.543 89.9833 102.176 91.2333 100.376 92.2C98.5762 93.1333 96.3262 93.6 93.6262 93.6ZM116.71 93V58H122.71V88.3H138.31V93H116.71Z" fill="white"/>
</svg>
