<svg width="150" height="150" viewBox="0 0 150 150" fill="none" xmlns="http://www.w3.org/2000/svg">
<path fill-rule="evenodd" clip-rule="evenodd" d="M0 75C0 33.5786 33.5786 0 75 0C116.421 0 150 33.5786 150 75C150 116.421 116.421 150 75 150C33.5786 150 0 116.421 0 75ZM10.19 58C9.53274 58 9 58.5328 9 59.19V63.61C9 64.2672 9.53274 64.8 10.19 64.8H14.61C15.2673 64.8 15.8 65.3328 15.8 65.99V70.41C15.8 71.0673 15.2673 71.6 14.61 71.6H10.19C9.53274 71.6 9 72.1328 9 72.79V74.507C9 74.8312 9.12966 75.1252 9.34 75.3398L15.4602 81.46C15.6748 81.6703 15.9688 81.8 16.293 81.8H23.45C24.1073 81.8 24.64 82.3328 24.64 82.99V84.01C24.64 84.6673 24.1073 85.2 23.45 85.2H10.19C9.53274 85.2 9 85.7328 9 86.39V90.81C9 91.4672 9.53274 92 10.19 92H28.21C28.8673 92 29.4 91.4672 29.4 90.81V86.39C29.4 85.7327 29.9327 85.2 30.59 85.2H35.01C35.6673 85.2 36.2 85.7328 36.2 86.39V90.81C36.2 91.4672 36.7327 92 37.39 92H41.81C42.4673 92 43 91.4672 43 90.81V86.39C43 85.7328 42.4673 85.2 41.81 85.2H37.39C36.7327 85.2 36.2 84.6672 36.2 84.01V82.293C36.2 81.9688 36.0703 81.6748 35.86 81.4602L29.7398 75.34C29.5252 75.1297 29.2312 75 28.907 75H21.75C21.0927 75 20.56 74.4672 20.56 73.81V72.79C20.56 72.1327 21.0927 71.6 21.75 71.6H35.01C35.6673 71.6 36.2 71.0672 36.2 70.41V65.99C36.2 65.3328 35.6673 64.8 35.01 64.8H16.99C16.3327 64.8 15.8 64.2672 15.8 63.61V59.19C15.8 58.5328 15.2673 58 14.61 58H10.19ZM75.0001 14C99.39 14 120.437 28.3142 130.198 49H134.592C124.561 26.0432 101.654 10 75.0001 10C48.346 10 25.4389 26.0432 15.4087 49H19.8027C29.5635 28.3142 50.6102 14 75.0001 14ZM75.0001 136C50.6102 136 29.5635 121.686 19.8027 101H15.4087C25.4389 123.957 48.346 140 75.0001 140C101.654 140 124.561 123.957 134.592 101H130.198C120.437 121.686 99.39 136 75.0001 136Z" fill="#FB5108"/>
<path d="M47.3645 92V61.2H53.6125L63.4685 81.088L73.2365 61.2H79.5285V92H74.2485V70.264L65.5365 87.688H61.4005L52.6445 70.308V92H47.3645ZM97.4385 92.528C94.5345 92.528 91.9825 91.868 89.7825 90.548C87.6119 89.228 85.9252 87.3947 84.7225 85.048C83.5199 82.672 82.9185 79.9 82.9185 76.732C82.9185 73.5933 83.5345 70.8213 84.7665 68.416C85.9985 65.9813 87.7585 64.0893 90.0465 62.74C92.3639 61.3613 95.1065 60.672 98.2745 60.672C101.853 60.672 104.816 61.5373 107.163 63.268C109.539 64.9693 111.079 67.3453 111.783 70.396H105.843C105.403 68.8707 104.537 67.6827 103.247 66.832C101.956 65.9813 100.284 65.556 98.2305 65.556C96.1479 65.556 94.3585 66.0107 92.8625 66.92C91.3959 67.8 90.2665 69.0907 89.4745 70.792C88.7119 72.464 88.3305 74.4587 88.3305 76.776C88.3305 79.0933 88.7119 81.088 89.4745 82.76C90.2665 84.432 91.3812 85.708 92.8185 86.588C94.2559 87.4387 95.9425 87.864 97.8785 87.864C100.753 87.864 102.924 87.0573 104.391 85.444C105.857 83.8307 106.723 81.7333 106.987 79.152H99.0225V75.148H112.311V92H107.471L107.031 87.776C106.356 88.7733 105.579 89.6387 104.699 90.372C103.819 91.076 102.777 91.6187 101.575 92C100.401 92.352 99.0225 92.528 97.4385 92.528ZM114.223 92L125.487 61.2H131.383L142.647 92H137.059L128.391 67.36L119.723 92H114.223ZM119.239 84.74L120.647 80.56H135.827L137.235 84.74H119.239Z" fill="white"/>
</svg>
