<svg width="150" height="150" viewBox="0 0 150 150" fill="none" xmlns="http://www.w3.org/2000/svg">
<path fill-rule="evenodd" clip-rule="evenodd" d="M0 75C0 33.5786 33.5786 0 75 0C116.421 0 150 33.5786 150 75C150 116.421 116.421 150 75 150C33.5786 150 0 116.421 0 75ZM10.19 58C9.53274 58 9 58.5328 9 59.19V63.61C9 64.2672 9.53274 64.8 10.19 64.8H14.61C15.2673 64.8 15.8 65.3328 15.8 65.99V70.41C15.8 71.0673 15.2673 71.6 14.61 71.6H10.19C9.53274 71.6 9 72.1328 9 72.79V74.507C9 74.8312 9.12966 75.1252 9.34 75.3398L15.4602 81.46C15.6748 81.6703 15.9688 81.8 16.293 81.8H23.45C24.1073 81.8 24.64 82.3328 24.64 82.99V84.01C24.64 84.6673 24.1073 85.2 23.45 85.2H10.19C9.53274 85.2 9 85.7328 9 86.39V90.81C9 91.4672 9.53274 92 10.19 92H28.21C28.8673 92 29.4 91.4672 29.4 90.81V86.39C29.4 85.7327 29.9327 85.2 30.59 85.2H35.01C35.6673 85.2 36.2 85.7328 36.2 86.39V90.81C36.2 91.4672 36.7327 92 37.39 92H41.81C42.4673 92 43 91.4672 43 90.81V86.39C43 85.7328 42.4673 85.2 41.81 85.2H37.39C36.7327 85.2 36.2 84.6672 36.2 84.01V82.293C36.2 81.9688 36.0703 81.6748 35.86 81.4602L29.7398 75.34C29.5252 75.1297 29.2312 75 28.907 75H21.75C21.0927 75 20.56 74.4672 20.56 73.81V72.79C20.56 72.1327 21.0927 71.6 21.75 71.6H35.01C35.6673 71.6 36.2 71.0672 36.2 70.41V65.99C36.2 65.3328 35.6673 64.8 35.01 64.8H16.99C16.3327 64.8 15.8 64.2672 15.8 63.61V59.19C15.8 58.5328 15.2673 58 14.61 58H10.19ZM75.0001 14C99.39 14 120.437 28.3142 130.198 49H134.592C124.561 26.0432 101.654 10 75.0001 10C48.346 10 25.4389 26.0432 15.4087 49H19.8027C29.5635 28.3142 50.6102 14 75.0001 14ZM75.0001 136C50.6102 136 29.5635 121.686 19.8027 101H15.4087C25.4389 123.957 48.346 140 75.0001 140C101.654 140 124.561 123.957 134.592 101H130.198C120.437 121.686 99.39 136 75.0001 136Z" fill="#FB5108"/>
<path d="M48.3443 92V59.8H54.8763L65.1803 80.592L75.3923 59.8H81.9703V92H76.4503V69.276L67.3423 87.492H63.0183L53.8643 69.322V92H48.3443ZM86.6644 92V59.8H92.1844V73.094L104.328 59.8H111.182L99.2684 72.588L111.458 92H104.742L95.3584 76.82L92.1844 80.27V92H86.6644ZM113.934 92V59.8H124.33C128.071 59.8 131.153 60.4593 133.576 61.778C136.029 63.0967 137.838 64.9673 139.004 67.39C140.2 69.782 140.798 72.634 140.798 75.946C140.798 79.1967 140.2 82.0333 139.004 84.456C137.838 86.848 136.029 88.7033 133.576 90.022C131.153 91.3407 128.071 92 124.33 92H113.934ZM119.454 87.308H124.054C126.844 87.308 129.037 86.8633 130.632 85.974C132.257 85.054 133.407 83.7507 134.082 82.064C134.787 80.3467 135.14 78.3073 135.14 75.946C135.14 73.554 134.787 71.5147 134.082 69.828C133.407 68.1107 132.257 66.792 130.632 65.872C129.037 64.9213 126.844 64.446 124.054 64.446H119.454V87.308Z" fill="white"/>
</svg>
