<svg width="150" height="150" viewBox="0 0 150 150" fill="none" xmlns="http://www.w3.org/2000/svg">
<path fill-rule="evenodd" clip-rule="evenodd" d="M0 75C0 33.5786 33.5786 0 75 0C116.421 0 150 33.5786 150 75C150 116.421 116.421 150 75 150C33.5786 150 0 116.421 0 75ZM10.19 58C9.53274 58 9 58.5328 9 59.19V63.61C9 64.2672 9.53274 64.8 10.19 64.8H14.61C15.2673 64.8 15.8 65.3328 15.8 65.99V70.41C15.8 71.0673 15.2673 71.6 14.61 71.6H10.19C9.53274 71.6 9 72.1328 9 72.79V74.507C9 74.8312 9.12966 75.1252 9.34 75.3398L15.4602 81.46C15.6748 81.6703 15.9688 81.8 16.293 81.8H23.45C24.1073 81.8 24.64 82.3328 24.64 82.99V84.01C24.64 84.6673 24.1073 85.2 23.45 85.2H10.19C9.53274 85.2 9 85.7328 9 86.39V90.81C9 91.4672 9.53274 92 10.19 92H28.21C28.8673 92 29.4 91.4672 29.4 90.81V86.39C29.4 85.7327 29.9327 85.2 30.59 85.2H35.01C35.6673 85.2 36.2 85.7328 36.2 86.39V90.81C36.2 91.4672 36.7327 92 37.39 92H41.81C42.4673 92 43 91.4672 43 90.81V86.39C43 85.7328 42.4673 85.2 41.81 85.2H37.39C36.7327 85.2 36.2 84.6672 36.2 84.01V82.293C36.2 81.9688 36.0703 81.6748 35.86 81.4602L29.7398 75.34C29.5252 75.1297 29.2312 75 28.907 75H21.75C21.0927 75 20.56 74.4672 20.56 73.81V72.79C20.56 72.1327 21.0927 71.6 21.75 71.6H35.01C35.6673 71.6 36.2 71.0672 36.2 70.41V65.99C36.2 65.3328 35.6673 64.8 35.01 64.8H16.99C16.3327 64.8 15.8 64.2672 15.8 63.61V59.19C15.8 58.5328 15.2673 58 14.61 58H10.19ZM75.0001 14C99.39 14 120.437 28.3142 130.198 49H134.592C124.561 26.0432 101.654 10 75.0001 10C48.346 10 25.4389 26.0432 15.4087 49H19.8027C29.5635 28.3142 50.6102 14 75.0001 14ZM75.0001 136C50.6102 136 29.5635 121.686 19.8027 101H15.4087C25.4389 123.957 48.346 140 75.0001 140C101.654 140 124.561 123.957 134.592 101H130.198C120.437 121.686 99.39 136 75.0001 136Z" fill="#FB5108"/>
<path d="M49.7203 92V59.8H56.2523L66.5563 80.592L76.7683 59.8H83.3463V92H77.8263V69.276L68.7183 87.492H64.3943L55.2403 69.322V92H49.7203ZM88.0404 92V59.8H99.5864C102.132 59.8 104.232 60.2447 105.888 61.134C107.575 61.9927 108.817 63.158 109.614 64.63C110.442 66.0713 110.856 67.712 110.856 69.552C110.856 71.2693 110.458 72.864 109.66 74.336C108.863 75.808 107.621 76.9887 105.934 77.878C104.248 78.7673 102.086 79.212 99.4484 79.212H93.5604V92H88.0404ZM104.83 92L98.0684 77.786H104.048L111.132 92H104.83ZM93.5604 75.118H99.2184C101.273 75.118 102.776 74.6273 103.726 73.646C104.708 72.634 105.198 71.3153 105.198 69.69C105.198 68.0953 104.723 66.8227 103.772 65.872C102.822 64.8907 101.304 64.4 99.2184 64.4H93.5604V75.118ZM126.916 92.552C124.585 92.552 122.469 92.092 120.568 91.172C118.697 90.252 117.194 88.8413 116.06 86.94C114.956 85.0387 114.404 82.6467 114.404 79.764V59.8H119.924V79.81C119.924 81.558 120.215 82.9993 120.798 84.134C121.38 85.2687 122.193 86.1273 123.236 86.71C124.309 87.262 125.566 87.538 127.008 87.538C128.48 87.538 129.737 87.262 130.78 86.71C131.853 86.1273 132.666 85.2687 133.218 84.134C133.8 82.9993 134.092 81.558 134.092 79.81V59.8H139.612V79.764C139.612 82.6467 139.044 85.0387 137.91 86.94C136.775 88.8413 135.242 90.252 133.31 91.172C131.378 92.092 129.246 92.552 126.916 92.552Z" fill="white"/>
</svg>
