<svg width="150" height="150" viewBox="0 0 150 150" fill="none" xmlns="http://www.w3.org/2000/svg">
<path fill-rule="evenodd" clip-rule="evenodd" d="M0 75C0 33.5786 33.5786 0 75 0C116.421 0 150 33.5786 150 75C150 116.421 116.421 150 75 150C33.5786 150 0 116.421 0 75ZM10.19 58C9.53274 58 9 58.5328 9 59.19V63.61C9 64.2672 9.53274 64.8 10.19 64.8H14.61C15.2673 64.8 15.8 65.3328 15.8 65.99V70.41C15.8 71.0673 15.2673 71.6 14.61 71.6H10.19C9.53274 71.6 9 72.1328 9 72.79V74.507C9 74.8312 9.12966 75.1252 9.34 75.3398L15.4602 81.46C15.6748 81.6703 15.9688 81.8 16.293 81.8H23.45C24.1073 81.8 24.64 82.3328 24.64 82.99V84.01C24.64 84.6673 24.1073 85.2 23.45 85.2H10.19C9.53274 85.2 9 85.7328 9 86.39V90.81C9 91.4672 9.53274 92 10.19 92H28.21C28.8673 92 29.4 91.4672 29.4 90.81V86.39C29.4 85.7327 29.9327 85.2 30.59 85.2H35.01C35.6673 85.2 36.2 85.7328 36.2 86.39V90.81C36.2 91.4672 36.7327 92 37.39 92H41.81C42.4673 92 43 91.4672 43 90.81V86.39C43 85.7328 42.4673 85.2 41.81 85.2H37.39C36.7327 85.2 36.2 84.6672 36.2 84.01V82.293C36.2 81.9688 36.0703 81.6748 35.86 81.4602L29.7398 75.34C29.5252 75.1297 29.2312 75 28.907 75H21.75C21.0927 75 20.56 74.4672 20.56 73.81V72.79C20.56 72.1327 21.0927 71.6 21.75 71.6H35.01C35.6673 71.6 36.2 71.0672 36.2 70.41V65.99C36.2 65.3328 35.6673 64.8 35.01 64.8H16.99C16.3327 64.8 15.8 64.2672 15.8 63.61V59.19C15.8 58.5328 15.2673 58 14.61 58H10.19ZM75.0001 14C99.39 14 120.437 28.3142 130.198 49H134.592C124.561 26.0432 101.654 10 75.0001 10C48.346 10 25.4389 26.0432 15.4087 49H19.8027C29.5635 28.3142 50.6102 14 75.0001 14ZM75.0001 136C50.6102 136 29.5635 121.686 19.8027 101H15.4087C25.4389 123.957 48.346 140 75.0001 140C101.654 140 124.561 123.957 134.592 101H130.198C120.437 121.686 99.39 136 75.0001 136Z" fill="#FB5108"/>
<path d="M49.7203 92V59.8H56.2523L66.5563 80.592L76.7683 59.8H83.3463V92H77.8263V69.276L68.7183 87.492H64.3943L55.2403 69.322V92H49.7203ZM100.23 92.552C97.8997 92.552 95.7837 92.092 93.8824 91.172C92.0117 90.252 90.5091 88.8413 89.3744 86.94C88.2704 85.0387 87.7184 82.6467 87.7184 79.764V59.8H93.2384V79.81C93.2384 81.558 93.5297 82.9993 94.1124 84.134C94.6951 85.2687 95.5077 86.1273 96.5504 86.71C97.6237 87.262 98.8811 87.538 100.322 87.538C101.794 87.538 103.052 87.262 104.094 86.71C105.168 86.1273 105.98 85.2687 106.532 84.134C107.115 82.9993 107.406 81.558 107.406 79.81V59.8H112.926V79.764C112.926 82.6467 112.359 85.0387 111.224 86.94C110.09 88.8413 108.556 90.252 106.624 91.172C104.692 92.092 102.561 92.552 100.23 92.552ZM117.286 92V59.8H128.832C131.378 59.8 133.478 60.2447 135.134 61.134C136.821 61.9927 138.063 63.158 138.86 64.63C139.688 66.0713 140.102 67.712 140.102 69.552C140.102 71.2693 139.704 72.864 138.906 74.336C138.109 75.808 136.867 76.9887 135.18 77.878C133.494 78.7673 131.332 79.212 128.694 79.212H122.806V92H117.286ZM134.076 92L127.314 77.786H133.294L140.378 92H134.076ZM122.806 75.118H128.464C130.519 75.118 132.022 74.6273 132.972 73.646C133.954 72.634 134.444 71.3153 134.444 69.69C134.444 68.0953 133.969 66.8227 133.018 65.872C132.068 64.8907 130.55 64.4 128.464 64.4H122.806V75.118Z" fill="white"/>
</svg>
