<svg width="150" height="150" viewBox="0 0 150 150" fill="none" xmlns="http://www.w3.org/2000/svg">
<path fill-rule="evenodd" clip-rule="evenodd" d="M0 75C0 33.5786 33.5786 0 75 0C116.421 0 150 33.5786 150 75C150 116.421 116.421 150 75 150C33.5786 150 0 116.421 0 75ZM10.19 58C9.53274 58 9 58.5328 9 59.19V63.61C9 64.2672 9.53274 64.8 10.19 64.8H14.61C15.2673 64.8 15.8 65.3328 15.8 65.99V70.41C15.8 71.0673 15.2673 71.6 14.61 71.6H10.19C9.53274 71.6 9 72.1328 9 72.79V74.507C9 74.8312 9.12966 75.1252 9.34 75.3398L15.4602 81.46C15.6748 81.6703 15.9688 81.8 16.293 81.8H23.45C24.1073 81.8 24.64 82.3328 24.64 82.99V84.01C24.64 84.6673 24.1073 85.2 23.45 85.2H10.19C9.53274 85.2 9 85.7328 9 86.39V90.81C9 91.4672 9.53274 92 10.19 92H28.21C28.8673 92 29.4 91.4672 29.4 90.81V86.39C29.4 85.7327 29.9327 85.2 30.59 85.2H35.01C35.6673 85.2 36.2 85.7328 36.2 86.39V90.81C36.2 91.4672 36.7327 92 37.39 92H41.81C42.4673 92 43 91.4672 43 90.81V86.39C43 85.7328 42.4673 85.2 41.81 85.2H37.39C36.7327 85.2 36.2 84.6672 36.2 84.01V82.293C36.2 81.9688 36.0703 81.6748 35.86 81.4602L29.7398 75.34C29.5252 75.1297 29.2312 75 28.907 75H21.75C21.0927 75 20.56 74.4672 20.56 73.81V72.79C20.56 72.1327 21.0927 71.6 21.75 71.6H35.01C35.6673 71.6 36.2 71.0672 36.2 70.41V65.99C36.2 65.3328 35.6673 64.8 35.01 64.8H16.99C16.3327 64.8 15.8 64.2672 15.8 63.61V59.19C15.8 58.5328 15.2673 58 14.61 58H10.19ZM75.0001 14C99.39 14 120.437 28.3142 130.198 49H134.592C124.561 26.0432 101.654 10 75.0001 10C48.346 10 25.4389 26.0432 15.4087 49H19.8027C29.5635 28.3142 50.6102 14 75.0001 14ZM75.0001 136C50.6102 136 29.5635 121.686 19.8027 101H15.4087C25.4389 123.957 48.346 140 75.0001 140C101.654 140 124.561 123.957 134.592 101H130.198C120.437 121.686 99.39 136 75.0001 136Z" fill="#FB5108"/>
<path d="M48.3218 92V59.8H53.8418L69.3438 83.076V59.8H74.8638V92H69.3438L53.8418 68.77V92H48.3218ZM93.5294 92.552C90.4934 92.552 87.8254 91.862 85.5254 90.482C83.2561 89.102 81.4927 87.1853 80.2354 84.732C78.9781 82.248 78.3494 79.35 78.3494 76.038C78.3494 72.7567 78.9934 69.8587 80.2814 67.344C81.5694 64.7987 83.4094 62.8207 85.8014 61.41C88.2241 59.9687 91.0914 59.248 94.4034 59.248C98.1447 59.248 101.242 60.1527 103.695 61.962C106.179 63.7407 107.789 66.2247 108.525 69.414H102.315C101.855 67.8193 100.951 66.5773 99.6014 65.688C98.2521 64.7987 96.5041 64.354 94.3574 64.354C92.1801 64.354 90.3094 64.8293 88.7454 65.78C87.2121 66.7 86.0314 68.0493 85.2034 69.828C84.4061 71.576 84.0074 73.6613 84.0074 76.084C84.0074 78.5067 84.4061 80.592 85.2034 82.34C86.0314 84.088 87.1967 85.422 88.6994 86.342C90.2021 87.2313 91.9654 87.676 93.9894 87.676C96.9947 87.676 99.2641 86.8327 100.797 85.146C102.331 83.4593 103.235 81.2667 103.511 78.568H95.1854V74.382H109.077V92H104.017L103.557 87.584C102.852 88.6267 102.039 89.5313 101.119 90.298C100.199 91.034 99.1107 91.6013 97.8534 92C96.6267 92.368 95.1854 92.552 93.5294 92.552ZM113.193 92V59.8H118.713L134.215 83.076V59.8H139.735V92H134.215L118.713 68.77V92H113.193Z" fill="white"/>
</svg>
