<svg width="150" height="150" viewBox="0 0 150 150" fill="none" xmlns="http://www.w3.org/2000/svg">
<path fill-rule="evenodd" clip-rule="evenodd" d="M0 75C0 33.5786 33.5786 0 75 0C116.421 0 150 33.5786 150 75C150 116.421 116.421 150 75 150C33.5786 150 0 116.421 0 75ZM10.19 58C9.53274 58 9 58.5328 9 59.19V63.61C9 64.2672 9.53274 64.8 10.19 64.8H14.61C15.2673 64.8 15.8 65.3328 15.8 65.99V70.41C15.8 71.0673 15.2673 71.6 14.61 71.6H10.19C9.53274 71.6 9 72.1328 9 72.79V74.507C9 74.8312 9.12966 75.1252 9.34 75.3398L15.4602 81.46C15.6748 81.6703 15.9688 81.8 16.293 81.8H23.45C24.1073 81.8 24.64 82.3328 24.64 82.99V84.01C24.64 84.6673 24.1073 85.2 23.45 85.2H10.19C9.53274 85.2 9 85.7328 9 86.39V90.81C9 91.4672 9.53274 92 10.19 92H28.21C28.8673 92 29.4 91.4672 29.4 90.81V86.39C29.4 85.7327 29.9327 85.2 30.59 85.2H35.01C35.6673 85.2 36.2 85.7328 36.2 86.39V90.81C36.2 91.4672 36.7327 92 37.39 92H41.81C42.4673 92 43 91.4672 43 90.81V86.39C43 85.7328 42.4673 85.2 41.81 85.2H37.39C36.7327 85.2 36.2 84.6672 36.2 84.01V82.293C36.2 81.9688 36.0703 81.6748 35.86 81.4602L29.7398 75.34C29.5252 75.1297 29.2312 75 28.907 75H21.75C21.0927 75 20.56 74.4672 20.56 73.81V72.79C20.56 72.1327 21.0927 71.6 21.75 71.6H35.01C35.6673 71.6 36.2 71.0672 36.2 70.41V65.99C36.2 65.3328 35.6673 64.8 35.01 64.8H16.99C16.3327 64.8 15.8 64.2672 15.8 63.61V59.19C15.8 58.5328 15.2673 58 14.61 58H10.19ZM75.0001 14C99.39 14 120.437 28.3142 130.198 49H134.592C124.561 26.0432 101.654 10 75.0001 10C48.346 10 25.4389 26.0432 15.4087 49H19.8027C29.5635 28.3142 50.6102 14 75.0001 14ZM75.0001 136C50.6102 136 29.5635 121.686 19.8027 101H15.4087C25.4389 123.957 48.346 140 75.0001 140C101.654 140 124.561 123.957 134.592 101H130.198C120.437 121.686 99.39 136 75.0001 136Z" fill="#FB5108"/>
<path d="M53.5559 93V58H59.5559L76.4059 83.3V58H82.4059V93H76.4059L59.5559 67.75V93H53.5559ZM89.4445 93V58H95.4445V93H89.4445ZM118.432 93.6C115.065 93.6 112.082 92.85 109.482 91.35C106.915 89.8167 104.898 87.7 103.432 85C101.965 82.2667 101.232 79.1 101.232 75.5C101.232 71.9333 101.965 68.8 103.432 66.1C104.898 63.3667 106.915 61.2333 109.482 59.7C112.082 58.1667 115.065 57.4 118.432 57.4C121.865 57.4 124.882 58.1667 127.482 59.7C130.082 61.2333 132.098 63.3667 133.532 66.1C134.965 68.8 135.682 71.9333 135.682 75.5C135.682 79.1 134.965 82.2667 133.532 85C132.098 87.7 130.082 89.8167 127.482 91.35C124.882 92.85 121.865 93.6 118.432 93.6ZM118.482 88.2C120.715 88.2 122.665 87.7 124.332 86.7C125.998 85.6667 127.282 84.2 128.182 82.3C129.082 80.4 129.532 78.1333 129.532 75.5C129.532 72.8667 129.082 70.6 128.182 68.7C127.282 66.8 125.998 65.35 124.332 64.35C122.665 63.3167 120.715 62.8 118.482 62.8C116.248 62.8 114.298 63.3167 112.632 64.35C110.965 65.35 109.665 66.8 108.732 68.7C107.832 70.6 107.382 72.8667 107.382 75.5C107.382 78.1333 107.832 80.4 108.732 82.3C109.665 84.2 110.965 85.6667 112.632 86.7C114.298 87.7 116.248 88.2 118.482 88.2Z" fill="white"/>
</svg>
