<svg width="150" height="150" viewBox="0 0 150 150" fill="none" xmlns="http://www.w3.org/2000/svg">
<path fill-rule="evenodd" clip-rule="evenodd" d="M0 75C0 33.5786 33.5786 0 75 0C116.421 0 150 33.5786 150 75C150 116.421 116.421 150 75 150C33.5786 150 0 116.421 0 75ZM10.19 58C9.53274 58 9 58.5328 9 59.19V63.61C9 64.2672 9.53274 64.8 10.19 64.8H14.61C15.2673 64.8 15.8 65.3328 15.8 65.99V70.41C15.8 71.0673 15.2673 71.6 14.61 71.6H10.19C9.53274 71.6 9 72.1328 9 72.79V74.507C9 74.8312 9.12966 75.1252 9.34 75.3398L15.4602 81.46C15.6748 81.6703 15.9688 81.8 16.293 81.8H23.45C24.1073 81.8 24.64 82.3328 24.64 82.99V84.01C24.64 84.6673 24.1073 85.2 23.45 85.2H10.19C9.53274 85.2 9 85.7328 9 86.39V90.81C9 91.4672 9.53274 92 10.19 92H28.21C28.8673 92 29.4 91.4672 29.4 90.81V86.39C29.4 85.7327 29.9327 85.2 30.59 85.2H35.01C35.6673 85.2 36.2 85.7328 36.2 86.39V90.81C36.2 91.4672 36.7327 92 37.39 92H41.81C42.4673 92 43 91.4672 43 90.81V86.39C43 85.7328 42.4673 85.2 41.81 85.2H37.39C36.7327 85.2 36.2 84.6672 36.2 84.01V82.293C36.2 81.9688 36.0703 81.6748 35.86 81.4602L29.7398 75.34C29.5252 75.1297 29.2312 75 28.907 75H21.75C21.0927 75 20.56 74.4672 20.56 73.81V72.79C20.56 72.1327 21.0927 71.6 21.75 71.6H35.01C35.6673 71.6 36.2 71.0672 36.2 70.41V65.99C36.2 65.3328 35.6673 64.8 35.01 64.8H16.99C16.3327 64.8 15.8 64.2672 15.8 63.61V59.19C15.8 58.5328 15.2673 58 14.61 58H10.19ZM75.0001 14C99.39 14 120.437 28.3142 130.198 49H134.592C124.561 26.0432 101.654 10 75.0001 10C48.346 10 25.4389 26.0432 15.4087 49H19.8027C29.5635 28.3142 50.6102 14 75.0001 14ZM75.0001 136C50.6102 136 29.5635 121.686 19.8027 101H15.4087C25.4389 123.957 48.346 140 75.0001 140C101.654 140 124.561 123.957 134.592 101H130.198C120.437 121.686 99.39 136 75.0001 136Z" fill="#FB5108"/>
<path d="M50.5738 92V59.8H56.0938L71.5958 83.076V59.8H77.1158V92H71.5958L56.0938 68.77V92H50.5738ZM96.4254 92.552C93.328 92.552 90.5834 91.862 88.1914 90.482C85.83 89.0713 83.9747 87.124 82.6254 84.64C81.276 82.1253 80.6014 79.212 80.6014 75.9C80.6014 72.6187 81.276 69.736 82.6254 67.252C83.9747 64.7373 85.83 62.7747 88.1914 61.364C90.5834 59.9533 93.328 59.248 96.4254 59.248C99.584 59.248 102.359 59.9533 104.751 61.364C107.143 62.7747 108.999 64.7373 110.317 67.252C111.636 69.736 112.295 72.6187 112.295 75.9C112.295 79.212 111.636 82.1253 110.317 84.64C108.999 87.124 107.143 89.0713 104.751 90.482C102.359 91.862 99.584 92.552 96.4254 92.552ZM96.4714 87.584C98.526 87.584 100.32 87.124 101.853 86.204C103.387 85.2533 104.567 83.904 105.395 82.156C106.223 80.408 106.637 78.3227 106.637 75.9C106.637 73.4773 106.223 71.392 105.395 69.644C104.567 67.896 103.387 66.562 101.853 65.642C100.32 64.6913 98.526 64.216 96.4714 64.216C94.4167 64.216 92.6227 64.6913 91.0894 65.642C89.556 66.562 88.36 67.896 87.5014 69.644C86.6734 71.392 86.2594 73.4773 86.2594 75.9C86.2594 78.3227 86.6734 80.408 87.5014 82.156C88.36 83.904 89.556 85.2533 91.0894 86.204C92.6227 87.124 94.4167 87.584 96.4714 87.584ZM115.849 92V59.8H121.369V73.094L133.513 59.8H140.367L128.453 72.588L140.643 92H133.927L124.543 76.82L121.369 80.27V92H115.849Z" fill="white"/>
</svg>
