<svg width="150" height="150" viewBox="0 0 150 150" fill="none" xmlns="http://www.w3.org/2000/svg">
<path fill-rule="evenodd" clip-rule="evenodd" d="M0 75C0 33.5786 33.5786 0 75 0C116.421 0 150 33.5786 150 75C150 116.421 116.421 150 75 150C33.5786 150 0 116.421 0 75ZM10.19 58C9.53274 58 9 58.5328 9 59.19V63.61C9 64.2672 9.53274 64.8 10.19 64.8H14.61C15.2673 64.8 15.8 65.3328 15.8 65.99V70.41C15.8 71.0673 15.2673 71.6 14.61 71.6H10.19C9.53274 71.6 9 72.1328 9 72.79V74.507C9 74.8312 9.12966 75.1252 9.34 75.3398L15.4602 81.46C15.6748 81.6703 15.9688 81.8 16.293 81.8H23.45C24.1073 81.8 24.64 82.3328 24.64 82.99V84.01C24.64 84.6673 24.1073 85.2 23.45 85.2H10.19C9.53274 85.2 9 85.7328 9 86.39V90.81C9 91.4672 9.53274 92 10.19 92H28.21C28.8673 92 29.4 91.4672 29.4 90.81V86.39C29.4 85.7327 29.9327 85.2 30.59 85.2H35.01C35.6673 85.2 36.2 85.7328 36.2 86.39V90.81C36.2 91.4672 36.7327 92 37.39 92H41.81C42.4673 92 43 91.4672 43 90.81V86.39C43 85.7328 42.4673 85.2 41.81 85.2H37.39C36.7327 85.2 36.2 84.6672 36.2 84.01V82.293C36.2 81.9688 36.0703 81.6748 35.86 81.4602L29.7398 75.34C29.5252 75.1297 29.2312 75 28.907 75H21.75C21.0927 75 20.56 74.4672 20.56 73.81V72.79C20.56 72.1327 21.0927 71.6 21.75 71.6H35.01C35.6673 71.6 36.2 71.0672 36.2 70.41V65.99C36.2 65.3328 35.6673 64.8 35.01 64.8H16.99C16.3327 64.8 15.8 64.2672 15.8 63.61V59.19C15.8 58.5328 15.2673 58 14.61 58H10.19ZM75.0001 14C99.39 14 120.437 28.3142 130.198 49H134.592C124.561 26.0432 101.654 10 75.0001 10C48.346 10 25.4389 26.0432 15.4087 49H19.8027C29.5635 28.3142 50.6102 14 75.0001 14ZM75.0001 136C50.6102 136 29.5635 121.686 19.8027 101H15.4087C25.4389 123.957 48.346 140 75.0001 140C101.654 140 124.561 123.957 134.592 101H130.198C120.437 121.686 99.39 136 75.0001 136Z" fill="#FB5108"/>
<path d="M49.0148 93V58H55.0148L71.8648 83.3V58H77.8648V93H71.8648L55.0148 67.75V93H49.0148ZM84.9035 93V58H97.5035C100.304 58 102.62 58.4833 104.454 59.45C106.287 60.3833 107.654 61.65 108.554 63.25C109.454 64.85 109.904 66.6833 109.904 68.75C109.904 70.6833 109.47 72.4667 108.604 74.1C107.737 75.7 106.387 77 104.554 78C102.72 78.9667 100.37 79.45 97.5035 79.45H90.9035V93H84.9035ZM90.9035 74.55H97.1535C99.5202 74.55 101.22 74.0333 102.254 73C103.287 71.9333 103.804 70.5167 103.804 68.75C103.804 66.9167 103.287 65.4833 102.254 64.45C101.22 63.4167 99.5202 62.9 97.1535 62.9H90.9035V74.55ZM115.079 93V58H127.629C130.396 58 132.679 58.4833 134.479 59.45C136.313 60.3833 137.663 61.65 138.529 63.25C139.429 64.8167 139.879 66.6 139.879 68.6C139.879 70.4667 139.446 72.2 138.579 73.8C137.713 75.4 136.363 76.6833 134.529 77.65C132.696 78.6167 130.346 79.1 127.479 79.1H121.079V93H115.079ZM133.329 93L125.979 77.55H132.479L140.179 93H133.329ZM121.079 74.65H127.229C129.463 74.65 131.096 74.1167 132.129 73.05C133.196 71.95 133.729 70.5167 133.729 68.75C133.729 67.0167 133.213 65.6333 132.179 64.6C131.146 63.5333 129.496 63 127.229 63H121.079V74.65Z" fill="white"/>
</svg>
