<svg width="150" height="150" viewBox="0 0 150 150" fill="none" xmlns="http://www.w3.org/2000/svg">
<path fill-rule="evenodd" clip-rule="evenodd" d="M0 75C0 33.5786 33.5786 0 75 0C116.421 0 150 33.5786 150 75C150 116.421 116.421 150 75 150C33.5786 150 0 116.421 0 75ZM10.19 58C9.53274 58 9 58.5328 9 59.19V63.61C9 64.2672 9.53274 64.8 10.19 64.8H14.61C15.2673 64.8 15.8 65.3328 15.8 65.99V70.41C15.8 71.0673 15.2673 71.6 14.61 71.6H10.19C9.53274 71.6 9 72.1328 9 72.79V74.507C9 74.8312 9.12966 75.1252 9.34 75.3398L15.4602 81.46C15.6748 81.6703 15.9688 81.8 16.293 81.8H23.45C24.1073 81.8 24.64 82.3328 24.64 82.99V84.01C24.64 84.6673 24.1073 85.2 23.45 85.2H10.19C9.53274 85.2 9 85.7328 9 86.39V90.81C9 91.4672 9.53274 92 10.19 92H28.21C28.8673 92 29.4 91.4672 29.4 90.81V86.39C29.4 85.7327 29.9327 85.2 30.59 85.2H35.01C35.6673 85.2 36.2 85.7328 36.2 86.39V90.81C36.2 91.4672 36.7327 92 37.39 92H41.81C42.4673 92 43 91.4672 43 90.81V86.39C43 85.7328 42.4673 85.2 41.81 85.2H37.39C36.7327 85.2 36.2 84.6672 36.2 84.01V82.293C36.2 81.9688 36.0703 81.6748 35.86 81.4602L29.7398 75.34C29.5252 75.1297 29.2312 75 28.907 75H21.75C21.0927 75 20.56 74.4672 20.56 73.81V72.79C20.56 72.1327 21.0927 71.6 21.75 71.6H35.01C35.6673 71.6 36.2 71.0672 36.2 70.41V65.99C36.2 65.3328 35.6673 64.8 35.01 64.8H16.99C16.3327 64.8 15.8 64.2672 15.8 63.61V59.19C15.8 58.5328 15.2673 58 14.61 58H10.19ZM75.0001 14C99.39 14 120.437 28.3142 130.198 49H134.592C124.561 26.0432 101.654 10 75.0001 10C48.346 10 25.4389 26.0432 15.4087 49H19.8027C29.5635 28.3142 50.6102 14 75.0001 14ZM75.0001 136C50.6102 136 29.5635 121.686 19.8027 101H15.4087C25.4389 123.957 48.346 140 75.0001 140C101.654 140 124.561 123.957 134.592 101H130.198C120.437 121.686 99.39 136 75.0001 136Z" fill="#FB5108"/>
<path d="M61.9685 92.552C58.8711 92.552 56.1265 91.862 53.7345 90.482C51.3731 89.0713 49.5178 87.124 48.1685 84.64C46.8191 82.1253 46.1445 79.212 46.1445 75.9C46.1445 72.6187 46.8191 69.736 48.1685 67.252C49.5178 64.7373 51.3731 62.7747 53.7345 61.364C56.1265 59.9533 58.8711 59.248 61.9685 59.248C65.1271 59.248 67.9025 59.9533 70.2945 61.364C72.6865 62.7747 74.5418 64.7373 75.8605 67.252C77.1791 69.736 77.8385 72.6187 77.8385 75.9C77.8385 79.212 77.1791 82.1253 75.8605 84.64C74.5418 87.124 72.6865 89.0713 70.2945 90.482C67.9025 91.862 65.1271 92.552 61.9685 92.552ZM62.0145 87.584C64.0691 87.584 65.8631 87.124 67.3965 86.204C68.9298 85.2533 70.1105 83.904 70.9385 82.156C71.7665 80.408 72.1805 78.3227 72.1805 75.9C72.1805 73.4773 71.7665 71.392 70.9385 69.644C70.1105 67.896 68.9298 66.562 67.3965 65.642C65.8631 64.6913 64.0691 64.216 62.0145 64.216C59.9598 64.216 58.1658 64.6913 56.6325 65.642C55.0991 66.562 53.9031 67.896 53.0445 69.644C52.2165 71.392 51.8025 73.4773 51.8025 75.9C51.8025 78.3227 52.2165 80.408 53.0445 82.156C53.9031 83.904 55.0991 85.2533 56.6325 86.204C58.1658 87.124 59.9598 87.584 62.0145 87.584ZM81.392 92V59.8H87.924L98.228 80.592L108.44 59.8H115.018V92H109.498V69.276L100.39 87.492H96.066L86.912 69.322V92H81.392ZM119.712 92V59.8H131.258C133.803 59.8 135.904 60.2447 137.56 61.134C139.247 61.9927 140.489 63.158 141.286 64.63C142.114 66.0713 142.528 67.712 142.528 69.552C142.528 71.2693 142.129 72.864 141.332 74.336C140.535 75.808 139.293 76.9887 137.606 77.878C135.919 78.7673 133.757 79.212 131.12 79.212H125.232V92H119.712ZM136.502 92L129.74 77.786H135.72L142.804 92H136.502ZM125.232 75.118H130.89C132.945 75.118 134.447 74.6273 135.398 73.646C136.379 72.634 136.87 71.3153 136.87 69.69C136.87 68.0953 136.395 66.8227 135.444 65.872C134.493 64.8907 132.975 64.4 130.89 64.4H125.232V75.118Z" fill="white"/>
</svg>
