<svg width="150" height="150" viewBox="0 0 150 150" fill="none" xmlns="http://www.w3.org/2000/svg">
<path fill-rule="evenodd" clip-rule="evenodd" d="M0 75C0 33.5786 33.5786 0 75 0C116.421 0 150 33.5786 150 75C150 116.421 116.421 150 75 150C33.5786 150 0 116.421 0 75ZM10.19 58C9.53274 58 9 58.5328 9 59.19V63.61C9 64.2672 9.53274 64.8 10.19 64.8H14.61C15.2673 64.8 15.8 65.3328 15.8 65.99V70.41C15.8 71.0673 15.2673 71.6 14.61 71.6H10.19C9.53274 71.6 9 72.1328 9 72.79V74.507C9 74.8312 9.12966 75.1252 9.34 75.3398L15.4602 81.46C15.6748 81.6703 15.9688 81.8 16.293 81.8H23.45C24.1073 81.8 24.64 82.3328 24.64 82.99V84.01C24.64 84.6673 24.1073 85.2 23.45 85.2H10.19C9.53274 85.2 9 85.7328 9 86.39V90.81C9 91.4672 9.53274 92 10.19 92H28.21C28.8673 92 29.4 91.4672 29.4 90.81V86.39C29.4 85.7327 29.9327 85.2 30.59 85.2H35.01C35.6673 85.2 36.2 85.7328 36.2 86.39V90.81C36.2 91.4672 36.7327 92 37.39 92H41.81C42.4673 92 43 91.4672 43 90.81V86.39C43 85.7328 42.4673 85.2 41.81 85.2H37.39C36.7327 85.2 36.2 84.6672 36.2 84.01V82.293C36.2 81.9688 36.0703 81.6748 35.86 81.4602L29.7398 75.34C29.5252 75.1297 29.2312 75 28.907 75H21.75C21.0927 75 20.56 74.4672 20.56 73.81V72.79C20.56 72.1327 21.0927 71.6 21.75 71.6H35.01C35.6673 71.6 36.2 71.0672 36.2 70.41V65.99C36.2 65.3328 35.6673 64.8 35.01 64.8H16.99C16.3327 64.8 15.8 64.2672 15.8 63.61V59.19C15.8 58.5328 15.2673 58 14.61 58H10.19ZM75.0001 14C99.39 14 120.437 28.3142 130.198 49H134.592C124.561 26.0432 101.654 10 75.0001 10C48.346 10 25.4389 26.0432 15.4087 49H19.8027C29.5635 28.3142 50.6102 14 75.0001 14ZM75.0001 136C50.6102 136 29.5635 121.686 19.8027 101H15.4087C25.4389 123.957 48.346 140 75.0001 140C101.654 140 124.561 123.957 134.592 101H130.198C120.437 121.686 99.39 136 75.0001 136Z" fill="#FB5108"/>
<path d="M51.7854 93V58H64.3854C67.1854 58 69.502 58.4833 71.3354 59.45C73.1687 60.3833 74.5354 61.65 75.4354 63.25C76.3354 64.85 76.7854 66.6833 76.7854 68.75C76.7854 70.6833 76.352 72.4667 75.4854 74.1C74.6187 75.7 73.2687 77 71.4354 78C69.602 78.9667 67.252 79.45 64.3854 79.45H57.7854V93H51.7854ZM57.7854 74.55H64.0354C66.402 74.55 68.102 74.0333 69.1354 73C70.1687 71.9333 70.6854 70.5167 70.6854 68.75C70.6854 66.9167 70.1687 65.4833 69.1354 64.45C68.102 63.4167 66.402 62.9 64.0354 62.9H57.7854V74.55ZM75.8037 93L88.6037 58H95.3037L108.104 93H101.754L91.9037 65L82.0537 93H75.8037ZM81.5037 84.75L83.1037 80H100.354L101.954 84.75H81.5037ZM112.918 93V58H126.618C129.085 58 131.135 58.3833 132.768 59.15C134.435 59.9167 135.685 60.9833 136.518 62.35C137.351 63.6833 137.768 65.2333 137.768 67C137.768 68.7667 137.385 70.25 136.618 71.45C135.851 72.65 134.835 73.5667 133.568 74.2C132.335 74.8333 130.985 75.2167 129.518 75.35L130.268 74.8C131.835 74.8333 133.235 75.25 134.468 76.05C135.735 76.85 136.735 77.9 137.468 79.2C138.201 80.4667 138.568 81.8833 138.568 83.45C138.568 85.2833 138.118 86.9333 137.218 88.4C136.351 89.8333 135.068 90.9667 133.368 91.8C131.668 92.6 129.585 93 127.118 93H112.918ZM118.918 88.1H126.218C128.185 88.1 129.718 87.6333 130.818 86.7C131.918 85.7667 132.468 84.4667 132.468 82.8C132.468 81.1333 131.901 79.8167 130.768 78.85C129.635 77.85 128.085 77.35 126.118 77.35H118.918V88.1ZM118.918 72.8H125.768C127.701 72.8 129.168 72.3667 130.168 71.5C131.168 70.6 131.668 69.3667 131.668 67.8C131.668 66.2667 131.168 65.0667 130.168 64.2C129.168 63.3 127.685 62.85 125.718 62.85H118.918V72.8Z" fill="white"/>
</svg>
