<svg width="150" height="150" viewBox="0 0 150 150" fill="none" xmlns="http://www.w3.org/2000/svg">
<path fill-rule="evenodd" clip-rule="evenodd" d="M0 75C0 33.5786 33.5786 0 75 0C116.421 0 150 33.5786 150 75C150 116.421 116.421 150 75 150C33.5786 150 0 116.421 0 75ZM10.19 58C9.53274 58 9 58.5328 9 59.19V63.61C9 64.2672 9.53274 64.8 10.19 64.8H14.61C15.2673 64.8 15.8 65.3328 15.8 65.99V70.41C15.8 71.0673 15.2673 71.6 14.61 71.6H10.19C9.53274 71.6 9 72.1328 9 72.79V74.507C9 74.8312 9.12966 75.1252 9.34 75.3398L15.4602 81.46C15.6748 81.6703 15.9688 81.8 16.293 81.8H23.45C24.1073 81.8 24.64 82.3328 24.64 82.99V84.01C24.64 84.6673 24.1073 85.2 23.45 85.2H10.19C9.53274 85.2 9 85.7328 9 86.39V90.81C9 91.4672 9.53274 92 10.19 92H28.21C28.8673 92 29.4 91.4672 29.4 90.81V86.39C29.4 85.7327 29.9327 85.2 30.59 85.2H35.01C35.6673 85.2 36.2 85.7328 36.2 86.39V90.81C36.2 91.4672 36.7327 92 37.39 92H41.81C42.4673 92 43 91.4672 43 90.81V86.39C43 85.7328 42.4673 85.2 41.81 85.2H37.39C36.7327 85.2 36.2 84.6672 36.2 84.01V82.293C36.2 81.9688 36.0703 81.6748 35.86 81.4602L29.7398 75.34C29.5252 75.1297 29.2312 75 28.907 75H21.75C21.0927 75 20.56 74.4672 20.56 73.81V72.79C20.56 72.1327 21.0927 71.6 21.75 71.6H35.01C35.6673 71.6 36.2 71.0672 36.2 70.41V65.99C36.2 65.3328 35.6673 64.8 35.01 64.8H16.99C16.3327 64.8 15.8 64.2672 15.8 63.61V59.19C15.8 58.5328 15.2673 58 14.61 58H10.19ZM75.0001 14C99.39 14 120.437 28.3142 130.198 49H134.592C124.561 26.0432 101.654 10 75.0001 10C48.346 10 25.4389 26.0432 15.4087 49H19.8027C29.5635 28.3142 50.6102 14 75.0001 14ZM75.0001 136C50.6102 136 29.5635 121.686 19.8027 101H15.4087C25.4389 123.957 48.346 140 75.0001 140C101.654 140 124.561 123.957 134.592 101H130.198C120.437 121.686 99.39 136 75.0001 136Z" fill="#FB5108"/>
<path d="M49.8303 93V58H62.4303C65.2303 58 67.5469 58.4833 69.3803 59.45C71.2136 60.3833 72.5803 61.65 73.4803 63.25C74.3803 64.85 74.8303 66.6833 74.8303 68.75C74.8303 70.6833 74.3969 72.4667 73.5303 74.1C72.6636 75.7 71.3136 77 69.4803 78C67.6469 78.9667 65.2969 79.45 62.4303 79.45H55.8303V93H49.8303ZM55.8303 74.55H62.0803C64.4469 74.55 66.1469 74.0333 67.1803 73C68.2136 71.9333 68.7303 70.5167 68.7303 68.75C68.7303 66.9167 68.2136 65.4833 67.1803 64.45C66.1469 63.4167 64.4469 62.9 62.0803 62.9H55.8303V74.55ZM93.2561 93.6C89.9561 93.6 87.0561 92.85 84.5561 91.35C82.0894 89.85 80.1727 87.7667 78.8061 85.1C77.4394 82.4 76.7561 79.25 76.7561 75.65C76.7561 72.0833 77.4561 68.9333 78.8561 66.2C80.2561 63.4333 82.2561 61.2833 84.8561 59.75C87.4894 58.1833 90.6061 57.4 94.2061 57.4C98.2727 57.4 101.639 58.3833 104.306 60.35C107.006 62.2833 108.756 64.9833 109.556 68.45H102.806C102.306 66.7167 101.323 65.3667 99.8561 64.4C98.3894 63.4333 96.4894 62.95 94.1561 62.95C91.7894 62.95 89.7561 63.4667 88.0561 64.5C86.3894 65.5 85.1061 66.9667 84.2061 68.9C83.3394 70.8 82.9061 73.0667 82.9061 75.7C82.9061 78.3333 83.3394 80.6 84.2061 82.5C85.1061 84.4 86.3727 85.85 88.0061 86.85C89.6394 87.8167 91.5561 88.3 93.7561 88.3C97.0227 88.3 99.4894 87.3833 101.156 85.55C102.823 83.7167 103.806 81.3333 104.106 78.4H95.0561V73.85H110.156V93H104.656L104.156 88.2C103.389 89.3333 102.506 90.3167 101.506 91.15C100.506 91.95 99.3227 92.5667 97.9561 93C96.6227 93.4 95.0561 93.6 93.2561 93.6ZM114.629 93V58H120.629V72.45L133.829 58H141.279L128.329 71.9L141.579 93H134.279L124.079 76.5L120.629 80.25V93H114.629Z" fill="white"/>
</svg>
