<svg width="150" height="150" viewBox="0 0 150 150" fill="none" xmlns="http://www.w3.org/2000/svg">
<path fill-rule="evenodd" clip-rule="evenodd" d="M0 75C0 33.5786 33.5786 0 75 0C116.421 0 150 33.5786 150 75C150 116.421 116.421 150 75 150C33.5786 150 0 116.421 0 75ZM10.19 58C9.53274 58 9 58.5328 9 59.19V63.61C9 64.2672 9.53274 64.8 10.19 64.8H14.61C15.2673 64.8 15.8 65.3328 15.8 65.99V70.41C15.8 71.0673 15.2673 71.6 14.61 71.6H10.19C9.53274 71.6 9 72.1328 9 72.79V74.507C9 74.8312 9.12966 75.1252 9.34 75.3398L15.4602 81.46C15.6748 81.6703 15.9688 81.8 16.293 81.8H23.45C24.1073 81.8 24.64 82.3328 24.64 82.99V84.01C24.64 84.6673 24.1073 85.2 23.45 85.2H10.19C9.53274 85.2 9 85.7328 9 86.39V90.81C9 91.4672 9.53274 92 10.19 92H28.21C28.8673 92 29.4 91.4672 29.4 90.81V86.39C29.4 85.7327 29.9327 85.2 30.59 85.2H35.01C35.6673 85.2 36.2 85.7328 36.2 86.39V90.81C36.2 91.4672 36.7327 92 37.39 92H41.81C42.4673 92 43 91.4672 43 90.81V86.39C43 85.7328 42.4673 85.2 41.81 85.2H37.39C36.7327 85.2 36.2 84.6672 36.2 84.01V82.293C36.2 81.9688 36.0703 81.6748 35.86 81.4602L29.7398 75.34C29.5252 75.1297 29.2312 75 28.907 75H21.75C21.0927 75 20.56 74.4672 20.56 73.81V72.79C20.56 72.1327 21.0927 71.6 21.75 71.6H35.01C35.6673 71.6 36.2 71.0672 36.2 70.41V65.99C36.2 65.3328 35.6673 64.8 35.01 64.8H16.99C16.3327 64.8 15.8 64.2672 15.8 63.61V59.19C15.8 58.5328 15.2673 58 14.61 58H10.19ZM75.0001 14C99.39 14 120.437 28.3142 130.198 49H134.592C124.561 26.0432 101.654 10 75.0001 10C48.346 10 25.4389 26.0432 15.4087 49H19.8027C29.5635 28.3142 50.6102 14 75.0001 14ZM75.0001 136C50.6102 136 29.5635 121.686 19.8027 101H15.4087C25.4389 123.957 48.346 140 75.0001 140C101.654 140 124.561 123.957 134.592 101H130.198C120.437 121.686 99.39 136 75.0001 136Z" fill="#FB5108"/>
<path d="M49.7717 93V58H62.3717C65.1717 58 67.4883 58.4833 69.3217 59.45C71.155 60.3833 72.5217 61.65 73.4217 63.25C74.3217 64.85 74.7717 66.6833 74.7717 68.75C74.7717 70.6833 74.3383 72.4667 73.4717 74.1C72.605 75.7 71.255 77 69.4217 78C67.5883 78.9667 65.2383 79.45 62.3717 79.45H55.7717V93H49.7717ZM55.7717 74.55H62.0217C64.3883 74.55 66.0883 74.0333 67.1217 73C68.155 71.9333 68.6717 70.5167 68.6717 68.75C68.6717 66.9167 68.155 65.4833 67.1217 64.45C66.0883 63.4167 64.3883 62.9 62.0217 62.9H55.7717V74.55ZM102.047 93V58H108.047V93H102.047ZM79.9475 93V58H85.9475V93H79.9475ZM85.0475 77.6V72.7H103.197V77.6H85.0475ZM115.153 93V58H127.753C130.553 58 132.869 58.4833 134.703 59.45C136.536 60.3833 137.903 61.65 138.803 63.25C139.703 64.85 140.153 66.6833 140.153 68.75C140.153 70.6833 139.719 72.4667 138.853 74.1C137.986 75.7 136.636 77 134.803 78C132.969 78.9667 130.619 79.45 127.753 79.45H121.153V93H115.153ZM121.153 74.55H127.403C129.769 74.55 131.469 74.0333 132.503 73C133.536 71.9333 134.053 70.5167 134.053 68.75C134.053 66.9167 133.536 65.4833 132.503 64.45C131.469 63.4167 129.769 62.9 127.403 62.9H121.153V74.55Z" fill="white"/>
</svg>
