<svg width="150" height="150" viewBox="0 0 150 150" fill="none" xmlns="http://www.w3.org/2000/svg">
<path fill-rule="evenodd" clip-rule="evenodd" d="M0 75C0 33.5786 33.5786 0 75 0C116.421 0 150 33.5786 150 75C150 116.421 116.421 150 75 150C33.5786 150 0 116.421 0 75ZM10.19 58C9.53274 58 9 58.5328 9 59.19V63.61C9 64.2672 9.53274 64.8 10.19 64.8H14.61C15.2673 64.8 15.8 65.3328 15.8 65.99V70.41C15.8 71.0673 15.2673 71.6 14.61 71.6H10.19C9.53274 71.6 9 72.1328 9 72.79V74.507C9 74.8312 9.12966 75.1252 9.34 75.3398L15.4602 81.46C15.6748 81.6703 15.9688 81.8 16.293 81.8H23.45C24.1073 81.8 24.64 82.3328 24.64 82.99V84.01C24.64 84.6673 24.1073 85.2 23.45 85.2H10.19C9.53274 85.2 9 85.7328 9 86.39V90.81C9 91.4672 9.53274 92 10.19 92H28.21C28.8673 92 29.4 91.4672 29.4 90.81V86.39C29.4 85.7327 29.9327 85.2 30.59 85.2H35.01C35.6673 85.2 36.2 85.7328 36.2 86.39V90.81C36.2 91.4672 36.7327 92 37.39 92H41.81C42.4673 92 43 91.4672 43 90.81V86.39C43 85.7328 42.4673 85.2 41.81 85.2H37.39C36.7327 85.2 36.2 84.6672 36.2 84.01V82.293C36.2 81.9688 36.0703 81.6748 35.86 81.4602L29.7398 75.34C29.5252 75.1297 29.2312 75 28.907 75H21.75C21.0927 75 20.56 74.4672 20.56 73.81V72.79C20.56 72.1327 21.0927 71.6 21.75 71.6H35.01C35.6673 71.6 36.2 71.0672 36.2 70.41V65.99C36.2 65.3328 35.6673 64.8 35.01 64.8H16.99C16.3327 64.8 15.8 64.2672 15.8 63.61V59.19C15.8 58.5328 15.2673 58 14.61 58H10.19ZM75.0001 14C99.39 14 120.437 28.3142 130.198 49H134.592C124.561 26.0432 101.654 10 75.0001 10C48.346 10 25.4389 26.0432 15.4087 49H19.8027C29.5635 28.3142 50.6102 14 75.0001 14ZM75.0001 136C50.6102 136 29.5635 121.686 19.8027 101H15.4087C25.4389 123.957 48.346 140 75.0001 140C101.654 140 124.561 123.957 134.592 101H130.198C120.437 121.686 99.39 136 75.0001 136Z" fill="#FB5108"/>
<path d="M51.6389 93V58H64.2389C67.0389 58 69.3555 58.4833 71.1889 59.45C73.0222 60.3833 74.3889 61.65 75.2889 63.25C76.1889 64.85 76.6389 66.6833 76.6389 68.75C76.6389 70.6833 76.2055 72.4667 75.3389 74.1C74.4722 75.7 73.1222 77 71.2889 78C69.4555 78.9667 67.1055 79.45 64.2389 79.45H57.6389V93H51.6389ZM57.6389 74.55H63.8889C66.2555 74.55 67.9555 74.0333 68.9889 73C70.0222 71.9333 70.5389 70.5167 70.5389 68.75C70.5389 66.9167 70.0222 65.4833 68.9889 64.45C67.9555 63.4167 66.2555 62.9 63.8889 62.9H57.6389V74.55ZM81.8146 93V58H87.8146V72.45L101.015 58H108.465L95.5146 71.9L108.765 93H101.465L91.2646 76.5L87.8146 80.25V93H81.8146ZM113.455 93V58H126.005C128.772 58 131.055 58.4833 132.855 59.45C134.689 60.3833 136.039 61.65 136.905 63.25C137.805 64.8167 138.255 66.6 138.255 68.6C138.255 70.4667 137.822 72.2 136.955 73.8C136.089 75.4 134.739 76.6833 132.905 77.65C131.072 78.6167 128.722 79.1 125.855 79.1H119.455V93H113.455ZM131.705 93L124.355 77.55H130.855L138.555 93H131.705ZM119.455 74.65H125.605C127.839 74.65 129.472 74.1167 130.505 73.05C131.572 71.95 132.105 70.5167 132.105 68.75C132.105 67.0167 131.589 65.6333 130.555 64.6C129.522 63.5333 127.872 63 125.605 63H119.455V74.65Z" fill="white"/>
</svg>
