<svg width="150" height="150" viewBox="0 0 150 150" fill="none" xmlns="http://www.w3.org/2000/svg">
<path fill-rule="evenodd" clip-rule="evenodd" d="M0 75C0 33.5786 33.5786 0 75 0C116.421 0 150 33.5786 150 75C150 116.421 116.421 150 75 150C33.5786 150 0 116.421 0 75ZM10.19 58C9.53274 58 9 58.5328 9 59.19V63.61C9 64.2672 9.53274 64.8 10.19 64.8H14.61C15.2673 64.8 15.8 65.3328 15.8 65.99V70.41C15.8 71.0673 15.2673 71.6 14.61 71.6H10.19C9.53274 71.6 9 72.1328 9 72.79V74.507C9 74.8312 9.12966 75.1252 9.34 75.3398L15.4602 81.46C15.6748 81.6703 15.9688 81.8 16.293 81.8H23.45C24.1073 81.8 24.64 82.3328 24.64 82.99V84.01C24.64 84.6673 24.1073 85.2 23.45 85.2H10.19C9.53274 85.2 9 85.7328 9 86.39V90.81C9 91.4672 9.53274 92 10.19 92H28.21C28.8673 92 29.4 91.4672 29.4 90.81V86.39C29.4 85.7327 29.9327 85.2 30.59 85.2H35.01C35.6673 85.2 36.2 85.7328 36.2 86.39V90.81C36.2 91.4672 36.7327 92 37.39 92H41.81C42.4673 92 43 91.4672 43 90.81V86.39C43 85.7328 42.4673 85.2 41.81 85.2H37.39C36.7327 85.2 36.2 84.6672 36.2 84.01V82.293C36.2 81.9688 36.0703 81.6748 35.86 81.4602L29.7398 75.34C29.5252 75.1297 29.2312 75 28.907 75H21.75C21.0927 75 20.56 74.4672 20.56 73.81V72.79C20.56 72.1327 21.0927 71.6 21.75 71.6H35.01C35.6673 71.6 36.2 71.0672 36.2 70.41V65.99C36.2 65.3328 35.6673 64.8 35.01 64.8H16.99C16.3327 64.8 15.8 64.2672 15.8 63.61V59.19C15.8 58.5328 15.2673 58 14.61 58H10.19ZM75.0001 14C99.39 14 120.437 28.3142 130.198 49H134.592C124.561 26.0432 101.654 10 75.0001 10C48.346 10 25.4389 26.0432 15.4087 49H19.8027C29.5635 28.3142 50.6102 14 75.0001 14ZM75.0001 136C50.6102 136 29.5635 121.686 19.8027 101H15.4087C25.4389 123.957 48.346 140 75.0001 140C101.654 140 124.561 123.957 134.592 101H130.198C120.437 121.686 99.39 136 75.0001 136Z" fill="#FB5108"/>
<path d="M51.0148 93V58H63.6148C66.4148 58 68.7315 58.4833 70.5648 59.45C72.3982 60.3833 73.7648 61.65 74.6648 63.25C75.5648 64.85 76.0148 66.6833 76.0148 68.75C76.0148 70.6833 75.5815 72.4667 74.7148 74.1C73.8482 75.7 72.4982 77 70.6648 78C68.8315 78.9667 66.4815 79.45 63.6148 79.45H57.0148V93H51.0148ZM57.0148 74.55H63.2648C65.6315 74.55 67.3315 74.0333 68.3648 73C69.3982 71.9333 69.9148 70.5167 69.9148 68.75C69.9148 66.9167 69.3982 65.4833 68.3648 64.45C67.3315 63.4167 65.6315 62.9 63.2648 62.9H57.0148V74.55ZM87.7488 93V80.4L76.0988 58H82.8988L91.4488 75.8H90.1488L98.6988 58H105.449L93.7488 80.4V93H87.7488ZM120.712 93.6C117.412 93.6 114.512 92.85 112.012 91.35C109.545 89.85 107.629 87.7667 106.262 85.1C104.895 82.4 104.212 79.25 104.212 75.65C104.212 72.0833 104.912 68.9333 106.312 66.2C107.712 63.4333 109.712 61.2833 112.312 59.75C114.945 58.1833 118.062 57.4 121.662 57.4C125.729 57.4 129.095 58.3833 131.762 60.35C134.462 62.2833 136.212 64.9833 137.012 68.45H130.262C129.762 66.7167 128.779 65.3667 127.312 64.4C125.845 63.4333 123.945 62.95 121.612 62.95C119.245 62.95 117.212 63.4667 115.512 64.5C113.845 65.5 112.562 66.9667 111.662 68.9C110.795 70.8 110.362 73.0667 110.362 75.7C110.362 78.3333 110.795 80.6 111.662 82.5C112.562 84.4 113.829 85.85 115.462 86.85C117.095 87.8167 119.012 88.3 121.212 88.3C124.479 88.3 126.945 87.3833 128.612 85.55C130.279 83.7167 131.262 81.3333 131.562 78.4H122.512V73.85H137.612V93H132.112L131.612 88.2C130.845 89.3333 129.962 90.3167 128.962 91.15C127.962 91.95 126.779 92.5667 125.412 93C124.079 93.4 122.512 93.6 120.712 93.6Z" fill="white"/>
</svg>
