<svg width="150" height="150" viewBox="0 0 150 150" fill="none" xmlns="http://www.w3.org/2000/svg">
<path fill-rule="evenodd" clip-rule="evenodd" d="M0 75C0 33.5786 33.5786 0 75 0C116.421 0 150 33.5786 150 75C150 116.421 116.421 150 75 150C33.5786 150 0 116.421 0 75ZM10.19 58C9.53274 58 9 58.5328 9 59.19V63.61C9 64.2672 9.53274 64.8 10.19 64.8H14.61C15.2673 64.8 15.8 65.3328 15.8 65.99V70.41C15.8 71.0673 15.2673 71.6 14.61 71.6H10.19C9.53274 71.6 9 72.1328 9 72.79V74.507C9 74.8312 9.12966 75.1252 9.34 75.3398L15.4602 81.46C15.6748 81.6703 15.9688 81.8 16.293 81.8H23.45C24.1073 81.8 24.64 82.3328 24.64 82.99V84.01C24.64 84.6673 24.1073 85.2 23.45 85.2H10.19C9.53274 85.2 9 85.7328 9 86.39V90.81C9 91.4672 9.53274 92 10.19 92H28.21C28.8673 92 29.4 91.4672 29.4 90.81V86.39C29.4 85.7327 29.9327 85.2 30.59 85.2H35.01C35.6673 85.2 36.2 85.7328 36.2 86.39V90.81C36.2 91.4672 36.7327 92 37.39 92H41.81C42.4673 92 43 91.4672 43 90.81V86.39C43 85.7328 42.4673 85.2 41.81 85.2H37.39C36.7327 85.2 36.2 84.6672 36.2 84.01V82.293C36.2 81.9688 36.0703 81.6748 35.86 81.4602L29.7398 75.34C29.5252 75.1297 29.2312 75 28.907 75H21.75C21.0927 75 20.56 74.4672 20.56 73.81V72.79C20.56 72.1327 21.0927 71.6 21.75 71.6H35.01C35.6673 71.6 36.2 71.0672 36.2 70.41V65.99C36.2 65.3328 35.6673 64.8 35.01 64.8H16.99C16.3327 64.8 15.8 64.2672 15.8 63.61V59.19C15.8 58.5328 15.2673 58 14.61 58H10.19ZM75.0001 14C99.39 14 120.437 28.3142 130.198 49H134.592C124.561 26.0432 101.654 10 75.0001 10C48.346 10 25.4389 26.0432 15.4087 49H19.8027C29.5635 28.3142 50.6102 14 75.0001 14ZM75.0001 136C50.6102 136 29.5635 121.686 19.8027 101H15.4087C25.4389 123.957 48.346 140 75.0001 140C101.654 140 124.561 123.957 134.592 101H130.198C120.437 121.686 99.39 136 75.0001 136Z" fill="#FB5108"/>
<path d="M72.1059 96.83L60.6519 78.89H66.9999L78.6379 96.83H72.1059ZM64.1939 92.552C61.0966 92.552 58.3519 91.862 55.9599 90.482C53.5986 89.0713 51.7432 87.124 50.3939 84.64C49.0446 82.1253 48.3699 79.212 48.3699 75.9C48.3699 72.6187 49.0446 69.736 50.3939 67.252C51.7432 64.7373 53.5986 62.7747 55.9599 61.364C58.3519 59.9533 61.0966 59.248 64.1939 59.248C67.3526 59.248 70.1279 59.9533 72.5199 61.364C74.9119 62.7747 76.7672 64.7373 78.0859 67.252C79.4046 69.736 80.0639 72.6187 80.0639 75.9C80.0639 79.212 79.4046 82.1253 78.0859 84.64C76.7672 87.124 74.9119 89.0713 72.5199 90.482C70.1279 91.862 67.3526 92.552 64.1939 92.552ZM64.2399 87.584C66.2946 87.584 68.0886 87.124 69.6219 86.204C71.1552 85.2533 72.3359 83.904 73.1639 82.156C73.9919 80.408 74.4059 78.3227 74.4059 75.9C74.4059 73.4773 73.9919 71.392 73.1639 69.644C72.3359 67.896 71.1552 66.562 69.6219 65.642C68.0886 64.6913 66.2946 64.216 64.2399 64.216C62.1852 64.216 60.3912 64.6913 58.8579 65.642C57.3246 66.562 56.1286 67.896 55.2699 69.644C54.4419 71.392 54.0279 73.4773 54.0279 75.9C54.0279 78.3227 54.4419 80.408 55.2699 82.156C56.1286 83.904 57.3246 85.2533 58.8579 86.204C60.3912 87.124 62.1852 87.584 64.2399 87.584ZM83.3414 92L95.1174 59.8H101.281L113.057 92H107.215L98.1534 66.24L89.0914 92H83.3414ZM88.5854 84.41L90.0574 80.04H105.927L107.399 84.41H88.5854ZM117.487 92V59.8H129.033C131.578 59.8 133.679 60.2447 135.335 61.134C137.021 61.9927 138.263 63.158 139.061 64.63C139.889 66.0713 140.303 67.712 140.303 69.552C140.303 71.2693 139.904 72.864 139.107 74.336C138.309 75.808 137.067 76.9887 135.381 77.878C133.694 78.7673 131.532 79.212 128.895 79.212H123.007V92H117.487ZM134.277 92L127.515 77.786H133.495L140.579 92H134.277ZM123.007 75.118H128.665C130.719 75.118 132.222 74.6273 133.173 73.646C134.154 72.634 134.645 71.3153 134.645 69.69C134.645 68.0953 134.169 66.8227 133.219 65.872C132.268 64.8907 130.75 64.4 128.665 64.4H123.007V75.118Z" fill="white"/>
</svg>
