<svg width="150" height="150" viewBox="0 0 150 150" fill="none" xmlns="http://www.w3.org/2000/svg">
<path fill-rule="evenodd" clip-rule="evenodd" d="M0 75C0 33.5786 33.5786 0 75 0C116.421 0 150 33.5786 150 75C150 116.421 116.421 150 75 150C33.5786 150 0 116.421 0 75ZM10.19 58C9.53274 58 9 58.5328 9 59.19V63.61C9 64.2672 9.53274 64.8 10.19 64.8H14.61C15.2673 64.8 15.8 65.3328 15.8 65.99V70.41C15.8 71.0673 15.2673 71.6 14.61 71.6H10.19C9.53274 71.6 9 72.1328 9 72.79V74.507C9 74.8312 9.12966 75.1252 9.34 75.3398L15.4602 81.46C15.6748 81.6703 15.9688 81.8 16.293 81.8H23.45C24.1073 81.8 24.64 82.3328 24.64 82.99V84.01C24.64 84.6673 24.1073 85.2 23.45 85.2H10.19C9.53274 85.2 9 85.7328 9 86.39V90.81C9 91.4672 9.53274 92 10.19 92H28.21C28.8673 92 29.4 91.4672 29.4 90.81V86.39C29.4 85.7327 29.9327 85.2 30.59 85.2H35.01C35.6673 85.2 36.2 85.7328 36.2 86.39V90.81C36.2 91.4672 36.7327 92 37.39 92H41.81C42.4673 92 43 91.4672 43 90.81V86.39C43 85.7328 42.4673 85.2 41.81 85.2H37.39C36.7327 85.2 36.2 84.6672 36.2 84.01V82.293C36.2 81.9688 36.0703 81.6748 35.86 81.4602L29.7398 75.34C29.5252 75.1297 29.2312 75 28.907 75H21.75C21.0927 75 20.56 74.4672 20.56 73.81V72.79C20.56 72.1327 21.0927 71.6 21.75 71.6H35.01C35.6673 71.6 36.2 71.0672 36.2 70.41V65.99C36.2 65.3328 35.6673 64.8 35.01 64.8H16.99C16.3327 64.8 15.8 64.2672 15.8 63.61V59.19C15.8 58.5328 15.2673 58 14.61 58H10.19ZM75.0001 14C99.39 14 120.437 28.3142 130.198 49H134.592C124.561 26.0432 101.654 10 75.0001 10C48.346 10 25.4389 26.0432 15.4087 49H19.8027C29.5635 28.3142 50.6102 14 75.0001 14ZM75.0001 136C50.6102 136 29.5635 121.686 19.8027 101H15.4087C25.4389 123.957 48.346 140 75.0001 140C101.654 140 124.561 123.957 134.592 101H130.198C120.437 121.686 99.39 136 75.0001 136Z" fill="#FB5108"/>
<path d="M50.3658 92V59.8H61.9118C64.4571 59.8 66.5578 60.2447 68.2138 61.134C69.9004 61.9927 71.1424 63.158 71.9398 64.63C72.7678 66.0713 73.1818 67.712 73.1818 69.552C73.1818 71.2693 72.7831 72.864 71.9858 74.336C71.1884 75.808 69.9464 76.9887 68.2598 77.878C66.5731 78.7673 64.4111 79.212 61.7738 79.212H55.8858V92H50.3658ZM67.1558 92L60.3938 77.786H66.3738L73.4578 92H67.1558ZM55.8858 75.118H61.5438C63.5984 75.118 65.1011 74.6273 66.0518 73.646C67.0331 72.634 67.5238 71.3153 67.5238 69.69C67.5238 68.0953 67.0484 66.8227 66.0978 65.872C65.1471 64.8907 63.6291 64.4 61.5438 64.4H55.8858V75.118ZM91.7252 92.552C88.6278 92.552 85.8832 91.862 83.4912 90.482C81.1298 89.0713 79.2745 87.124 77.9252 84.64C76.5758 82.1253 75.9012 79.212 75.9012 75.9C75.9012 72.6187 76.5758 69.736 77.9252 67.252C79.2745 64.7373 81.1298 62.7747 83.4912 61.364C85.8832 59.9533 88.6278 59.248 91.7252 59.248C94.8838 59.248 97.6592 59.9533 100.051 61.364C102.443 62.7747 104.298 64.7373 105.617 67.252C106.936 69.736 107.595 72.6187 107.595 75.9C107.595 79.212 106.936 82.1253 105.617 84.64C104.298 87.124 102.443 89.0713 100.051 90.482C97.6592 91.862 94.8838 92.552 91.7252 92.552ZM91.7712 87.584C93.8258 87.584 95.6198 87.124 97.1532 86.204C98.6865 85.2533 99.8672 83.904 100.695 82.156C101.523 80.408 101.937 78.3227 101.937 75.9C101.937 73.4773 101.523 71.392 100.695 69.644C99.8672 67.896 98.6865 66.562 97.1532 65.642C95.6198 64.6913 93.8258 64.216 91.7712 64.216C89.7165 64.216 87.9225 64.6913 86.3892 65.642C84.8558 66.562 83.6598 67.896 82.8012 69.644C81.9732 71.392 81.5592 73.4773 81.5592 75.9C81.5592 78.3227 81.9732 80.408 82.8012 82.156C83.6598 83.904 84.8558 85.2533 86.3892 86.204C87.9225 87.124 89.7165 87.584 91.7712 87.584ZM111.149 92V59.8H116.669L132.171 83.076V59.8H137.691V92H132.171L116.669 68.77V92H111.149Z" fill="white"/>
</svg>
