<svg width="150" height="150" viewBox="0 0 150 150" fill="none" xmlns="http://www.w3.org/2000/svg">
<path fill-rule="evenodd" clip-rule="evenodd" d="M0 75C0 33.5786 33.5786 0 75 0C116.421 0 150 33.5786 150 75C150 116.421 116.421 150 75 150C33.5786 150 0 116.421 0 75ZM10.19 58C9.53274 58 9 58.5328 9 59.19V63.61C9 64.2672 9.53274 64.8 10.19 64.8H14.61C15.2673 64.8 15.8 65.3328 15.8 65.99V70.41C15.8 71.0673 15.2673 71.6 14.61 71.6H10.19C9.53274 71.6 9 72.1328 9 72.79V74.507C9 74.8312 9.12966 75.1252 9.34 75.3398L15.4602 81.46C15.6748 81.6703 15.9688 81.8 16.293 81.8H23.45C24.1073 81.8 24.64 82.3328 24.64 82.99V84.01C24.64 84.6673 24.1073 85.2 23.45 85.2H10.19C9.53274 85.2 9 85.7328 9 86.39V90.81C9 91.4672 9.53274 92 10.19 92H28.21C28.8673 92 29.4 91.4672 29.4 90.81V86.39C29.4 85.7327 29.9327 85.2 30.59 85.2H35.01C35.6673 85.2 36.2 85.7328 36.2 86.39V90.81C36.2 91.4672 36.7327 92 37.39 92H41.81C42.4673 92 43 91.4672 43 90.81V86.39C43 85.7328 42.4673 85.2 41.81 85.2H37.39C36.7327 85.2 36.2 84.6672 36.2 84.01V82.293C36.2 81.9688 36.0703 81.6748 35.86 81.4602L29.7398 75.34C29.5252 75.1297 29.2312 75 28.907 75H21.75C21.0927 75 20.56 74.4672 20.56 73.81V72.79C20.56 72.1327 21.0927 71.6 21.75 71.6H35.01C35.6673 71.6 36.2 71.0672 36.2 70.41V65.99C36.2 65.3328 35.6673 64.8 35.01 64.8H16.99C16.3327 64.8 15.8 64.2672 15.8 63.61V59.19C15.8 58.5328 15.2673 58 14.61 58H10.19ZM75.0001 14C99.39 14 120.437 28.3142 130.198 49H134.592C124.561 26.0432 101.654 10 75.0001 10C48.346 10 25.4389 26.0432 15.4087 49H19.8027C29.5635 28.3142 50.6102 14 75.0001 14ZM75.0001 136C50.6102 136 29.5635 121.686 19.8027 101H15.4087C25.4389 123.957 48.346 140 75.0001 140C101.654 140 124.561 123.957 134.592 101H130.198C120.437 121.686 99.39 136 75.0001 136Z" fill="#FB5108"/>
<path d="M49.6008 93V58H62.1508C64.9174 58 67.2008 58.4833 69.0008 59.45C70.8341 60.3833 72.1841 61.65 73.0508 63.25C73.9508 64.8167 74.4008 66.6 74.4008 68.6C74.4008 70.4667 73.9674 72.2 73.1008 73.8C72.2341 75.4 70.8841 76.6833 69.0508 77.65C67.2174 78.6167 64.8674 79.1 62.0008 79.1H55.6008V93H49.6008ZM67.8508 93L60.5008 77.55H67.0008L74.7008 93H67.8508ZM55.6008 74.65H61.7508C63.9841 74.65 65.6174 74.1167 66.6508 73.05C67.7174 71.95 68.2508 70.5167 68.2508 68.75C68.2508 67.0167 67.7341 65.6333 66.7008 64.6C65.6674 63.5333 64.0174 63 61.7508 63H55.6008V74.65ZM92.3566 93.6C89.8233 93.6 87.5733 93.15 85.6066 92.25C83.64 91.35 82.1066 90.0667 81.0066 88.4C79.9066 86.7333 79.34 84.75 79.3066 82.45H85.6566C85.6566 83.6167 85.9233 84.6667 86.4566 85.6C87.0233 86.5 87.79 87.2167 88.7566 87.75C89.7566 88.2833 90.9566 88.55 92.3566 88.55C93.5566 88.55 94.59 88.3667 95.4566 88C96.3566 87.6 97.04 87.05 97.5066 86.35C98.0066 85.6167 98.2566 84.7667 98.2566 83.8C98.2566 82.7 97.99 81.8 97.4566 81.1C96.9566 80.3667 96.2566 79.75 95.3566 79.25C94.4566 78.75 93.4233 78.3167 92.2566 77.95C91.09 77.55 89.8566 77.1333 88.5566 76.7C85.79 75.7667 83.7066 74.5833 82.3066 73.15C80.9066 71.6833 80.2066 69.7333 80.2066 67.3C80.2066 65.2667 80.69 63.5167 81.6566 62.05C82.6233 60.5833 83.9733 59.45 85.7066 58.65C87.4733 57.8167 89.5066 57.4 91.8066 57.4C94.14 57.4 96.1733 57.8167 97.9066 58.65C99.6733 59.4833 101.057 60.65 102.057 62.15C103.09 63.6167 103.623 65.3833 103.657 67.45H97.2566C97.2233 66.5833 96.99 65.7833 96.5566 65.05C96.1233 64.2833 95.49 63.6667 94.6566 63.2C93.8566 62.7 92.8733 62.45 91.7066 62.45C90.7066 62.4167 89.8066 62.5833 89.0066 62.95C88.24 63.2833 87.6233 63.7833 87.1566 64.45C86.7233 65.0833 86.5066 65.8833 86.5066 66.85C86.5066 67.7833 86.7066 68.5667 87.1066 69.2C87.54 69.8 88.1566 70.3167 88.9566 70.75C89.7566 71.15 90.69 71.5333 91.7566 71.9C92.8233 72.2667 93.99 72.6667 95.2566 73.1C96.99 73.6667 98.5566 74.3667 99.9566 75.2C101.39 76 102.523 77.05 103.357 78.35C104.19 79.65 104.607 81.3333 104.607 83.4C104.607 85.2 104.14 86.8833 103.207 88.45C102.273 89.9833 100.907 91.2333 99.1066 92.2C97.3066 93.1333 95.0566 93.6 92.3566 93.6ZM110.441 93V58H121.741C125.807 58 129.157 58.7167 131.791 60.15C134.457 61.5833 136.424 63.6167 137.691 66.25C138.991 68.85 139.641 71.95 139.641 75.55C139.641 79.0833 138.991 82.1667 137.691 84.8C136.424 87.4 134.457 89.4167 131.791 90.85C129.157 92.2833 125.807 93 121.741 93H110.441ZM116.441 87.9H121.441C124.474 87.9 126.857 87.4167 128.591 86.45C130.357 85.45 131.607 84.0333 132.341 82.2C133.107 80.3333 133.491 78.1167 133.491 75.55C133.491 72.95 133.107 70.7333 132.341 68.9C131.607 67.0333 130.357 65.6 128.591 64.6C126.857 63.5667 124.474 63.05 121.441 63.05H116.441V87.9Z" fill="white"/>
</svg>
