<svg width="150" height="150" viewBox="0 0 150 150" fill="none" xmlns="http://www.w3.org/2000/svg">
<path fill-rule="evenodd" clip-rule="evenodd" d="M0 75C0 33.5786 33.5786 0 75 0C116.421 0 150 33.5786 150 75C150 116.421 116.421 150 75 150C33.5786 150 0 116.421 0 75ZM10.19 58C9.53274 58 9 58.5328 9 59.19V63.61C9 64.2672 9.53274 64.8 10.19 64.8H14.61C15.2673 64.8 15.8 65.3328 15.8 65.99V70.41C15.8 71.0673 15.2673 71.6 14.61 71.6H10.19C9.53274 71.6 9 72.1328 9 72.79V74.507C9 74.8312 9.12966 75.1252 9.34 75.3398L15.4602 81.46C15.6748 81.6703 15.9688 81.8 16.293 81.8H23.45C24.1073 81.8 24.64 82.3328 24.64 82.99V84.01C24.64 84.6673 24.1073 85.2 23.45 85.2H10.19C9.53274 85.2 9 85.7328 9 86.39V90.81C9 91.4672 9.53274 92 10.19 92H28.21C28.8673 92 29.4 91.4672 29.4 90.81V86.39C29.4 85.7327 29.9327 85.2 30.59 85.2H35.01C35.6673 85.2 36.2 85.7328 36.2 86.39V90.81C36.2 91.4672 36.7327 92 37.39 92H41.81C42.4673 92 43 91.4672 43 90.81V86.39C43 85.7328 42.4673 85.2 41.81 85.2H37.39C36.7327 85.2 36.2 84.6672 36.2 84.01V82.293C36.2 81.9688 36.0703 81.6748 35.86 81.4602L29.7398 75.34C29.5252 75.1297 29.2312 75 28.907 75H21.75C21.0927 75 20.56 74.4672 20.56 73.81V72.79C20.56 72.1327 21.0927 71.6 21.75 71.6H35.01C35.6673 71.6 36.2 71.0672 36.2 70.41V65.99C36.2 65.3328 35.6673 64.8 35.01 64.8H16.99C16.3327 64.8 15.8 64.2672 15.8 63.61V59.19C15.8 58.5328 15.2673 58 14.61 58H10.19ZM75.0001 14C99.39 14 120.437 28.3142 130.198 49H134.592C124.561 26.0432 101.654 10 75.0001 10C48.346 10 25.4389 26.0432 15.4087 49H19.8027C29.5635 28.3142 50.6102 14 75.0001 14ZM75.0001 136C50.6102 136 29.5635 121.686 19.8027 101H15.4087C25.4389 123.957 48.346 140 75.0001 140C101.654 140 124.561 123.957 134.592 101H130.198C120.437 121.686 99.39 136 75.0001 136Z" fill="#FB5108"/>
<path d="M49.9543 93V58H62.5043C65.271 58 67.5543 58.4833 69.3543 59.45C71.1876 60.3833 72.5376 61.65 73.4043 63.25C74.3043 64.8167 74.7543 66.6 74.7543 68.6C74.7543 70.4667 74.321 72.2 73.4543 73.8C72.5876 75.4 71.2376 76.6833 69.4043 77.65C67.571 78.6167 65.221 79.1 62.3543 79.1H55.9543V93H49.9543ZM68.2043 93L60.8543 77.55H67.3543L75.0543 93H68.2043ZM55.9543 74.65H62.1043C64.3376 74.65 65.971 74.1167 67.0043 73.05C68.071 71.95 68.6043 70.5167 68.6043 68.75C68.6043 67.0167 68.0876 65.6333 67.0543 64.6C66.021 63.5333 64.371 63 62.1043 63H55.9543V74.65ZM94.2102 93.6C91.6768 93.6 89.3768 93.1 87.3102 92.1C85.2768 91.1 83.6435 89.5667 82.4102 87.5C81.2102 85.4333 80.6102 82.8333 80.6102 79.7V58H86.6102V79.75C86.6102 81.65 86.9268 83.2167 87.5602 84.45C88.1935 85.6833 89.0768 86.6167 90.2102 87.25C91.3768 87.85 92.7435 88.15 94.3102 88.15C95.9102 88.15 97.2768 87.85 98.4102 87.25C99.5768 86.6167 100.46 85.6833 101.06 84.45C101.693 83.2167 102.01 81.65 102.01 79.75V58H108.01V79.7C108.01 82.8333 107.393 85.4333 106.16 87.5C104.927 89.5667 103.26 91.1 101.16 92.1C99.0602 93.1 96.7435 93.6 94.2102 93.6ZM114.749 93V58H128.449C130.916 58 132.966 58.3833 134.599 59.15C136.266 59.9167 137.516 60.9833 138.349 62.35C139.183 63.6833 139.599 65.2333 139.599 67C139.599 68.7667 139.216 70.25 138.449 71.45C137.683 72.65 136.666 73.5667 135.399 74.2C134.166 74.8333 132.816 75.2167 131.349 75.35L132.099 74.8C133.666 74.8333 135.066 75.25 136.299 76.05C137.566 76.85 138.566 77.9 139.299 79.2C140.033 80.4667 140.399 81.8833 140.399 83.45C140.399 85.2833 139.949 86.9333 139.049 88.4C138.183 89.8333 136.899 90.9667 135.199 91.8C133.499 92.6 131.416 93 128.949 93H114.749ZM120.749 88.1H128.049C130.016 88.1 131.549 87.6333 132.649 86.7C133.749 85.7667 134.299 84.4667 134.299 82.8C134.299 81.1333 133.733 79.8167 132.599 78.85C131.466 77.85 129.916 77.35 127.949 77.35H120.749V88.1ZM120.749 72.8H127.599C129.533 72.8 130.999 72.3667 131.999 71.5C132.999 70.6 133.499 69.3667 133.499 67.8C133.499 66.2667 132.999 65.0667 131.999 64.2C130.999 63.3 129.516 62.85 127.549 62.85H120.749V72.8Z" fill="white"/>
</svg>
