<svg width="150" height="150" viewBox="0 0 150 150" fill="none" xmlns="http://www.w3.org/2000/svg">
<path fill-rule="evenodd" clip-rule="evenodd" d="M0 75C0 33.5786 33.5786 0 75 0C116.421 0 150 33.5786 150 75C150 116.421 116.421 150 75 150C33.5786 150 0 116.421 0 75ZM10.19 58C9.53274 58 9 58.5328 9 59.19V63.61C9 64.2672 9.53274 64.8 10.19 64.8H14.61C15.2673 64.8 15.8 65.3328 15.8 65.99V70.41C15.8 71.0673 15.2673 71.6 14.61 71.6H10.19C9.53274 71.6 9 72.1328 9 72.79V74.507C9 74.8312 9.12966 75.1252 9.34 75.3398L15.4602 81.46C15.6748 81.6703 15.9688 81.8 16.293 81.8H23.45C24.1073 81.8 24.64 82.3328 24.64 82.99V84.01C24.64 84.6673 24.1073 85.2 23.45 85.2H10.19C9.53274 85.2 9 85.7328 9 86.39V90.81C9 91.4672 9.53274 92 10.19 92H28.21C28.8673 92 29.4 91.4672 29.4 90.81V86.39C29.4 85.7327 29.9327 85.2 30.59 85.2H35.01C35.6673 85.2 36.2 85.7328 36.2 86.39V90.81C36.2 91.4672 36.7327 92 37.39 92H41.81C42.4673 92 43 91.4672 43 90.81V86.39C43 85.7328 42.4673 85.2 41.81 85.2H37.39C36.7327 85.2 36.2 84.6672 36.2 84.01V82.293C36.2 81.9688 36.0703 81.6748 35.86 81.4602L29.7398 75.34C29.5252 75.1297 29.2312 75 28.907 75H21.75C21.0927 75 20.56 74.4672 20.56 73.81V72.79C20.56 72.1327 21.0927 71.6 21.75 71.6H35.01C35.6673 71.6 36.2 71.0672 36.2 70.41V65.99C36.2 65.3328 35.6673 64.8 35.01 64.8H16.99C16.3327 64.8 15.8 64.2672 15.8 63.61V59.19C15.8 58.5328 15.2673 58 14.61 58H10.19ZM75.0001 14C99.39 14 120.437 28.3142 130.198 49H134.592C124.561 26.0432 101.654 10 75.0001 10C48.346 10 25.4389 26.0432 15.4087 49H19.8027C29.5635 28.3142 50.6102 14 75.0001 14ZM75.0001 136C50.6102 136 29.5635 121.686 19.8027 101H15.4087C25.4389 123.957 48.346 140 75.0001 140C101.654 140 124.561 123.957 134.592 101H130.198C120.437 121.686 99.39 136 75.0001 136Z" fill="#FB5108"/>
<path d="M49.355 92V59.8H60.901C63.4464 59.8 65.547 60.2447 67.203 61.134C68.8897 61.9927 70.1317 63.158 70.929 64.63C71.757 66.0713 72.171 67.712 72.171 69.552C72.171 71.2693 71.7724 72.864 70.975 74.336C70.1777 75.808 68.9357 76.9887 67.249 77.878C65.5624 78.7673 63.4004 79.212 60.763 79.212H54.875V92H49.355ZM66.145 92L59.383 77.786H65.363L72.447 92H66.145ZM54.875 75.118H60.533C62.5877 75.118 64.0904 74.6273 65.041 73.646C66.0224 72.634 66.513 71.3153 66.513 69.69C66.513 68.0953 66.0377 66.8227 65.087 65.872C64.1364 64.8907 62.6184 64.4 60.533 64.4H54.875V75.118ZM82.0772 92L73.5212 59.8H79.4092L85.4352 85.698L92.4272 59.8H98.5452L105.307 85.744L111.379 59.8H117.313L108.527 92H101.995L95.3712 67.62L88.5632 92H82.0772ZM119.886 92V59.8H140.448V64.262H125.406V73.692H137.688V78.062H125.406V92H119.886Z" fill="white"/>
</svg>
