<svg width="150" height="150" viewBox="0 0 150 150" fill="none" xmlns="http://www.w3.org/2000/svg">
<path fill-rule="evenodd" clip-rule="evenodd" d="M0 75C0 33.5786 33.5786 0 75 0C116.421 0 150 33.5786 150 75C150 116.421 116.421 150 75 150C33.5786 150 0 116.421 0 75ZM10.19 58C9.53274 58 9 58.5328 9 59.19V63.61C9 64.2672 9.53274 64.8 10.19 64.8H14.61C15.2673 64.8 15.8 65.3328 15.8 65.99V70.41C15.8 71.0673 15.2673 71.6 14.61 71.6H10.19C9.53274 71.6 9 72.1328 9 72.79V74.507C9 74.8312 9.12966 75.1252 9.34 75.3398L15.4602 81.46C15.6748 81.6703 15.9688 81.8 16.293 81.8H23.45C24.1073 81.8 24.64 82.3328 24.64 82.99V84.01C24.64 84.6673 24.1073 85.2 23.45 85.2H10.19C9.53274 85.2 9 85.7328 9 86.39V90.81C9 91.4672 9.53274 92 10.19 92H28.21C28.8673 92 29.4 91.4672 29.4 90.81V86.39C29.4 85.7327 29.9327 85.2 30.59 85.2H35.01C35.6673 85.2 36.2 85.7328 36.2 86.39V90.81C36.2 91.4672 36.7327 92 37.39 92H41.81C42.4673 92 43 91.4672 43 90.81V86.39C43 85.7328 42.4673 85.2 41.81 85.2H37.39C36.7327 85.2 36.2 84.6672 36.2 84.01V82.293C36.2 81.9688 36.0703 81.6748 35.86 81.4602L29.7398 75.34C29.5252 75.1297 29.2312 75 28.907 75H21.75C21.0927 75 20.56 74.4672 20.56 73.81V72.79C20.56 72.1327 21.0927 71.6 21.75 71.6H35.01C35.6673 71.6 36.2 71.0672 36.2 70.41V65.99C36.2 65.3328 35.6673 64.8 35.01 64.8H16.99C16.3327 64.8 15.8 64.2672 15.8 63.61V59.19C15.8 58.5328 15.2673 58 14.61 58H10.19ZM75.0001 14C99.39 14 120.437 28.3142 130.198 49H134.592C124.561 26.0432 101.654 10 75.0001 10C48.346 10 25.4389 26.0432 15.4087 49H19.8027C29.5635 28.3142 50.6102 14 75.0001 14ZM75.0001 136C50.6102 136 29.5635 121.686 19.8027 101H15.4087C25.4389 123.957 48.346 140 75.0001 140C101.654 140 124.561 123.957 134.592 101H130.198C120.437 121.686 99.39 136 75.0001 136Z" fill="#FB5108"/>
<path d="M61.4729 93.6C58.9395 93.6 56.6895 93.15 54.7229 92.25C52.7562 91.35 51.2229 90.0667 50.1229 88.4C49.0229 86.7333 48.4562 84.75 48.4229 82.45H54.7729C54.7729 83.6167 55.0395 84.6667 55.5729 85.6C56.1395 86.5 56.9062 87.2167 57.8729 87.75C58.8729 88.2833 60.0729 88.55 61.4729 88.55C62.6729 88.55 63.7062 88.3667 64.5729 88C65.4729 87.6 66.1562 87.05 66.6229 86.35C67.1229 85.6167 67.3729 84.7667 67.3729 83.8C67.3729 82.7 67.1062 81.8 66.5729 81.1C66.0729 80.3667 65.3729 79.75 64.4729 79.25C63.5729 78.75 62.5395 78.3167 61.3729 77.95C60.2062 77.55 58.9729 77.1333 57.6729 76.7C54.9062 75.7667 52.8229 74.5833 51.4229 73.15C50.0229 71.6833 49.3229 69.7333 49.3229 67.3C49.3229 65.2667 49.8062 63.5167 50.7729 62.05C51.7395 60.5833 53.0895 59.45 54.8229 58.65C56.5895 57.8167 58.6229 57.4 60.9229 57.4C63.2562 57.4 65.2895 57.8167 67.0229 58.65C68.7895 59.4833 70.1729 60.65 71.1729 62.15C72.2062 63.6167 72.7395 65.3833 72.7729 67.45H66.3729C66.3395 66.5833 66.1062 65.7833 65.6729 65.05C65.2395 64.2833 64.6062 63.6667 63.7729 63.2C62.9729 62.7 61.9895 62.45 60.8229 62.45C59.8229 62.4167 58.9229 62.5833 58.1229 62.95C57.3562 63.2833 56.7395 63.7833 56.2729 64.45C55.8395 65.0833 55.6229 65.8833 55.6229 66.85C55.6229 67.7833 55.8229 68.5667 56.2229 69.2C56.6562 69.8 57.2729 70.3167 58.0729 70.75C58.8729 71.15 59.8062 71.5333 60.8729 71.9C61.9395 72.2667 63.1062 72.6667 64.3729 73.1C66.1062 73.6667 67.6729 74.3667 69.0729 75.2C70.5062 76 71.6395 77.05 72.4729 78.35C73.3062 79.65 73.7229 81.3333 73.7229 83.4C73.7229 85.2 73.2562 86.8833 72.3229 88.45C71.3895 89.9833 70.0229 91.2333 68.2229 92.2C66.4229 93.1333 64.1729 93.6 61.4729 93.6ZM77.2568 93L90.0568 58H96.7568L109.557 93H103.207L93.3568 65L83.5068 93H77.2568ZM82.9568 84.75L84.5568 80H101.807L103.407 84.75H82.9568ZM114.371 93V58H126.921C129.688 58 131.971 58.4833 133.771 59.45C135.605 60.3833 136.955 61.65 137.821 63.25C138.721 64.8167 139.171 66.6 139.171 68.6C139.171 70.4667 138.738 72.2 137.871 73.8C137.005 75.4 135.655 76.6833 133.821 77.65C131.988 78.6167 129.638 79.1 126.771 79.1H120.371V93H114.371ZM132.621 93L125.271 77.55H131.771L139.471 93H132.621ZM120.371 74.65H126.521C128.755 74.65 130.388 74.1167 131.421 73.05C132.488 71.95 133.021 70.5167 133.021 68.75C133.021 67.0167 132.505 65.6333 131.471 64.6C130.438 63.5333 128.788 63 126.521 63H120.371V74.65Z" fill="white"/>
</svg>
