<svg width="150" height="150" viewBox="0 0 150 150" fill="none" xmlns="http://www.w3.org/2000/svg">
<path fill-rule="evenodd" clip-rule="evenodd" d="M0 75C0 33.5786 33.5786 0 75 0C116.421 0 150 33.5786 150 75C150 116.421 116.421 150 75 150C33.5786 150 0 116.421 0 75ZM10.19 58C9.53274 58 9 58.5328 9 59.19V63.61C9 64.2672 9.53274 64.8 10.19 64.8H14.61C15.2673 64.8 15.8 65.3328 15.8 65.99V70.41C15.8 71.0673 15.2673 71.6 14.61 71.6H10.19C9.53274 71.6 9 72.1328 9 72.79V74.507C9 74.8312 9.12966 75.1252 9.34 75.3398L15.4602 81.46C15.6748 81.6703 15.9688 81.8 16.293 81.8H23.45C24.1073 81.8 24.64 82.3328 24.64 82.99V84.01C24.64 84.6673 24.1073 85.2 23.45 85.2H10.19C9.53274 85.2 9 85.7328 9 86.39V90.81C9 91.4672 9.53274 92 10.19 92H28.21C28.8673 92 29.4 91.4672 29.4 90.81V86.39C29.4 85.7327 29.9327 85.2 30.59 85.2H35.01C35.6673 85.2 36.2 85.7328 36.2 86.39V90.81C36.2 91.4672 36.7327 92 37.39 92H41.81C42.4673 92 43 91.4672 43 90.81V86.39C43 85.7328 42.4673 85.2 41.81 85.2H37.39C36.7327 85.2 36.2 84.6672 36.2 84.01V82.293C36.2 81.9688 36.0703 81.6748 35.86 81.4602L29.7398 75.34C29.5252 75.1297 29.2312 75 28.907 75H21.75C21.0927 75 20.56 74.4672 20.56 73.81V72.79C20.56 72.1327 21.0927 71.6 21.75 71.6H35.01C35.6673 71.6 36.2 71.0672 36.2 70.41V65.99C36.2 65.3328 35.6673 64.8 35.01 64.8H16.99C16.3327 64.8 15.8 64.2672 15.8 63.61V59.19C15.8 58.5328 15.2673 58 14.61 58H10.19ZM75.0001 14C99.39 14 120.437 28.3142 130.198 49H134.592C124.561 26.0432 101.654 10 75.0001 10C48.346 10 25.4389 26.0432 15.4087 49H19.8027C29.5635 28.3142 50.6102 14 75.0001 14ZM75.0001 136C50.6102 136 29.5635 121.686 19.8027 101H15.4087C25.4389 123.957 48.346 140 75.0001 140C101.654 140 124.561 123.957 134.592 101H130.198C120.437 121.686 99.39 136 75.0001 136Z" fill="#FB5108"/>
<path d="M61.6555 93.6C59.1221 93.6 56.8721 93.15 54.9055 92.25C52.9388 91.35 51.4055 90.0667 50.3055 88.4C49.2055 86.7333 48.6388 84.75 48.6055 82.45H54.9555C54.9555 83.6167 55.2221 84.6667 55.7555 85.6C56.3221 86.5 57.0888 87.2167 58.0555 87.75C59.0555 88.2833 60.2555 88.55 61.6555 88.55C62.8555 88.55 63.8888 88.3667 64.7555 88C65.6555 87.6 66.3388 87.05 66.8055 86.35C67.3055 85.6167 67.5555 84.7667 67.5555 83.8C67.5555 82.7 67.2888 81.8 66.7555 81.1C66.2555 80.3667 65.5555 79.75 64.6555 79.25C63.7555 78.75 62.7221 78.3167 61.5555 77.95C60.3888 77.55 59.1555 77.1333 57.8555 76.7C55.0888 75.7667 53.0055 74.5833 51.6055 73.15C50.2055 71.6833 49.5055 69.7333 49.5055 67.3C49.5055 65.2667 49.9888 63.5167 50.9555 62.05C51.9221 60.5833 53.2721 59.45 55.0055 58.65C56.7721 57.8167 58.8055 57.4 61.1055 57.4C63.4388 57.4 65.4721 57.8167 67.2055 58.65C68.9721 59.4833 70.3555 60.65 71.3555 62.15C72.3888 63.6167 72.9221 65.3833 72.9555 67.45H66.5555C66.5221 66.5833 66.2888 65.7833 65.8555 65.05C65.4221 64.2833 64.7888 63.6667 63.9555 63.2C63.1555 62.7 62.1721 62.45 61.0055 62.45C60.0055 62.4167 59.1055 62.5833 58.3055 62.95C57.5388 63.2833 56.9221 63.7833 56.4555 64.45C56.0221 65.0833 55.8055 65.8833 55.8055 66.85C55.8055 67.7833 56.0055 68.5667 56.4055 69.2C56.8388 69.8 57.4555 70.3167 58.2555 70.75C59.0555 71.15 59.9888 71.5333 61.0555 71.9C62.1221 72.2667 63.2888 72.6667 64.5555 73.1C66.2888 73.6667 67.8555 74.3667 69.2555 75.2C70.6888 76 71.8221 77.05 72.6555 78.35C73.4888 79.65 73.9055 81.3333 73.9055 83.4C73.9055 85.2 73.4388 86.8833 72.5055 88.45C71.5721 89.9833 70.2055 91.2333 68.4055 92.2C66.6055 93.1333 64.3555 93.6 61.6555 93.6ZM79.7395 93V58H93.4395C95.9061 58 97.9561 58.3833 99.5895 59.15C101.256 59.9167 102.506 60.9833 103.339 62.35C104.173 63.6833 104.589 65.2333 104.589 67C104.589 68.7667 104.206 70.25 103.439 71.45C102.673 72.65 101.656 73.5667 100.389 74.2C99.1561 74.8333 97.8061 75.2167 96.3395 75.35L97.0895 74.8C98.6561 74.8333 100.056 75.25 101.289 76.05C102.556 76.85 103.556 77.9 104.289 79.2C105.023 80.4667 105.389 81.8833 105.389 83.45C105.389 85.2833 104.939 86.9333 104.039 88.4C103.173 89.8333 101.889 90.9667 100.189 91.8C98.4895 92.6 96.4061 93 93.9395 93H79.7395ZM85.7395 88.1H93.0395C95.0061 88.1 96.5395 87.6333 97.6395 86.7C98.7395 85.7667 99.2895 84.4667 99.2895 82.8C99.2895 81.1333 98.7228 79.8167 97.5895 78.85C96.4561 77.85 94.9061 77.35 92.9395 77.35H85.7395V88.1ZM85.7395 72.8H92.5895C94.5228 72.8 95.9895 72.3667 96.9895 71.5C97.9895 70.6 98.4895 69.3667 98.4895 67.8C98.4895 66.2667 97.9895 65.0667 96.9895 64.2C95.9895 63.3 94.5061 62.85 92.5395 62.85H85.7395V72.8ZM111.136 93V58H122.436C126.503 58 129.853 58.7167 132.486 60.15C135.153 61.5833 137.119 63.6167 138.386 66.25C139.686 68.85 140.336 71.95 140.336 75.55C140.336 79.0833 139.686 82.1667 138.386 84.8C137.119 87.4 135.153 89.4167 132.486 90.85C129.853 92.2833 126.503 93 122.436 93H111.136ZM117.136 87.9H122.136C125.169 87.9 127.553 87.4167 129.286 86.45C131.053 85.45 132.303 84.0333 133.036 82.2C133.803 80.3333 134.186 78.1167 134.186 75.55C134.186 72.95 133.803 70.7333 133.036 68.9C132.303 67.0333 131.053 65.6 129.286 64.6C127.553 63.5667 125.169 63.05 122.136 63.05H117.136V87.9Z" fill="white"/>
</svg>
