<svg width="150" height="150" viewBox="0 0 150 150" fill="none" xmlns="http://www.w3.org/2000/svg">
<path fill-rule="evenodd" clip-rule="evenodd" d="M0 75C0 33.5786 33.5786 0 75 0C116.421 0 150 33.5786 150 75C150 116.421 116.421 150 75 150C33.5786 150 0 116.421 0 75ZM10.19 58C9.53274 58 9 58.5328 9 59.19V63.61C9 64.2672 9.53274 64.8 10.19 64.8H14.61C15.2673 64.8 15.8 65.3328 15.8 65.99V70.41C15.8 71.0673 15.2673 71.6 14.61 71.6H10.19C9.53274 71.6 9 72.1328 9 72.79V74.507C9 74.8312 9.12966 75.1252 9.34 75.3398L15.4602 81.46C15.6748 81.6703 15.9688 81.8 16.293 81.8H23.45C24.1073 81.8 24.64 82.3328 24.64 82.99V84.01C24.64 84.6673 24.1073 85.2 23.45 85.2H10.19C9.53274 85.2 9 85.7328 9 86.39V90.81C9 91.4672 9.53274 92 10.19 92H28.21C28.8673 92 29.4 91.4672 29.4 90.81V86.39C29.4 85.7327 29.9327 85.2 30.59 85.2H35.01C35.6673 85.2 36.2 85.7328 36.2 86.39V90.81C36.2 91.4672 36.7327 92 37.39 92H41.81C42.4673 92 43 91.4672 43 90.81V86.39C43 85.7328 42.4673 85.2 41.81 85.2H37.39C36.7327 85.2 36.2 84.6672 36.2 84.01V82.293C36.2 81.9688 36.0703 81.6748 35.86 81.4602L29.7398 75.34C29.5252 75.1297 29.2312 75 28.907 75H21.75C21.0927 75 20.56 74.4672 20.56 73.81V72.79C20.56 72.1327 21.0927 71.6 21.75 71.6H35.01C35.6673 71.6 36.2 71.0672 36.2 70.41V65.99C36.2 65.3328 35.6673 64.8 35.01 64.8H16.99C16.3327 64.8 15.8 64.2672 15.8 63.61V59.19C15.8 58.5328 15.2673 58 14.61 58H10.19ZM75.0001 14C99.39 14 120.437 28.3142 130.198 49H134.592C124.561 26.0432 101.654 10 75.0001 10C48.346 10 25.4389 26.0432 15.4087 49H19.8027C29.5635 28.3142 50.6102 14 75.0001 14ZM75.0001 136C50.6102 136 29.5635 121.686 19.8027 101H15.4087C25.4389 123.957 48.346 140 75.0001 140C101.654 140 124.561 123.957 134.592 101H130.198C120.437 121.686 99.39 136 75.0001 136Z" fill="#FB5108"/>
<path d="M60.5695 93.6C58.0362 93.6 55.7862 93.15 53.8195 92.25C51.8529 91.35 50.3195 90.0667 49.2195 88.4C48.1195 86.7333 47.5529 84.75 47.5195 82.45H53.8695C53.8695 83.6167 54.1362 84.6667 54.6695 85.6C55.2362 86.5 56.0029 87.2167 56.9695 87.75C57.9695 88.2833 59.1695 88.55 60.5695 88.55C61.7695 88.55 62.8029 88.3667 63.6695 88C64.5695 87.6 65.2529 87.05 65.7195 86.35C66.2195 85.6167 66.4695 84.7667 66.4695 83.8C66.4695 82.7 66.2029 81.8 65.6695 81.1C65.1695 80.3667 64.4695 79.75 63.5695 79.25C62.6695 78.75 61.6362 78.3167 60.4695 77.95C59.3029 77.55 58.0695 77.1333 56.7695 76.7C54.0029 75.7667 51.9195 74.5833 50.5195 73.15C49.1195 71.6833 48.4195 69.7333 48.4195 67.3C48.4195 65.2667 48.9029 63.5167 49.8695 62.05C50.8362 60.5833 52.1862 59.45 53.9195 58.65C55.6862 57.8167 57.7195 57.4 60.0195 57.4C62.3529 57.4 64.3862 57.8167 66.1195 58.65C67.8862 59.4833 69.2695 60.65 70.2695 62.15C71.3029 63.6167 71.8362 65.3833 71.8695 67.45H65.4695C65.4362 66.5833 65.2029 65.7833 64.7695 65.05C64.3362 64.2833 63.7029 63.6667 62.8695 63.2C62.0695 62.7 61.0862 62.45 59.9195 62.45C58.9195 62.4167 58.0195 62.5833 57.2195 62.95C56.4529 63.2833 55.8362 63.7833 55.3695 64.45C54.9362 65.0833 54.7195 65.8833 54.7195 66.85C54.7195 67.7833 54.9195 68.5667 55.3195 69.2C55.7529 69.8 56.3695 70.3167 57.1695 70.75C57.9695 71.15 58.9029 71.5333 59.9695 71.9C61.0362 72.2667 62.2029 72.6667 63.4695 73.1C65.2029 73.6667 66.7695 74.3667 68.1695 75.2C69.6029 76 70.7362 77.05 71.5695 78.35C72.4029 79.65 72.8195 81.3333 72.8195 83.4C72.8195 85.2 72.3529 86.8833 71.4195 88.45C70.4862 89.9833 69.1195 91.2333 67.3195 92.2C65.5195 93.1333 63.2695 93.6 60.5695 93.6ZM94.2035 93.6C90.7369 93.6 87.7368 92.85 85.2035 91.35C82.7035 89.8167 80.7702 87.7 79.4035 85C78.0702 82.2667 77.4035 79.1167 77.4035 75.55C77.4035 71.95 78.0702 68.8 79.4035 66.1C80.7702 63.3667 82.7035 61.2333 85.2035 59.7C87.7368 58.1667 90.7369 57.4 94.2035 57.4C98.3702 57.4 101.77 58.4333 104.404 60.5C107.037 62.5333 108.704 65.4167 109.404 69.15H102.804C102.337 67.1833 101.387 65.6333 99.9535 64.5C98.5202 63.3667 96.5869 62.8 94.1535 62.8C91.9535 62.8 90.0535 63.3167 88.4535 64.35C86.8868 65.35 85.6702 66.8167 84.8035 68.75C83.9702 70.65 83.5535 72.9167 83.5535 75.55C83.5535 78.1833 83.9702 80.45 84.8035 82.35C85.6702 84.2167 86.8868 85.6667 88.4535 86.7C90.0535 87.7 91.9535 88.2 94.1535 88.2C96.5869 88.2 98.5202 87.6833 99.9535 86.65C101.387 85.5833 102.337 84.1167 102.804 82.25H109.404C108.737 85.7833 107.07 88.5667 104.404 90.6C101.77 92.6 98.3702 93.6 94.2035 93.6ZM115.275 93V58H127.825C130.591 58 132.875 58.4833 134.675 59.45C136.508 60.3833 137.858 61.65 138.725 63.25C139.625 64.8167 140.075 66.6 140.075 68.6C140.075 70.4667 139.641 72.2 138.775 73.8C137.908 75.4 136.558 76.6833 134.725 77.65C132.891 78.6167 130.541 79.1 127.675 79.1H121.275V93H115.275ZM133.525 93L126.175 77.55H132.675L140.375 93H133.525ZM121.275 74.65H127.425C129.658 74.65 131.291 74.1167 132.325 73.05C133.391 71.95 133.925 70.5167 133.925 68.75C133.925 67.0167 133.408 65.6333 132.375 64.6C131.341 63.5333 129.691 63 127.425 63H121.275V74.65Z" fill="white"/>
</svg>
