<svg width="150" height="150" viewBox="0 0 150 150" fill="none" xmlns="http://www.w3.org/2000/svg">
<path fill-rule="evenodd" clip-rule="evenodd" d="M0 75C0 33.5786 33.5786 0 75 0C116.421 0 150 33.5786 150 75C150 116.421 116.421 150 75 150C33.5786 150 0 116.421 0 75ZM10.19 58C9.53274 58 9 58.5328 9 59.19V63.61C9 64.2672 9.53274 64.8 10.19 64.8H14.61C15.2673 64.8 15.8 65.3328 15.8 65.99V70.41C15.8 71.0673 15.2673 71.6 14.61 71.6H10.19C9.53274 71.6 9 72.1328 9 72.79V74.507C9 74.8312 9.12966 75.1252 9.34 75.3398L15.4602 81.46C15.6748 81.6703 15.9688 81.8 16.293 81.8H23.45C24.1073 81.8 24.64 82.3328 24.64 82.99V84.01C24.64 84.6673 24.1073 85.2 23.45 85.2H10.19C9.53274 85.2 9 85.7328 9 86.39V90.81C9 91.4672 9.53274 92 10.19 92H28.21C28.8673 92 29.4 91.4672 29.4 90.81V86.39C29.4 85.7327 29.9327 85.2 30.59 85.2H35.01C35.6673 85.2 36.2 85.7328 36.2 86.39V90.81C36.2 91.4672 36.7327 92 37.39 92H41.81C42.4673 92 43 91.4672 43 90.81V86.39C43 85.7328 42.4673 85.2 41.81 85.2H37.39C36.7327 85.2 36.2 84.6672 36.2 84.01V82.293C36.2 81.9688 36.0703 81.6748 35.86 81.4602L29.7398 75.34C29.5252 75.1297 29.2312 75 28.907 75H21.75C21.0927 75 20.56 74.4672 20.56 73.81V72.79C20.56 72.1327 21.0927 71.6 21.75 71.6H35.01C35.6673 71.6 36.2 71.0672 36.2 70.41V65.99C36.2 65.3328 35.6673 64.8 35.01 64.8H16.99C16.3327 64.8 15.8 64.2672 15.8 63.61V59.19C15.8 58.5328 15.2673 58 14.61 58H10.19ZM75.0001 14C99.39 14 120.437 28.3142 130.198 49H134.592C124.561 26.0432 101.654 10 75.0001 10C48.346 10 25.4389 26.0432 15.4087 49H19.8027C29.5635 28.3142 50.6102 14 75.0001 14ZM75.0001 136C50.6102 136 29.5635 121.686 19.8027 101H15.4087C25.4389 123.957 48.346 140 75.0001 140C101.654 140 124.561 123.957 134.592 101H130.198C120.437 121.686 99.39 136 75.0001 136Z" fill="#FB5108"/>
<path d="M60.4588 92.552C58.1281 92.552 56.0581 92.138 54.2488 91.31C52.4395 90.482 51.0288 89.3013 50.0168 87.768C49.0048 86.2347 48.4835 84.41 48.4528 82.294H54.2948C54.2948 83.3673 54.5401 84.3333 55.0308 85.192C55.5521 86.02 56.2575 86.6793 57.1468 87.17C58.0668 87.6607 59.1708 87.906 60.4588 87.906C61.5628 87.906 62.5135 87.7373 63.3108 87.4C64.1388 87.032 64.7675 86.526 65.1968 85.882C65.6568 85.2073 65.8868 84.4253 65.8868 83.536C65.8868 82.524 65.6415 81.696 65.1508 81.052C64.6908 80.3773 64.0468 79.81 63.2188 79.35C62.3908 78.89 61.4401 78.4913 60.3668 78.154C59.2935 77.786 58.1588 77.4027 56.9628 77.004C54.4175 76.1453 52.5008 75.0567 51.2128 73.738C49.9248 72.3887 49.2808 70.5947 49.2808 68.356C49.2808 66.4853 49.7255 64.8753 50.6148 63.526C51.5041 62.1767 52.7461 61.134 54.3408 60.398C55.9661 59.6313 57.8368 59.248 59.9528 59.248C62.0995 59.248 63.9701 59.6313 65.5648 60.398C67.1901 61.1647 68.4628 62.238 69.3828 63.618C70.3335 64.9673 70.8241 66.5927 70.8548 68.494H64.9668C64.9361 67.6967 64.7215 66.9607 64.3228 66.286C63.9241 65.5807 63.3415 65.0133 62.5748 64.584C61.8388 64.124 60.9341 63.894 59.8608 63.894C58.9408 63.8633 58.1128 64.0167 57.3768 64.354C56.6715 64.6607 56.1041 65.1207 55.6748 65.734C55.2761 66.3167 55.0768 67.0527 55.0768 67.942C55.0768 68.8007 55.2608 69.5213 55.6288 70.104C56.0275 70.656 56.5948 71.1313 57.3308 71.53C58.0668 71.898 58.9255 72.2507 59.9068 72.588C60.8881 72.9253 61.9615 73.2933 63.1268 73.692C64.7215 74.2133 66.1628 74.8573 67.4508 75.624C68.7695 76.36 69.8121 77.326 70.5788 78.522C71.3455 79.718 71.7288 81.2667 71.7288 83.168C71.7288 84.824 71.2995 86.3727 70.4408 87.814C69.5821 89.2247 68.3248 90.3747 66.6688 91.264C65.0128 92.1227 62.9428 92.552 60.4588 92.552ZM77.0961 92V59.8H87.4921C91.2334 59.8 94.3154 60.4593 96.7381 61.778C99.1914 63.0967 101.001 64.9673 102.166 67.39C103.362 69.782 103.96 72.634 103.96 75.946C103.96 79.1967 103.362 82.0333 102.166 84.456C101.001 86.848 99.1914 88.7033 96.7381 90.022C94.3154 91.3407 91.2334 92 87.4921 92H77.0961ZM82.6161 87.308H87.2161C90.0067 87.308 92.1994 86.8633 93.7941 85.974C95.4194 85.054 96.5694 83.7507 97.2441 82.064C97.9494 80.3467 98.3021 78.3073 98.3021 75.946C98.3021 73.554 97.9494 71.5147 97.2441 69.828C96.5694 68.1107 95.4194 66.792 93.7941 65.872C92.1994 64.9213 90.0067 64.446 87.2161 64.446H82.6161V87.308ZM123.38 92.552C120.344 92.552 117.676 91.862 115.376 90.482C113.107 89.102 111.343 87.1853 110.086 84.732C108.829 82.248 108.2 79.35 108.2 76.038C108.2 72.7567 108.844 69.8587 110.132 67.344C111.42 64.7987 113.26 62.8207 115.652 61.41C118.075 59.9687 120.942 59.248 124.254 59.248C127.995 59.248 131.093 60.1527 133.546 61.962C136.03 63.7407 137.64 66.2247 138.376 69.414H132.166C131.706 67.8193 130.801 66.5773 129.452 65.688C128.103 64.7987 126.355 64.354 124.208 64.354C122.031 64.354 120.16 64.8293 118.596 65.78C117.063 66.7 115.882 68.0493 115.054 69.828C114.257 71.576 113.858 73.6613 113.858 76.084C113.858 78.5067 114.257 80.592 115.054 82.34C115.882 84.088 117.047 85.422 118.55 86.342C120.053 87.2313 121.816 87.676 123.84 87.676C126.845 87.676 129.115 86.8327 130.648 85.146C132.181 83.4593 133.086 81.2667 133.362 78.568H125.036V74.382H138.928V92H133.868L133.408 87.584C132.703 88.6267 131.89 89.5313 130.97 90.298C130.05 91.034 128.961 91.6013 127.704 92C126.477 92.368 125.036 92.552 123.38 92.552Z" fill="white"/>
</svg>
