<svg width="150" height="150" viewBox="0 0 150 150" fill="none" xmlns="http://www.w3.org/2000/svg">
<path fill-rule="evenodd" clip-rule="evenodd" d="M0 75C0 33.5786 33.5786 0 75 0C116.421 0 150 33.5786 150 75C150 116.421 116.421 150 75 150C33.5786 150 0 116.421 0 75ZM10.19 58C9.53274 58 9 58.5328 9 59.19V63.61C9 64.2672 9.53274 64.8 10.19 64.8H14.61C15.2673 64.8 15.8 65.3328 15.8 65.99V70.41C15.8 71.0673 15.2673 71.6 14.61 71.6H10.19C9.53274 71.6 9 72.1328 9 72.79V74.507C9 74.8312 9.12966 75.1252 9.34 75.3398L15.4602 81.46C15.6748 81.6703 15.9688 81.8 16.293 81.8H23.45C24.1073 81.8 24.64 82.3328 24.64 82.99V84.01C24.64 84.6673 24.1073 85.2 23.45 85.2H10.19C9.53274 85.2 9 85.7328 9 86.39V90.81C9 91.4672 9.53274 92 10.19 92H28.21C28.8673 92 29.4 91.4672 29.4 90.81V86.39C29.4 85.7327 29.9327 85.2 30.59 85.2H35.01C35.6673 85.2 36.2 85.7328 36.2 86.39V90.81C36.2 91.4672 36.7327 92 37.39 92H41.81C42.4673 92 43 91.4672 43 90.81V86.39C43 85.7328 42.4673 85.2 41.81 85.2H37.39C36.7327 85.2 36.2 84.6672 36.2 84.01V82.293C36.2 81.9688 36.0703 81.6748 35.86 81.4602L29.7398 75.34C29.5252 75.1297 29.2312 75 28.907 75H21.75C21.0927 75 20.56 74.4672 20.56 73.81V72.79C20.56 72.1327 21.0927 71.6 21.75 71.6H35.01C35.6673 71.6 36.2 71.0672 36.2 70.41V65.99C36.2 65.3328 35.6673 64.8 35.01 64.8H16.99C16.3327 64.8 15.8 64.2672 15.8 63.61V59.19C15.8 58.5328 15.2673 58 14.61 58H10.19ZM75.0001 14C99.39 14 120.437 28.3142 130.198 49H134.592C124.561 26.0432 101.654 10 75.0001 10C48.346 10 25.4389 26.0432 15.4087 49H19.8027C29.5635 28.3142 50.6102 14 75.0001 14ZM75.0001 136C50.6102 136 29.5635 121.686 19.8027 101H15.4087C25.4389 123.957 48.346 140 75.0001 140C101.654 140 124.561 123.957 134.592 101H130.198C120.437 121.686 99.39 136 75.0001 136Z" fill="#FB5108"/>
<path d="M64.6096 93.6C62.0762 93.6 59.8262 93.15 57.8596 92.25C55.8929 91.35 54.3596 90.0667 53.2596 88.4C52.1596 86.7333 51.5929 84.75 51.5596 82.45H57.9096C57.9096 83.6167 58.1762 84.6667 58.7096 85.6C59.2762 86.5 60.0429 87.2167 61.0096 87.75C62.0096 88.2833 63.2096 88.55 64.6096 88.55C65.8096 88.55 66.8429 88.3667 67.7096 88C68.6096 87.6 69.2929 87.05 69.7596 86.35C70.2596 85.6167 70.5096 84.7667 70.5096 83.8C70.5096 82.7 70.2429 81.8 69.7096 81.1C69.2096 80.3667 68.5096 79.75 67.6096 79.25C66.7096 78.75 65.6762 78.3167 64.5096 77.95C63.3429 77.55 62.1096 77.1333 60.8096 76.7C58.0429 75.7667 55.9596 74.5833 54.5596 73.15C53.1596 71.6833 52.4596 69.7333 52.4596 67.3C52.4596 65.2667 52.9429 63.5167 53.9096 62.05C54.8762 60.5833 56.2262 59.45 57.9596 58.65C59.7262 57.8167 61.7596 57.4 64.0596 57.4C66.3929 57.4 68.4262 57.8167 70.1596 58.65C71.9262 59.4833 73.3096 60.65 74.3096 62.15C75.3429 63.6167 75.8762 65.3833 75.9096 67.45H69.5096C69.4762 66.5833 69.2429 65.7833 68.8096 65.05C68.3762 64.2833 67.7429 63.6667 66.9096 63.2C66.1096 62.7 65.1262 62.45 63.9596 62.45C62.9596 62.4167 62.0596 62.5833 61.2596 62.95C60.4929 63.2833 59.8762 63.7833 59.4096 64.45C58.9762 65.0833 58.7596 65.8833 58.7596 66.85C58.7596 67.7833 58.9596 68.5667 59.3596 69.2C59.7929 69.8 60.4096 70.3167 61.2096 70.75C62.0096 71.15 62.9429 71.5333 64.0096 71.9C65.0762 72.2667 66.2429 72.6667 67.5096 73.1C69.2429 73.6667 70.8096 74.3667 72.2096 75.2C73.6429 76 74.7762 77.05 75.6096 78.35C76.4429 79.65 76.8596 81.3333 76.8596 83.4C76.8596 85.2 76.3929 86.8833 75.4596 88.45C74.5262 89.9833 73.1596 91.2333 71.3596 92.2C69.5596 93.1333 67.3096 93.6 64.6096 93.6ZM82.6936 93V58H105.294V62.85H88.6936V72.9H103.794V77.65H88.6936V88.15H105.294V93H82.6936ZM111.6 93V58H117.6V72.45L130.8 58H138.25L125.3 71.9L138.55 93H131.25L121.05 76.5L117.6 80.25V93H111.6Z" fill="white"/>
</svg>
