<svg width="150" height="150" viewBox="0 0 150 150" fill="none" xmlns="http://www.w3.org/2000/svg">
<path fill-rule="evenodd" clip-rule="evenodd" d="M0 75C0 33.5786 33.5786 0 75 0C116.421 0 150 33.5786 150 75C150 116.421 116.421 150 75 150C33.5786 150 0 116.421 0 75ZM10.19 58C9.53274 58 9 58.5328 9 59.19V63.61C9 64.2672 9.53274 64.8 10.19 64.8H14.61C15.2673 64.8 15.8 65.3328 15.8 65.99V70.41C15.8 71.0673 15.2673 71.6 14.61 71.6H10.19C9.53274 71.6 9 72.1328 9 72.79V74.507C9 74.8312 9.12966 75.1252 9.34 75.3398L15.4602 81.46C15.6748 81.6703 15.9688 81.8 16.293 81.8H23.45C24.1073 81.8 24.64 82.3328 24.64 82.99V84.01C24.64 84.6673 24.1073 85.2 23.45 85.2H10.19C9.53274 85.2 9 85.7328 9 86.39V90.81C9 91.4672 9.53274 92 10.19 92H28.21C28.8673 92 29.4 91.4672 29.4 90.81V86.39C29.4 85.7327 29.9327 85.2 30.59 85.2H35.01C35.6673 85.2 36.2 85.7328 36.2 86.39V90.81C36.2 91.4672 36.7327 92 37.39 92H41.81C42.4673 92 43 91.4672 43 90.81V86.39C43 85.7328 42.4673 85.2 41.81 85.2H37.39C36.7327 85.2 36.2 84.6672 36.2 84.01V82.293C36.2 81.9688 36.0703 81.6748 35.86 81.4602L29.7398 75.34C29.5252 75.1297 29.2312 75 28.907 75H21.75C21.0927 75 20.56 74.4672 20.56 73.81V72.79C20.56 72.1327 21.0927 71.6 21.75 71.6H35.01C35.6673 71.6 36.2 71.0672 36.2 70.41V65.99C36.2 65.3328 35.6673 64.8 35.01 64.8H16.99C16.3327 64.8 15.8 64.2672 15.8 63.61V59.19C15.8 58.5328 15.2673 58 14.61 58H10.19ZM75.0001 14C99.39 14 120.437 28.3142 130.198 49H134.592C124.561 26.0432 101.654 10 75.0001 10C48.346 10 25.4389 26.0432 15.4087 49H19.8027C29.5635 28.3142 50.6102 14 75.0001 14ZM75.0001 136C50.6102 136 29.5635 121.686 19.8027 101H15.4087C25.4389 123.957 48.346 140 75.0001 140C101.654 140 124.561 123.957 134.592 101H130.198C120.437 121.686 99.39 136 75.0001 136Z" fill="#FB5108"/>
<path d="M60.4588 92.552C58.1281 92.552 56.0581 92.138 54.2488 91.31C52.4395 90.482 51.0288 89.3013 50.0168 87.768C49.0048 86.2347 48.4835 84.41 48.4528 82.294H54.2948C54.2948 83.3673 54.5401 84.3333 55.0308 85.192C55.5521 86.02 56.2575 86.6793 57.1468 87.17C58.0668 87.6607 59.1708 87.906 60.4588 87.906C61.5628 87.906 62.5135 87.7373 63.3108 87.4C64.1388 87.032 64.7675 86.526 65.1968 85.882C65.6568 85.2073 65.8868 84.4253 65.8868 83.536C65.8868 82.524 65.6415 81.696 65.1508 81.052C64.6908 80.3773 64.0468 79.81 63.2188 79.35C62.3908 78.89 61.4401 78.4913 60.3668 78.154C59.2935 77.786 58.1588 77.4027 56.9628 77.004C54.4175 76.1453 52.5008 75.0567 51.2128 73.738C49.9248 72.3887 49.2808 70.5947 49.2808 68.356C49.2808 66.4853 49.7255 64.8753 50.6148 63.526C51.5041 62.1767 52.7461 61.134 54.3408 60.398C55.9661 59.6313 57.8368 59.248 59.9528 59.248C62.0995 59.248 63.9701 59.6313 65.5648 60.398C67.1901 61.1647 68.4628 62.238 69.3828 63.618C70.3335 64.9673 70.8241 66.5927 70.8548 68.494H64.9668C64.9361 67.6967 64.7215 66.9607 64.3228 66.286C63.9241 65.5807 63.3415 65.0133 62.5748 64.584C61.8388 64.124 60.9341 63.894 59.8608 63.894C58.9408 63.8633 58.1128 64.0167 57.3768 64.354C56.6715 64.6607 56.1041 65.1207 55.6748 65.734C55.2761 66.3167 55.0768 67.0527 55.0768 67.942C55.0768 68.8007 55.2608 69.5213 55.6288 70.104C56.0275 70.656 56.5948 71.1313 57.3308 71.53C58.0668 71.898 58.9255 72.2507 59.9068 72.588C60.8881 72.9253 61.9615 73.2933 63.1268 73.692C64.7215 74.2133 66.1628 74.8573 67.4508 75.624C68.7695 76.36 69.8121 77.326 70.5788 78.522C71.3455 79.718 71.7288 81.2667 71.7288 83.168C71.7288 84.824 71.2995 86.3727 70.4408 87.814C69.5821 89.2247 68.3248 90.3747 66.6688 91.264C65.0128 92.1227 62.9428 92.552 60.4588 92.552ZM91.1261 92.552C88.0901 92.552 85.4221 91.862 83.1221 90.482C80.8527 89.102 79.0894 87.1853 77.8321 84.732C76.5747 82.248 75.9461 79.35 75.9461 76.038C75.9461 72.7567 76.5901 69.8587 77.8781 67.344C79.1661 64.7987 81.0061 62.8207 83.3981 61.41C85.8207 59.9687 88.6881 59.248 92.0001 59.248C95.7414 59.248 98.8387 60.1527 101.292 61.962C103.776 63.7407 105.386 66.2247 106.122 69.414H99.9121C99.4521 67.8193 98.5474 66.5773 97.1981 65.688C95.8487 64.7987 94.1007 64.354 91.9541 64.354C89.7767 64.354 87.9061 64.8293 86.3421 65.78C84.8087 66.7 83.6281 68.0493 82.8001 69.828C82.0027 71.576 81.6041 73.6613 81.6041 76.084C81.6041 78.5067 82.0027 80.592 82.8001 82.34C83.6281 84.088 84.7934 85.422 86.2961 86.342C87.7987 87.2313 89.5621 87.676 91.5861 87.676C94.5914 87.676 96.8607 86.8327 98.3941 85.146C99.9274 83.4593 100.832 81.2667 101.108 78.568H92.7821V74.382H106.674V92H101.614L101.154 87.584C100.449 88.6267 99.6361 89.5313 98.7161 90.298C97.7961 91.034 96.7074 91.6013 95.4501 92C94.2234 92.368 92.7821 92.552 91.1261 92.552ZM112.629 92V59.8H123.025C126.767 59.8 129.849 60.4593 132.271 61.778C134.725 63.0967 136.534 64.9673 137.699 67.39C138.895 69.782 139.493 72.634 139.493 75.946C139.493 79.1967 138.895 82.0333 137.699 84.456C136.534 86.848 134.725 88.7033 132.271 90.022C129.849 91.3407 126.767 92 123.025 92H112.629ZM118.149 87.308H122.749C125.54 87.308 127.733 86.8633 129.327 85.974C130.953 85.054 132.103 83.7507 132.777 82.064C133.483 80.3467 133.835 78.3073 133.835 75.946C133.835 73.554 133.483 71.5147 132.777 69.828C132.103 68.1107 130.953 66.792 129.327 65.872C127.733 64.9213 125.54 64.446 122.749 64.446H118.149V87.308Z" fill="white"/>
</svg>
