<svg width="150" height="150" viewBox="0 0 150 150" fill="none" xmlns="http://www.w3.org/2000/svg">
<path fill-rule="evenodd" clip-rule="evenodd" d="M0 75C0 33.5786 33.5786 0 75 0C116.421 0 150 33.5786 150 75C150 116.421 116.421 150 75 150C33.5786 150 0 116.421 0 75ZM10.19 58C9.53274 58 9 58.5328 9 59.19V63.61C9 64.2672 9.53274 64.8 10.19 64.8H14.61C15.2673 64.8 15.8 65.3328 15.8 65.99V70.41C15.8 71.0673 15.2673 71.6 14.61 71.6H10.19C9.53274 71.6 9 72.1328 9 72.79V74.507C9 74.8312 9.12966 75.1252 9.34 75.3398L15.4602 81.46C15.6748 81.6703 15.9688 81.8 16.293 81.8H23.45C24.1073 81.8 24.64 82.3328 24.64 82.99V84.01C24.64 84.6673 24.1073 85.2 23.45 85.2H10.19C9.53274 85.2 9 85.7328 9 86.39V90.81C9 91.4672 9.53274 92 10.19 92H28.21C28.8673 92 29.4 91.4672 29.4 90.81V86.39C29.4 85.7327 29.9327 85.2 30.59 85.2H35.01C35.6673 85.2 36.2 85.7328 36.2 86.39V90.81C36.2 91.4672 36.7327 92 37.39 92H41.81C42.4673 92 43 91.4672 43 90.81V86.39C43 85.7328 42.4673 85.2 41.81 85.2H37.39C36.7327 85.2 36.2 84.6672 36.2 84.01V82.293C36.2 81.9688 36.0703 81.6748 35.86 81.4602L29.7398 75.34C29.5252 75.1297 29.2312 75 28.907 75H21.75C21.0927 75 20.56 74.4672 20.56 73.81V72.79C20.56 72.1327 21.0927 71.6 21.75 71.6H35.01C35.6673 71.6 36.2 71.0672 36.2 70.41V65.99C36.2 65.3328 35.6673 64.8 35.01 64.8H16.99C16.3327 64.8 15.8 64.2672 15.8 63.61V59.19C15.8 58.5328 15.2673 58 14.61 58H10.19ZM75.0001 14C99.39 14 120.437 28.3142 130.198 49H134.592C124.561 26.0432 101.654 10 75.0001 10C48.346 10 25.4389 26.0432 15.4087 49H19.8027C29.5635 28.3142 50.6102 14 75.0001 14ZM75.0001 136C50.6102 136 29.5635 121.686 19.8027 101H15.4087C25.4389 123.957 48.346 140 75.0001 140C101.654 140 124.561 123.957 134.592 101H130.198C120.437 121.686 99.39 136 75.0001 136Z" fill="#FB5108"/>
<path d="M61.6926 93.6C59.1592 93.6 56.9092 93.15 54.9426 92.25C52.9759 91.35 51.4426 90.0667 50.3426 88.4C49.2426 86.7333 48.6759 84.75 48.6426 82.45H54.9926C54.9926 83.6167 55.2592 84.6667 55.7926 85.6C56.3592 86.5 57.1259 87.2167 58.0926 87.75C59.0926 88.2833 60.2926 88.55 61.6926 88.55C62.8926 88.55 63.9259 88.3667 64.7926 88C65.6926 87.6 66.3759 87.05 66.8426 86.35C67.3426 85.6167 67.5926 84.7667 67.5926 83.8C67.5926 82.7 67.3259 81.8 66.7926 81.1C66.2926 80.3667 65.5926 79.75 64.6926 79.25C63.7926 78.75 62.7592 78.3167 61.5926 77.95C60.4259 77.55 59.1926 77.1333 57.8926 76.7C55.1259 75.7667 53.0426 74.5833 51.6426 73.15C50.2426 71.6833 49.5426 69.7333 49.5426 67.3C49.5426 65.2667 50.0259 63.5167 50.9926 62.05C51.9592 60.5833 53.3092 59.45 55.0426 58.65C56.8092 57.8167 58.8426 57.4 61.1426 57.4C63.4759 57.4 65.5092 57.8167 67.2426 58.65C69.0092 59.4833 70.3926 60.65 71.3926 62.15C72.4259 63.6167 72.9592 65.3833 72.9926 67.45H66.5926C66.5592 66.5833 66.3259 65.7833 65.8926 65.05C65.4592 64.2833 64.8259 63.6667 63.9926 63.2C63.1926 62.7 62.2092 62.45 61.0426 62.45C60.0426 62.4167 59.1426 62.5833 58.3426 62.95C57.5759 63.2833 56.9592 63.7833 56.4926 64.45C56.0592 65.0833 55.8426 65.8833 55.8426 66.85C55.8426 67.7833 56.0426 68.5667 56.4426 69.2C56.8759 69.8 57.4926 70.3167 58.2926 70.75C59.0926 71.15 60.0259 71.5333 61.0926 71.9C62.1592 72.2667 63.3259 72.6667 64.5926 73.1C66.3259 73.6667 67.8926 74.3667 69.2926 75.2C70.7259 76 71.8592 77.05 72.6926 78.35C73.5259 79.65 73.9426 81.3333 73.9426 83.4C73.9426 85.2 73.4759 86.8833 72.5426 88.45C71.6092 89.9833 70.2426 91.2333 68.4426 92.2C66.6426 93.1333 64.3926 93.6 61.6926 93.6ZM101.877 93V58H107.877V93H101.877ZM79.7766 93V58H85.7766V93H79.7766ZM84.8766 77.6V72.7H103.027V77.6H84.8766ZM114.982 93V58H127.582C130.382 58 132.698 58.4833 134.532 59.45C136.365 60.3833 137.732 61.65 138.632 63.25C139.532 64.85 139.982 66.6833 139.982 68.75C139.982 70.6833 139.548 72.4667 138.682 74.1C137.815 75.7 136.465 77 134.632 78C132.798 78.9667 130.448 79.45 127.582 79.45H120.982V93H114.982ZM120.982 74.55H127.232C129.598 74.55 131.298 74.0333 132.332 73C133.365 71.9333 133.882 70.5167 133.882 68.75C133.882 66.9167 133.365 65.4833 132.332 64.45C131.298 63.4167 129.598 62.9 127.232 62.9H120.982V74.55Z" fill="white"/>
</svg>
