<svg width="150" height="150" viewBox="0 0 150 150" fill="none" xmlns="http://www.w3.org/2000/svg">
<path fill-rule="evenodd" clip-rule="evenodd" d="M0 75C0 33.5786 33.5786 0 75 0C116.421 0 150 33.5786 150 75C150 116.421 116.421 150 75 150C33.5786 150 0 116.421 0 75ZM10.19 58C9.53274 58 9 58.5328 9 59.19V63.61C9 64.2672 9.53274 64.8 10.19 64.8H14.61C15.2673 64.8 15.8 65.3328 15.8 65.99V70.41C15.8 71.0673 15.2673 71.6 14.61 71.6H10.19C9.53274 71.6 9 72.1328 9 72.79V74.507C9 74.8312 9.12966 75.1252 9.34 75.3398L15.4602 81.46C15.6748 81.6703 15.9688 81.8 16.293 81.8H23.45C24.1073 81.8 24.64 82.3328 24.64 82.99V84.01C24.64 84.6673 24.1073 85.2 23.45 85.2H10.19C9.53274 85.2 9 85.7328 9 86.39V90.81C9 91.4672 9.53274 92 10.19 92H28.21C28.8673 92 29.4 91.4672 29.4 90.81V86.39C29.4 85.7327 29.9327 85.2 30.59 85.2H35.01C35.6673 85.2 36.2 85.7328 36.2 86.39V90.81C36.2 91.4672 36.7327 92 37.39 92H41.81C42.4673 92 43 91.4672 43 90.81V86.39C43 85.7328 42.4673 85.2 41.81 85.2H37.39C36.7327 85.2 36.2 84.6672 36.2 84.01V82.293C36.2 81.9688 36.0703 81.6748 35.86 81.4602L29.7398 75.34C29.5252 75.1297 29.2312 75 28.907 75H21.75C21.0927 75 20.56 74.4672 20.56 73.81V72.79C20.56 72.1327 21.0927 71.6 21.75 71.6H35.01C35.6673 71.6 36.2 71.0672 36.2 70.41V65.99C36.2 65.3328 35.6673 64.8 35.01 64.8H16.99C16.3327 64.8 15.8 64.2672 15.8 63.61V59.19C15.8 58.5328 15.2673 58 14.61 58H10.19ZM75.0001 14C99.39 14 120.437 28.3142 130.198 49H134.592C124.561 26.0432 101.654 10 75.0001 10C48.346 10 25.4389 26.0432 15.4087 49H19.8027C29.5635 28.3142 50.6102 14 75.0001 14ZM75.0001 136C50.6102 136 29.5635 121.686 19.8027 101H15.4087C25.4389 123.957 48.346 140 75.0001 140C101.654 140 124.561 123.957 134.592 101H130.198C120.437 121.686 99.39 136 75.0001 136Z" fill="#FB5108"/>
<path d="M67.4416 93.6C64.9083 93.6 62.6583 93.15 60.6916 92.25C58.7249 91.35 57.1916 90.0667 56.0916 88.4C54.9916 86.7333 54.4249 84.75 54.3916 82.45H60.7416C60.7416 83.6167 61.0083 84.6667 61.5416 85.6C62.1083 86.5 62.8749 87.2167 63.8416 87.75C64.8416 88.2833 66.0416 88.55 67.4416 88.55C68.6416 88.55 69.6749 88.3667 70.5416 88C71.4416 87.6 72.1249 87.05 72.5916 86.35C73.0916 85.6167 73.3416 84.7667 73.3416 83.8C73.3416 82.7 73.0749 81.8 72.5416 81.1C72.0416 80.3667 71.3416 79.75 70.4416 79.25C69.5416 78.75 68.5083 78.3167 67.3416 77.95C66.1749 77.55 64.9416 77.1333 63.6416 76.7C60.8749 75.7667 58.7916 74.5833 57.3916 73.15C55.9916 71.6833 55.2916 69.7333 55.2916 67.3C55.2916 65.2667 55.7749 63.5167 56.7416 62.05C57.7083 60.5833 59.0583 59.45 60.7916 58.65C62.5583 57.8167 64.5916 57.4 66.8916 57.4C69.2249 57.4 71.2583 57.8167 72.9916 58.65C74.7583 59.4833 76.1416 60.65 77.1416 62.15C78.1749 63.6167 78.7083 65.3833 78.7416 67.45H72.3416C72.3083 66.5833 72.0749 65.7833 71.6416 65.05C71.2083 64.2833 70.5749 63.6667 69.7416 63.2C68.9416 62.7 67.9583 62.45 66.7916 62.45C65.7916 62.4167 64.8916 62.5833 64.0916 62.95C63.3249 63.2833 62.7083 63.7833 62.2416 64.45C61.8083 65.0833 61.5916 65.8833 61.5916 66.85C61.5916 67.7833 61.7916 68.5667 62.1916 69.2C62.6249 69.8 63.2416 70.3167 64.0416 70.75C64.8416 71.15 65.7749 71.5333 66.8416 71.9C67.9083 72.2667 69.0749 72.6667 70.3416 73.1C72.0749 73.6667 73.6416 74.3667 75.0416 75.2C76.4749 76 77.6083 77.05 78.4416 78.35C79.2749 79.65 79.6916 81.3333 79.6916 83.4C79.6916 85.2 79.2249 86.8833 78.2916 88.45C77.3583 89.9833 75.9916 91.2333 74.1916 92.2C72.3916 93.1333 70.1416 93.6 67.4416 93.6ZM85.5256 93V58H91.5256V88.3H107.126V93H85.5256ZM112.967 93V58H118.967V88.3H134.567V93H112.967Z" fill="white"/>
</svg>
