<svg width="150" height="150" viewBox="0 0 150 150" fill="none" xmlns="http://www.w3.org/2000/svg">
<path fill-rule="evenodd" clip-rule="evenodd" d="M0 75C0 33.5786 33.5786 0 75 0C116.421 0 150 33.5786 150 75C150 116.421 116.421 150 75 150C33.5786 150 0 116.421 0 75ZM10.19 58C9.53274 58 9 58.5328 9 59.19V63.61C9 64.2672 9.53274 64.8 10.19 64.8H14.61C15.2673 64.8 15.8 65.3328 15.8 65.99V70.41C15.8 71.0673 15.2673 71.6 14.61 71.6H10.19C9.53274 71.6 9 72.1328 9 72.79V74.507C9 74.8312 9.12966 75.1252 9.34 75.3398L15.4602 81.46C15.6748 81.6703 15.9688 81.8 16.293 81.8H23.45C24.1073 81.8 24.64 82.3328 24.64 82.99V84.01C24.64 84.6673 24.1073 85.2 23.45 85.2H10.19C9.53274 85.2 9 85.7328 9 86.39V90.81C9 91.4672 9.53274 92 10.19 92H28.21C28.8673 92 29.4 91.4672 29.4 90.81V86.39C29.4 85.7327 29.9327 85.2 30.59 85.2H35.01C35.6673 85.2 36.2 85.7328 36.2 86.39V90.81C36.2 91.4672 36.7327 92 37.39 92H41.81C42.4673 92 43 91.4672 43 90.81V86.39C43 85.7328 42.4673 85.2 41.81 85.2H37.39C36.7327 85.2 36.2 84.6672 36.2 84.01V82.293C36.2 81.9688 36.0703 81.6748 35.86 81.4602L29.7398 75.34C29.5252 75.1297 29.2312 75 28.907 75H21.75C21.0927 75 20.56 74.4672 20.56 73.81V72.79C20.56 72.1327 21.0927 71.6 21.75 71.6H35.01C35.6673 71.6 36.2 71.0672 36.2 70.41V65.99C36.2 65.3328 35.6673 64.8 35.01 64.8H16.99C16.3327 64.8 15.8 64.2672 15.8 63.61V59.19C15.8 58.5328 15.2673 58 14.61 58H10.19ZM75.0001 14C99.39 14 120.437 28.3142 130.198 49H134.592C124.561 26.0432 101.654 10 75.0001 10C48.346 10 25.4389 26.0432 15.4087 49H19.8027C29.5635 28.3142 50.6102 14 75.0001 14ZM75.0001 136C50.6102 136 29.5635 121.686 19.8027 101H15.4087C25.4389 123.957 48.346 140 75.0001 140C101.654 140 124.561 123.957 134.592 101H130.198C120.437 121.686 99.39 136 75.0001 136Z" fill="#FB5108"/>
<path d="M62.4348 93.6C59.9014 93.6 57.6514 93.15 55.6848 92.25C53.7181 91.35 52.1848 90.0667 51.0848 88.4C49.9848 86.7333 49.4181 84.75 49.3848 82.45H55.7348C55.7348 83.6167 56.0014 84.6667 56.5348 85.6C57.1014 86.5 57.8681 87.2167 58.8348 87.75C59.8348 88.2833 61.0348 88.55 62.4348 88.55C63.6348 88.55 64.6681 88.3667 65.5348 88C66.4348 87.6 67.1181 87.05 67.5848 86.35C68.0848 85.6167 68.3348 84.7667 68.3348 83.8C68.3348 82.7 68.0681 81.8 67.5348 81.1C67.0348 80.3667 66.3348 79.75 65.4348 79.25C64.5348 78.75 63.5014 78.3167 62.3348 77.95C61.1681 77.55 59.9348 77.1333 58.6348 76.7C55.8681 75.7667 53.7848 74.5833 52.3848 73.15C50.9848 71.6833 50.2848 69.7333 50.2848 67.3C50.2848 65.2667 50.7681 63.5167 51.7348 62.05C52.7014 60.5833 54.0514 59.45 55.7848 58.65C57.5514 57.8167 59.5848 57.4 61.8848 57.4C64.2181 57.4 66.2514 57.8167 67.9848 58.65C69.7514 59.4833 71.1348 60.65 72.1348 62.15C73.1681 63.6167 73.7014 65.3833 73.7348 67.45H67.3348C67.3014 66.5833 67.0681 65.7833 66.6348 65.05C66.2014 64.2833 65.5681 63.6667 64.7348 63.2C63.9348 62.7 62.9514 62.45 61.7848 62.45C60.7848 62.4167 59.8848 62.5833 59.0848 62.95C58.3181 63.2833 57.7014 63.7833 57.2348 64.45C56.8014 65.0833 56.5848 65.8833 56.5848 66.85C56.5848 67.7833 56.7848 68.5667 57.1848 69.2C57.6181 69.8 58.2348 70.3167 59.0348 70.75C59.8348 71.15 60.7681 71.5333 61.8348 71.9C62.9014 72.2667 64.0681 72.6667 65.3348 73.1C67.0681 73.6667 68.6348 74.3667 70.0348 75.2C71.4681 76 72.6014 77.05 73.4348 78.35C74.2681 79.65 74.6848 81.3333 74.6848 83.4C74.6848 85.2 74.2181 86.8833 73.2848 88.45C72.3514 89.9833 70.9848 91.2333 69.1848 92.2C67.3848 93.1333 65.1348 93.6 62.4348 93.6ZM94.4688 93.6C91.1021 93.6 88.1188 92.85 85.5188 91.35C82.9521 89.8167 80.9354 87.7 79.4688 85C78.0021 82.2667 77.2688 79.1 77.2688 75.5C77.2688 71.9333 78.0021 68.8 79.4688 66.1C80.9354 63.3667 82.9521 61.2333 85.5188 59.7C88.1188 58.1667 91.1021 57.4 94.4688 57.4C97.9021 57.4 100.919 58.1667 103.519 59.7C106.119 61.2333 108.135 63.3667 109.569 66.1C111.002 68.8 111.719 71.9333 111.719 75.5C111.719 79.1 111.002 82.2667 109.569 85C108.135 87.7 106.119 89.8167 103.519 91.35C100.919 92.85 97.9021 93.6 94.4688 93.6ZM94.5188 88.2C96.7521 88.2 98.7021 87.7 100.369 86.7C102.035 85.6667 103.319 84.2 104.219 82.3C105.119 80.4 105.569 78.1333 105.569 75.5C105.569 72.8667 105.119 70.6 104.219 68.7C103.319 66.8 102.035 65.35 100.369 64.35C98.7021 63.3167 96.7521 62.8 94.5188 62.8C92.2854 62.8 90.3354 63.3167 88.6688 64.35C87.0021 65.35 85.7021 66.8 84.7688 68.7C83.8688 70.6 83.4188 72.8667 83.4188 75.5C83.4188 78.1333 83.8688 80.4 84.7688 82.3C85.7021 84.2 87.0021 85.6667 88.6688 86.7C90.3354 87.7 92.2854 88.2 94.5188 88.2ZM127.331 93.6C124.798 93.6 122.548 93.15 120.581 92.25C118.615 91.35 117.081 90.0667 115.981 88.4C114.881 86.7333 114.315 84.75 114.281 82.45H120.631C120.631 83.6167 120.898 84.6667 121.431 85.6C121.998 86.5 122.765 87.2167 123.731 87.75C124.731 88.2833 125.931 88.55 127.331 88.55C128.531 88.55 129.565 88.3667 130.431 88C131.331 87.6 132.015 87.05 132.481 86.35C132.981 85.6167 133.231 84.7667 133.231 83.8C133.231 82.7 132.965 81.8 132.431 81.1C131.931 80.3667 131.231 79.75 130.331 79.25C129.431 78.75 128.398 78.3167 127.231 77.95C126.065 77.55 124.831 77.1333 123.531 76.7C120.765 75.7667 118.681 74.5833 117.281 73.15C115.881 71.6833 115.181 69.7333 115.181 67.3C115.181 65.2667 115.665 63.5167 116.631 62.05C117.598 60.5833 118.948 59.45 120.681 58.65C122.448 57.8167 124.481 57.4 126.781 57.4C129.115 57.4 131.148 57.8167 132.881 58.65C134.648 59.4833 136.031 60.65 137.031 62.15C138.065 63.6167 138.598 65.3833 138.631 67.45H132.231C132.198 66.5833 131.965 65.7833 131.531 65.05C131.098 64.2833 130.465 63.6667 129.631 63.2C128.831 62.7 127.848 62.45 126.681 62.45C125.681 62.4167 124.781 62.5833 123.981 62.95C123.215 63.2833 122.598 63.7833 122.131 64.45C121.698 65.0833 121.481 65.8833 121.481 66.85C121.481 67.7833 121.681 68.5667 122.081 69.2C122.515 69.8 123.131 70.3167 123.931 70.75C124.731 71.15 125.665 71.5333 126.731 71.9C127.798 72.2667 128.965 72.6667 130.231 73.1C131.965 73.6667 133.531 74.3667 134.931 75.2C136.365 76 137.498 77.05 138.331 78.35C139.165 79.65 139.581 81.3333 139.581 83.4C139.581 85.2 139.115 86.8833 138.181 88.45C137.248 89.9833 135.881 91.2333 134.081 92.2C132.281 93.1333 130.031 93.6 127.331 93.6Z" fill="white"/>
</svg>
