<svg width="150" height="150" viewBox="0 0 150 150" fill="none" xmlns="http://www.w3.org/2000/svg">
<path fill-rule="evenodd" clip-rule="evenodd" d="M0 75C0 33.5786 33.5786 0 75 0C116.421 0 150 33.5786 150 75C150 116.421 116.421 150 75 150C33.5786 150 0 116.421 0 75ZM10.19 58C9.53274 58 9 58.5328 9 59.19V63.61C9 64.2672 9.53274 64.8 10.19 64.8H14.61C15.2673 64.8 15.8 65.3328 15.8 65.99V70.41C15.8 71.0673 15.2673 71.6 14.61 71.6H10.19C9.53274 71.6 9 72.1328 9 72.79V74.507C9 74.8312 9.12966 75.1252 9.34 75.3398L15.4602 81.46C15.6748 81.6703 15.9688 81.8 16.293 81.8H23.45C24.1073 81.8 24.64 82.3328 24.64 82.99V84.01C24.64 84.6673 24.1073 85.2 23.45 85.2H10.19C9.53274 85.2 9 85.7328 9 86.39V90.81C9 91.4672 9.53274 92 10.19 92H28.21C28.8673 92 29.4 91.4672 29.4 90.81V86.39C29.4 85.7327 29.9327 85.2 30.59 85.2H35.01C35.6673 85.2 36.2 85.7328 36.2 86.39V90.81C36.2 91.4672 36.7327 92 37.39 92H41.81C42.4673 92 43 91.4672 43 90.81V86.39C43 85.7328 42.4673 85.2 41.81 85.2H37.39C36.7327 85.2 36.2 84.6672 36.2 84.01V82.293C36.2 81.9688 36.0703 81.6748 35.86 81.4602L29.7398 75.34C29.5252 75.1297 29.2312 75 28.907 75H21.75C21.0927 75 20.56 74.4672 20.56 73.81V72.79C20.56 72.1327 21.0927 71.6 21.75 71.6H35.01C35.6673 71.6 36.2 71.0672 36.2 70.41V65.99C36.2 65.3328 35.6673 64.8 35.01 64.8H16.99C16.3327 64.8 15.8 64.2672 15.8 63.61V59.19C15.8 58.5328 15.2673 58 14.61 58H10.19ZM75.0001 14C99.39 14 120.437 28.3142 130.198 49H134.592C124.561 26.0432 101.654 10 75.0001 10C48.346 10 25.4389 26.0432 15.4087 49H19.8027C29.5635 28.3142 50.6102 14 75.0001 14ZM75.0001 136C50.6102 136 29.5635 121.686 19.8027 101H15.4087C25.4389 123.957 48.346 140 75.0001 140C101.654 140 124.561 123.957 134.592 101H130.198C120.437 121.686 99.39 136 75.0001 136Z" fill="#FB5108"/>
<path d="M61.3508 93.6C58.8174 93.6 56.5674 93.15 54.6008 92.25C52.6341 91.35 51.1008 90.0667 50.0008 88.4C48.9008 86.7333 48.3341 84.75 48.3008 82.45H54.6508C54.6508 83.6167 54.9174 84.6667 55.4508 85.6C56.0174 86.5 56.7841 87.2167 57.7508 87.75C58.7508 88.2833 59.9508 88.55 61.3508 88.55C62.5508 88.55 63.5841 88.3667 64.4508 88C65.3508 87.6 66.0341 87.05 66.5008 86.35C67.0008 85.6167 67.2508 84.7667 67.2508 83.8C67.2508 82.7 66.9841 81.8 66.4508 81.1C65.9508 80.3667 65.2508 79.75 64.3508 79.25C63.4508 78.75 62.4174 78.3167 61.2508 77.95C60.0841 77.55 58.8508 77.1333 57.5508 76.7C54.7841 75.7667 52.7008 74.5833 51.3008 73.15C49.9008 71.6833 49.2008 69.7333 49.2008 67.3C49.2008 65.2667 49.6841 63.5167 50.6508 62.05C51.6174 60.5833 52.9674 59.45 54.7008 58.65C56.4674 57.8167 58.5008 57.4 60.8008 57.4C63.1341 57.4 65.1674 57.8167 66.9008 58.65C68.6674 59.4833 70.0508 60.65 71.0508 62.15C72.0841 63.6167 72.6174 65.3833 72.6508 67.45H66.2508C66.2174 66.5833 65.9841 65.7833 65.5508 65.05C65.1174 64.2833 64.4841 63.6667 63.6508 63.2C62.8508 62.7 61.8674 62.45 60.7008 62.45C59.7008 62.4167 58.8008 62.5833 58.0008 62.95C57.2341 63.2833 56.6174 63.7833 56.1508 64.45C55.7174 65.0833 55.5008 65.8833 55.5008 66.85C55.5008 67.7833 55.7008 68.5667 56.1008 69.2C56.5341 69.8 57.1508 70.3167 57.9508 70.75C58.7508 71.15 59.6841 71.5333 60.7508 71.9C61.8174 72.2667 62.9841 72.6667 64.2508 73.1C65.9841 73.6667 67.5508 74.3667 68.9508 75.2C70.3841 76 71.5174 77.05 72.3508 78.35C73.1841 79.65 73.6008 81.3333 73.6008 83.4C73.6008 85.2 73.1341 86.8833 72.2008 88.45C71.2674 89.9833 69.9008 91.2333 68.1008 92.2C66.3008 93.1333 64.0508 93.6 61.3508 93.6ZM79.4348 93V58H91.9848C94.7514 58 97.0348 58.4833 98.8348 59.45C100.668 60.3833 102.018 61.65 102.885 63.25C103.785 64.8167 104.235 66.6 104.235 68.6C104.235 70.4667 103.801 72.2 102.935 73.8C102.068 75.4 100.718 76.6833 98.8848 77.65C97.0514 78.6167 94.7014 79.1 91.8348 79.1H85.4348V93H79.4348ZM97.6848 93L90.3348 77.55H96.8348L104.535 93H97.6848ZM85.4348 74.65H91.5848C93.8181 74.65 95.4514 74.1167 96.4848 73.05C97.5514 71.95 98.0848 70.5167 98.0848 68.75C98.0848 67.0167 97.5681 65.6333 96.5348 64.6C95.5014 63.5333 93.8514 63 91.5848 63H85.4348V74.65ZM110.441 93V58H121.741C125.807 58 129.157 58.7167 131.791 60.15C134.457 61.5833 136.424 63.6167 137.691 66.25C138.991 68.85 139.641 71.95 139.641 75.55C139.641 79.0833 138.991 82.1667 137.691 84.8C136.424 87.4 134.457 89.4167 131.791 90.85C129.157 92.2833 125.807 93 121.741 93H110.441ZM116.441 87.9H121.441C124.474 87.9 126.857 87.4167 128.591 86.45C130.357 85.45 131.607 84.0333 132.341 82.2C133.107 80.3333 133.491 78.1167 133.491 75.55C133.491 72.95 133.107 70.7333 132.341 68.9C131.607 67.0333 130.357 65.6 128.591 64.6C126.857 63.5667 124.474 63.05 121.441 63.05H116.441V87.9Z" fill="white"/>
</svg>
