<svg width="150" height="150" viewBox="0 0 150 150" fill="none" xmlns="http://www.w3.org/2000/svg">
<path fill-rule="evenodd" clip-rule="evenodd" d="M0 75C0 33.5786 33.5786 0 75 0C116.421 0 150 33.5786 150 75C150 116.421 116.421 150 75 150C33.5786 150 0 116.421 0 75ZM10.19 58C9.53274 58 9 58.5328 9 59.19V63.61C9 64.2672 9.53274 64.8 10.19 64.8H14.61C15.2673 64.8 15.8 65.3328 15.8 65.99V70.41C15.8 71.0673 15.2673 71.6 14.61 71.6H10.19C9.53274 71.6 9 72.1328 9 72.79V74.507C9 74.8312 9.12966 75.1252 9.34 75.3398L15.4602 81.46C15.6748 81.6703 15.9688 81.8 16.293 81.8H23.45C24.1073 81.8 24.64 82.3328 24.64 82.99V84.01C24.64 84.6673 24.1073 85.2 23.45 85.2H10.19C9.53274 85.2 9 85.7328 9 86.39V90.81C9 91.4672 9.53274 92 10.19 92H28.21C28.8673 92 29.4 91.4672 29.4 90.81V86.39C29.4 85.7327 29.9327 85.2 30.59 85.2H35.01C35.6673 85.2 36.2 85.7328 36.2 86.39V90.81C36.2 91.4672 36.7327 92 37.39 92H41.81C42.4673 92 43 91.4672 43 90.81V86.39C43 85.7328 42.4673 85.2 41.81 85.2H37.39C36.7327 85.2 36.2 84.6672 36.2 84.01V82.293C36.2 81.9688 36.0703 81.6748 35.86 81.4602L29.7398 75.34C29.5252 75.1297 29.2312 75 28.907 75H21.75C21.0927 75 20.56 74.4672 20.56 73.81V72.79C20.56 72.1327 21.0927 71.6 21.75 71.6H35.01C35.6673 71.6 36.2 71.0672 36.2 70.41V65.99C36.2 65.3328 35.6673 64.8 35.01 64.8H16.99C16.3327 64.8 15.8 64.2672 15.8 63.61V59.19C15.8 58.5328 15.2673 58 14.61 58H10.19ZM75.0001 14C99.39 14 120.437 28.3142 130.198 49H134.592C124.561 26.0432 101.654 10 75.0001 10C48.346 10 25.4389 26.0432 15.4087 49H19.8027C29.5635 28.3142 50.6102 14 75.0001 14ZM75.0001 136C50.6102 136 29.5635 121.686 19.8027 101H15.4087C25.4389 123.957 48.346 140 75.0001 140C101.654 140 124.561 123.957 134.592 101H130.198C120.437 121.686 99.39 136 75.0001 136Z" fill="#FB5108"/>
<path d="M64.5979 93.6C62.0645 93.6 59.8145 93.15 57.8479 92.25C55.8812 91.35 54.3479 90.0667 53.2479 88.4C52.1479 86.7333 51.5812 84.75 51.5479 82.45H57.8979C57.8979 83.6167 58.1645 84.6667 58.6979 85.6C59.2645 86.5 60.0312 87.2167 60.9979 87.75C61.9979 88.2833 63.1979 88.55 64.5979 88.55C65.7979 88.55 66.8312 88.3667 67.6979 88C68.5979 87.6 69.2812 87.05 69.7479 86.35C70.2479 85.6167 70.4979 84.7667 70.4979 83.8C70.4979 82.7 70.2312 81.8 69.6979 81.1C69.1979 80.3667 68.4979 79.75 67.5979 79.25C66.6979 78.75 65.6645 78.3167 64.4979 77.95C63.3312 77.55 62.0979 77.1333 60.7979 76.7C58.0312 75.7667 55.9479 74.5833 54.5479 73.15C53.1479 71.6833 52.4479 69.7333 52.4479 67.3C52.4479 65.2667 52.9312 63.5167 53.8979 62.05C54.8645 60.5833 56.2145 59.45 57.9479 58.65C59.7145 57.8167 61.7479 57.4 64.0479 57.4C66.3812 57.4 68.4145 57.8167 70.1479 58.65C71.9145 59.4833 73.2979 60.65 74.2979 62.15C75.3312 63.6167 75.8645 65.3833 75.8979 67.45H69.4979C69.4645 66.5833 69.2312 65.7833 68.7979 65.05C68.3645 64.2833 67.7312 63.6667 66.8979 63.2C66.0979 62.7 65.1145 62.45 63.9479 62.45C62.9479 62.4167 62.0479 62.5833 61.2479 62.95C60.4812 63.2833 59.8645 63.7833 59.3979 64.45C58.9645 65.0833 58.7479 65.8833 58.7479 66.85C58.7479 67.7833 58.9479 68.5667 59.3479 69.2C59.7812 69.8 60.3979 70.3167 61.1979 70.75C61.9979 71.15 62.9312 71.5333 63.9979 71.9C65.0645 72.2667 66.2312 72.6667 67.4979 73.1C69.2312 73.6667 70.7979 74.3667 72.1979 75.2C73.6312 76 74.7645 77.05 75.5979 78.35C76.4312 79.65 76.8479 81.3333 76.8479 83.4C76.8479 85.2 76.3812 86.8833 75.4479 88.45C74.5145 89.9833 73.1479 91.2333 71.3479 92.2C69.5479 93.1333 67.2979 93.6 64.5979 93.6ZM90.0682 93V80.4L78.4182 58H85.2182L93.7682 75.8H92.4682L101.018 58H107.768L96.0682 80.4V93H90.0682ZM112.076 93V58H124.676C127.476 58 129.793 58.4833 131.626 59.45C133.46 60.3833 134.826 61.65 135.726 63.25C136.626 64.85 137.076 66.6833 137.076 68.75C137.076 70.6833 136.643 72.4667 135.776 74.1C134.91 75.7 133.56 77 131.726 78C129.893 78.9667 127.543 79.45 124.676 79.45H118.076V93H112.076ZM118.076 74.55H124.326C126.693 74.55 128.393 74.0333 129.426 73C130.46 71.9333 130.976 70.5167 130.976 68.75C130.976 66.9167 130.46 65.4833 129.426 64.45C128.393 63.4167 126.693 62.9 124.326 62.9H118.076V74.55Z" fill="white"/>
</svg>
