<svg width="150" height="150" viewBox="0 0 150 150" fill="none" xmlns="http://www.w3.org/2000/svg">
<path fill-rule="evenodd" clip-rule="evenodd" d="M0 75C0 33.5786 33.5786 0 75 0C116.421 0 150 33.5786 150 75C150 116.421 116.421 150 75 150C33.5786 150 0 116.421 0 75ZM10.19 58C9.53274 58 9 58.5328 9 59.19V63.61C9 64.2672 9.53274 64.8 10.19 64.8H14.61C15.2673 64.8 15.8 65.3328 15.8 65.99V70.41C15.8 71.0673 15.2673 71.6 14.61 71.6H10.19C9.53274 71.6 9 72.1328 9 72.79V74.507C9 74.8312 9.12966 75.1252 9.34 75.3398L15.4602 81.46C15.6748 81.6703 15.9688 81.8 16.293 81.8H23.45C24.1073 81.8 24.64 82.3328 24.64 82.99V84.01C24.64 84.6673 24.1073 85.2 23.45 85.2H10.19C9.53274 85.2 9 85.7328 9 86.39V90.81C9 91.4672 9.53274 92 10.19 92H28.21C28.8673 92 29.4 91.4672 29.4 90.81V86.39C29.4 85.7327 29.9327 85.2 30.59 85.2H35.01C35.6673 85.2 36.2 85.7328 36.2 86.39V90.81C36.2 91.4672 36.7327 92 37.39 92H41.81C42.4673 92 43 91.4672 43 90.81V86.39C43 85.7328 42.4673 85.2 41.81 85.2H37.39C36.7327 85.2 36.2 84.6672 36.2 84.01V82.293C36.2 81.9688 36.0703 81.6748 35.86 81.4602L29.7398 75.34C29.5252 75.1297 29.2312 75 28.907 75H21.75C21.0927 75 20.56 74.4672 20.56 73.81V72.79C20.56 72.1327 21.0927 71.6 21.75 71.6H35.01C35.6673 71.6 36.2 71.0672 36.2 70.41V65.99C36.2 65.3328 35.6673 64.8 35.01 64.8H16.99C16.3327 64.8 15.8 64.2672 15.8 63.61V59.19C15.8 58.5328 15.2673 58 14.61 58H10.19ZM75.0001 14C99.39 14 120.437 28.3142 130.198 49H134.592C124.561 26.0432 101.654 10 75.0001 10C48.346 10 25.4389 26.0432 15.4087 49H19.8027C29.5635 28.3142 50.6102 14 75.0001 14ZM75.0001 136C50.6102 136 29.5635 121.686 19.8027 101H15.4087C25.4389 123.957 48.346 140 75.0001 140C101.654 140 124.561 123.957 134.592 101H130.198C120.437 121.686 99.39 136 75.0001 136Z" fill="#FB5108"/>
<path d="M66.4777 93.6C63.9444 93.6 61.6944 93.15 59.7277 92.25C57.7611 91.35 56.2277 90.0667 55.1277 88.4C54.0277 86.7333 53.4611 84.75 53.4277 82.45H59.7777C59.7777 83.6167 60.0444 84.6667 60.5777 85.6C61.1444 86.5 61.9111 87.2167 62.8777 87.75C63.8777 88.2833 65.0777 88.55 66.4777 88.55C67.6777 88.55 68.7111 88.3667 69.5777 88C70.4777 87.6 71.1611 87.05 71.6277 86.35C72.1277 85.6167 72.3777 84.7667 72.3777 83.8C72.3777 82.7 72.1111 81.8 71.5777 81.1C71.0777 80.3667 70.3777 79.75 69.4777 79.25C68.5777 78.75 67.5444 78.3167 66.3777 77.95C65.2111 77.55 63.9777 77.1333 62.6777 76.7C59.9111 75.7667 57.8277 74.5833 56.4277 73.15C55.0277 71.6833 54.3277 69.7333 54.3277 67.3C54.3277 65.2667 54.8111 63.5167 55.7777 62.05C56.7444 60.5833 58.0944 59.45 59.8277 58.65C61.5944 57.8167 63.6277 57.4 65.9277 57.4C68.2611 57.4 70.2944 57.8167 72.0277 58.65C73.7944 59.4833 75.1777 60.65 76.1777 62.15C77.2111 63.6167 77.7444 65.3833 77.7777 67.45H71.3777C71.3444 66.5833 71.1111 65.7833 70.6777 65.05C70.2444 64.2833 69.6111 63.6667 68.7777 63.2C67.9777 62.7 66.9944 62.45 65.8277 62.45C64.8277 62.4167 63.9277 62.5833 63.1277 62.95C62.3611 63.2833 61.7444 63.7833 61.2777 64.45C60.8444 65.0833 60.6277 65.8833 60.6277 66.85C60.6277 67.7833 60.8277 68.5667 61.2277 69.2C61.6611 69.8 62.2777 70.3167 63.0777 70.75C63.8777 71.15 64.8111 71.5333 65.8777 71.9C66.9444 72.2667 68.1111 72.6667 69.3777 73.1C71.1111 73.6667 72.6777 74.3667 74.0777 75.2C75.5111 76 76.6444 77.05 77.4777 78.35C78.3111 79.65 78.7277 81.3333 78.7277 83.4C78.7277 85.2 78.2611 86.8833 77.3277 88.45C76.3944 89.9833 75.0277 91.2333 73.2277 92.2C71.4277 93.1333 69.1777 93.6 66.4777 93.6ZM83.4117 93V88.4L99.9117 63.05H83.5117V58H106.862V62.6L90.2617 87.95H106.962V93H83.4117ZM112.931 93V58H118.931V88.3H134.531V93H112.931Z" fill="white"/>
</svg>
