<svg width="150" height="150" viewBox="0 0 150 150" fill="none" xmlns="http://www.w3.org/2000/svg">
<path fill-rule="evenodd" clip-rule="evenodd" d="M0 75C0 33.5786 33.5786 0 75 0C116.421 0 150 33.5786 150 75C150 116.421 116.421 150 75 150C33.5786 150 0 116.421 0 75ZM10.19 58C9.53274 58 9 58.5328 9 59.19V63.61C9 64.2672 9.53274 64.8 10.19 64.8H14.61C15.2673 64.8 15.8 65.3328 15.8 65.99V70.41C15.8 71.0673 15.2673 71.6 14.61 71.6H10.19C9.53274 71.6 9 72.1328 9 72.79V74.507C9 74.8312 9.12966 75.1252 9.34 75.3398L15.4602 81.46C15.6748 81.6703 15.9688 81.8 16.293 81.8H23.45C24.1073 81.8 24.64 82.3328 24.64 82.99V84.01C24.64 84.6673 24.1073 85.2 23.45 85.2H10.19C9.53274 85.2 9 85.7328 9 86.39V90.81C9 91.4672 9.53274 92 10.19 92H28.21C28.8673 92 29.4 91.4672 29.4 90.81V86.39C29.4 85.7327 29.9327 85.2 30.59 85.2H35.01C35.6673 85.2 36.2 85.7328 36.2 86.39V90.81C36.2 91.4672 36.7327 92 37.39 92H41.81C42.4673 92 43 91.4672 43 90.81V86.39C43 85.7328 42.4673 85.2 41.81 85.2H37.39C36.7327 85.2 36.2 84.6672 36.2 84.01V82.293C36.2 81.9688 36.0703 81.6748 35.86 81.4602L29.7398 75.34C29.5252 75.1297 29.2312 75 28.907 75H21.75C21.0927 75 20.56 74.4672 20.56 73.81V72.79C20.56 72.1327 21.0927 71.6 21.75 71.6H35.01C35.6673 71.6 36.2 71.0672 36.2 70.41V65.99C36.2 65.3328 35.6673 64.8 35.01 64.8H16.99C16.3327 64.8 15.8 64.2672 15.8 63.61V59.19C15.8 58.5328 15.2673 58 14.61 58H10.19ZM75.0001 14C99.39 14 120.437 28.3142 130.198 49H134.592C124.561 26.0432 101.654 10 75.0001 10C48.346 10 25.4389 26.0432 15.4087 49H19.8027C29.5635 28.3142 50.6102 14 75.0001 14ZM75.0001 136C50.6102 136 29.5635 121.686 19.8027 101H15.4087C25.4389 123.957 48.346 140 75.0001 140C101.654 140 124.561 123.957 134.592 101H130.198C120.437 121.686 99.39 136 75.0001 136Z" fill="#FB5108"/>
<path d="M59.7264 93V62.85H49.4264V58H75.9764V62.85H65.6764V93H59.7264ZM101.022 93V58H107.022V93H101.022ZM78.9221 93V58H84.9221V93H78.9221ZM84.0221 77.6V72.7H102.172V77.6H84.0221ZM112.127 93V58H125.827C128.294 58 130.344 58.3833 131.977 59.15C133.644 59.9167 134.894 60.9833 135.727 62.35C136.56 63.6833 136.977 65.2333 136.977 67C136.977 68.7667 136.594 70.25 135.827 71.45C135.06 72.65 134.044 73.5667 132.777 74.2C131.544 74.8333 130.194 75.2167 128.727 75.35L129.477 74.8C131.044 74.8333 132.444 75.25 133.677 76.05C134.944 76.85 135.944 77.9 136.677 79.2C137.41 80.4667 137.777 81.8833 137.777 83.45C137.777 85.2833 137.327 86.9333 136.427 88.4C135.56 89.8333 134.277 90.9667 132.577 91.8C130.877 92.6 128.794 93 126.327 93H112.127ZM118.127 88.1H125.427C127.394 88.1 128.927 87.6333 130.027 86.7C131.127 85.7667 131.677 84.4667 131.677 82.8C131.677 81.1333 131.11 79.8167 129.977 78.85C128.844 77.85 127.294 77.35 125.327 77.35H118.127V88.1ZM118.127 72.8H124.977C126.91 72.8 128.377 72.3667 129.377 71.5C130.377 70.6 130.877 69.3667 130.877 67.8C130.877 66.2667 130.377 65.0667 129.377 64.2C128.377 63.3 126.894 62.85 124.927 62.85H118.127V72.8Z" fill="white"/>
</svg>
