<svg width="150" height="150" viewBox="0 0 150 150" fill="none" xmlns="http://www.w3.org/2000/svg">
<path fill-rule="evenodd" clip-rule="evenodd" d="M0 75C0 33.5786 33.5786 0 75 0C116.421 0 150 33.5786 150 75C150 116.421 116.421 150 75 150C33.5786 150 0 116.421 0 75ZM10.19 58C9.53274 58 9 58.5328 9 59.19V63.61C9 64.2672 9.53274 64.8 10.19 64.8H14.61C15.2673 64.8 15.8 65.3328 15.8 65.99V70.41C15.8 71.0673 15.2673 71.6 14.61 71.6H10.19C9.53274 71.6 9 72.1328 9 72.79V74.507C9 74.8312 9.12966 75.1252 9.34 75.3398L15.4602 81.46C15.6748 81.6703 15.9688 81.8 16.293 81.8H23.45C24.1073 81.8 24.64 82.3328 24.64 82.99V84.01C24.64 84.6673 24.1073 85.2 23.45 85.2H10.19C9.53274 85.2 9 85.7328 9 86.39V90.81C9 91.4672 9.53274 92 10.19 92H28.21C28.8673 92 29.4 91.4672 29.4 90.81V86.39C29.4 85.7327 29.9327 85.2 30.59 85.2H35.01C35.6673 85.2 36.2 85.7328 36.2 86.39V90.81C36.2 91.4672 36.7327 92 37.39 92H41.81C42.4673 92 43 91.4672 43 90.81V86.39C43 85.7328 42.4673 85.2 41.81 85.2H37.39C36.7327 85.2 36.2 84.6672 36.2 84.01V82.293C36.2 81.9688 36.0703 81.6748 35.86 81.4602L29.7398 75.34C29.5252 75.1297 29.2312 75 28.907 75H21.75C21.0927 75 20.56 74.4672 20.56 73.81V72.79C20.56 72.1327 21.0927 71.6 21.75 71.6H35.01C35.6673 71.6 36.2 71.0672 36.2 70.41V65.99C36.2 65.3328 35.6673 64.8 35.01 64.8H16.99C16.3327 64.8 15.8 64.2672 15.8 63.61V59.19C15.8 58.5328 15.2673 58 14.61 58H10.19ZM75.0001 14C99.39 14 120.437 28.3142 130.198 49H134.592C124.561 26.0432 101.654 10 75.0001 10C48.346 10 25.4389 26.0432 15.4087 49H19.8027C29.5635 28.3142 50.6102 14 75.0001 14ZM75.0001 136C50.6102 136 29.5635 121.686 19.8027 101H15.4087C25.4389 123.957 48.346 140 75.0001 140C101.654 140 124.561 123.957 134.592 101H130.198C120.437 121.686 99.39 136 75.0001 136Z" fill="#FB5108"/>
<path d="M63.1238 93V62.85H52.8238V58H79.3738V62.85H69.0738V93H63.1238ZM90.7273 93.6C88.494 93.6 86.544 93.1833 84.8773 92.35C83.244 91.4833 81.9773 90.25 81.0773 88.65C80.1773 87.0167 79.7273 85.05 79.7273 82.75H85.7273C85.7273 83.85 85.894 84.8167 86.2273 85.65C86.5607 86.4833 87.0773 87.1333 87.7773 87.6C88.5107 88.0333 89.444 88.25 90.5773 88.25C91.7107 88.25 92.6107 88.0333 93.2773 87.6C93.944 87.1667 94.4273 86.5667 94.7273 85.8C95.0607 85 95.2273 84.0833 95.2273 83.05V58H101.227V83.05C101.227 86.45 100.277 89.0667 98.3773 90.9C96.5107 92.7 93.9607 93.6 90.7273 93.6ZM122.042 93.6C119.509 93.6 117.259 93.15 115.292 92.25C113.326 91.35 111.792 90.0667 110.692 88.4C109.592 86.7333 109.026 84.75 108.992 82.45H115.342C115.342 83.6167 115.609 84.6667 116.142 85.6C116.709 86.5 117.476 87.2167 118.442 87.75C119.442 88.2833 120.642 88.55 122.042 88.55C123.242 88.55 124.276 88.3667 125.142 88C126.042 87.6 126.726 87.05 127.192 86.35C127.692 85.6167 127.942 84.7667 127.942 83.8C127.942 82.7 127.676 81.8 127.142 81.1C126.642 80.3667 125.942 79.75 125.042 79.25C124.142 78.75 123.109 78.3167 121.942 77.95C120.776 77.55 119.542 77.1333 118.242 76.7C115.476 75.7667 113.392 74.5833 111.992 73.15C110.592 71.6833 109.892 69.7333 109.892 67.3C109.892 65.2667 110.376 63.5167 111.342 62.05C112.309 60.5833 113.659 59.45 115.392 58.65C117.159 57.8167 119.192 57.4 121.492 57.4C123.826 57.4 125.859 57.8167 127.592 58.65C129.359 59.4833 130.742 60.65 131.742 62.15C132.776 63.6167 133.309 65.3833 133.342 67.45H126.942C126.909 66.5833 126.676 65.7833 126.242 65.05C125.809 64.2833 125.176 63.6667 124.342 63.2C123.542 62.7 122.559 62.45 121.392 62.45C120.392 62.4167 119.492 62.5833 118.692 62.95C117.926 63.2833 117.309 63.7833 116.842 64.45C116.409 65.0833 116.192 65.8833 116.192 66.85C116.192 67.7833 116.392 68.5667 116.792 69.2C117.226 69.8 117.842 70.3167 118.642 70.75C119.442 71.15 120.376 71.5333 121.442 71.9C122.509 72.2667 123.676 72.6667 124.942 73.1C126.676 73.6667 128.242 74.3667 129.642 75.2C131.076 76 132.209 77.05 133.042 78.35C133.876 79.65 134.292 81.3333 134.292 83.4C134.292 85.2 133.826 86.8833 132.892 88.45C131.959 89.9833 130.592 91.2333 128.792 92.2C126.992 93.1333 124.742 93.6 122.042 93.6Z" fill="white"/>
</svg>
