<svg width="150" height="150" viewBox="0 0 150 150" fill="none" xmlns="http://www.w3.org/2000/svg">
<path fill-rule="evenodd" clip-rule="evenodd" d="M0 75C0 33.5786 33.5786 0 75 0C116.421 0 150 33.5786 150 75C150 116.421 116.421 150 75 150C33.5786 150 0 116.421 0 75ZM10.19 58C9.53274 58 9 58.5328 9 59.19V63.61C9 64.2672 9.53274 64.8 10.19 64.8H14.61C15.2673 64.8 15.8 65.3328 15.8 65.99V70.41C15.8 71.0673 15.2673 71.6 14.61 71.6H10.19C9.53274 71.6 9 72.1328 9 72.79V74.507C9 74.8312 9.12966 75.1252 9.34 75.3398L15.4602 81.46C15.6748 81.6703 15.9688 81.8 16.293 81.8H23.45C24.1073 81.8 24.64 82.3328 24.64 82.99V84.01C24.64 84.6673 24.1073 85.2 23.45 85.2H10.19C9.53274 85.2 9 85.7328 9 86.39V90.81C9 91.4672 9.53274 92 10.19 92H28.21C28.8673 92 29.4 91.4672 29.4 90.81V86.39C29.4 85.7327 29.9327 85.2 30.59 85.2H35.01C35.6673 85.2 36.2 85.7328 36.2 86.39V90.81C36.2 91.4672 36.7327 92 37.39 92H41.81C42.4673 92 43 91.4672 43 90.81V86.39C43 85.7328 42.4673 85.2 41.81 85.2H37.39C36.7327 85.2 36.2 84.6672 36.2 84.01V82.293C36.2 81.9688 36.0703 81.6748 35.86 81.4602L29.7398 75.34C29.5252 75.1297 29.2312 75 28.907 75H21.75C21.0927 75 20.56 74.4672 20.56 73.81V72.79C20.56 72.1327 21.0927 71.6 21.75 71.6H35.01C35.6673 71.6 36.2 71.0672 36.2 70.41V65.99C36.2 65.3328 35.6673 64.8 35.01 64.8H16.99C16.3327 64.8 15.8 64.2672 15.8 63.61V59.19C15.8 58.5328 15.2673 58 14.61 58H10.19ZM75.0001 14C99.39 14 120.437 28.3142 130.198 49H134.592C124.561 26.0432 101.654 10 75.0001 10C48.346 10 25.4389 26.0432 15.4087 49H19.8027C29.5635 28.3142 50.6102 14 75.0001 14ZM75.0001 136C50.6102 136 29.5635 121.686 19.8027 101H15.4087C25.4389 123.957 48.346 140 75.0001 140C101.654 140 124.561 123.957 134.592 101H130.198C120.437 121.686 99.39 136 75.0001 136Z" fill="#FB5108"/>
<path d="M57.0916 93V62.85H46.7916V58H73.3416V62.85H63.0416V93H57.0916ZM92.8701 93.6C89.5035 93.6 86.5201 92.85 83.9201 91.35C81.3535 89.8167 79.3368 87.7 77.8701 85C76.4035 82.2667 75.6701 79.1 75.6701 75.5C75.6701 71.9333 76.4035 68.8 77.8701 66.1C79.3368 63.3667 81.3535 61.2333 83.9201 59.7C86.5201 58.1667 89.5035 57.4 92.8701 57.4C96.3035 57.4 99.3201 58.1667 101.92 59.7C104.52 61.2333 106.537 63.3667 107.97 66.1C109.403 68.8 110.12 71.9333 110.12 75.5C110.12 79.1 109.403 82.2667 107.97 85C106.537 87.7 104.52 89.8167 101.92 91.35C99.3201 92.85 96.3035 93.6 92.8701 93.6ZM92.9201 88.2C95.1535 88.2 97.1035 87.7 98.7701 86.7C100.437 85.6667 101.72 84.2 102.62 82.3C103.52 80.4 103.97 78.1333 103.97 75.5C103.97 72.8667 103.52 70.6 102.62 68.7C101.72 66.8 100.437 65.35 98.7701 64.35C97.1035 63.3167 95.1535 62.8 92.9201 62.8C90.6868 62.8 88.7368 63.3167 87.0701 64.35C85.4035 65.35 84.1035 66.8 83.1701 68.7C82.2701 70.6 81.8201 72.8667 81.8201 75.5C81.8201 78.1333 82.2701 80.4 83.1701 82.3C84.1035 84.2 85.4035 85.6667 87.0701 86.7C88.7368 87.7 90.6868 88.2 92.9201 88.2ZM115.983 93V58H128.583C131.383 58 133.699 58.4833 135.533 59.45C137.366 60.3833 138.733 61.65 139.633 63.25C140.533 64.85 140.983 66.6833 140.983 68.75C140.983 70.6833 140.549 72.4667 139.683 74.1C138.816 75.7 137.466 77 135.633 78C133.799 78.9667 131.449 79.45 128.583 79.45H121.983V93H115.983ZM121.983 74.55H128.233C130.599 74.55 132.299 74.0333 133.333 73C134.366 71.9333 134.883 70.5167 134.883 68.75C134.883 66.9167 134.366 65.4833 133.333 64.45C132.299 63.4167 130.599 62.9 128.233 62.9H121.983V74.55Z" fill="white"/>
</svg>
