<svg width="150" height="150" viewBox="0 0 150 150" fill="none" xmlns="http://www.w3.org/2000/svg">
<path fill-rule="evenodd" clip-rule="evenodd" d="M0 75C0 33.5786 33.5786 0 75 0C116.421 0 150 33.5786 150 75C150 116.421 116.421 150 75 150C33.5786 150 0 116.421 0 75ZM10.19 58C9.53274 58 9 58.5328 9 59.19V63.61C9 64.2672 9.53274 64.8 10.19 64.8H14.61C15.2673 64.8 15.8 65.3328 15.8 65.99V70.41C15.8 71.0673 15.2673 71.6 14.61 71.6H10.19C9.53274 71.6 9 72.1328 9 72.79V74.507C9 74.8312 9.12966 75.1252 9.34 75.3398L15.4602 81.46C15.6748 81.6703 15.9688 81.8 16.293 81.8H23.45C24.1073 81.8 24.64 82.3328 24.64 82.99V84.01C24.64 84.6673 24.1073 85.2 23.45 85.2H10.19C9.53274 85.2 9 85.7328 9 86.39V90.81C9 91.4672 9.53274 92 10.19 92H28.21C28.8673 92 29.4 91.4672 29.4 90.81V86.39C29.4 85.7327 29.9327 85.2 30.59 85.2H35.01C35.6673 85.2 36.2 85.7328 36.2 86.39V90.81C36.2 91.4672 36.7327 92 37.39 92H41.81C42.4673 92 43 91.4672 43 90.81V86.39C43 85.7328 42.4673 85.2 41.81 85.2H37.39C36.7327 85.2 36.2 84.6672 36.2 84.01V82.293C36.2 81.9688 36.0703 81.6748 35.86 81.4602L29.7398 75.34C29.5252 75.1297 29.2312 75 28.907 75H21.75C21.0927 75 20.56 74.4672 20.56 73.81V72.79C20.56 72.1327 21.0927 71.6 21.75 71.6H35.01C35.6673 71.6 36.2 71.0672 36.2 70.41V65.99C36.2 65.3328 35.6673 64.8 35.01 64.8H16.99C16.3327 64.8 15.8 64.2672 15.8 63.61V59.19C15.8 58.5328 15.2673 58 14.61 58H10.19ZM75.0001 14C99.39 14 120.437 28.3142 130.198 49H134.592C124.561 26.0432 101.654 10 75.0001 10C48.346 10 25.4389 26.0432 15.4087 49H19.8027C29.5635 28.3142 50.6102 14 75.0001 14ZM75.0001 136C50.6102 136 29.5635 121.686 19.8027 101H15.4087C25.4389 123.957 48.346 140 75.0001 140C101.654 140 124.561 123.957 134.592 101H130.198C120.437 121.686 99.39 136 75.0001 136Z" fill="#FB5108"/>
<path d="M59.9256 93V62.85H49.6256V58H76.1756V62.85H65.8756V93H59.9256ZM81.9713 93V88.4L98.4713 63.05H82.0713V58H105.421V62.6L88.8213 87.95H105.521V93H81.9713ZM125.24 93.6C122.707 93.6 120.457 93.15 118.49 92.25C116.524 91.35 114.99 90.0667 113.89 88.4C112.79 86.7333 112.224 84.75 112.19 82.45H118.54C118.54 83.6167 118.807 84.6667 119.34 85.6C119.907 86.5 120.674 87.2167 121.64 87.75C122.64 88.2833 123.84 88.55 125.24 88.55C126.44 88.55 127.474 88.3667 128.34 88C129.24 87.6 129.924 87.05 130.39 86.35C130.89 85.6167 131.14 84.7667 131.14 83.8C131.14 82.7 130.874 81.8 130.34 81.1C129.84 80.3667 129.14 79.75 128.24 79.25C127.34 78.75 126.307 78.3167 125.14 77.95C123.974 77.55 122.74 77.1333 121.44 76.7C118.674 75.7667 116.59 74.5833 115.19 73.15C113.79 71.6833 113.09 69.7333 113.09 67.3C113.09 65.2667 113.574 63.5167 114.54 62.05C115.507 60.5833 116.857 59.45 118.59 58.65C120.357 57.8167 122.39 57.4 124.69 57.4C127.024 57.4 129.057 57.8167 130.79 58.65C132.557 59.4833 133.94 60.65 134.94 62.15C135.974 63.6167 136.507 65.3833 136.54 67.45H130.14C130.107 66.5833 129.874 65.7833 129.44 65.05C129.007 64.2833 128.374 63.6667 127.54 63.2C126.74 62.7 125.757 62.45 124.59 62.45C123.59 62.4167 122.69 62.5833 121.89 62.95C121.124 63.2833 120.507 63.7833 120.04 64.45C119.607 65.0833 119.39 65.8833 119.39 66.85C119.39 67.7833 119.59 68.5667 119.99 69.2C120.424 69.8 121.04 70.3167 121.84 70.75C122.64 71.15 123.574 71.5333 124.64 71.9C125.707 72.2667 126.874 72.6667 128.14 73.1C129.874 73.6667 131.44 74.3667 132.84 75.2C134.274 76 135.407 77.05 136.24 78.35C137.074 79.65 137.49 81.3333 137.49 83.4C137.49 85.2 137.024 86.8833 136.09 88.45C135.157 89.9833 133.79 91.2333 131.99 92.2C130.19 93.1333 127.94 93.6 125.24 93.6Z" fill="white"/>
</svg>
