<svg width="150" height="150" viewBox="0 0 150 150" fill="none" xmlns="http://www.w3.org/2000/svg">
<path fill-rule="evenodd" clip-rule="evenodd" d="M0 75C0 33.5786 33.5786 0 75 0C116.421 0 150 33.5786 150 75C150 116.421 116.421 150 75 150C33.5786 150 0 116.421 0 75ZM10.19 58C9.53274 58 9 58.5328 9 59.19V63.61C9 64.2672 9.53274 64.8 10.19 64.8H14.61C15.2673 64.8 15.8 65.3328 15.8 65.99V70.41C15.8 71.0673 15.2673 71.6 14.61 71.6H10.19C9.53274 71.6 9 72.1328 9 72.79V74.507C9 74.8312 9.12966 75.1252 9.34 75.3398L15.4602 81.46C15.6748 81.6703 15.9688 81.8 16.293 81.8H23.45C24.1073 81.8 24.64 82.3328 24.64 82.99V84.01C24.64 84.6673 24.1073 85.2 23.45 85.2H10.19C9.53274 85.2 9 85.7328 9 86.39V90.81C9 91.4672 9.53274 92 10.19 92H28.21C28.8673 92 29.4 91.4672 29.4 90.81V86.39C29.4 85.7327 29.9327 85.2 30.59 85.2H35.01C35.6673 85.2 36.2 85.7328 36.2 86.39V90.81C36.2 91.4672 36.7327 92 37.39 92H41.81C42.4673 92 43 91.4672 43 90.81V86.39C43 85.7328 42.4673 85.2 41.81 85.2H37.39C36.7327 85.2 36.2 84.6672 36.2 84.01V82.293C36.2 81.9688 36.0703 81.6748 35.86 81.4602L29.7398 75.34C29.5252 75.1297 29.2312 75 28.907 75H21.75C21.0927 75 20.56 74.4672 20.56 73.81V72.79C20.56 72.1327 21.0927 71.6 21.75 71.6H35.01C35.6673 71.6 36.2 71.0672 36.2 70.41V65.99C36.2 65.3328 35.6673 64.8 35.01 64.8H16.99C16.3327 64.8 15.8 64.2672 15.8 63.61V59.19C15.8 58.5328 15.2673 58 14.61 58H10.19ZM75.0001 14C99.39 14 120.437 28.3142 130.198 49H134.592C124.561 26.0432 101.654 10 75.0001 10C48.346 10 25.4389 26.0432 15.4087 49H19.8027C29.5635 28.3142 50.6102 14 75.0001 14ZM75.0001 136C50.6102 136 29.5635 121.686 19.8027 101H15.4087C25.4389 123.957 48.346 140 75.0001 140C101.654 140 124.561 123.957 134.592 101H130.198C120.437 121.686 99.39 136 75.0001 136Z" fill="#FB5108"/>
<path d="M61.6874 92.552C59.3568 92.552 57.2408 92.092 55.3394 91.172C53.4688 90.252 51.9661 88.8413 50.8314 86.94C49.7274 85.0387 49.1754 82.6467 49.1754 79.764V59.8H54.6954V79.81C54.6954 81.558 54.9868 82.9993 55.5694 84.134C56.1521 85.2687 56.9648 86.1273 58.0074 86.71C59.0808 87.262 60.3381 87.538 61.7794 87.538C63.2514 87.538 64.5088 87.262 65.5514 86.71C66.6248 86.1273 67.4374 85.2687 67.9894 84.134C68.5721 82.9993 68.8634 81.558 68.8634 79.81V59.8H74.3834V79.764C74.3834 82.6467 73.8161 85.0387 72.6814 86.94C71.5468 88.8413 70.0134 90.252 68.0814 91.172C66.1494 92.092 64.0181 92.552 61.6874 92.552ZM94.6134 92.552C91.5774 92.552 88.9094 91.862 86.6094 90.482C84.34 89.102 82.5767 87.1853 81.3194 84.732C80.062 82.248 79.4334 79.35 79.4334 76.038C79.4334 72.7567 80.0774 69.8587 81.3654 67.344C82.6534 64.7987 84.4934 62.8207 86.8854 61.41C89.308 59.9687 92.1754 59.248 95.4874 59.248C99.2287 59.248 102.326 60.1527 104.779 61.962C107.263 63.7407 108.873 66.2247 109.609 69.414H103.399C102.939 67.8193 102.035 66.5773 100.685 65.688C99.3361 64.7987 97.5881 64.354 95.4414 64.354C93.2641 64.354 91.3934 64.8293 89.8294 65.78C88.2961 66.7 87.1154 68.0493 86.2874 69.828C85.4901 71.576 85.0914 73.6613 85.0914 76.084C85.0914 78.5067 85.4901 80.592 86.2874 82.34C87.1154 84.088 88.2807 85.422 89.7834 86.342C91.2861 87.2313 93.0494 87.676 95.0734 87.676C98.0787 87.676 100.348 86.8327 101.881 85.146C103.415 83.4593 104.319 81.2667 104.595 78.568H96.2694V74.382H110.161V92H105.101L104.641 87.584C103.936 88.6267 103.123 89.5313 102.203 90.298C101.283 91.034 100.195 91.6013 98.9374 92C97.7107 92.368 96.2694 92.552 94.6134 92.552ZM114.461 92L124.489 75.716L114.369 59.8H120.717L128.031 71.346L134.793 59.8H141.049L131.021 75.946L141.233 92H134.885L127.479 80.316L120.717 92H114.461Z" fill="white"/>
</svg>
