<svg width="150" height="150" viewBox="0 0 150 150" fill="none" xmlns="http://www.w3.org/2000/svg">
<path fill-rule="evenodd" clip-rule="evenodd" d="M0 75C0 33.5786 33.5786 0 75 0C116.421 0 150 33.5786 150 75C150 116.421 116.421 150 75 150C33.5786 150 0 116.421 0 75ZM10.19 58C9.53274 58 9 58.5328 9 59.19V63.61C9 64.2672 9.53274 64.8 10.19 64.8H14.61C15.2673 64.8 15.8 65.3328 15.8 65.99V70.41C15.8 71.0673 15.2673 71.6 14.61 71.6H10.19C9.53274 71.6 9 72.1328 9 72.79V74.507C9 74.8312 9.12966 75.1252 9.34 75.3398L15.4602 81.46C15.6748 81.6703 15.9688 81.8 16.293 81.8H23.45C24.1073 81.8 24.64 82.3328 24.64 82.99V84.01C24.64 84.6673 24.1073 85.2 23.45 85.2H10.19C9.53274 85.2 9 85.7328 9 86.39V90.81C9 91.4672 9.53274 92 10.19 92H28.21C28.8673 92 29.4 91.4672 29.4 90.81V86.39C29.4 85.7327 29.9327 85.2 30.59 85.2H35.01C35.6673 85.2 36.2 85.7328 36.2 86.39V90.81C36.2 91.4672 36.7327 92 37.39 92H41.81C42.4673 92 43 91.4672 43 90.81V86.39C43 85.7328 42.4673 85.2 41.81 85.2H37.39C36.7327 85.2 36.2 84.6672 36.2 84.01V82.293C36.2 81.9688 36.0703 81.6748 35.86 81.4602L29.7398 75.34C29.5252 75.1297 29.2312 75 28.907 75H21.75C21.0927 75 20.56 74.4672 20.56 73.81V72.79C20.56 72.1327 21.0927 71.6 21.75 71.6H35.01C35.6673 71.6 36.2 71.0672 36.2 70.41V65.99C36.2 65.3328 35.6673 64.8 35.01 64.8H16.99C16.3327 64.8 15.8 64.2672 15.8 63.61V59.19C15.8 58.5328 15.2673 58 14.61 58H10.19ZM75.0001 14C99.39 14 120.437 28.3142 130.198 49H134.592C124.561 26.0432 101.654 10 75.0001 10C48.346 10 25.4389 26.0432 15.4087 49H19.8027C29.5635 28.3142 50.6102 14 75.0001 14ZM75.0001 136C50.6102 136 29.5635 121.686 19.8027 101H15.4087C25.4389 123.957 48.346 140 75.0001 140C101.654 140 124.561 123.957 134.592 101H130.198C120.437 121.686 99.39 136 75.0001 136Z" fill="#FB5108"/>
<path d="M61.9592 93.6C59.4258 93.6 57.1258 93.1 55.0592 92.1C53.0258 91.1 51.3925 89.5667 50.1592 87.5C48.9592 85.4333 48.3592 82.8333 48.3592 79.7V58H54.3592V79.75C54.3592 81.65 54.6758 83.2167 55.3092 84.45C55.9425 85.6833 56.8258 86.6167 57.9592 87.25C59.1258 87.85 60.4925 88.15 62.0592 88.15C63.6592 88.15 65.0258 87.85 66.1592 87.25C67.3258 86.6167 68.2092 85.6833 68.8092 84.45C69.4425 83.2167 69.7592 81.65 69.7592 79.75V58H75.7592V79.7C75.7592 82.8333 75.1425 85.4333 73.9092 87.5C72.6758 89.5667 71.0092 91.1 68.9092 92.1C66.8092 93.1 64.4925 93.6 61.9592 93.6ZM94.2482 93.6C91.7149 93.6 89.4649 93.15 87.4982 92.25C85.5316 91.35 83.9982 90.0667 82.8982 88.4C81.7982 86.7333 81.2316 84.75 81.1982 82.45H87.5482C87.5482 83.6167 87.8149 84.6667 88.3482 85.6C88.9149 86.5 89.6816 87.2167 90.6482 87.75C91.6482 88.2833 92.8482 88.55 94.2482 88.55C95.4482 88.55 96.4816 88.3667 97.3482 88C98.2482 87.6 98.9316 87.05 99.3982 86.35C99.8982 85.6167 100.148 84.7667 100.148 83.8C100.148 82.7 99.8816 81.8 99.3482 81.1C98.8482 80.3667 98.1482 79.75 97.2482 79.25C96.3482 78.75 95.3149 78.3167 94.1482 77.95C92.9816 77.55 91.7482 77.1333 90.4482 76.7C87.6816 75.7667 85.5982 74.5833 84.1982 73.15C82.7982 71.6833 82.0982 69.7333 82.0982 67.3C82.0982 65.2667 82.5816 63.5167 83.5482 62.05C84.5149 60.5833 85.8649 59.45 87.5982 58.65C89.3649 57.8167 91.3982 57.4 93.6982 57.4C96.0316 57.4 98.0649 57.8167 99.7982 58.65C101.565 59.4833 102.948 60.65 103.948 62.15C104.982 63.6167 105.515 65.3833 105.548 67.45H99.1482C99.1149 66.5833 98.8816 65.7833 98.4482 65.05C98.0149 64.2833 97.3816 63.6667 96.5482 63.2C95.7482 62.7 94.7649 62.45 93.5982 62.45C92.5982 62.4167 91.6982 62.5833 90.8982 62.95C90.1316 63.2833 89.5149 63.7833 89.0482 64.45C88.6149 65.0833 88.3982 65.8833 88.3982 66.85C88.3982 67.7833 88.5982 68.5667 88.9982 69.2C89.4316 69.8 90.0482 70.3167 90.8482 70.75C91.6482 71.15 92.5816 71.5333 93.6482 71.9C94.7149 72.2667 95.8816 72.6667 97.1482 73.1C98.8816 73.6667 100.448 74.3667 101.848 75.2C103.282 76 104.415 77.05 105.248 78.35C106.082 79.65 106.498 81.3333 106.498 83.4C106.498 85.2 106.032 86.8833 105.098 88.45C104.165 89.9833 102.798 91.2333 100.998 92.2C99.1982 93.1333 96.9482 93.6 94.2482 93.6ZM112.332 93V58H123.632C127.699 58 131.049 58.7167 133.682 60.15C136.349 61.5833 138.316 63.6167 139.582 66.25C140.882 68.85 141.532 71.95 141.532 75.55C141.532 79.0833 140.882 82.1667 139.582 84.8C138.316 87.4 136.349 89.4167 133.682 90.85C131.049 92.2833 127.699 93 123.632 93H112.332ZM118.332 87.9H123.332C126.366 87.9 128.749 87.4167 130.482 86.45C132.249 85.45 133.499 84.0333 134.232 82.2C134.999 80.3333 135.382 78.1167 135.382 75.55C135.382 72.95 134.999 70.7333 134.232 68.9C133.499 67.0333 132.249 65.6 130.482 64.6C128.749 63.5667 126.366 63.05 123.332 63.05H118.332V87.9Z" fill="white"/>
</svg>
