<svg width="150" height="150" viewBox="0 0 150 150" fill="none" xmlns="http://www.w3.org/2000/svg">
<path fill-rule="evenodd" clip-rule="evenodd" d="M0 75C0 33.5786 33.5786 0 75 0C116.421 0 150 33.5786 150 75C150 116.421 116.421 150 75 150C33.5786 150 0 116.421 0 75ZM10.19 58C9.53274 58 9 58.5328 9 59.19V63.61C9 64.2672 9.53274 64.8 10.19 64.8H14.61C15.2673 64.8 15.8 65.3328 15.8 65.99V70.41C15.8 71.0673 15.2673 71.6 14.61 71.6H10.19C9.53274 71.6 9 72.1328 9 72.79V74.507C9 74.8312 9.12966 75.1252 9.34 75.3398L15.4602 81.46C15.6748 81.6703 15.9688 81.8 16.293 81.8H23.45C24.1073 81.8 24.64 82.3328 24.64 82.99V84.01C24.64 84.6673 24.1073 85.2 23.45 85.2H10.19C9.53274 85.2 9 85.7328 9 86.39V90.81C9 91.4672 9.53274 92 10.19 92H28.21C28.8673 92 29.4 91.4672 29.4 90.81V86.39C29.4 85.7327 29.9327 85.2 30.59 85.2H35.01C35.6673 85.2 36.2 85.7328 36.2 86.39V90.81C36.2 91.4672 36.7327 92 37.39 92H41.81C42.4673 92 43 91.4672 43 90.81V86.39C43 85.7328 42.4673 85.2 41.81 85.2H37.39C36.7327 85.2 36.2 84.6672 36.2 84.01V82.293C36.2 81.9688 36.0703 81.6748 35.86 81.4602L29.7398 75.34C29.5252 75.1297 29.2312 75 28.907 75H21.75C21.0927 75 20.56 74.4672 20.56 73.81V72.79C20.56 72.1327 21.0927 71.6 21.75 71.6H35.01C35.6673 71.6 36.2 71.0672 36.2 70.41V65.99C36.2 65.3328 35.6673 64.8 35.01 64.8H16.99C16.3327 64.8 15.8 64.2672 15.8 63.61V59.19C15.8 58.5328 15.2673 58 14.61 58H10.19ZM75.0001 14C99.39 14 120.437 28.3142 130.198 49H134.592C124.561 26.0432 101.654 10 75.0001 10C48.346 10 25.4389 26.0432 15.4087 49H19.8027C29.5635 28.3142 50.6102 14 75.0001 14ZM75.0001 136C50.6102 136 29.5635 121.686 19.8027 101H15.4087C25.4389 123.957 48.346 140 75.0001 140C101.654 140 124.561 123.957 134.592 101H130.198C120.437 121.686 99.39 136 75.0001 136Z" fill="#FB5108"/>
<path d="M64.0568 93.6C61.5235 93.6 59.2235 93.1 57.1568 92.1C55.1235 91.1 53.4902 89.5667 52.2568 87.5C51.0568 85.4333 50.4568 82.8333 50.4568 79.7V58H56.4568V79.75C56.4568 81.65 56.7735 83.2167 57.4068 84.45C58.0402 85.6833 58.9235 86.6167 60.0568 87.25C61.2235 87.85 62.5902 88.15 64.1568 88.15C65.7568 88.15 67.1235 87.85 68.2568 87.25C69.4235 86.6167 70.3068 85.6833 70.9068 84.45C71.5402 83.2167 71.8568 81.65 71.8568 79.75V58H77.8568V79.7C77.8568 82.8333 77.2402 85.4333 76.0068 87.5C74.7735 89.5667 73.1068 91.1 71.0068 92.1C68.9068 93.1 66.5902 93.6 64.0568 93.6ZM91.4959 93V80.4L79.8459 58H86.6459L95.1959 75.8H93.8959L102.446 58H109.196L97.4959 80.4V93H91.4959ZM124.754 93.6C122.221 93.6 119.921 93.1 117.854 92.1C115.821 91.1 114.187 89.5667 112.954 87.5C111.754 85.4333 111.154 82.8333 111.154 79.7V58H117.154V79.75C117.154 81.65 117.471 83.2167 118.104 84.45C118.737 85.6833 119.621 86.6167 120.754 87.25C121.921 87.85 123.287 88.15 124.854 88.15C126.454 88.15 127.821 87.85 128.954 87.25C130.121 86.6167 131.004 85.6833 131.604 84.45C132.237 83.2167 132.554 81.65 132.554 79.75V58H138.554V79.7C138.554 82.8333 137.937 85.4333 136.704 87.5C135.471 89.5667 133.804 91.1 131.704 92.1C129.604 93.1 127.287 93.6 124.754 93.6Z" fill="white"/>
</svg>
