<svg width="150" height="150" viewBox="0 0 150 150" fill="none" xmlns="http://www.w3.org/2000/svg">
<path fill-rule="evenodd" clip-rule="evenodd" d="M0 75C0 33.5786 33.5786 0 75 0C116.421 0 150 33.5786 150 75C150 116.421 116.421 150 75 150C33.5786 150 0 116.421 0 75ZM10.19 58C9.53274 58 9 58.5328 9 59.19V63.61C9 64.2672 9.53274 64.8 10.19 64.8H14.61C15.2673 64.8 15.8 65.3328 15.8 65.99V70.41C15.8 71.0673 15.2673 71.6 14.61 71.6H10.19C9.53274 71.6 9 72.1328 9 72.79V74.507C9 74.8312 9.12966 75.1252 9.34 75.3398L15.4602 81.46C15.6748 81.6703 15.9688 81.8 16.293 81.8H23.45C24.1073 81.8 24.64 82.3328 24.64 82.99V84.01C24.64 84.6673 24.1073 85.2 23.45 85.2H10.19C9.53274 85.2 9 85.7328 9 86.39V90.81C9 91.4672 9.53274 92 10.19 92H28.21C28.8673 92 29.4 91.4672 29.4 90.81V86.39C29.4 85.7327 29.9327 85.2 30.59 85.2H35.01C35.6673 85.2 36.2 85.7328 36.2 86.39V90.81C36.2 91.4672 36.7327 92 37.39 92H41.81C42.4673 92 43 91.4672 43 90.81V86.39C43 85.7328 42.4673 85.2 41.81 85.2H37.39C36.7327 85.2 36.2 84.6672 36.2 84.01V82.293C36.2 81.9688 36.0703 81.6748 35.86 81.4602L29.7398 75.34C29.5252 75.1297 29.2312 75 28.907 75H21.75C21.0927 75 20.56 74.4672 20.56 73.81V72.79C20.56 72.1327 21.0927 71.6 21.75 71.6H35.01C35.6673 71.6 36.2 71.0672 36.2 70.41V65.99C36.2 65.3328 35.6673 64.8 35.01 64.8H16.99C16.3327 64.8 15.8 64.2672 15.8 63.61V59.19C15.8 58.5328 15.2673 58 14.61 58H10.19ZM75.0001 14C99.39 14 120.437 28.3142 130.198 49H134.592C124.561 26.0432 101.654 10 75.0001 10C48.346 10 25.4389 26.0432 15.4087 49H19.8027C29.5635 28.3142 50.6102 14 75.0001 14ZM75.0001 136C50.6102 136 29.5635 121.686 19.8027 101H15.4087C25.4389 123.957 48.346 140 75.0001 140C101.654 140 124.561 123.957 134.592 101H130.198C120.437 121.686 99.39 136 75.0001 136Z" fill="#FB5108"/>
<path d="M64.8039 93.6C62.2706 93.6 59.9706 93.1 57.9039 92.1C55.8706 91.1 54.2372 89.5667 53.0039 87.5C51.8039 85.4333 51.2039 82.8333 51.2039 79.7V58H57.2039V79.75C57.2039 81.65 57.5206 83.2167 58.1539 84.45C58.7872 85.6833 59.6706 86.6167 60.8039 87.25C61.9706 87.85 63.3372 88.15 64.9039 88.15C66.5039 88.15 67.8706 87.85 69.0039 87.25C70.1706 86.6167 71.0539 85.6833 71.6539 84.45C72.2872 83.2167 72.6039 81.65 72.6039 79.75V58H78.6039V79.7C78.6039 82.8333 77.9872 85.4333 76.7539 87.5C75.5206 89.5667 73.8539 91.1 71.7539 92.1C69.6539 93.1 67.3372 93.6 64.8039 93.6ZM84.193 93V88.4L100.693 63.05H84.293V58H107.643V62.6L91.043 87.95H107.743V93H84.193ZM125.462 93.6C122.929 93.6 120.679 93.15 118.712 92.25C116.745 91.35 115.212 90.0667 114.112 88.4C113.012 86.7333 112.445 84.75 112.412 82.45H118.762C118.762 83.6167 119.029 84.6667 119.562 85.6C120.129 86.5 120.895 87.2167 121.862 87.75C122.862 88.2833 124.062 88.55 125.462 88.55C126.662 88.55 127.695 88.3667 128.562 88C129.462 87.6 130.145 87.05 130.612 86.35C131.112 85.6167 131.362 84.7667 131.362 83.8C131.362 82.7 131.095 81.8 130.562 81.1C130.062 80.3667 129.362 79.75 128.462 79.25C127.562 78.75 126.529 78.3167 125.362 77.95C124.195 77.55 122.962 77.1333 121.662 76.7C118.895 75.7667 116.812 74.5833 115.412 73.15C114.012 71.6833 113.312 69.7333 113.312 67.3C113.312 65.2667 113.795 63.5167 114.762 62.05C115.729 60.5833 117.079 59.45 118.812 58.65C120.579 57.8167 122.612 57.4 124.912 57.4C127.245 57.4 129.279 57.8167 131.012 58.65C132.779 59.4833 134.162 60.65 135.162 62.15C136.195 63.6167 136.729 65.3833 136.762 67.45H130.362C130.329 66.5833 130.095 65.7833 129.662 65.05C129.229 64.2833 128.595 63.6667 127.762 63.2C126.962 62.7 125.979 62.45 124.812 62.45C123.812 62.4167 122.912 62.5833 122.112 62.95C121.345 63.2833 120.729 63.7833 120.262 64.45C119.829 65.0833 119.612 65.8833 119.612 66.85C119.612 67.7833 119.812 68.5667 120.212 69.2C120.645 69.8 121.262 70.3167 122.062 70.75C122.862 71.15 123.795 71.5333 124.862 71.9C125.929 72.2667 127.095 72.6667 128.362 73.1C130.095 73.6667 131.662 74.3667 133.062 75.2C134.495 76 135.629 77.05 136.462 78.35C137.295 79.65 137.712 81.3333 137.712 83.4C137.712 85.2 137.245 86.8833 136.312 88.45C135.379 89.9833 134.012 91.2333 132.212 92.2C130.412 93.1333 128.162 93.6 125.462 93.6Z" fill="white"/>
</svg>
