<svg width="150" height="150" viewBox="0 0 150 150" fill="none" xmlns="http://www.w3.org/2000/svg">
<path fill-rule="evenodd" clip-rule="evenodd" d="M0 75C0 33.5786 33.5786 0 75 0C116.421 0 150 33.5786 150 75C150 116.421 116.421 150 75 150C33.5786 150 0 116.421 0 75ZM10.19 58C9.53274 58 9 58.5328 9 59.19V63.61C9 64.2672 9.53274 64.8 10.19 64.8H14.61C15.2673 64.8 15.8 65.3328 15.8 65.99V70.41C15.8 71.0673 15.2673 71.6 14.61 71.6H10.19C9.53274 71.6 9 72.1328 9 72.79V74.507C9 74.8312 9.12966 75.1252 9.34 75.3398L15.4602 81.46C15.6748 81.6703 15.9688 81.8 16.293 81.8H23.45C24.1073 81.8 24.64 82.3328 24.64 82.99V84.01C24.64 84.6673 24.1073 85.2 23.45 85.2H10.19C9.53274 85.2 9 85.7328 9 86.39V90.81C9 91.4672 9.53274 92 10.19 92H28.21C28.8673 92 29.4 91.4672 29.4 90.81V86.39C29.4 85.7327 29.9327 85.2 30.59 85.2H35.01C35.6673 85.2 36.2 85.7328 36.2 86.39V90.81C36.2 91.4672 36.7327 92 37.39 92H41.81C42.4673 92 43 91.4672 43 90.81V86.39C43 85.7328 42.4673 85.2 41.81 85.2H37.39C36.7327 85.2 36.2 84.6672 36.2 84.01V82.293C36.2 81.9688 36.0703 81.6748 35.86 81.4602L29.7398 75.34C29.5252 75.1297 29.2312 75 28.907 75H21.75C21.0927 75 20.56 74.4672 20.56 73.81V72.79C20.56 72.1327 21.0927 71.6 21.75 71.6H35.01C35.6673 71.6 36.2 71.0672 36.2 70.41V65.99C36.2 65.3328 35.6673 64.8 35.01 64.8H16.99C16.3327 64.8 15.8 64.2672 15.8 63.61V59.19C15.8 58.5328 15.2673 58 14.61 58H10.19ZM75.0001 14C99.39 14 120.437 28.3142 130.198 49H134.592C124.561 26.0432 101.654 10 75.0001 10C48.346 10 25.4389 26.0432 15.4087 49H19.8027C29.5635 28.3142 50.6102 14 75.0001 14ZM75.0001 136C50.6102 136 29.5635 121.686 19.8027 101H15.4087C25.4389 123.957 48.346 140 75.0001 140C101.654 140 124.561 123.957 134.592 101H130.198C120.437 121.686 99.39 136 75.0001 136Z" fill="#FB5108"/>
<path d="M60.9471 93L48.0971 58H54.5471L64.5971 86.85L74.7971 58H81.1471L68.2471 93H60.9471ZM85.5627 93V58H108.163V62.85H91.5627V72.9H106.663V77.65H91.5627V88.15H108.163V93H85.5627ZM126.219 93.6C123.686 93.6 121.436 93.15 119.469 92.25C117.502 91.35 115.969 90.0667 114.869 88.4C113.769 86.7333 113.202 84.75 113.169 82.45H119.519C119.519 83.6167 119.786 84.6667 120.319 85.6C120.886 86.5 121.652 87.2167 122.619 87.75C123.619 88.2833 124.819 88.55 126.219 88.55C127.419 88.55 128.452 88.3667 129.319 88C130.219 87.6 130.902 87.05 131.369 86.35C131.869 85.6167 132.119 84.7667 132.119 83.8C132.119 82.7 131.852 81.8 131.319 81.1C130.819 80.3667 130.119 79.75 129.219 79.25C128.319 78.75 127.286 78.3167 126.119 77.95C124.952 77.55 123.719 77.1333 122.419 76.7C119.652 75.7667 117.569 74.5833 116.169 73.15C114.769 71.6833 114.069 69.7333 114.069 67.3C114.069 65.2667 114.552 63.5167 115.519 62.05C116.486 60.5833 117.836 59.45 119.569 58.65C121.336 57.8167 123.369 57.4 125.669 57.4C128.002 57.4 130.036 57.8167 131.769 58.65C133.536 59.4833 134.919 60.65 135.919 62.15C136.952 63.6167 137.486 65.3833 137.519 67.45H131.119C131.086 66.5833 130.852 65.7833 130.419 65.05C129.986 64.2833 129.352 63.6667 128.519 63.2C127.719 62.7 126.736 62.45 125.569 62.45C124.569 62.4167 123.669 62.5833 122.869 62.95C122.102 63.2833 121.486 63.7833 121.019 64.45C120.586 65.0833 120.369 65.8833 120.369 66.85C120.369 67.7833 120.569 68.5667 120.969 69.2C121.402 69.8 122.019 70.3167 122.819 70.75C123.619 71.15 124.552 71.5333 125.619 71.9C126.686 72.2667 127.852 72.6667 129.119 73.1C130.852 73.6667 132.419 74.3667 133.819 75.2C135.252 76 136.386 77.05 137.219 78.35C138.052 79.65 138.469 81.3333 138.469 83.4C138.469 85.2 138.002 86.8833 137.069 88.45C136.136 89.9833 134.769 91.2333 132.969 92.2C131.169 93.1333 128.919 93.6 126.219 93.6Z" fill="white"/>
</svg>
