<svg width="150" height="150" viewBox="0 0 150 150" fill="none" xmlns="http://www.w3.org/2000/svg">
<path fill-rule="evenodd" clip-rule="evenodd" d="M0 75C0 33.5786 33.5786 0 75 0C116.421 0 150 33.5786 150 75C150 116.421 116.421 150 75 150C33.5786 150 0 116.421 0 75ZM10.19 58C9.53274 58 9 58.5328 9 59.19V63.61C9 64.2672 9.53274 64.8 10.19 64.8H14.61C15.2673 64.8 15.8 65.3328 15.8 65.99V70.41C15.8 71.0673 15.2673 71.6 14.61 71.6H10.19C9.53274 71.6 9 72.1328 9 72.79V74.507C9 74.8312 9.12966 75.1252 9.34 75.3398L15.4602 81.46C15.6748 81.6703 15.9688 81.8 16.293 81.8H23.45C24.1073 81.8 24.64 82.3328 24.64 82.99V84.01C24.64 84.6673 24.1073 85.2 23.45 85.2H10.19C9.53274 85.2 9 85.7328 9 86.39V90.81C9 91.4672 9.53274 92 10.19 92H28.21C28.8673 92 29.4 91.4672 29.4 90.81V86.39C29.4 85.7327 29.9327 85.2 30.59 85.2H35.01C35.6673 85.2 36.2 85.7328 36.2 86.39V90.81C36.2 91.4672 36.7327 92 37.39 92H41.81C42.4673 92 43 91.4672 43 90.81V86.39C43 85.7328 42.4673 85.2 41.81 85.2H37.39C36.7327 85.2 36.2 84.6672 36.2 84.01V82.293C36.2 81.9688 36.0703 81.6748 35.86 81.4602L29.7398 75.34C29.5252 75.1297 29.2312 75 28.907 75H21.75C21.0927 75 20.56 74.4672 20.56 73.81V72.79C20.56 72.1327 21.0927 71.6 21.75 71.6H35.01C35.6673 71.6 36.2 71.0672 36.2 70.41V65.99C36.2 65.3328 35.6673 64.8 35.01 64.8H16.99C16.3327 64.8 15.8 64.2672 15.8 63.61V59.19C15.8 58.5328 15.2673 58 14.61 58H10.19ZM75.0001 14C99.39 14 120.437 28.3142 130.198 49H134.592C124.561 26.0432 101.654 10 75.0001 10C48.346 10 25.4389 26.0432 15.4087 49H19.8027C29.5635 28.3142 50.6102 14 75.0001 14ZM75.0001 136C50.6102 136 29.5635 121.686 19.8027 101H15.4087C25.4389 123.957 48.346 140 75.0001 140C101.654 140 124.561 123.957 134.592 101H130.198C120.437 121.686 99.39 136 75.0001 136Z" fill="#FB5108"/>
<path d="M53.9112 92L45.3552 59.8H51.2432L57.2692 85.698L64.2612 59.8H70.3792L77.1412 85.744L83.2132 59.8H89.1472L80.3612 92H73.8292L67.2052 67.62L60.3972 92H53.9112ZM103.921 92.552C101.59 92.552 99.5201 92.138 97.7107 91.31C95.9014 90.482 94.4907 89.3013 93.4787 87.768C92.4667 86.2347 91.9454 84.41 91.9147 82.294H97.7567C97.7567 83.3673 98.0021 84.3333 98.4927 85.192C99.0141 86.02 99.7194 86.6793 100.609 87.17C101.529 87.6607 102.633 87.906 103.921 87.906C105.025 87.906 105.975 87.7373 106.773 87.4C107.601 87.032 108.229 86.526 108.659 85.882C109.119 85.2073 109.349 84.4253 109.349 83.536C109.349 82.524 109.103 81.696 108.613 81.052C108.153 80.3773 107.509 79.81 106.681 79.35C105.853 78.89 104.902 78.4913 103.829 78.154C102.755 77.786 101.621 77.4027 100.425 77.004C97.8794 76.1453 95.9627 75.0567 94.6747 73.738C93.3867 72.3887 92.7427 70.5947 92.7427 68.356C92.7427 66.4853 93.1874 64.8753 94.0767 63.526C94.9661 62.1767 96.2081 61.134 97.8027 60.398C99.4281 59.6313 101.299 59.248 103.415 59.248C105.561 59.248 107.432 59.6313 109.027 60.398C110.652 61.1647 111.925 62.238 112.845 63.618C113.795 64.9673 114.286 66.5927 114.317 68.494H108.429C108.398 67.6967 108.183 66.9607 107.785 66.286C107.386 65.5807 106.803 65.0133 106.037 64.584C105.301 64.124 104.396 63.894 103.323 63.894C102.403 63.8633 101.575 64.0167 100.839 64.354C100.133 64.6607 99.5661 65.1207 99.1367 65.734C98.7381 66.3167 98.5387 67.0527 98.5387 67.942C98.5387 68.8007 98.7227 69.5213 99.0907 70.104C99.4894 70.656 100.057 71.1313 100.793 71.53C101.529 71.898 102.387 72.2507 103.369 72.588C104.35 72.9253 105.423 73.2933 106.589 73.692C108.183 74.2133 109.625 74.8573 110.913 75.624C112.231 76.36 113.274 77.326 114.041 78.522C114.807 79.718 115.191 81.2667 115.191 83.168C115.191 84.824 114.761 86.3727 113.903 87.814C113.044 89.2247 111.787 90.3747 110.131 91.264C108.475 92.1227 106.405 92.552 103.921 92.552ZM127.607 92V64.262H118.131V59.8H142.557V64.262H133.081V92H127.607Z" fill="white"/>
</svg>
