<svg width="150" height="150" viewBox="0 0 150 150" fill="none" xmlns="http://www.w3.org/2000/svg">
<path fill-rule="evenodd" clip-rule="evenodd" d="M0 75C0 33.5786 33.5786 0 75 0C116.421 0 150 33.5786 150 75C150 116.421 116.421 150 75 150C33.5786 150 0 116.421 0 75ZM10.19 58C9.53274 58 9 58.5328 9 59.19V63.61C9 64.2672 9.53274 64.8 10.19 64.8H14.61C15.2673 64.8 15.8 65.3328 15.8 65.99V70.41C15.8 71.0673 15.2673 71.6 14.61 71.6H10.19C9.53274 71.6 9 72.1328 9 72.79V74.507C9 74.8312 9.12966 75.1252 9.34 75.3398L15.4602 81.46C15.6748 81.6703 15.9688 81.8 16.293 81.8H23.45C24.1073 81.8 24.64 82.3328 24.64 82.99V84.01C24.64 84.6673 24.1073 85.2 23.45 85.2H10.19C9.53274 85.2 9 85.7328 9 86.39V90.81C9 91.4672 9.53274 92 10.19 92H28.21C28.8673 92 29.4 91.4672 29.4 90.81V86.39C29.4 85.7327 29.9327 85.2 30.59 85.2H35.01C35.6673 85.2 36.2 85.7328 36.2 86.39V90.81C36.2 91.4672 36.7327 92 37.39 92H41.81C42.4673 92 43 91.4672 43 90.81V86.39C43 85.7328 42.4673 85.2 41.81 85.2H37.39C36.7327 85.2 36.2 84.6672 36.2 84.01V82.293C36.2 81.9688 36.0703 81.6748 35.86 81.4602L29.7398 75.34C29.5252 75.1297 29.2312 75 28.907 75H21.75C21.0927 75 20.56 74.4672 20.56 73.81V72.79C20.56 72.1327 21.0927 71.6 21.75 71.6H35.01C35.6673 71.6 36.2 71.0672 36.2 70.41V65.99C36.2 65.3328 35.6673 64.8 35.01 64.8H16.99C16.3327 64.8 15.8 64.2672 15.8 63.61V59.19C15.8 58.5328 15.2673 58 14.61 58H10.19ZM75.0001 14C99.39 14 120.437 28.3142 130.198 49H134.592C124.561 26.0432 101.654 10 75.0001 10C48.346 10 25.4389 26.0432 15.4087 49H19.8027C29.5635 28.3142 50.6102 14 75.0001 14ZM75.0001 136C50.6102 136 29.5635 121.686 19.8027 101H15.4087C25.4389 123.957 48.346 140 75.0001 140C101.654 140 124.561 123.957 134.592 101H130.198C120.437 121.686 99.39 136 75.0001 136Z" fill="#FB5108"/>
<path d="M46.8955 93L57.7955 75.3L46.7955 58H53.6955L61.6455 70.55L68.9955 58H75.7955L64.8955 75.55L75.9955 93H69.0955L61.0455 80.3L53.6955 93H46.8955ZM92.2748 93.6C88.8081 93.6 85.8081 92.85 83.2748 91.35C80.7748 89.8167 78.8415 87.7 77.4748 85C76.1415 82.2667 75.4748 79.1167 75.4748 75.55C75.4748 71.95 76.1415 68.8 77.4748 66.1C78.8415 63.3667 80.7748 61.2333 83.2748 59.7C85.8081 58.1667 88.8081 57.4 92.2748 57.4C96.4415 57.4 99.8415 58.4333 102.475 60.5C105.108 62.5333 106.775 65.4167 107.475 69.15H100.875C100.408 67.1833 99.4581 65.6333 98.0248 64.5C96.5915 63.3667 94.6581 62.8 92.2248 62.8C90.0248 62.8 88.1248 63.3167 86.5248 64.35C84.9581 65.35 83.7415 66.8167 82.8748 68.75C82.0415 70.65 81.6248 72.9167 81.6248 75.55C81.6248 78.1833 82.0415 80.45 82.8748 82.35C83.7415 84.2167 84.9581 85.6667 86.5248 86.7C88.1248 87.7 90.0248 88.2 92.2248 88.2C94.6581 88.2 96.5915 87.6833 98.0248 86.65C99.4581 85.5833 100.408 84.1167 100.875 82.25H107.475C106.808 85.7833 105.141 88.5667 102.475 90.6C99.8415 92.6 96.4415 93.6 92.2748 93.6ZM111.346 93V58H122.646C126.713 58 130.063 58.7167 132.696 60.15C135.363 61.5833 137.329 63.6167 138.596 66.25C139.896 68.85 140.546 71.95 140.546 75.55C140.546 79.0833 139.896 82.1667 138.596 84.8C137.329 87.4 135.363 89.4167 132.696 90.85C130.063 92.2833 126.713 93 122.646 93H111.346ZM117.346 87.9H122.346C125.379 87.9 127.763 87.4167 129.496 86.45C131.263 85.45 132.513 84.0333 133.246 82.2C134.013 80.3333 134.396 78.1167 134.396 75.55C134.396 72.95 134.013 70.7333 133.246 68.9C132.513 67.0333 131.263 65.6 129.496 64.6C127.763 63.5667 125.379 63.05 122.346 63.05H117.346V87.9Z" fill="white"/>
</svg>
