<svg width="150" height="150" viewBox="0 0 150 150" fill="none" xmlns="http://www.w3.org/2000/svg">
<path fill-rule="evenodd" clip-rule="evenodd" d="M0 75C0 33.5786 33.5786 0 75 0C116.421 0 150 33.5786 150 75C150 116.421 116.421 150 75 150C33.5786 150 0 116.421 0 75ZM10.19 58C9.53274 58 9 58.5328 9 59.19V63.61C9 64.2672 9.53274 64.8 10.19 64.8H14.61C15.2673 64.8 15.8 65.3328 15.8 65.99V70.41C15.8 71.0673 15.2673 71.6 14.61 71.6H10.19C9.53274 71.6 9 72.1328 9 72.79V74.507C9 74.8312 9.12966 75.1252 9.34 75.3398L15.4602 81.46C15.6748 81.6703 15.9688 81.8 16.293 81.8H23.45C24.1073 81.8 24.64 82.3328 24.64 82.99V84.01C24.64 84.6673 24.1073 85.2 23.45 85.2H10.19C9.53274 85.2 9 85.7328 9 86.39V90.81C9 91.4672 9.53274 92 10.19 92H28.21C28.8673 92 29.4 91.4672 29.4 90.81V86.39C29.4 85.7327 29.9327 85.2 30.59 85.2H35.01C35.6673 85.2 36.2 85.7328 36.2 86.39V90.81C36.2 91.4672 36.7327 92 37.39 92H41.81C42.4673 92 43 91.4672 43 90.81V86.39C43 85.7328 42.4673 85.2 41.81 85.2H37.39C36.7327 85.2 36.2 84.6672 36.2 84.01V82.293C36.2 81.9688 36.0703 81.6748 35.86 81.4602L29.7398 75.34C29.5252 75.1297 29.2312 75 28.907 75H21.75C21.0927 75 20.56 74.4672 20.56 73.81V72.79C20.56 72.1327 21.0927 71.6 21.75 71.6H35.01C35.6673 71.6 36.2 71.0672 36.2 70.41V65.99C36.2 65.3328 35.6673 64.8 35.01 64.8H16.99C16.3327 64.8 15.8 64.2672 15.8 63.61V59.19C15.8 58.5328 15.2673 58 14.61 58H10.19ZM75.0001 14C99.39 14 120.437 28.3142 130.198 49H134.592C124.561 26.0432 101.654 10 75.0001 10C48.346 10 25.4389 26.0432 15.4087 49H19.8027C29.5635 28.3142 50.6102 14 75.0001 14ZM75.0001 136C50.6102 136 29.5635 121.686 19.8027 101H15.4087C25.4389 123.957 48.346 140 75.0001 140C101.654 140 124.561 123.957 134.592 101H130.198C120.437 121.686 99.39 136 75.0001 136Z" fill="#FB5108"/>
<path d="M47.959 93L58.859 75.3L47.859 58H54.759L62.709 70.55L70.059 58H76.859L65.959 75.55L77.059 93H70.159L62.109 80.3L54.759 93H47.959ZM95.7383 93.6C92.3716 93.6 89.3883 92.85 86.7883 91.35C84.2216 89.8167 82.2049 87.7 80.7383 85C79.2716 82.2667 78.5383 79.1 78.5383 75.5C78.5383 71.9333 79.2716 68.8 80.7383 66.1C82.2049 63.3667 84.2216 61.2333 86.7883 59.7C89.3883 58.1667 92.3716 57.4 95.7383 57.4C99.1716 57.4 102.188 58.1667 104.788 59.7C107.388 61.2333 109.405 63.3667 110.838 66.1C112.272 68.8 112.988 71.9333 112.988 75.5C112.988 79.1 112.272 82.2667 110.838 85C109.405 87.7 107.388 89.8167 104.788 91.35C102.188 92.85 99.1716 93.6 95.7383 93.6ZM95.7883 88.2C98.0216 88.2 99.9716 87.7 101.638 86.7C103.305 85.6667 104.588 84.2 105.488 82.3C106.388 80.4 106.838 78.1333 106.838 75.5C106.838 72.8667 106.388 70.6 105.488 68.7C104.588 66.8 103.305 65.35 101.638 64.35C99.9716 63.3167 98.0216 62.8 95.7883 62.8C93.5549 62.8 91.6049 63.3167 89.9383 64.35C88.2716 65.35 86.9716 66.8 86.0383 68.7C85.1383 70.6 84.6883 72.8667 84.6883 75.5C84.6883 78.1333 85.1383 80.4 86.0383 82.3C86.9716 84.2 88.2716 85.6667 89.9383 86.7C91.6049 87.7 93.5549 88.2 95.7883 88.2ZM118.851 93V58H141.201V62.85H124.851V73.1H138.201V77.85H124.851V93H118.851Z" fill="white"/>
</svg>
